M48
; DRILL file KiCad 10.0.1 date 2026-05-26T19:56:58
; FORMAT={-:-/ absolute / inch / decimal}
; #@! TF.CreationDate,2026-05-26T19:56:58-05:00
; #@! TF.GenerationSoftware,Kicad,Pcbnew,10.0.1
; #@! TF.FileFunction,Plated,1,4,PTH
FMAT,2
INCH
; #@! TA.AperFunction,Plated,PTH,ViaDrill
T1C0.0118
; #@! TA.AperFunction,Plated,PTH,ComponentDrill
T2C0.0236
; #@! TA.AperFunction,Plated,PTH,ComponentDrill
T3C0.0276
; #@! TA.AperFunction,Plated,PTH,ComponentDrill
T4C0.0394
; #@! TA.AperFunction,Plated,PTH,ComponentDrill
T5C0.0433
; #@! TA.AperFunction,Plated,PTH,ComponentDrill
T6C0.0551
; #@! TA.AperFunction,Plated,PTH,ComponentDrill
T7C0.0787
%
G90
G05
T1
X3.22Y-3.75
X3.458Y-3.578
X3.47Y-3.415
X3.47Y-3.49
X3.585Y-3.36
X3.585Y-3.52
X3.685Y-3.93
X3.715Y-2.75
X3.716Y-3.612
X3.745Y-3.44
X3.745Y-3.48
X3.7594Y-4.4467
X3.7594Y-4.6967
X3.765Y-2.75
X3.785Y-3.44
X3.785Y-3.48
X3.7994Y-4.4467
X3.7994Y-4.6967
X3.8Y-2.335
X3.8Y-2.375
X3.8Y-3.275
X3.8Y-3.315
X3.81Y-3.35
X3.82Y-3.44
X3.82Y-3.48
X3.8394Y-4.4467
X3.8394Y-4.6967
X3.84Y-2.335
X3.84Y-2.375
X3.85Y-3.35
X3.855Y-2.98
X3.875Y-2.335
X3.875Y-2.375
X3.8794Y-4.4467
X3.8794Y-4.6967
X3.89Y-3.35
X3.9Y-3.275
X3.9Y-3.315
X3.925Y-2.335
X3.925Y-2.375
X3.965Y-2.335
X3.965Y-2.375
X3.9747Y-3.832
X4.1Y-2.975
X4.115Y-3.255
X4.183Y-3.71
X4.25Y-3.335
X4.3Y-3.23
X4.3Y-3.3661
X4.315Y-2.93
X4.315Y-3.015
X4.32Y-3.87
X4.323Y-3.338
X4.34Y-3.71
X4.36Y-3.59
X4.41Y-3.105
X4.421Y-3.877
X4.43Y-3.275
X4.46Y-3.475
X4.465Y-3.23
X4.485Y-3.105
X4.575Y-3.585
X4.5762Y-3.9042
X4.595Y-2.625
X4.596Y-3.112
X4.6Y-3.555
X4.681Y-3.8346
X4.72Y-3.55
X4.772Y-3.553
X4.78Y-3.02
X4.795Y-2.62
X4.882Y-3.092
X4.885Y-3.48
X4.913Y-3.248
X4.94Y-3.11
X5.099Y-3.975
X5.24Y-3.8
X5.2431Y-3.294
X5.259Y-3.869
X5.5595Y-3.6505
X5.62Y-3.24
X5.64Y-3.325
X5.8989Y-3.68
X6.002Y-3.983
X6.2091Y-3.39
T3
X3.3732Y-3.3382
X3.3732Y-3.5657
T4
X3.3465Y-2.6378
X3.3465Y-2.7953
X3.3465Y-2.9528
X3.511Y-4.058
X4.19Y-2.815
X4.19Y-3.1299
X5.0072Y-3.6888
X5.055Y-3.23
X5.1776Y-4.56
X5.6989Y-3.8386
X5.7989Y-3.8386
X5.8989Y-3.8386
X5.9989Y-3.8386
T5
X4.185Y-2.555
X4.285Y-2.555
X4.385Y-2.555
X4.485Y-2.555
T6
X5.1225Y-2.5065
X5.3225Y-2.5065
X5.5225Y-2.5065
X5.9162Y-2.5065
X6.1162Y-2.5065
X6.3162Y-2.5065
T7
X5.4159Y-3.8583
X5.4159Y-4.7244
X6.282Y-3.8583
X6.282Y-4.7244
T2
G00X3.2402Y-3.2819
M15
G01X3.2165Y-3.2819
M16
G05
G00X3.2402Y-3.622
M15
G01X3.2165Y-3.622
M16
G05
G00X3.4118Y-3.2819
M15
G01X3.3764Y-3.2819
M16
G05
G00X3.4118Y-3.622
M15
G01X3.3764Y-3.622
M16
G05
M30
