%TF.GenerationSoftware,KiCad,Pcbnew,10.0.1*%
%TF.CreationDate,2026-05-26T19:56:58-05:00*%
%TF.ProjectId,clock,636c6f63-6b2e-46b6-9963-61645f706362,rev?*%
%TF.SameCoordinates,Original*%
%TF.FileFunction,Legend,Top*%
%TF.FilePolarity,Positive*%
%FSLAX46Y46*%
G04 Gerber Fmt 4.6, Leading zero omitted, Abs format (unit mm)*
G04 Created by KiCad (PCBNEW 10.0.1) date 2026-05-26 19:56:58*
%MOMM*%
%LPD*%
G01*
G04 APERTURE LIST*
G04 Aperture macros list*
%AMRoundRect*
0 Rectangle with rounded corners*
0 $1 Rounding radius*
0 $2 $3 $4 $5 $6 $7 $8 $9 X,Y pos of 4 corners*
0 Add a 4 corners polygon primitive as box body*
4,1,4,$2,$3,$4,$5,$6,$7,$8,$9,$2,$3,0*
0 Add four circle primitives for the rounded corners*
1,1,$1+$1,$2,$3*
1,1,$1+$1,$4,$5*
1,1,$1+$1,$6,$7*
1,1,$1+$1,$8,$9*
0 Add four rect primitives between the rounded corners*
20,1,$1+$1,$2,$3,$4,$5,0*
20,1,$1+$1,$4,$5,$6,$7,0*
20,1,$1+$1,$6,$7,$8,$9,0*
20,1,$1+$1,$8,$9,$2,$3,0*%
G04 Aperture macros list end*
%ADD10C,0.203200*%
%ADD11C,0.100000*%
%ADD12C,0.150000*%
%ADD13C,0.250000*%
%ADD14C,0.060000*%
%ADD15C,0.120000*%
%ADD16C,0.000000*%
%ADD17C,0.381000*%
%ADD18C,0.200000*%
%ADD19C,0.450000*%
%ADD20C,0.400000*%
%ADD21C,0.127000*%
%ADD22C,0.300000*%
%ADD23C,0.700000*%
%ADD24R,1.100000X0.550000*%
%ADD25R,1.100000X0.300000*%
%ADD26O,2.000000X1.100000*%
%ADD27O,1.800000X1.200000*%
%ADD28R,0.810000X0.860000*%
%ADD29R,0.860000X0.810000*%
%ADD30R,0.900000X0.800000*%
%ADD31C,2.000000*%
%ADD32R,1.100000X1.000000*%
%ADD33R,0.800000X0.900000*%
%ADD34R,1.900000X2.400000*%
%ADD35C,3.200000*%
%ADD36R,1.400000X1.000000*%
%ADD37R,1.070000X0.600000*%
%ADD38R,1.350000X1.410000*%
%ADD39R,0.700000X1.250000*%
%ADD40RoundRect,0.102000X-0.754000X-0.754000X0.754000X-0.754000X0.754000X0.754000X-0.754000X0.754000X0*%
%ADD41C,1.712000*%
%ADD42C,3.204000*%
%ADD43O,0.270000X1.500000*%
%ADD44O,1.500000X0.270000*%
%ADD45R,1.700000X1.700000*%
%ADD46C,1.700000*%
%ADD47R,4.200000X3.800000*%
%ADD48R,1.300000X1.400000*%
%ADD49RoundRect,0.250000X1.050000X1.050000X-1.050000X1.050000X-1.050000X-1.050000X1.050000X-1.050000X0*%
%ADD50C,2.600000*%
%ADD51R,0.532000X1.040000*%
%ADD52R,0.700000X0.250000*%
%ADD53R,1.100000X1.800000*%
%ADD54R,1.800000X1.000000*%
%ADD55R,0.550000X0.450000*%
%ADD56R,0.762000X1.600000*%
%ADD57O,1.950000X0.570000*%
%ADD58R,2.100000X1.000000*%
%ADD59O,0.900000X0.280000*%
%ADD60O,0.280000X0.900000*%
%ADD61R,3.200000X3.200000*%
%ADD62R,1.860000X1.230000*%
%ADD63R,1.250000X1.000000*%
G04 APERTURE END LIST*
D10*
X126619000Y-56134000D02*
X163957000Y-56134000D01*
X163957000Y-79248000D01*
X126619000Y-79248000D01*
X126619000Y-56134000D01*
D11*
X80472646Y-70373419D02*
X81091693Y-70373419D01*
X81091693Y-70373419D02*
X80758360Y-70754371D01*
X80758360Y-70754371D02*
X80901217Y-70754371D01*
X80901217Y-70754371D02*
X80996455Y-70801990D01*
X80996455Y-70801990D02*
X81044074Y-70849609D01*
X81044074Y-70849609D02*
X81091693Y-70944847D01*
X81091693Y-70944847D02*
X81091693Y-71182942D01*
X81091693Y-71182942D02*
X81044074Y-71278180D01*
X81044074Y-71278180D02*
X80996455Y-71325800D01*
X80996455Y-71325800D02*
X80901217Y-71373419D01*
X80901217Y-71373419D02*
X80615503Y-71373419D01*
X80615503Y-71373419D02*
X80520265Y-71325800D01*
X80520265Y-71325800D02*
X80472646Y-71278180D01*
X81520265Y-71278180D02*
X81567884Y-71325800D01*
X81567884Y-71325800D02*
X81520265Y-71373419D01*
X81520265Y-71373419D02*
X81472646Y-71325800D01*
X81472646Y-71325800D02*
X81520265Y-71278180D01*
X81520265Y-71278180D02*
X81520265Y-71373419D01*
X81901217Y-70373419D02*
X82520264Y-70373419D01*
X82520264Y-70373419D02*
X82186931Y-70754371D01*
X82186931Y-70754371D02*
X82329788Y-70754371D01*
X82329788Y-70754371D02*
X82425026Y-70801990D01*
X82425026Y-70801990D02*
X82472645Y-70849609D01*
X82472645Y-70849609D02*
X82520264Y-70944847D01*
X82520264Y-70944847D02*
X82520264Y-71182942D01*
X82520264Y-71182942D02*
X82472645Y-71278180D01*
X82472645Y-71278180D02*
X82425026Y-71325800D01*
X82425026Y-71325800D02*
X82329788Y-71373419D01*
X82329788Y-71373419D02*
X82044074Y-71373419D01*
X82044074Y-71373419D02*
X81948836Y-71325800D01*
X81948836Y-71325800D02*
X81901217Y-71278180D01*
X82805979Y-70373419D02*
X83139312Y-71373419D01*
X83139312Y-71373419D02*
X83472645Y-70373419D01*
X81345693Y-66484038D02*
X81250455Y-66436419D01*
X81250455Y-66436419D02*
X81107598Y-66436419D01*
X81107598Y-66436419D02*
X80964741Y-66484038D01*
X80964741Y-66484038D02*
X80869503Y-66579276D01*
X80869503Y-66579276D02*
X80821884Y-66674514D01*
X80821884Y-66674514D02*
X80774265Y-66864990D01*
X80774265Y-66864990D02*
X80774265Y-67007847D01*
X80774265Y-67007847D02*
X80821884Y-67198323D01*
X80821884Y-67198323D02*
X80869503Y-67293561D01*
X80869503Y-67293561D02*
X80964741Y-67388800D01*
X80964741Y-67388800D02*
X81107598Y-67436419D01*
X81107598Y-67436419D02*
X81202836Y-67436419D01*
X81202836Y-67436419D02*
X81345693Y-67388800D01*
X81345693Y-67388800D02*
X81393312Y-67341180D01*
X81393312Y-67341180D02*
X81393312Y-67007847D01*
X81393312Y-67007847D02*
X81202836Y-67007847D01*
X81821884Y-67436419D02*
X81821884Y-66436419D01*
X81821884Y-66436419D02*
X82393312Y-67436419D01*
X82393312Y-67436419D02*
X82393312Y-66436419D01*
X82869503Y-67436419D02*
X82869503Y-66436419D01*
X82869503Y-66436419D02*
X83107598Y-66436419D01*
X83107598Y-66436419D02*
X83250455Y-66484038D01*
X83250455Y-66484038D02*
X83345693Y-66579276D01*
X83345693Y-66579276D02*
X83393312Y-66674514D01*
X83393312Y-66674514D02*
X83440931Y-66864990D01*
X83440931Y-66864990D02*
X83440931Y-67007847D01*
X83440931Y-67007847D02*
X83393312Y-67198323D01*
X83393312Y-67198323D02*
X83345693Y-67293561D01*
X83345693Y-67293561D02*
X83250455Y-67388800D01*
X83250455Y-67388800D02*
X83107598Y-67436419D01*
X83107598Y-67436419D02*
X82869503Y-67436419D01*
X82314074Y-74691419D02*
X81837884Y-74691419D01*
X81837884Y-74691419D02*
X81790265Y-75167609D01*
X81790265Y-75167609D02*
X81837884Y-75119990D01*
X81837884Y-75119990D02*
X81933122Y-75072371D01*
X81933122Y-75072371D02*
X82171217Y-75072371D01*
X82171217Y-75072371D02*
X82266455Y-75119990D01*
X82266455Y-75119990D02*
X82314074Y-75167609D01*
X82314074Y-75167609D02*
X82361693Y-75262847D01*
X82361693Y-75262847D02*
X82361693Y-75500942D01*
X82361693Y-75500942D02*
X82314074Y-75596180D01*
X82314074Y-75596180D02*
X82266455Y-75643800D01*
X82266455Y-75643800D02*
X82171217Y-75691419D01*
X82171217Y-75691419D02*
X81933122Y-75691419D01*
X81933122Y-75691419D02*
X81837884Y-75643800D01*
X81837884Y-75643800D02*
X81790265Y-75596180D01*
X82647408Y-74691419D02*
X82980741Y-75691419D01*
X82980741Y-75691419D02*
X83314074Y-74691419D01*
X126605312Y-102742419D02*
X126271979Y-102266228D01*
X126033884Y-102742419D02*
X126033884Y-101742419D01*
X126033884Y-101742419D02*
X126414836Y-101742419D01*
X126414836Y-101742419D02*
X126510074Y-101790038D01*
X126510074Y-101790038D02*
X126557693Y-101837657D01*
X126557693Y-101837657D02*
X126605312Y-101932895D01*
X126605312Y-101932895D02*
X126605312Y-102075752D01*
X126605312Y-102075752D02*
X126557693Y-102170990D01*
X126557693Y-102170990D02*
X126510074Y-102218609D01*
X126510074Y-102218609D02*
X126414836Y-102266228D01*
X126414836Y-102266228D02*
X126033884Y-102266228D01*
X126986265Y-102694800D02*
X127129122Y-102742419D01*
X127129122Y-102742419D02*
X127367217Y-102742419D01*
X127367217Y-102742419D02*
X127462455Y-102694800D01*
X127462455Y-102694800D02*
X127510074Y-102647180D01*
X127510074Y-102647180D02*
X127557693Y-102551942D01*
X127557693Y-102551942D02*
X127557693Y-102456704D01*
X127557693Y-102456704D02*
X127510074Y-102361466D01*
X127510074Y-102361466D02*
X127462455Y-102313847D01*
X127462455Y-102313847D02*
X127367217Y-102266228D01*
X127367217Y-102266228D02*
X127176741Y-102218609D01*
X127176741Y-102218609D02*
X127081503Y-102170990D01*
X127081503Y-102170990D02*
X127033884Y-102123371D01*
X127033884Y-102123371D02*
X126986265Y-102028133D01*
X126986265Y-102028133D02*
X126986265Y-101932895D01*
X126986265Y-101932895D02*
X127033884Y-101837657D01*
X127033884Y-101837657D02*
X127081503Y-101790038D01*
X127081503Y-101790038D02*
X127176741Y-101742419D01*
X127176741Y-101742419D02*
X127414836Y-101742419D01*
X127414836Y-101742419D02*
X127557693Y-101790038D01*
X127843408Y-101742419D02*
X128414836Y-101742419D01*
X128129122Y-102742419D02*
X128129122Y-101742419D01*
X127938884Y-57657419D02*
X127938884Y-56657419D01*
X127938884Y-56657419D02*
X128510312Y-57657419D01*
X128510312Y-57657419D02*
X128510312Y-56657419D01*
X128986503Y-57562180D02*
X129034122Y-57609800D01*
X129034122Y-57609800D02*
X128986503Y-57657419D01*
X128986503Y-57657419D02*
X128938884Y-57609800D01*
X128938884Y-57609800D02*
X128986503Y-57562180D01*
X128986503Y-57562180D02*
X128986503Y-57657419D01*
X129653169Y-56657419D02*
X129843645Y-56657419D01*
X129843645Y-56657419D02*
X129938883Y-56705038D01*
X129938883Y-56705038D02*
X130034121Y-56800276D01*
X130034121Y-56800276D02*
X130081740Y-56990752D01*
X130081740Y-56990752D02*
X130081740Y-57324085D01*
X130081740Y-57324085D02*
X130034121Y-57514561D01*
X130034121Y-57514561D02*
X129938883Y-57609800D01*
X129938883Y-57609800D02*
X129843645Y-57657419D01*
X129843645Y-57657419D02*
X129653169Y-57657419D01*
X129653169Y-57657419D02*
X129557931Y-57609800D01*
X129557931Y-57609800D02*
X129462693Y-57514561D01*
X129462693Y-57514561D02*
X129415074Y-57324085D01*
X129415074Y-57324085D02*
X129415074Y-56990752D01*
X129415074Y-56990752D02*
X129462693Y-56800276D01*
X129462693Y-56800276D02*
X129557931Y-56705038D01*
X129557931Y-56705038D02*
X129653169Y-56657419D01*
X134586312Y-57562180D02*
X134538693Y-57609800D01*
X134538693Y-57609800D02*
X134395836Y-57657419D01*
X134395836Y-57657419D02*
X134300598Y-57657419D01*
X134300598Y-57657419D02*
X134157741Y-57609800D01*
X134157741Y-57609800D02*
X134062503Y-57514561D01*
X134062503Y-57514561D02*
X134014884Y-57419323D01*
X134014884Y-57419323D02*
X133967265Y-57228847D01*
X133967265Y-57228847D02*
X133967265Y-57085990D01*
X133967265Y-57085990D02*
X134014884Y-56895514D01*
X134014884Y-56895514D02*
X134062503Y-56800276D01*
X134062503Y-56800276D02*
X134157741Y-56705038D01*
X134157741Y-56705038D02*
X134300598Y-56657419D01*
X134300598Y-56657419D02*
X134395836Y-56657419D01*
X134395836Y-56657419D02*
X134538693Y-56705038D01*
X134538693Y-56705038D02*
X134586312Y-56752657D01*
X135205360Y-56657419D02*
X135395836Y-56657419D01*
X135395836Y-56657419D02*
X135491074Y-56705038D01*
X135491074Y-56705038D02*
X135586312Y-56800276D01*
X135586312Y-56800276D02*
X135633931Y-56990752D01*
X135633931Y-56990752D02*
X135633931Y-57324085D01*
X135633931Y-57324085D02*
X135586312Y-57514561D01*
X135586312Y-57514561D02*
X135491074Y-57609800D01*
X135491074Y-57609800D02*
X135395836Y-57657419D01*
X135395836Y-57657419D02*
X135205360Y-57657419D01*
X135205360Y-57657419D02*
X135110122Y-57609800D01*
X135110122Y-57609800D02*
X135014884Y-57514561D01*
X135014884Y-57514561D02*
X134967265Y-57324085D01*
X134967265Y-57324085D02*
X134967265Y-56990752D01*
X134967265Y-56990752D02*
X135014884Y-56800276D01*
X135014884Y-56800276D02*
X135110122Y-56705038D01*
X135110122Y-56705038D02*
X135205360Y-56657419D01*
X136062503Y-57657419D02*
X136062503Y-56657419D01*
X136062503Y-56657419D02*
X136395836Y-57371704D01*
X136395836Y-57371704D02*
X136729169Y-56657419D01*
X136729169Y-56657419D02*
X136729169Y-57657419D01*
X137463884Y-76453419D02*
X137463884Y-75453419D01*
X137463884Y-75929609D02*
X138035312Y-75929609D01*
X138035312Y-76453419D02*
X138035312Y-75453419D01*
X138511503Y-76453419D02*
X138511503Y-75453419D01*
X139511502Y-75501038D02*
X139416264Y-75453419D01*
X139416264Y-75453419D02*
X139273407Y-75453419D01*
X139273407Y-75453419D02*
X139130550Y-75501038D01*
X139130550Y-75501038D02*
X139035312Y-75596276D01*
X139035312Y-75596276D02*
X138987693Y-75691514D01*
X138987693Y-75691514D02*
X138940074Y-75881990D01*
X138940074Y-75881990D02*
X138940074Y-76024847D01*
X138940074Y-76024847D02*
X138987693Y-76215323D01*
X138987693Y-76215323D02*
X139035312Y-76310561D01*
X139035312Y-76310561D02*
X139130550Y-76405800D01*
X139130550Y-76405800D02*
X139273407Y-76453419D01*
X139273407Y-76453419D02*
X139368645Y-76453419D01*
X139368645Y-76453419D02*
X139511502Y-76405800D01*
X139511502Y-76405800D02*
X139559121Y-76358180D01*
X139559121Y-76358180D02*
X139559121Y-76024847D01*
X139559121Y-76024847D02*
X139368645Y-76024847D01*
X139987693Y-76453419D02*
X139987693Y-75453419D01*
X139987693Y-75929609D02*
X140559121Y-75929609D01*
X140559121Y-76453419D02*
X140559121Y-75453419D01*
X137321027Y-76977419D02*
X137654360Y-77977419D01*
X137654360Y-77977419D02*
X137987693Y-76977419D01*
X138511503Y-76977419D02*
X138701979Y-76977419D01*
X138701979Y-76977419D02*
X138797217Y-77025038D01*
X138797217Y-77025038D02*
X138892455Y-77120276D01*
X138892455Y-77120276D02*
X138940074Y-77310752D01*
X138940074Y-77310752D02*
X138940074Y-77644085D01*
X138940074Y-77644085D02*
X138892455Y-77834561D01*
X138892455Y-77834561D02*
X138797217Y-77929800D01*
X138797217Y-77929800D02*
X138701979Y-77977419D01*
X138701979Y-77977419D02*
X138511503Y-77977419D01*
X138511503Y-77977419D02*
X138416265Y-77929800D01*
X138416265Y-77929800D02*
X138321027Y-77834561D01*
X138321027Y-77834561D02*
X138273408Y-77644085D01*
X138273408Y-77644085D02*
X138273408Y-77310752D01*
X138273408Y-77310752D02*
X138321027Y-77120276D01*
X138321027Y-77120276D02*
X138416265Y-77025038D01*
X138416265Y-77025038D02*
X138511503Y-76977419D01*
X139844836Y-77977419D02*
X139368646Y-77977419D01*
X139368646Y-77977419D02*
X139368646Y-76977419D01*
X140035313Y-76977419D02*
X140606741Y-76977419D01*
X140321027Y-77977419D02*
X140321027Y-76977419D01*
X140892456Y-77691704D02*
X141368646Y-77691704D01*
X140797218Y-77977419D02*
X141130551Y-76977419D01*
X141130551Y-76977419D02*
X141463884Y-77977419D01*
X142321027Y-77025038D02*
X142225789Y-76977419D01*
X142225789Y-76977419D02*
X142082932Y-76977419D01*
X142082932Y-76977419D02*
X141940075Y-77025038D01*
X141940075Y-77025038D02*
X141844837Y-77120276D01*
X141844837Y-77120276D02*
X141797218Y-77215514D01*
X141797218Y-77215514D02*
X141749599Y-77405990D01*
X141749599Y-77405990D02*
X141749599Y-77548847D01*
X141749599Y-77548847D02*
X141797218Y-77739323D01*
X141797218Y-77739323D02*
X141844837Y-77834561D01*
X141844837Y-77834561D02*
X141940075Y-77929800D01*
X141940075Y-77929800D02*
X142082932Y-77977419D01*
X142082932Y-77977419D02*
X142178170Y-77977419D01*
X142178170Y-77977419D02*
X142321027Y-77929800D01*
X142321027Y-77929800D02*
X142368646Y-77882180D01*
X142368646Y-77882180D02*
X142368646Y-77548847D01*
X142368646Y-77548847D02*
X142178170Y-77548847D01*
X142797218Y-77453609D02*
X143130551Y-77453609D01*
X143273408Y-77977419D02*
X142797218Y-77977419D01*
X142797218Y-77977419D02*
X142797218Y-76977419D01*
X142797218Y-76977419D02*
X143273408Y-76977419D01*
X143701980Y-77882180D02*
X143749599Y-77929800D01*
X143749599Y-77929800D02*
X143701980Y-77977419D01*
X143701980Y-77977419D02*
X143654361Y-77929800D01*
X143654361Y-77929800D02*
X143701980Y-77882180D01*
X143701980Y-77882180D02*
X143701980Y-77977419D01*
X143701980Y-77596466D02*
X143654361Y-77025038D01*
X143654361Y-77025038D02*
X143701980Y-76977419D01*
X143701980Y-76977419D02*
X143749599Y-77025038D01*
X143749599Y-77025038D02*
X143701980Y-77596466D01*
X143701980Y-77596466D02*
X143701980Y-76977419D01*
X140874884Y-57657419D02*
X140874884Y-56657419D01*
X140874884Y-56657419D02*
X141446312Y-57657419D01*
X141446312Y-57657419D02*
X141446312Y-56657419D01*
X141922503Y-57562180D02*
X141970122Y-57609800D01*
X141970122Y-57609800D02*
X141922503Y-57657419D01*
X141922503Y-57657419D02*
X141874884Y-57609800D01*
X141874884Y-57609800D02*
X141922503Y-57562180D01*
X141922503Y-57562180D02*
X141922503Y-57657419D01*
X142970121Y-57562180D02*
X142922502Y-57609800D01*
X142922502Y-57609800D02*
X142779645Y-57657419D01*
X142779645Y-57657419D02*
X142684407Y-57657419D01*
X142684407Y-57657419D02*
X142541550Y-57609800D01*
X142541550Y-57609800D02*
X142446312Y-57514561D01*
X142446312Y-57514561D02*
X142398693Y-57419323D01*
X142398693Y-57419323D02*
X142351074Y-57228847D01*
X142351074Y-57228847D02*
X142351074Y-57085990D01*
X142351074Y-57085990D02*
X142398693Y-56895514D01*
X142398693Y-56895514D02*
X142446312Y-56800276D01*
X142446312Y-56800276D02*
X142541550Y-56705038D01*
X142541550Y-56705038D02*
X142684407Y-56657419D01*
X142684407Y-56657419D02*
X142779645Y-56657419D01*
X142779645Y-56657419D02*
X142922502Y-56705038D01*
X142922502Y-56705038D02*
X142970121Y-56752657D01*
X148385884Y-57657419D02*
X148385884Y-56657419D01*
X148385884Y-56657419D02*
X148957312Y-57657419D01*
X148957312Y-57657419D02*
X148957312Y-56657419D01*
X149433503Y-57562180D02*
X149481122Y-57609800D01*
X149481122Y-57609800D02*
X149433503Y-57657419D01*
X149433503Y-57657419D02*
X149385884Y-57609800D01*
X149385884Y-57609800D02*
X149433503Y-57562180D01*
X149433503Y-57562180D02*
X149433503Y-57657419D01*
X150100169Y-56657419D02*
X150290645Y-56657419D01*
X150290645Y-56657419D02*
X150385883Y-56705038D01*
X150385883Y-56705038D02*
X150481121Y-56800276D01*
X150481121Y-56800276D02*
X150528740Y-56990752D01*
X150528740Y-56990752D02*
X150528740Y-57324085D01*
X150528740Y-57324085D02*
X150481121Y-57514561D01*
X150481121Y-57514561D02*
X150385883Y-57609800D01*
X150385883Y-57609800D02*
X150290645Y-57657419D01*
X150290645Y-57657419D02*
X150100169Y-57657419D01*
X150100169Y-57657419D02*
X150004931Y-57609800D01*
X150004931Y-57609800D02*
X149909693Y-57514561D01*
X149909693Y-57514561D02*
X149862074Y-57324085D01*
X149862074Y-57324085D02*
X149862074Y-56990752D01*
X149862074Y-56990752D02*
X149909693Y-56800276D01*
X149909693Y-56800276D02*
X150004931Y-56705038D01*
X150004931Y-56705038D02*
X150100169Y-56657419D01*
X154545312Y-57562180D02*
X154497693Y-57609800D01*
X154497693Y-57609800D02*
X154354836Y-57657419D01*
X154354836Y-57657419D02*
X154259598Y-57657419D01*
X154259598Y-57657419D02*
X154116741Y-57609800D01*
X154116741Y-57609800D02*
X154021503Y-57514561D01*
X154021503Y-57514561D02*
X153973884Y-57419323D01*
X153973884Y-57419323D02*
X153926265Y-57228847D01*
X153926265Y-57228847D02*
X153926265Y-57085990D01*
X153926265Y-57085990D02*
X153973884Y-56895514D01*
X153973884Y-56895514D02*
X154021503Y-56800276D01*
X154021503Y-56800276D02*
X154116741Y-56705038D01*
X154116741Y-56705038D02*
X154259598Y-56657419D01*
X154259598Y-56657419D02*
X154354836Y-56657419D01*
X154354836Y-56657419D02*
X154497693Y-56705038D01*
X154497693Y-56705038D02*
X154545312Y-56752657D01*
X155164360Y-56657419D02*
X155354836Y-56657419D01*
X155354836Y-56657419D02*
X155450074Y-56705038D01*
X155450074Y-56705038D02*
X155545312Y-56800276D01*
X155545312Y-56800276D02*
X155592931Y-56990752D01*
X155592931Y-56990752D02*
X155592931Y-57324085D01*
X155592931Y-57324085D02*
X155545312Y-57514561D01*
X155545312Y-57514561D02*
X155450074Y-57609800D01*
X155450074Y-57609800D02*
X155354836Y-57657419D01*
X155354836Y-57657419D02*
X155164360Y-57657419D01*
X155164360Y-57657419D02*
X155069122Y-57609800D01*
X155069122Y-57609800D02*
X154973884Y-57514561D01*
X154973884Y-57514561D02*
X154926265Y-57324085D01*
X154926265Y-57324085D02*
X154926265Y-56990752D01*
X154926265Y-56990752D02*
X154973884Y-56800276D01*
X154973884Y-56800276D02*
X155069122Y-56705038D01*
X155069122Y-56705038D02*
X155164360Y-56657419D01*
X156021503Y-57657419D02*
X156021503Y-56657419D01*
X156021503Y-56657419D02*
X156354836Y-57371704D01*
X156354836Y-57371704D02*
X156688169Y-56657419D01*
X156688169Y-56657419D02*
X156688169Y-57657419D01*
X161339884Y-57657419D02*
X161339884Y-56657419D01*
X161339884Y-56657419D02*
X161911312Y-57657419D01*
X161911312Y-57657419D02*
X161911312Y-56657419D01*
X162387503Y-57562180D02*
X162435122Y-57609800D01*
X162435122Y-57609800D02*
X162387503Y-57657419D01*
X162387503Y-57657419D02*
X162339884Y-57609800D01*
X162339884Y-57609800D02*
X162387503Y-57562180D01*
X162387503Y-57562180D02*
X162387503Y-57657419D01*
X163435121Y-57562180D02*
X163387502Y-57609800D01*
X163387502Y-57609800D02*
X163244645Y-57657419D01*
X163244645Y-57657419D02*
X163149407Y-57657419D01*
X163149407Y-57657419D02*
X163006550Y-57609800D01*
X163006550Y-57609800D02*
X162911312Y-57514561D01*
X162911312Y-57514561D02*
X162863693Y-57419323D01*
X162863693Y-57419323D02*
X162816074Y-57228847D01*
X162816074Y-57228847D02*
X162816074Y-57085990D01*
X162816074Y-57085990D02*
X162863693Y-56895514D01*
X162863693Y-56895514D02*
X162911312Y-56800276D01*
X162911312Y-56800276D02*
X163006550Y-56705038D01*
X163006550Y-56705038D02*
X163149407Y-56657419D01*
X163149407Y-56657419D02*
X163244645Y-56657419D01*
X163244645Y-56657419D02*
X163387502Y-56705038D01*
X163387502Y-56705038D02*
X163435121Y-56752657D01*
X91931609Y-77340782D02*
X91979228Y-77197925D01*
X91979228Y-77197925D02*
X92026847Y-77150306D01*
X92026847Y-77150306D02*
X92122085Y-77102687D01*
X92122085Y-77102687D02*
X92264942Y-77102687D01*
X92264942Y-77102687D02*
X92360180Y-77150306D01*
X92360180Y-77150306D02*
X92407800Y-77197925D01*
X92407800Y-77197925D02*
X92455419Y-77293163D01*
X92455419Y-77293163D02*
X92455419Y-77674115D01*
X92455419Y-77674115D02*
X91455419Y-77674115D01*
X91455419Y-77674115D02*
X91455419Y-77340782D01*
X91455419Y-77340782D02*
X91503038Y-77245544D01*
X91503038Y-77245544D02*
X91550657Y-77197925D01*
X91550657Y-77197925D02*
X91645895Y-77150306D01*
X91645895Y-77150306D02*
X91741133Y-77150306D01*
X91741133Y-77150306D02*
X91836371Y-77197925D01*
X91836371Y-77197925D02*
X91883990Y-77245544D01*
X91883990Y-77245544D02*
X91931609Y-77340782D01*
X91931609Y-77340782D02*
X91931609Y-77674115D01*
X91455419Y-76483639D02*
X91455419Y-76293163D01*
X91455419Y-76293163D02*
X91503038Y-76197925D01*
X91503038Y-76197925D02*
X91598276Y-76102687D01*
X91598276Y-76102687D02*
X91788752Y-76055068D01*
X91788752Y-76055068D02*
X92122085Y-76055068D01*
X92122085Y-76055068D02*
X92312561Y-76102687D01*
X92312561Y-76102687D02*
X92407800Y-76197925D01*
X92407800Y-76197925D02*
X92455419Y-76293163D01*
X92455419Y-76293163D02*
X92455419Y-76483639D01*
X92455419Y-76483639D02*
X92407800Y-76578877D01*
X92407800Y-76578877D02*
X92312561Y-76674115D01*
X92312561Y-76674115D02*
X92122085Y-76721734D01*
X92122085Y-76721734D02*
X91788752Y-76721734D01*
X91788752Y-76721734D02*
X91598276Y-76674115D01*
X91598276Y-76674115D02*
X91503038Y-76578877D01*
X91503038Y-76578877D02*
X91455419Y-76483639D01*
X91455419Y-75436020D02*
X91455419Y-75245544D01*
X91455419Y-75245544D02*
X91503038Y-75150306D01*
X91503038Y-75150306D02*
X91598276Y-75055068D01*
X91598276Y-75055068D02*
X91788752Y-75007449D01*
X91788752Y-75007449D02*
X92122085Y-75007449D01*
X92122085Y-75007449D02*
X92312561Y-75055068D01*
X92312561Y-75055068D02*
X92407800Y-75150306D01*
X92407800Y-75150306D02*
X92455419Y-75245544D01*
X92455419Y-75245544D02*
X92455419Y-75436020D01*
X92455419Y-75436020D02*
X92407800Y-75531258D01*
X92407800Y-75531258D02*
X92312561Y-75626496D01*
X92312561Y-75626496D02*
X92122085Y-75674115D01*
X92122085Y-75674115D02*
X91788752Y-75674115D01*
X91788752Y-75674115D02*
X91598276Y-75626496D01*
X91598276Y-75626496D02*
X91503038Y-75531258D01*
X91503038Y-75531258D02*
X91455419Y-75436020D01*
X91455419Y-74721734D02*
X91455419Y-74150306D01*
X92455419Y-74436020D02*
X91455419Y-74436020D01*
X92455419Y-73293163D02*
X92455419Y-73864591D01*
X92455419Y-73578877D02*
X91455419Y-73578877D01*
X91455419Y-73578877D02*
X91598276Y-73674115D01*
X91598276Y-73674115D02*
X91693514Y-73769353D01*
X91693514Y-73769353D02*
X91741133Y-73864591D01*
X97900609Y-77467782D02*
X97948228Y-77324925D01*
X97948228Y-77324925D02*
X97995847Y-77277306D01*
X97995847Y-77277306D02*
X98091085Y-77229687D01*
X98091085Y-77229687D02*
X98233942Y-77229687D01*
X98233942Y-77229687D02*
X98329180Y-77277306D01*
X98329180Y-77277306D02*
X98376800Y-77324925D01*
X98376800Y-77324925D02*
X98424419Y-77420163D01*
X98424419Y-77420163D02*
X98424419Y-77801115D01*
X98424419Y-77801115D02*
X97424419Y-77801115D01*
X97424419Y-77801115D02*
X97424419Y-77467782D01*
X97424419Y-77467782D02*
X97472038Y-77372544D01*
X97472038Y-77372544D02*
X97519657Y-77324925D01*
X97519657Y-77324925D02*
X97614895Y-77277306D01*
X97614895Y-77277306D02*
X97710133Y-77277306D01*
X97710133Y-77277306D02*
X97805371Y-77324925D01*
X97805371Y-77324925D02*
X97852990Y-77372544D01*
X97852990Y-77372544D02*
X97900609Y-77467782D01*
X97900609Y-77467782D02*
X97900609Y-77801115D01*
X97424419Y-76610639D02*
X97424419Y-76420163D01*
X97424419Y-76420163D02*
X97472038Y-76324925D01*
X97472038Y-76324925D02*
X97567276Y-76229687D01*
X97567276Y-76229687D02*
X97757752Y-76182068D01*
X97757752Y-76182068D02*
X98091085Y-76182068D01*
X98091085Y-76182068D02*
X98281561Y-76229687D01*
X98281561Y-76229687D02*
X98376800Y-76324925D01*
X98376800Y-76324925D02*
X98424419Y-76420163D01*
X98424419Y-76420163D02*
X98424419Y-76610639D01*
X98424419Y-76610639D02*
X98376800Y-76705877D01*
X98376800Y-76705877D02*
X98281561Y-76801115D01*
X98281561Y-76801115D02*
X98091085Y-76848734D01*
X98091085Y-76848734D02*
X97757752Y-76848734D01*
X97757752Y-76848734D02*
X97567276Y-76801115D01*
X97567276Y-76801115D02*
X97472038Y-76705877D01*
X97472038Y-76705877D02*
X97424419Y-76610639D01*
X97424419Y-75563020D02*
X97424419Y-75372544D01*
X97424419Y-75372544D02*
X97472038Y-75277306D01*
X97472038Y-75277306D02*
X97567276Y-75182068D01*
X97567276Y-75182068D02*
X97757752Y-75134449D01*
X97757752Y-75134449D02*
X98091085Y-75134449D01*
X98091085Y-75134449D02*
X98281561Y-75182068D01*
X98281561Y-75182068D02*
X98376800Y-75277306D01*
X98376800Y-75277306D02*
X98424419Y-75372544D01*
X98424419Y-75372544D02*
X98424419Y-75563020D01*
X98424419Y-75563020D02*
X98376800Y-75658258D01*
X98376800Y-75658258D02*
X98281561Y-75753496D01*
X98281561Y-75753496D02*
X98091085Y-75801115D01*
X98091085Y-75801115D02*
X97757752Y-75801115D01*
X97757752Y-75801115D02*
X97567276Y-75753496D01*
X97567276Y-75753496D02*
X97472038Y-75658258D01*
X97472038Y-75658258D02*
X97424419Y-75563020D01*
X97424419Y-74848734D02*
X97424419Y-74277306D01*
X98424419Y-74563020D02*
X97424419Y-74563020D01*
X97424419Y-73753496D02*
X97424419Y-73658258D01*
X97424419Y-73658258D02*
X97472038Y-73563020D01*
X97472038Y-73563020D02*
X97519657Y-73515401D01*
X97519657Y-73515401D02*
X97614895Y-73467782D01*
X97614895Y-73467782D02*
X97805371Y-73420163D01*
X97805371Y-73420163D02*
X98043466Y-73420163D01*
X98043466Y-73420163D02*
X98233942Y-73467782D01*
X98233942Y-73467782D02*
X98329180Y-73515401D01*
X98329180Y-73515401D02*
X98376800Y-73563020D01*
X98376800Y-73563020D02*
X98424419Y-73658258D01*
X98424419Y-73658258D02*
X98424419Y-73753496D01*
X98424419Y-73753496D02*
X98376800Y-73848734D01*
X98376800Y-73848734D02*
X98329180Y-73896353D01*
X98329180Y-73896353D02*
X98233942Y-73943972D01*
X98233942Y-73943972D02*
X98043466Y-73991591D01*
X98043466Y-73991591D02*
X97805371Y-73991591D01*
X97805371Y-73991591D02*
X97614895Y-73943972D01*
X97614895Y-73943972D02*
X97519657Y-73896353D01*
X97519657Y-73896353D02*
X97472038Y-73848734D01*
X97472038Y-73848734D02*
X97424419Y-73753496D01*
X105600038Y-62291306D02*
X105552419Y-62386544D01*
X105552419Y-62386544D02*
X105552419Y-62529401D01*
X105552419Y-62529401D02*
X105600038Y-62672258D01*
X105600038Y-62672258D02*
X105695276Y-62767496D01*
X105695276Y-62767496D02*
X105790514Y-62815115D01*
X105790514Y-62815115D02*
X105980990Y-62862734D01*
X105980990Y-62862734D02*
X106123847Y-62862734D01*
X106123847Y-62862734D02*
X106314323Y-62815115D01*
X106314323Y-62815115D02*
X106409561Y-62767496D01*
X106409561Y-62767496D02*
X106504800Y-62672258D01*
X106504800Y-62672258D02*
X106552419Y-62529401D01*
X106552419Y-62529401D02*
X106552419Y-62434163D01*
X106552419Y-62434163D02*
X106504800Y-62291306D01*
X106504800Y-62291306D02*
X106457180Y-62243687D01*
X106457180Y-62243687D02*
X106123847Y-62243687D01*
X106123847Y-62243687D02*
X106123847Y-62434163D01*
X106552419Y-61815115D02*
X105552419Y-61815115D01*
X105552419Y-61815115D02*
X106552419Y-61243687D01*
X106552419Y-61243687D02*
X105552419Y-61243687D01*
X106552419Y-60767496D02*
X105552419Y-60767496D01*
X105552419Y-60767496D02*
X105552419Y-60529401D01*
X105552419Y-60529401D02*
X105600038Y-60386544D01*
X105600038Y-60386544D02*
X105695276Y-60291306D01*
X105695276Y-60291306D02*
X105790514Y-60243687D01*
X105790514Y-60243687D02*
X105980990Y-60196068D01*
X105980990Y-60196068D02*
X106123847Y-60196068D01*
X106123847Y-60196068D02*
X106314323Y-60243687D01*
X106314323Y-60243687D02*
X106409561Y-60291306D01*
X106409561Y-60291306D02*
X106504800Y-60386544D01*
X106504800Y-60386544D02*
X106552419Y-60529401D01*
X106552419Y-60529401D02*
X106552419Y-60767496D01*
X109044800Y-62862734D02*
X109092419Y-62719877D01*
X109092419Y-62719877D02*
X109092419Y-62481782D01*
X109092419Y-62481782D02*
X109044800Y-62386544D01*
X109044800Y-62386544D02*
X108997180Y-62338925D01*
X108997180Y-62338925D02*
X108901942Y-62291306D01*
X108901942Y-62291306D02*
X108806704Y-62291306D01*
X108806704Y-62291306D02*
X108711466Y-62338925D01*
X108711466Y-62338925D02*
X108663847Y-62386544D01*
X108663847Y-62386544D02*
X108616228Y-62481782D01*
X108616228Y-62481782D02*
X108568609Y-62672258D01*
X108568609Y-62672258D02*
X108520990Y-62767496D01*
X108520990Y-62767496D02*
X108473371Y-62815115D01*
X108473371Y-62815115D02*
X108378133Y-62862734D01*
X108378133Y-62862734D02*
X108282895Y-62862734D01*
X108282895Y-62862734D02*
X108187657Y-62815115D01*
X108187657Y-62815115D02*
X108140038Y-62767496D01*
X108140038Y-62767496D02*
X108092419Y-62672258D01*
X108092419Y-62672258D02*
X108092419Y-62434163D01*
X108092419Y-62434163D02*
X108140038Y-62291306D01*
X108092419Y-61957972D02*
X109092419Y-61719877D01*
X109092419Y-61719877D02*
X108378133Y-61529401D01*
X108378133Y-61529401D02*
X109092419Y-61338925D01*
X109092419Y-61338925D02*
X108092419Y-61100830D01*
X108997180Y-60148449D02*
X109044800Y-60196068D01*
X109044800Y-60196068D02*
X109092419Y-60338925D01*
X109092419Y-60338925D02*
X109092419Y-60434163D01*
X109092419Y-60434163D02*
X109044800Y-60577020D01*
X109044800Y-60577020D02*
X108949561Y-60672258D01*
X108949561Y-60672258D02*
X108854323Y-60719877D01*
X108854323Y-60719877D02*
X108663847Y-60767496D01*
X108663847Y-60767496D02*
X108520990Y-60767496D01*
X108520990Y-60767496D02*
X108330514Y-60719877D01*
X108330514Y-60719877D02*
X108235276Y-60672258D01*
X108235276Y-60672258D02*
X108140038Y-60577020D01*
X108140038Y-60577020D02*
X108092419Y-60434163D01*
X108092419Y-60434163D02*
X108092419Y-60338925D01*
X108092419Y-60338925D02*
X108140038Y-60196068D01*
X108140038Y-60196068D02*
X108187657Y-60148449D01*
X109092419Y-59243687D02*
X109092419Y-59719877D01*
X109092419Y-59719877D02*
X108092419Y-59719877D01*
X109092419Y-58910353D02*
X108092419Y-58910353D01*
X109092419Y-58338925D02*
X108520990Y-58767496D01*
X108092419Y-58338925D02*
X108663847Y-58910353D01*
X111584800Y-62735734D02*
X111632419Y-62592877D01*
X111632419Y-62592877D02*
X111632419Y-62354782D01*
X111632419Y-62354782D02*
X111584800Y-62259544D01*
X111584800Y-62259544D02*
X111537180Y-62211925D01*
X111537180Y-62211925D02*
X111441942Y-62164306D01*
X111441942Y-62164306D02*
X111346704Y-62164306D01*
X111346704Y-62164306D02*
X111251466Y-62211925D01*
X111251466Y-62211925D02*
X111203847Y-62259544D01*
X111203847Y-62259544D02*
X111156228Y-62354782D01*
X111156228Y-62354782D02*
X111108609Y-62545258D01*
X111108609Y-62545258D02*
X111060990Y-62640496D01*
X111060990Y-62640496D02*
X111013371Y-62688115D01*
X111013371Y-62688115D02*
X110918133Y-62735734D01*
X110918133Y-62735734D02*
X110822895Y-62735734D01*
X110822895Y-62735734D02*
X110727657Y-62688115D01*
X110727657Y-62688115D02*
X110680038Y-62640496D01*
X110680038Y-62640496D02*
X110632419Y-62545258D01*
X110632419Y-62545258D02*
X110632419Y-62307163D01*
X110632419Y-62307163D02*
X110680038Y-62164306D01*
X110632419Y-61830972D02*
X111632419Y-61592877D01*
X111632419Y-61592877D02*
X110918133Y-61402401D01*
X110918133Y-61402401D02*
X111632419Y-61211925D01*
X111632419Y-61211925D02*
X110632419Y-60973830D01*
X111632419Y-60592877D02*
X110632419Y-60592877D01*
X110632419Y-60592877D02*
X110632419Y-60354782D01*
X110632419Y-60354782D02*
X110680038Y-60211925D01*
X110680038Y-60211925D02*
X110775276Y-60116687D01*
X110775276Y-60116687D02*
X110870514Y-60069068D01*
X110870514Y-60069068D02*
X111060990Y-60021449D01*
X111060990Y-60021449D02*
X111203847Y-60021449D01*
X111203847Y-60021449D02*
X111394323Y-60069068D01*
X111394323Y-60069068D02*
X111489561Y-60116687D01*
X111489561Y-60116687D02*
X111584800Y-60211925D01*
X111584800Y-60211925D02*
X111632419Y-60354782D01*
X111632419Y-60354782D02*
X111632419Y-60592877D01*
X111632419Y-59592877D02*
X110632419Y-59592877D01*
X110632419Y-58926211D02*
X110632419Y-58735735D01*
X110632419Y-58735735D02*
X110680038Y-58640497D01*
X110680038Y-58640497D02*
X110775276Y-58545259D01*
X110775276Y-58545259D02*
X110965752Y-58497640D01*
X110965752Y-58497640D02*
X111299085Y-58497640D01*
X111299085Y-58497640D02*
X111489561Y-58545259D01*
X111489561Y-58545259D02*
X111584800Y-58640497D01*
X111584800Y-58640497D02*
X111632419Y-58735735D01*
X111632419Y-58735735D02*
X111632419Y-58926211D01*
X111632419Y-58926211D02*
X111584800Y-59021449D01*
X111584800Y-59021449D02*
X111489561Y-59116687D01*
X111489561Y-59116687D02*
X111299085Y-59164306D01*
X111299085Y-59164306D02*
X110965752Y-59164306D01*
X110965752Y-59164306D02*
X110775276Y-59116687D01*
X110775276Y-59116687D02*
X110680038Y-59021449D01*
X110680038Y-59021449D02*
X110632419Y-58926211D01*
X113426419Y-62656353D02*
X113426419Y-62037306D01*
X113426419Y-62037306D02*
X113807371Y-62370639D01*
X113807371Y-62370639D02*
X113807371Y-62227782D01*
X113807371Y-62227782D02*
X113854990Y-62132544D01*
X113854990Y-62132544D02*
X113902609Y-62084925D01*
X113902609Y-62084925D02*
X113997847Y-62037306D01*
X113997847Y-62037306D02*
X114235942Y-62037306D01*
X114235942Y-62037306D02*
X114331180Y-62084925D01*
X114331180Y-62084925D02*
X114378800Y-62132544D01*
X114378800Y-62132544D02*
X114426419Y-62227782D01*
X114426419Y-62227782D02*
X114426419Y-62513496D01*
X114426419Y-62513496D02*
X114378800Y-62608734D01*
X114378800Y-62608734D02*
X114331180Y-62656353D01*
X114331180Y-61608734D02*
X114378800Y-61561115D01*
X114378800Y-61561115D02*
X114426419Y-61608734D01*
X114426419Y-61608734D02*
X114378800Y-61656353D01*
X114378800Y-61656353D02*
X114331180Y-61608734D01*
X114331180Y-61608734D02*
X114426419Y-61608734D01*
X113426419Y-61227782D02*
X113426419Y-60608735D01*
X113426419Y-60608735D02*
X113807371Y-60942068D01*
X113807371Y-60942068D02*
X113807371Y-60799211D01*
X113807371Y-60799211D02*
X113854990Y-60703973D01*
X113854990Y-60703973D02*
X113902609Y-60656354D01*
X113902609Y-60656354D02*
X113997847Y-60608735D01*
X113997847Y-60608735D02*
X114235942Y-60608735D01*
X114235942Y-60608735D02*
X114331180Y-60656354D01*
X114331180Y-60656354D02*
X114378800Y-60703973D01*
X114378800Y-60703973D02*
X114426419Y-60799211D01*
X114426419Y-60799211D02*
X114426419Y-61084925D01*
X114426419Y-61084925D02*
X114378800Y-61180163D01*
X114378800Y-61180163D02*
X114331180Y-61227782D01*
X113426419Y-60323020D02*
X114426419Y-59989687D01*
X114426419Y-59989687D02*
X113426419Y-59656354D01*
D12*
X87954819Y-89238094D02*
X88764342Y-89238094D01*
X88764342Y-89238094D02*
X88859580Y-89190475D01*
X88859580Y-89190475D02*
X88907200Y-89142856D01*
X88907200Y-89142856D02*
X88954819Y-89047618D01*
X88954819Y-89047618D02*
X88954819Y-88857142D01*
X88954819Y-88857142D02*
X88907200Y-88761904D01*
X88907200Y-88761904D02*
X88859580Y-88714285D01*
X88859580Y-88714285D02*
X88764342Y-88666666D01*
X88764342Y-88666666D02*
X87954819Y-88666666D01*
X88907200Y-88238094D02*
X88954819Y-88095237D01*
X88954819Y-88095237D02*
X88954819Y-87857142D01*
X88954819Y-87857142D02*
X88907200Y-87761904D01*
X88907200Y-87761904D02*
X88859580Y-87714285D01*
X88859580Y-87714285D02*
X88764342Y-87666666D01*
X88764342Y-87666666D02*
X88669104Y-87666666D01*
X88669104Y-87666666D02*
X88573866Y-87714285D01*
X88573866Y-87714285D02*
X88526247Y-87761904D01*
X88526247Y-87761904D02*
X88478628Y-87857142D01*
X88478628Y-87857142D02*
X88431009Y-88047618D01*
X88431009Y-88047618D02*
X88383390Y-88142856D01*
X88383390Y-88142856D02*
X88335771Y-88190475D01*
X88335771Y-88190475D02*
X88240533Y-88238094D01*
X88240533Y-88238094D02*
X88145295Y-88238094D01*
X88145295Y-88238094D02*
X88050057Y-88190475D01*
X88050057Y-88190475D02*
X88002438Y-88142856D01*
X88002438Y-88142856D02*
X87954819Y-88047618D01*
X87954819Y-88047618D02*
X87954819Y-87809523D01*
X87954819Y-87809523D02*
X88002438Y-87666666D01*
X88431009Y-86904761D02*
X88478628Y-86761904D01*
X88478628Y-86761904D02*
X88526247Y-86714285D01*
X88526247Y-86714285D02*
X88621485Y-86666666D01*
X88621485Y-86666666D02*
X88764342Y-86666666D01*
X88764342Y-86666666D02*
X88859580Y-86714285D01*
X88859580Y-86714285D02*
X88907200Y-86761904D01*
X88907200Y-86761904D02*
X88954819Y-86857142D01*
X88954819Y-86857142D02*
X88954819Y-87238094D01*
X88954819Y-87238094D02*
X87954819Y-87238094D01*
X87954819Y-87238094D02*
X87954819Y-86904761D01*
X87954819Y-86904761D02*
X88002438Y-86809523D01*
X88002438Y-86809523D02*
X88050057Y-86761904D01*
X88050057Y-86761904D02*
X88145295Y-86714285D01*
X88145295Y-86714285D02*
X88240533Y-86714285D01*
X88240533Y-86714285D02*
X88335771Y-86761904D01*
X88335771Y-86761904D02*
X88383390Y-86809523D01*
X88383390Y-86809523D02*
X88431009Y-86904761D01*
X88431009Y-86904761D02*
X88431009Y-87238094D01*
X88050057Y-86285713D02*
X88002438Y-86238094D01*
X88002438Y-86238094D02*
X87954819Y-86142856D01*
X87954819Y-86142856D02*
X87954819Y-85904761D01*
X87954819Y-85904761D02*
X88002438Y-85809523D01*
X88002438Y-85809523D02*
X88050057Y-85761904D01*
X88050057Y-85761904D02*
X88145295Y-85714285D01*
X88145295Y-85714285D02*
X88240533Y-85714285D01*
X88240533Y-85714285D02*
X88383390Y-85761904D01*
X88383390Y-85761904D02*
X88954819Y-86333332D01*
X88954819Y-86333332D02*
X88954819Y-85714285D01*
X146006133Y-87830819D02*
X145672800Y-87354628D01*
X145434705Y-87830819D02*
X145434705Y-86830819D01*
X145434705Y-86830819D02*
X145815657Y-86830819D01*
X145815657Y-86830819D02*
X145910895Y-86878438D01*
X145910895Y-86878438D02*
X145958514Y-86926057D01*
X145958514Y-86926057D02*
X146006133Y-87021295D01*
X146006133Y-87021295D02*
X146006133Y-87164152D01*
X146006133Y-87164152D02*
X145958514Y-87259390D01*
X145958514Y-87259390D02*
X145910895Y-87307009D01*
X145910895Y-87307009D02*
X145815657Y-87354628D01*
X145815657Y-87354628D02*
X145434705Y-87354628D01*
X146958514Y-87830819D02*
X146387086Y-87830819D01*
X146672800Y-87830819D02*
X146672800Y-86830819D01*
X146672800Y-86830819D02*
X146577562Y-86973676D01*
X146577562Y-86973676D02*
X146482324Y-87068914D01*
X146482324Y-87068914D02*
X146387086Y-87116533D01*
X114704819Y-70142857D02*
X114228628Y-70476190D01*
X114704819Y-70714285D02*
X113704819Y-70714285D01*
X113704819Y-70714285D02*
X113704819Y-70333333D01*
X113704819Y-70333333D02*
X113752438Y-70238095D01*
X113752438Y-70238095D02*
X113800057Y-70190476D01*
X113800057Y-70190476D02*
X113895295Y-70142857D01*
X113895295Y-70142857D02*
X114038152Y-70142857D01*
X114038152Y-70142857D02*
X114133390Y-70190476D01*
X114133390Y-70190476D02*
X114181009Y-70238095D01*
X114181009Y-70238095D02*
X114228628Y-70333333D01*
X114228628Y-70333333D02*
X114228628Y-70714285D01*
X113800057Y-69761904D02*
X113752438Y-69714285D01*
X113752438Y-69714285D02*
X113704819Y-69619047D01*
X113704819Y-69619047D02*
X113704819Y-69380952D01*
X113704819Y-69380952D02*
X113752438Y-69285714D01*
X113752438Y-69285714D02*
X113800057Y-69238095D01*
X113800057Y-69238095D02*
X113895295Y-69190476D01*
X113895295Y-69190476D02*
X113990533Y-69190476D01*
X113990533Y-69190476D02*
X114133390Y-69238095D01*
X114133390Y-69238095D02*
X114704819Y-69809523D01*
X114704819Y-69809523D02*
X114704819Y-69190476D01*
X114038152Y-68333333D02*
X114704819Y-68333333D01*
X113657200Y-68571428D02*
X114371485Y-68809523D01*
X114371485Y-68809523D02*
X114371485Y-68190476D01*
X99856580Y-96142857D02*
X99904200Y-96190476D01*
X99904200Y-96190476D02*
X99951819Y-96333333D01*
X99951819Y-96333333D02*
X99951819Y-96428571D01*
X99951819Y-96428571D02*
X99904200Y-96571428D01*
X99904200Y-96571428D02*
X99808961Y-96666666D01*
X99808961Y-96666666D02*
X99713723Y-96714285D01*
X99713723Y-96714285D02*
X99523247Y-96761904D01*
X99523247Y-96761904D02*
X99380390Y-96761904D01*
X99380390Y-96761904D02*
X99189914Y-96714285D01*
X99189914Y-96714285D02*
X99094676Y-96666666D01*
X99094676Y-96666666D02*
X98999438Y-96571428D01*
X98999438Y-96571428D02*
X98951819Y-96428571D01*
X98951819Y-96428571D02*
X98951819Y-96333333D01*
X98951819Y-96333333D02*
X98999438Y-96190476D01*
X98999438Y-96190476D02*
X99047057Y-96142857D01*
X99047057Y-95761904D02*
X98999438Y-95714285D01*
X98999438Y-95714285D02*
X98951819Y-95619047D01*
X98951819Y-95619047D02*
X98951819Y-95380952D01*
X98951819Y-95380952D02*
X98999438Y-95285714D01*
X98999438Y-95285714D02*
X99047057Y-95238095D01*
X99047057Y-95238095D02*
X99142295Y-95190476D01*
X99142295Y-95190476D02*
X99237533Y-95190476D01*
X99237533Y-95190476D02*
X99380390Y-95238095D01*
X99380390Y-95238095D02*
X99951819Y-95809523D01*
X99951819Y-95809523D02*
X99951819Y-95190476D01*
X98951819Y-94285714D02*
X98951819Y-94761904D01*
X98951819Y-94761904D02*
X99428009Y-94809523D01*
X99428009Y-94809523D02*
X99380390Y-94761904D01*
X99380390Y-94761904D02*
X99332771Y-94666666D01*
X99332771Y-94666666D02*
X99332771Y-94428571D01*
X99332771Y-94428571D02*
X99380390Y-94333333D01*
X99380390Y-94333333D02*
X99428009Y-94285714D01*
X99428009Y-94285714D02*
X99523247Y-94238095D01*
X99523247Y-94238095D02*
X99761342Y-94238095D01*
X99761342Y-94238095D02*
X99856580Y-94285714D01*
X99856580Y-94285714D02*
X99904200Y-94333333D01*
X99904200Y-94333333D02*
X99951819Y-94428571D01*
X99951819Y-94428571D02*
X99951819Y-94666666D01*
X99951819Y-94666666D02*
X99904200Y-94761904D01*
X99904200Y-94761904D02*
X99856580Y-94809523D01*
X105164095Y-68704819D02*
X105735523Y-68704819D01*
X105449809Y-69704819D02*
X105449809Y-68704819D01*
X106068857Y-69704819D02*
X106068857Y-68704819D01*
X106068857Y-68704819D02*
X106449809Y-68704819D01*
X106449809Y-68704819D02*
X106545047Y-68752438D01*
X106545047Y-68752438D02*
X106592666Y-68800057D01*
X106592666Y-68800057D02*
X106640285Y-68895295D01*
X106640285Y-68895295D02*
X106640285Y-69038152D01*
X106640285Y-69038152D02*
X106592666Y-69133390D01*
X106592666Y-69133390D02*
X106545047Y-69181009D01*
X106545047Y-69181009D02*
X106449809Y-69228628D01*
X106449809Y-69228628D02*
X106068857Y-69228628D01*
X106973619Y-68704819D02*
X107640285Y-68704819D01*
X107640285Y-68704819D02*
X107211714Y-69704819D01*
X119704819Y-70142857D02*
X119228628Y-70476190D01*
X119704819Y-70714285D02*
X118704819Y-70714285D01*
X118704819Y-70714285D02*
X118704819Y-70333333D01*
X118704819Y-70333333D02*
X118752438Y-70238095D01*
X118752438Y-70238095D02*
X118800057Y-70190476D01*
X118800057Y-70190476D02*
X118895295Y-70142857D01*
X118895295Y-70142857D02*
X119038152Y-70142857D01*
X119038152Y-70142857D02*
X119133390Y-70190476D01*
X119133390Y-70190476D02*
X119181009Y-70238095D01*
X119181009Y-70238095D02*
X119228628Y-70333333D01*
X119228628Y-70333333D02*
X119228628Y-70714285D01*
X118800057Y-69761904D02*
X118752438Y-69714285D01*
X118752438Y-69714285D02*
X118704819Y-69619047D01*
X118704819Y-69619047D02*
X118704819Y-69380952D01*
X118704819Y-69380952D02*
X118752438Y-69285714D01*
X118752438Y-69285714D02*
X118800057Y-69238095D01*
X118800057Y-69238095D02*
X118895295Y-69190476D01*
X118895295Y-69190476D02*
X118990533Y-69190476D01*
X118990533Y-69190476D02*
X119133390Y-69238095D01*
X119133390Y-69238095D02*
X119704819Y-69809523D01*
X119704819Y-69809523D02*
X119704819Y-69190476D01*
X119704819Y-68238095D02*
X119704819Y-68809523D01*
X119704819Y-68523809D02*
X118704819Y-68523809D01*
X118704819Y-68523809D02*
X118847676Y-68619047D01*
X118847676Y-68619047D02*
X118942914Y-68714285D01*
X118942914Y-68714285D02*
X118990533Y-68809523D01*
X83107142Y-97454819D02*
X82773809Y-96978628D01*
X82535714Y-97454819D02*
X82535714Y-96454819D01*
X82535714Y-96454819D02*
X82916666Y-96454819D01*
X82916666Y-96454819D02*
X83011904Y-96502438D01*
X83011904Y-96502438D02*
X83059523Y-96550057D01*
X83059523Y-96550057D02*
X83107142Y-96645295D01*
X83107142Y-96645295D02*
X83107142Y-96788152D01*
X83107142Y-96788152D02*
X83059523Y-96883390D01*
X83059523Y-96883390D02*
X83011904Y-96931009D01*
X83011904Y-96931009D02*
X82916666Y-96978628D01*
X82916666Y-96978628D02*
X82535714Y-96978628D01*
X84059523Y-97454819D02*
X83488095Y-97454819D01*
X83773809Y-97454819D02*
X83773809Y-96454819D01*
X83773809Y-96454819D02*
X83678571Y-96597676D01*
X83678571Y-96597676D02*
X83583333Y-96692914D01*
X83583333Y-96692914D02*
X83488095Y-96740533D01*
X84916666Y-96454819D02*
X84726190Y-96454819D01*
X84726190Y-96454819D02*
X84630952Y-96502438D01*
X84630952Y-96502438D02*
X84583333Y-96550057D01*
X84583333Y-96550057D02*
X84488095Y-96692914D01*
X84488095Y-96692914D02*
X84440476Y-96883390D01*
X84440476Y-96883390D02*
X84440476Y-97264342D01*
X84440476Y-97264342D02*
X84488095Y-97359580D01*
X84488095Y-97359580D02*
X84535714Y-97407200D01*
X84535714Y-97407200D02*
X84630952Y-97454819D01*
X84630952Y-97454819D02*
X84821428Y-97454819D01*
X84821428Y-97454819D02*
X84916666Y-97407200D01*
X84916666Y-97407200D02*
X84964285Y-97359580D01*
X84964285Y-97359580D02*
X85011904Y-97264342D01*
X85011904Y-97264342D02*
X85011904Y-97026247D01*
X85011904Y-97026247D02*
X84964285Y-96931009D01*
X84964285Y-96931009D02*
X84916666Y-96883390D01*
X84916666Y-96883390D02*
X84821428Y-96835771D01*
X84821428Y-96835771D02*
X84630952Y-96835771D01*
X84630952Y-96835771D02*
X84535714Y-96883390D01*
X84535714Y-96883390D02*
X84488095Y-96931009D01*
X84488095Y-96931009D02*
X84440476Y-97026247D01*
X155217905Y-86560819D02*
X155217905Y-85560819D01*
X155217905Y-85560819D02*
X155456000Y-85560819D01*
X155456000Y-85560819D02*
X155598857Y-85608438D01*
X155598857Y-85608438D02*
X155694095Y-85703676D01*
X155694095Y-85703676D02*
X155741714Y-85798914D01*
X155741714Y-85798914D02*
X155789333Y-85989390D01*
X155789333Y-85989390D02*
X155789333Y-86132247D01*
X155789333Y-86132247D02*
X155741714Y-86322723D01*
X155741714Y-86322723D02*
X155694095Y-86417961D01*
X155694095Y-86417961D02*
X155598857Y-86513200D01*
X155598857Y-86513200D02*
X155456000Y-86560819D01*
X155456000Y-86560819D02*
X155217905Y-86560819D01*
X156741714Y-86560819D02*
X156170286Y-86560819D01*
X156456000Y-86560819D02*
X156456000Y-85560819D01*
X156456000Y-85560819D02*
X156360762Y-85703676D01*
X156360762Y-85703676D02*
X156265524Y-85798914D01*
X156265524Y-85798914D02*
X156170286Y-85846533D01*
X128755742Y-85249780D02*
X128708123Y-85297400D01*
X128708123Y-85297400D02*
X128565266Y-85345019D01*
X128565266Y-85345019D02*
X128470028Y-85345019D01*
X128470028Y-85345019D02*
X128327171Y-85297400D01*
X128327171Y-85297400D02*
X128231933Y-85202161D01*
X128231933Y-85202161D02*
X128184314Y-85106923D01*
X128184314Y-85106923D02*
X128136695Y-84916447D01*
X128136695Y-84916447D02*
X128136695Y-84773590D01*
X128136695Y-84773590D02*
X128184314Y-84583114D01*
X128184314Y-84583114D02*
X128231933Y-84487876D01*
X128231933Y-84487876D02*
X128327171Y-84392638D01*
X128327171Y-84392638D02*
X128470028Y-84345019D01*
X128470028Y-84345019D02*
X128565266Y-84345019D01*
X128565266Y-84345019D02*
X128708123Y-84392638D01*
X128708123Y-84392638D02*
X128755742Y-84440257D01*
X129708123Y-85345019D02*
X129136695Y-85345019D01*
X129422409Y-85345019D02*
X129422409Y-84345019D01*
X129422409Y-84345019D02*
X129327171Y-84487876D01*
X129327171Y-84487876D02*
X129231933Y-84583114D01*
X129231933Y-84583114D02*
X129136695Y-84630733D01*
X130565266Y-84345019D02*
X130374790Y-84345019D01*
X130374790Y-84345019D02*
X130279552Y-84392638D01*
X130279552Y-84392638D02*
X130231933Y-84440257D01*
X130231933Y-84440257D02*
X130136695Y-84583114D01*
X130136695Y-84583114D02*
X130089076Y-84773590D01*
X130089076Y-84773590D02*
X130089076Y-85154542D01*
X130089076Y-85154542D02*
X130136695Y-85249780D01*
X130136695Y-85249780D02*
X130184314Y-85297400D01*
X130184314Y-85297400D02*
X130279552Y-85345019D01*
X130279552Y-85345019D02*
X130470028Y-85345019D01*
X130470028Y-85345019D02*
X130565266Y-85297400D01*
X130565266Y-85297400D02*
X130612885Y-85249780D01*
X130612885Y-85249780D02*
X130660504Y-85154542D01*
X130660504Y-85154542D02*
X130660504Y-84916447D01*
X130660504Y-84916447D02*
X130612885Y-84821209D01*
X130612885Y-84821209D02*
X130565266Y-84773590D01*
X130565266Y-84773590D02*
X130470028Y-84725971D01*
X130470028Y-84725971D02*
X130279552Y-84725971D01*
X130279552Y-84725971D02*
X130184314Y-84773590D01*
X130184314Y-84773590D02*
X130136695Y-84821209D01*
X130136695Y-84821209D02*
X130089076Y-84916447D01*
X86738095Y-70454819D02*
X87309523Y-70454819D01*
X87023809Y-71454819D02*
X87023809Y-70454819D01*
X87642857Y-71454819D02*
X87642857Y-70454819D01*
X87642857Y-70454819D02*
X88023809Y-70454819D01*
X88023809Y-70454819D02*
X88119047Y-70502438D01*
X88119047Y-70502438D02*
X88166666Y-70550057D01*
X88166666Y-70550057D02*
X88214285Y-70645295D01*
X88214285Y-70645295D02*
X88214285Y-70788152D01*
X88214285Y-70788152D02*
X88166666Y-70883390D01*
X88166666Y-70883390D02*
X88119047Y-70931009D01*
X88119047Y-70931009D02*
X88023809Y-70978628D01*
X88023809Y-70978628D02*
X87642857Y-70978628D01*
X88595238Y-70550057D02*
X88642857Y-70502438D01*
X88642857Y-70502438D02*
X88738095Y-70454819D01*
X88738095Y-70454819D02*
X88976190Y-70454819D01*
X88976190Y-70454819D02*
X89071428Y-70502438D01*
X89071428Y-70502438D02*
X89119047Y-70550057D01*
X89119047Y-70550057D02*
X89166666Y-70645295D01*
X89166666Y-70645295D02*
X89166666Y-70740533D01*
X89166666Y-70740533D02*
X89119047Y-70883390D01*
X89119047Y-70883390D02*
X88547619Y-71454819D01*
X88547619Y-71454819D02*
X89166666Y-71454819D01*
X86738095Y-66454819D02*
X87309523Y-66454819D01*
X87023809Y-67454819D02*
X87023809Y-66454819D01*
X87642857Y-67454819D02*
X87642857Y-66454819D01*
X87642857Y-66454819D02*
X88023809Y-66454819D01*
X88023809Y-66454819D02*
X88119047Y-66502438D01*
X88119047Y-66502438D02*
X88166666Y-66550057D01*
X88166666Y-66550057D02*
X88214285Y-66645295D01*
X88214285Y-66645295D02*
X88214285Y-66788152D01*
X88214285Y-66788152D02*
X88166666Y-66883390D01*
X88166666Y-66883390D02*
X88119047Y-66931009D01*
X88119047Y-66931009D02*
X88023809Y-66978628D01*
X88023809Y-66978628D02*
X87642857Y-66978628D01*
X89166666Y-67454819D02*
X88595238Y-67454819D01*
X88880952Y-67454819D02*
X88880952Y-66454819D01*
X88880952Y-66454819D02*
X88785714Y-66597676D01*
X88785714Y-66597676D02*
X88690476Y-66692914D01*
X88690476Y-66692914D02*
X88595238Y-66740533D01*
X109857142Y-76859580D02*
X109809523Y-76907200D01*
X109809523Y-76907200D02*
X109666666Y-76954819D01*
X109666666Y-76954819D02*
X109571428Y-76954819D01*
X109571428Y-76954819D02*
X109428571Y-76907200D01*
X109428571Y-76907200D02*
X109333333Y-76811961D01*
X109333333Y-76811961D02*
X109285714Y-76716723D01*
X109285714Y-76716723D02*
X109238095Y-76526247D01*
X109238095Y-76526247D02*
X109238095Y-76383390D01*
X109238095Y-76383390D02*
X109285714Y-76192914D01*
X109285714Y-76192914D02*
X109333333Y-76097676D01*
X109333333Y-76097676D02*
X109428571Y-76002438D01*
X109428571Y-76002438D02*
X109571428Y-75954819D01*
X109571428Y-75954819D02*
X109666666Y-75954819D01*
X109666666Y-75954819D02*
X109809523Y-76002438D01*
X109809523Y-76002438D02*
X109857142Y-76050057D01*
X110238095Y-76050057D02*
X110285714Y-76002438D01*
X110285714Y-76002438D02*
X110380952Y-75954819D01*
X110380952Y-75954819D02*
X110619047Y-75954819D01*
X110619047Y-75954819D02*
X110714285Y-76002438D01*
X110714285Y-76002438D02*
X110761904Y-76050057D01*
X110761904Y-76050057D02*
X110809523Y-76145295D01*
X110809523Y-76145295D02*
X110809523Y-76240533D01*
X110809523Y-76240533D02*
X110761904Y-76383390D01*
X110761904Y-76383390D02*
X110190476Y-76954819D01*
X110190476Y-76954819D02*
X110809523Y-76954819D01*
X111142857Y-75954819D02*
X111761904Y-75954819D01*
X111761904Y-75954819D02*
X111428571Y-76335771D01*
X111428571Y-76335771D02*
X111571428Y-76335771D01*
X111571428Y-76335771D02*
X111666666Y-76383390D01*
X111666666Y-76383390D02*
X111714285Y-76431009D01*
X111714285Y-76431009D02*
X111761904Y-76526247D01*
X111761904Y-76526247D02*
X111761904Y-76764342D01*
X111761904Y-76764342D02*
X111714285Y-76859580D01*
X111714285Y-76859580D02*
X111666666Y-76907200D01*
X111666666Y-76907200D02*
X111571428Y-76954819D01*
X111571428Y-76954819D02*
X111285714Y-76954819D01*
X111285714Y-76954819D02*
X111190476Y-76907200D01*
X111190476Y-76907200D02*
X111142857Y-76859580D01*
X123190476Y-93020419D02*
X123857142Y-94020419D01*
X123857142Y-93020419D02*
X123190476Y-94020419D01*
X124190476Y-93115657D02*
X124238095Y-93068038D01*
X124238095Y-93068038D02*
X124333333Y-93020419D01*
X124333333Y-93020419D02*
X124571428Y-93020419D01*
X124571428Y-93020419D02*
X124666666Y-93068038D01*
X124666666Y-93068038D02*
X124714285Y-93115657D01*
X124714285Y-93115657D02*
X124761904Y-93210895D01*
X124761904Y-93210895D02*
X124761904Y-93306133D01*
X124761904Y-93306133D02*
X124714285Y-93448990D01*
X124714285Y-93448990D02*
X124142857Y-94020419D01*
X124142857Y-94020419D02*
X124761904Y-94020419D01*
X166738095Y-63446819D02*
X166738095Y-62446819D01*
X166738095Y-62923009D02*
X167309523Y-62923009D01*
X167309523Y-63446819D02*
X167309523Y-62446819D01*
X168214285Y-62780152D02*
X168214285Y-63446819D01*
X167976190Y-62399200D02*
X167738095Y-63113485D01*
X167738095Y-63113485D02*
X168357142Y-63113485D01*
X119704819Y-74669047D02*
X119704819Y-75145237D01*
X119704819Y-75145237D02*
X118704819Y-75145237D01*
X119181009Y-74335713D02*
X119181009Y-74002380D01*
X119704819Y-73859523D02*
X119704819Y-74335713D01*
X119704819Y-74335713D02*
X118704819Y-74335713D01*
X118704819Y-74335713D02*
X118704819Y-73859523D01*
X119704819Y-73430951D02*
X118704819Y-73430951D01*
X118704819Y-73430951D02*
X118704819Y-73192856D01*
X118704819Y-73192856D02*
X118752438Y-73049999D01*
X118752438Y-73049999D02*
X118847676Y-72954761D01*
X118847676Y-72954761D02*
X118942914Y-72907142D01*
X118942914Y-72907142D02*
X119133390Y-72859523D01*
X119133390Y-72859523D02*
X119276247Y-72859523D01*
X119276247Y-72859523D02*
X119466723Y-72907142D01*
X119466723Y-72907142D02*
X119561961Y-72954761D01*
X119561961Y-72954761D02*
X119657200Y-73049999D01*
X119657200Y-73049999D02*
X119704819Y-73192856D01*
X119704819Y-73192856D02*
X119704819Y-73430951D01*
X118704819Y-72526189D02*
X118704819Y-71907142D01*
X118704819Y-71907142D02*
X119085771Y-72240475D01*
X119085771Y-72240475D02*
X119085771Y-72097618D01*
X119085771Y-72097618D02*
X119133390Y-72002380D01*
X119133390Y-72002380D02*
X119181009Y-71954761D01*
X119181009Y-71954761D02*
X119276247Y-71907142D01*
X119276247Y-71907142D02*
X119514342Y-71907142D01*
X119514342Y-71907142D02*
X119609580Y-71954761D01*
X119609580Y-71954761D02*
X119657200Y-72002380D01*
X119657200Y-72002380D02*
X119704819Y-72097618D01*
X119704819Y-72097618D02*
X119704819Y-72383332D01*
X119704819Y-72383332D02*
X119657200Y-72478570D01*
X119657200Y-72478570D02*
X119609580Y-72526189D01*
X128786095Y-93180819D02*
X129357523Y-93180819D01*
X129071809Y-94180819D02*
X129071809Y-93180819D01*
X129690857Y-94180819D02*
X129690857Y-93180819D01*
X129690857Y-93180819D02*
X130071809Y-93180819D01*
X130071809Y-93180819D02*
X130167047Y-93228438D01*
X130167047Y-93228438D02*
X130214666Y-93276057D01*
X130214666Y-93276057D02*
X130262285Y-93371295D01*
X130262285Y-93371295D02*
X130262285Y-93514152D01*
X130262285Y-93514152D02*
X130214666Y-93609390D01*
X130214666Y-93609390D02*
X130167047Y-93657009D01*
X130167047Y-93657009D02*
X130071809Y-93704628D01*
X130071809Y-93704628D02*
X129690857Y-93704628D01*
X130833714Y-93609390D02*
X130738476Y-93561771D01*
X130738476Y-93561771D02*
X130690857Y-93514152D01*
X130690857Y-93514152D02*
X130643238Y-93418914D01*
X130643238Y-93418914D02*
X130643238Y-93371295D01*
X130643238Y-93371295D02*
X130690857Y-93276057D01*
X130690857Y-93276057D02*
X130738476Y-93228438D01*
X130738476Y-93228438D02*
X130833714Y-93180819D01*
X130833714Y-93180819D02*
X131024190Y-93180819D01*
X131024190Y-93180819D02*
X131119428Y-93228438D01*
X131119428Y-93228438D02*
X131167047Y-93276057D01*
X131167047Y-93276057D02*
X131214666Y-93371295D01*
X131214666Y-93371295D02*
X131214666Y-93418914D01*
X131214666Y-93418914D02*
X131167047Y-93514152D01*
X131167047Y-93514152D02*
X131119428Y-93561771D01*
X131119428Y-93561771D02*
X131024190Y-93609390D01*
X131024190Y-93609390D02*
X130833714Y-93609390D01*
X130833714Y-93609390D02*
X130738476Y-93657009D01*
X130738476Y-93657009D02*
X130690857Y-93704628D01*
X130690857Y-93704628D02*
X130643238Y-93799866D01*
X130643238Y-93799866D02*
X130643238Y-93990342D01*
X130643238Y-93990342D02*
X130690857Y-94085580D01*
X130690857Y-94085580D02*
X130738476Y-94133200D01*
X130738476Y-94133200D02*
X130833714Y-94180819D01*
X130833714Y-94180819D02*
X131024190Y-94180819D01*
X131024190Y-94180819D02*
X131119428Y-94133200D01*
X131119428Y-94133200D02*
X131167047Y-94085580D01*
X131167047Y-94085580D02*
X131214666Y-93990342D01*
X131214666Y-93990342D02*
X131214666Y-93799866D01*
X131214666Y-93799866D02*
X131167047Y-93704628D01*
X131167047Y-93704628D02*
X131119428Y-93657009D01*
X131119428Y-93657009D02*
X131024190Y-93609390D01*
X93488095Y-86954819D02*
X93488095Y-87764342D01*
X93488095Y-87764342D02*
X93535714Y-87859580D01*
X93535714Y-87859580D02*
X93583333Y-87907200D01*
X93583333Y-87907200D02*
X93678571Y-87954819D01*
X93678571Y-87954819D02*
X93869047Y-87954819D01*
X93869047Y-87954819D02*
X93964285Y-87907200D01*
X93964285Y-87907200D02*
X94011904Y-87859580D01*
X94011904Y-87859580D02*
X94059523Y-87764342D01*
X94059523Y-87764342D02*
X94059523Y-86954819D01*
X95059523Y-87954819D02*
X94488095Y-87954819D01*
X94773809Y-87954819D02*
X94773809Y-86954819D01*
X94773809Y-86954819D02*
X94678571Y-87097676D01*
X94678571Y-87097676D02*
X94583333Y-87192914D01*
X94583333Y-87192914D02*
X94488095Y-87240533D01*
X84201095Y-117802819D02*
X84201095Y-116802819D01*
X84201095Y-117279009D02*
X84772523Y-117279009D01*
X84772523Y-117802819D02*
X84772523Y-116802819D01*
X85724904Y-116802819D02*
X85248714Y-116802819D01*
X85248714Y-116802819D02*
X85201095Y-117279009D01*
X85201095Y-117279009D02*
X85248714Y-117231390D01*
X85248714Y-117231390D02*
X85343952Y-117183771D01*
X85343952Y-117183771D02*
X85582047Y-117183771D01*
X85582047Y-117183771D02*
X85677285Y-117231390D01*
X85677285Y-117231390D02*
X85724904Y-117279009D01*
X85724904Y-117279009D02*
X85772523Y-117374247D01*
X85772523Y-117374247D02*
X85772523Y-117612342D01*
X85772523Y-117612342D02*
X85724904Y-117707580D01*
X85724904Y-117707580D02*
X85677285Y-117755200D01*
X85677285Y-117755200D02*
X85582047Y-117802819D01*
X85582047Y-117802819D02*
X85343952Y-117802819D01*
X85343952Y-117802819D02*
X85248714Y-117755200D01*
X85248714Y-117755200D02*
X85201095Y-117707580D01*
X124071142Y-91418580D02*
X124023523Y-91466200D01*
X124023523Y-91466200D02*
X123880666Y-91513819D01*
X123880666Y-91513819D02*
X123785428Y-91513819D01*
X123785428Y-91513819D02*
X123642571Y-91466200D01*
X123642571Y-91466200D02*
X123547333Y-91370961D01*
X123547333Y-91370961D02*
X123499714Y-91275723D01*
X123499714Y-91275723D02*
X123452095Y-91085247D01*
X123452095Y-91085247D02*
X123452095Y-90942390D01*
X123452095Y-90942390D02*
X123499714Y-90751914D01*
X123499714Y-90751914D02*
X123547333Y-90656676D01*
X123547333Y-90656676D02*
X123642571Y-90561438D01*
X123642571Y-90561438D02*
X123785428Y-90513819D01*
X123785428Y-90513819D02*
X123880666Y-90513819D01*
X123880666Y-90513819D02*
X124023523Y-90561438D01*
X124023523Y-90561438D02*
X124071142Y-90609057D01*
X124452095Y-90609057D02*
X124499714Y-90561438D01*
X124499714Y-90561438D02*
X124594952Y-90513819D01*
X124594952Y-90513819D02*
X124833047Y-90513819D01*
X124833047Y-90513819D02*
X124928285Y-90561438D01*
X124928285Y-90561438D02*
X124975904Y-90609057D01*
X124975904Y-90609057D02*
X125023523Y-90704295D01*
X125023523Y-90704295D02*
X125023523Y-90799533D01*
X125023523Y-90799533D02*
X124975904Y-90942390D01*
X124975904Y-90942390D02*
X124404476Y-91513819D01*
X124404476Y-91513819D02*
X125023523Y-91513819D01*
X125499714Y-91513819D02*
X125690190Y-91513819D01*
X125690190Y-91513819D02*
X125785428Y-91466200D01*
X125785428Y-91466200D02*
X125833047Y-91418580D01*
X125833047Y-91418580D02*
X125928285Y-91275723D01*
X125928285Y-91275723D02*
X125975904Y-91085247D01*
X125975904Y-91085247D02*
X125975904Y-90704295D01*
X125975904Y-90704295D02*
X125928285Y-90609057D01*
X125928285Y-90609057D02*
X125880666Y-90561438D01*
X125880666Y-90561438D02*
X125785428Y-90513819D01*
X125785428Y-90513819D02*
X125594952Y-90513819D01*
X125594952Y-90513819D02*
X125499714Y-90561438D01*
X125499714Y-90561438D02*
X125452095Y-90609057D01*
X125452095Y-90609057D02*
X125404476Y-90704295D01*
X125404476Y-90704295D02*
X125404476Y-90942390D01*
X125404476Y-90942390D02*
X125452095Y-91037628D01*
X125452095Y-91037628D02*
X125499714Y-91085247D01*
X125499714Y-91085247D02*
X125594952Y-91132866D01*
X125594952Y-91132866D02*
X125785428Y-91132866D01*
X125785428Y-91132866D02*
X125880666Y-91085247D01*
X125880666Y-91085247D02*
X125928285Y-91037628D01*
X125928285Y-91037628D02*
X125975904Y-90942390D01*
X83107142Y-79454819D02*
X82773809Y-78978628D01*
X82535714Y-79454819D02*
X82535714Y-78454819D01*
X82535714Y-78454819D02*
X82916666Y-78454819D01*
X82916666Y-78454819D02*
X83011904Y-78502438D01*
X83011904Y-78502438D02*
X83059523Y-78550057D01*
X83059523Y-78550057D02*
X83107142Y-78645295D01*
X83107142Y-78645295D02*
X83107142Y-78788152D01*
X83107142Y-78788152D02*
X83059523Y-78883390D01*
X83059523Y-78883390D02*
X83011904Y-78931009D01*
X83011904Y-78931009D02*
X82916666Y-78978628D01*
X82916666Y-78978628D02*
X82535714Y-78978628D01*
X84059523Y-79454819D02*
X83488095Y-79454819D01*
X83773809Y-79454819D02*
X83773809Y-78454819D01*
X83773809Y-78454819D02*
X83678571Y-78597676D01*
X83678571Y-78597676D02*
X83583333Y-78692914D01*
X83583333Y-78692914D02*
X83488095Y-78740533D01*
X84392857Y-78454819D02*
X85059523Y-78454819D01*
X85059523Y-78454819D02*
X84630952Y-79454819D01*
X92909580Y-83242857D02*
X92957200Y-83290476D01*
X92957200Y-83290476D02*
X93004819Y-83433333D01*
X93004819Y-83433333D02*
X93004819Y-83528571D01*
X93004819Y-83528571D02*
X92957200Y-83671428D01*
X92957200Y-83671428D02*
X92861961Y-83766666D01*
X92861961Y-83766666D02*
X92766723Y-83814285D01*
X92766723Y-83814285D02*
X92576247Y-83861904D01*
X92576247Y-83861904D02*
X92433390Y-83861904D01*
X92433390Y-83861904D02*
X92242914Y-83814285D01*
X92242914Y-83814285D02*
X92147676Y-83766666D01*
X92147676Y-83766666D02*
X92052438Y-83671428D01*
X92052438Y-83671428D02*
X92004819Y-83528571D01*
X92004819Y-83528571D02*
X92004819Y-83433333D01*
X92004819Y-83433333D02*
X92052438Y-83290476D01*
X92052438Y-83290476D02*
X92100057Y-83242857D01*
X93004819Y-82290476D02*
X93004819Y-82861904D01*
X93004819Y-82576190D02*
X92004819Y-82576190D01*
X92004819Y-82576190D02*
X92147676Y-82671428D01*
X92147676Y-82671428D02*
X92242914Y-82766666D01*
X92242914Y-82766666D02*
X92290533Y-82861904D01*
X92338152Y-81433333D02*
X93004819Y-81433333D01*
X91957200Y-81671428D02*
X92671485Y-81909523D01*
X92671485Y-81909523D02*
X92671485Y-81290476D01*
X152950057Y-85004438D02*
X152902438Y-85099676D01*
X152902438Y-85099676D02*
X152807200Y-85194914D01*
X152807200Y-85194914D02*
X152664342Y-85337771D01*
X152664342Y-85337771D02*
X152616723Y-85433009D01*
X152616723Y-85433009D02*
X152616723Y-85528247D01*
X152854819Y-85480628D02*
X152807200Y-85575866D01*
X152807200Y-85575866D02*
X152711961Y-85671104D01*
X152711961Y-85671104D02*
X152521485Y-85718723D01*
X152521485Y-85718723D02*
X152188152Y-85718723D01*
X152188152Y-85718723D02*
X151997676Y-85671104D01*
X151997676Y-85671104D02*
X151902438Y-85575866D01*
X151902438Y-85575866D02*
X151854819Y-85480628D01*
X151854819Y-85480628D02*
X151854819Y-85290152D01*
X151854819Y-85290152D02*
X151902438Y-85194914D01*
X151902438Y-85194914D02*
X151997676Y-85099676D01*
X151997676Y-85099676D02*
X152188152Y-85052057D01*
X152188152Y-85052057D02*
X152521485Y-85052057D01*
X152521485Y-85052057D02*
X152711961Y-85099676D01*
X152711961Y-85099676D02*
X152807200Y-85194914D01*
X152807200Y-85194914D02*
X152854819Y-85290152D01*
X152854819Y-85290152D02*
X152854819Y-85480628D01*
X152854819Y-84099676D02*
X152854819Y-84671104D01*
X152854819Y-84385390D02*
X151854819Y-84385390D01*
X151854819Y-84385390D02*
X151997676Y-84480628D01*
X151997676Y-84480628D02*
X152092914Y-84575866D01*
X152092914Y-84575866D02*
X152140533Y-84671104D01*
X121359580Y-100642857D02*
X121407200Y-100690476D01*
X121407200Y-100690476D02*
X121454819Y-100833333D01*
X121454819Y-100833333D02*
X121454819Y-100928571D01*
X121454819Y-100928571D02*
X121407200Y-101071428D01*
X121407200Y-101071428D02*
X121311961Y-101166666D01*
X121311961Y-101166666D02*
X121216723Y-101214285D01*
X121216723Y-101214285D02*
X121026247Y-101261904D01*
X121026247Y-101261904D02*
X120883390Y-101261904D01*
X120883390Y-101261904D02*
X120692914Y-101214285D01*
X120692914Y-101214285D02*
X120597676Y-101166666D01*
X120597676Y-101166666D02*
X120502438Y-101071428D01*
X120502438Y-101071428D02*
X120454819Y-100928571D01*
X120454819Y-100928571D02*
X120454819Y-100833333D01*
X120454819Y-100833333D02*
X120502438Y-100690476D01*
X120502438Y-100690476D02*
X120550057Y-100642857D01*
X120550057Y-100261904D02*
X120502438Y-100214285D01*
X120502438Y-100214285D02*
X120454819Y-100119047D01*
X120454819Y-100119047D02*
X120454819Y-99880952D01*
X120454819Y-99880952D02*
X120502438Y-99785714D01*
X120502438Y-99785714D02*
X120550057Y-99738095D01*
X120550057Y-99738095D02*
X120645295Y-99690476D01*
X120645295Y-99690476D02*
X120740533Y-99690476D01*
X120740533Y-99690476D02*
X120883390Y-99738095D01*
X120883390Y-99738095D02*
X121454819Y-100309523D01*
X121454819Y-100309523D02*
X121454819Y-99690476D01*
X120454819Y-99071428D02*
X120454819Y-98976190D01*
X120454819Y-98976190D02*
X120502438Y-98880952D01*
X120502438Y-98880952D02*
X120550057Y-98833333D01*
X120550057Y-98833333D02*
X120645295Y-98785714D01*
X120645295Y-98785714D02*
X120835771Y-98738095D01*
X120835771Y-98738095D02*
X121073866Y-98738095D01*
X121073866Y-98738095D02*
X121264342Y-98785714D01*
X121264342Y-98785714D02*
X121359580Y-98833333D01*
X121359580Y-98833333D02*
X121407200Y-98880952D01*
X121407200Y-98880952D02*
X121454819Y-98976190D01*
X121454819Y-98976190D02*
X121454819Y-99071428D01*
X121454819Y-99071428D02*
X121407200Y-99166666D01*
X121407200Y-99166666D02*
X121359580Y-99214285D01*
X121359580Y-99214285D02*
X121264342Y-99261904D01*
X121264342Y-99261904D02*
X121073866Y-99309523D01*
X121073866Y-99309523D02*
X120835771Y-99309523D01*
X120835771Y-99309523D02*
X120645295Y-99261904D01*
X120645295Y-99261904D02*
X120550057Y-99214285D01*
X120550057Y-99214285D02*
X120502438Y-99166666D01*
X120502438Y-99166666D02*
X120454819Y-99071428D01*
X138275895Y-94484819D02*
X138275895Y-95294342D01*
X138275895Y-95294342D02*
X138323514Y-95389580D01*
X138323514Y-95389580D02*
X138371133Y-95437200D01*
X138371133Y-95437200D02*
X138466371Y-95484819D01*
X138466371Y-95484819D02*
X138656847Y-95484819D01*
X138656847Y-95484819D02*
X138752085Y-95437200D01*
X138752085Y-95437200D02*
X138799704Y-95389580D01*
X138799704Y-95389580D02*
X138847323Y-95294342D01*
X138847323Y-95294342D02*
X138847323Y-94484819D01*
X139799704Y-94484819D02*
X139323514Y-94484819D01*
X139323514Y-94484819D02*
X139275895Y-94961009D01*
X139275895Y-94961009D02*
X139323514Y-94913390D01*
X139323514Y-94913390D02*
X139418752Y-94865771D01*
X139418752Y-94865771D02*
X139656847Y-94865771D01*
X139656847Y-94865771D02*
X139752085Y-94913390D01*
X139752085Y-94913390D02*
X139799704Y-94961009D01*
X139799704Y-94961009D02*
X139847323Y-95056247D01*
X139847323Y-95056247D02*
X139847323Y-95294342D01*
X139847323Y-95294342D02*
X139799704Y-95389580D01*
X139799704Y-95389580D02*
X139752085Y-95437200D01*
X139752085Y-95437200D02*
X139656847Y-95484819D01*
X139656847Y-95484819D02*
X139418752Y-95484819D01*
X139418752Y-95484819D02*
X139323514Y-95437200D01*
X139323514Y-95437200D02*
X139275895Y-95389580D01*
X86738095Y-74454819D02*
X87309523Y-74454819D01*
X87023809Y-75454819D02*
X87023809Y-74454819D01*
X87642857Y-75454819D02*
X87642857Y-74454819D01*
X87642857Y-74454819D02*
X88023809Y-74454819D01*
X88023809Y-74454819D02*
X88119047Y-74502438D01*
X88119047Y-74502438D02*
X88166666Y-74550057D01*
X88166666Y-74550057D02*
X88214285Y-74645295D01*
X88214285Y-74645295D02*
X88214285Y-74788152D01*
X88214285Y-74788152D02*
X88166666Y-74883390D01*
X88166666Y-74883390D02*
X88119047Y-74931009D01*
X88119047Y-74931009D02*
X88023809Y-74978628D01*
X88023809Y-74978628D02*
X87642857Y-74978628D01*
X88547619Y-74454819D02*
X89166666Y-74454819D01*
X89166666Y-74454819D02*
X88833333Y-74835771D01*
X88833333Y-74835771D02*
X88976190Y-74835771D01*
X88976190Y-74835771D02*
X89071428Y-74883390D01*
X89071428Y-74883390D02*
X89119047Y-74931009D01*
X89119047Y-74931009D02*
X89166666Y-75026247D01*
X89166666Y-75026247D02*
X89166666Y-75264342D01*
X89166666Y-75264342D02*
X89119047Y-75359580D01*
X89119047Y-75359580D02*
X89071428Y-75407200D01*
X89071428Y-75407200D02*
X88976190Y-75454819D01*
X88976190Y-75454819D02*
X88690476Y-75454819D01*
X88690476Y-75454819D02*
X88595238Y-75407200D01*
X88595238Y-75407200D02*
X88547619Y-75359580D01*
X84328095Y-63446819D02*
X84328095Y-62446819D01*
X84328095Y-62923009D02*
X84899523Y-62923009D01*
X84899523Y-63446819D02*
X84899523Y-62446819D01*
X85280476Y-62446819D02*
X85899523Y-62446819D01*
X85899523Y-62446819D02*
X85566190Y-62827771D01*
X85566190Y-62827771D02*
X85709047Y-62827771D01*
X85709047Y-62827771D02*
X85804285Y-62875390D01*
X85804285Y-62875390D02*
X85851904Y-62923009D01*
X85851904Y-62923009D02*
X85899523Y-63018247D01*
X85899523Y-63018247D02*
X85899523Y-63256342D01*
X85899523Y-63256342D02*
X85851904Y-63351580D01*
X85851904Y-63351580D02*
X85804285Y-63399200D01*
X85804285Y-63399200D02*
X85709047Y-63446819D01*
X85709047Y-63446819D02*
X85423333Y-63446819D01*
X85423333Y-63446819D02*
X85328095Y-63399200D01*
X85328095Y-63399200D02*
X85280476Y-63351580D01*
X124739495Y-84290819D02*
X124739495Y-85100342D01*
X124739495Y-85100342D02*
X124787114Y-85195580D01*
X124787114Y-85195580D02*
X124834733Y-85243200D01*
X124834733Y-85243200D02*
X124929971Y-85290819D01*
X124929971Y-85290819D02*
X125120447Y-85290819D01*
X125120447Y-85290819D02*
X125215685Y-85243200D01*
X125215685Y-85243200D02*
X125263304Y-85195580D01*
X125263304Y-85195580D02*
X125310923Y-85100342D01*
X125310923Y-85100342D02*
X125310923Y-84290819D01*
X125691876Y-84290819D02*
X126310923Y-84290819D01*
X126310923Y-84290819D02*
X125977590Y-84671771D01*
X125977590Y-84671771D02*
X126120447Y-84671771D01*
X126120447Y-84671771D02*
X126215685Y-84719390D01*
X126215685Y-84719390D02*
X126263304Y-84767009D01*
X126263304Y-84767009D02*
X126310923Y-84862247D01*
X126310923Y-84862247D02*
X126310923Y-85100342D01*
X126310923Y-85100342D02*
X126263304Y-85195580D01*
X126263304Y-85195580D02*
X126215685Y-85243200D01*
X126215685Y-85243200D02*
X126120447Y-85290819D01*
X126120447Y-85290819D02*
X125834733Y-85290819D01*
X125834733Y-85290819D02*
X125739495Y-85243200D01*
X125739495Y-85243200D02*
X125691876Y-85195580D01*
X130491142Y-102554780D02*
X130443523Y-102602400D01*
X130443523Y-102602400D02*
X130300666Y-102650019D01*
X130300666Y-102650019D02*
X130205428Y-102650019D01*
X130205428Y-102650019D02*
X130062571Y-102602400D01*
X130062571Y-102602400D02*
X129967333Y-102507161D01*
X129967333Y-102507161D02*
X129919714Y-102411923D01*
X129919714Y-102411923D02*
X129872095Y-102221447D01*
X129872095Y-102221447D02*
X129872095Y-102078590D01*
X129872095Y-102078590D02*
X129919714Y-101888114D01*
X129919714Y-101888114D02*
X129967333Y-101792876D01*
X129967333Y-101792876D02*
X130062571Y-101697638D01*
X130062571Y-101697638D02*
X130205428Y-101650019D01*
X130205428Y-101650019D02*
X130300666Y-101650019D01*
X130300666Y-101650019D02*
X130443523Y-101697638D01*
X130443523Y-101697638D02*
X130491142Y-101745257D01*
X130872095Y-101745257D02*
X130919714Y-101697638D01*
X130919714Y-101697638D02*
X131014952Y-101650019D01*
X131014952Y-101650019D02*
X131253047Y-101650019D01*
X131253047Y-101650019D02*
X131348285Y-101697638D01*
X131348285Y-101697638D02*
X131395904Y-101745257D01*
X131395904Y-101745257D02*
X131443523Y-101840495D01*
X131443523Y-101840495D02*
X131443523Y-101935733D01*
X131443523Y-101935733D02*
X131395904Y-102078590D01*
X131395904Y-102078590D02*
X130824476Y-102650019D01*
X130824476Y-102650019D02*
X131443523Y-102650019D01*
X132395904Y-102650019D02*
X131824476Y-102650019D01*
X132110190Y-102650019D02*
X132110190Y-101650019D01*
X132110190Y-101650019D02*
X132014952Y-101792876D01*
X132014952Y-101792876D02*
X131919714Y-101888114D01*
X131919714Y-101888114D02*
X131824476Y-101935733D01*
X130248095Y-117528819D02*
X130819523Y-117528819D01*
X130533809Y-118528819D02*
X130533809Y-117528819D01*
X131152857Y-118528819D02*
X131152857Y-117528819D01*
X131152857Y-117528819D02*
X131533809Y-117528819D01*
X131533809Y-117528819D02*
X131629047Y-117576438D01*
X131629047Y-117576438D02*
X131676666Y-117624057D01*
X131676666Y-117624057D02*
X131724285Y-117719295D01*
X131724285Y-117719295D02*
X131724285Y-117862152D01*
X131724285Y-117862152D02*
X131676666Y-117957390D01*
X131676666Y-117957390D02*
X131629047Y-118005009D01*
X131629047Y-118005009D02*
X131533809Y-118052628D01*
X131533809Y-118052628D02*
X131152857Y-118052628D01*
X132200476Y-118528819D02*
X132390952Y-118528819D01*
X132390952Y-118528819D02*
X132486190Y-118481200D01*
X132486190Y-118481200D02*
X132533809Y-118433580D01*
X132533809Y-118433580D02*
X132629047Y-118290723D01*
X132629047Y-118290723D02*
X132676666Y-118100247D01*
X132676666Y-118100247D02*
X132676666Y-117719295D01*
X132676666Y-117719295D02*
X132629047Y-117624057D01*
X132629047Y-117624057D02*
X132581428Y-117576438D01*
X132581428Y-117576438D02*
X132486190Y-117528819D01*
X132486190Y-117528819D02*
X132295714Y-117528819D01*
X132295714Y-117528819D02*
X132200476Y-117576438D01*
X132200476Y-117576438D02*
X132152857Y-117624057D01*
X132152857Y-117624057D02*
X132105238Y-117719295D01*
X132105238Y-117719295D02*
X132105238Y-117957390D01*
X132105238Y-117957390D02*
X132152857Y-118052628D01*
X132152857Y-118052628D02*
X132200476Y-118100247D01*
X132200476Y-118100247D02*
X132295714Y-118147866D01*
X132295714Y-118147866D02*
X132486190Y-118147866D01*
X132486190Y-118147866D02*
X132581428Y-118100247D01*
X132581428Y-118100247D02*
X132629047Y-118052628D01*
X132629047Y-118052628D02*
X132676666Y-117957390D01*
X102997095Y-65351819D02*
X102997095Y-64351819D01*
X102997095Y-64828009D02*
X103568523Y-64828009D01*
X103568523Y-65351819D02*
X103568523Y-64351819D01*
X104568523Y-65351819D02*
X103997095Y-65351819D01*
X104282809Y-65351819D02*
X104282809Y-64351819D01*
X104282809Y-64351819D02*
X104187571Y-64494676D01*
X104187571Y-64494676D02*
X104092333Y-64589914D01*
X104092333Y-64589914D02*
X103997095Y-64637533D01*
X149217142Y-90116819D02*
X148883809Y-89640628D01*
X148645714Y-90116819D02*
X148645714Y-89116819D01*
X148645714Y-89116819D02*
X149026666Y-89116819D01*
X149026666Y-89116819D02*
X149121904Y-89164438D01*
X149121904Y-89164438D02*
X149169523Y-89212057D01*
X149169523Y-89212057D02*
X149217142Y-89307295D01*
X149217142Y-89307295D02*
X149217142Y-89450152D01*
X149217142Y-89450152D02*
X149169523Y-89545390D01*
X149169523Y-89545390D02*
X149121904Y-89593009D01*
X149121904Y-89593009D02*
X149026666Y-89640628D01*
X149026666Y-89640628D02*
X148645714Y-89640628D01*
X149598095Y-89212057D02*
X149645714Y-89164438D01*
X149645714Y-89164438D02*
X149740952Y-89116819D01*
X149740952Y-89116819D02*
X149979047Y-89116819D01*
X149979047Y-89116819D02*
X150074285Y-89164438D01*
X150074285Y-89164438D02*
X150121904Y-89212057D01*
X150121904Y-89212057D02*
X150169523Y-89307295D01*
X150169523Y-89307295D02*
X150169523Y-89402533D01*
X150169523Y-89402533D02*
X150121904Y-89545390D01*
X150121904Y-89545390D02*
X149550476Y-90116819D01*
X149550476Y-90116819D02*
X150169523Y-90116819D01*
X150550476Y-89212057D02*
X150598095Y-89164438D01*
X150598095Y-89164438D02*
X150693333Y-89116819D01*
X150693333Y-89116819D02*
X150931428Y-89116819D01*
X150931428Y-89116819D02*
X151026666Y-89164438D01*
X151026666Y-89164438D02*
X151074285Y-89212057D01*
X151074285Y-89212057D02*
X151121904Y-89307295D01*
X151121904Y-89307295D02*
X151121904Y-89402533D01*
X151121904Y-89402533D02*
X151074285Y-89545390D01*
X151074285Y-89545390D02*
X150502857Y-90116819D01*
X150502857Y-90116819D02*
X151121904Y-90116819D01*
X119389142Y-65129580D02*
X119341523Y-65177200D01*
X119341523Y-65177200D02*
X119198666Y-65224819D01*
X119198666Y-65224819D02*
X119103428Y-65224819D01*
X119103428Y-65224819D02*
X118960571Y-65177200D01*
X118960571Y-65177200D02*
X118865333Y-65081961D01*
X118865333Y-65081961D02*
X118817714Y-64986723D01*
X118817714Y-64986723D02*
X118770095Y-64796247D01*
X118770095Y-64796247D02*
X118770095Y-64653390D01*
X118770095Y-64653390D02*
X118817714Y-64462914D01*
X118817714Y-64462914D02*
X118865333Y-64367676D01*
X118865333Y-64367676D02*
X118960571Y-64272438D01*
X118960571Y-64272438D02*
X119103428Y-64224819D01*
X119103428Y-64224819D02*
X119198666Y-64224819D01*
X119198666Y-64224819D02*
X119341523Y-64272438D01*
X119341523Y-64272438D02*
X119389142Y-64320057D01*
X119722476Y-64224819D02*
X120341523Y-64224819D01*
X120341523Y-64224819D02*
X120008190Y-64605771D01*
X120008190Y-64605771D02*
X120151047Y-64605771D01*
X120151047Y-64605771D02*
X120246285Y-64653390D01*
X120246285Y-64653390D02*
X120293904Y-64701009D01*
X120293904Y-64701009D02*
X120341523Y-64796247D01*
X120341523Y-64796247D02*
X120341523Y-65034342D01*
X120341523Y-65034342D02*
X120293904Y-65129580D01*
X120293904Y-65129580D02*
X120246285Y-65177200D01*
X120246285Y-65177200D02*
X120151047Y-65224819D01*
X120151047Y-65224819D02*
X119865333Y-65224819D01*
X119865333Y-65224819D02*
X119770095Y-65177200D01*
X119770095Y-65177200D02*
X119722476Y-65129580D01*
X120960571Y-64224819D02*
X121055809Y-64224819D01*
X121055809Y-64224819D02*
X121151047Y-64272438D01*
X121151047Y-64272438D02*
X121198666Y-64320057D01*
X121198666Y-64320057D02*
X121246285Y-64415295D01*
X121246285Y-64415295D02*
X121293904Y-64605771D01*
X121293904Y-64605771D02*
X121293904Y-64843866D01*
X121293904Y-64843866D02*
X121246285Y-65034342D01*
X121246285Y-65034342D02*
X121198666Y-65129580D01*
X121198666Y-65129580D02*
X121151047Y-65177200D01*
X121151047Y-65177200D02*
X121055809Y-65224819D01*
X121055809Y-65224819D02*
X120960571Y-65224819D01*
X120960571Y-65224819D02*
X120865333Y-65177200D01*
X120865333Y-65177200D02*
X120817714Y-65129580D01*
X120817714Y-65129580D02*
X120770095Y-65034342D01*
X120770095Y-65034342D02*
X120722476Y-64843866D01*
X120722476Y-64843866D02*
X120722476Y-64605771D01*
X120722476Y-64605771D02*
X120770095Y-64415295D01*
X120770095Y-64415295D02*
X120817714Y-64320057D01*
X120817714Y-64320057D02*
X120865333Y-64272438D01*
X120865333Y-64272438D02*
X120960571Y-64224819D01*
X110521905Y-111278819D02*
X110521905Y-112088342D01*
X110521905Y-112088342D02*
X110569524Y-112183580D01*
X110569524Y-112183580D02*
X110617143Y-112231200D01*
X110617143Y-112231200D02*
X110712381Y-112278819D01*
X110712381Y-112278819D02*
X110902857Y-112278819D01*
X110902857Y-112278819D02*
X110998095Y-112231200D01*
X110998095Y-112231200D02*
X111045714Y-112183580D01*
X111045714Y-112183580D02*
X111093333Y-112088342D01*
X111093333Y-112088342D02*
X111093333Y-111278819D01*
X112093333Y-112278819D02*
X111521905Y-112278819D01*
X111807619Y-112278819D02*
X111807619Y-111278819D01*
X111807619Y-111278819D02*
X111712381Y-111421676D01*
X111712381Y-111421676D02*
X111617143Y-111516914D01*
X111617143Y-111516914D02*
X111521905Y-111564533D01*
X113045714Y-112278819D02*
X112474286Y-112278819D01*
X112760000Y-112278819D02*
X112760000Y-111278819D01*
X112760000Y-111278819D02*
X112664762Y-111421676D01*
X112664762Y-111421676D02*
X112569524Y-111516914D01*
X112569524Y-111516914D02*
X112474286Y-111564533D01*
X96817142Y-102859580D02*
X96769523Y-102907200D01*
X96769523Y-102907200D02*
X96626666Y-102954819D01*
X96626666Y-102954819D02*
X96531428Y-102954819D01*
X96531428Y-102954819D02*
X96388571Y-102907200D01*
X96388571Y-102907200D02*
X96293333Y-102811961D01*
X96293333Y-102811961D02*
X96245714Y-102716723D01*
X96245714Y-102716723D02*
X96198095Y-102526247D01*
X96198095Y-102526247D02*
X96198095Y-102383390D01*
X96198095Y-102383390D02*
X96245714Y-102192914D01*
X96245714Y-102192914D02*
X96293333Y-102097676D01*
X96293333Y-102097676D02*
X96388571Y-102002438D01*
X96388571Y-102002438D02*
X96531428Y-101954819D01*
X96531428Y-101954819D02*
X96626666Y-101954819D01*
X96626666Y-101954819D02*
X96769523Y-102002438D01*
X96769523Y-102002438D02*
X96817142Y-102050057D01*
X97769523Y-102954819D02*
X97198095Y-102954819D01*
X97483809Y-102954819D02*
X97483809Y-101954819D01*
X97483809Y-101954819D02*
X97388571Y-102097676D01*
X97388571Y-102097676D02*
X97293333Y-102192914D01*
X97293333Y-102192914D02*
X97198095Y-102240533D01*
X98102857Y-101954819D02*
X98769523Y-101954819D01*
X98769523Y-101954819D02*
X98340952Y-102954819D01*
X109857142Y-74859580D02*
X109809523Y-74907200D01*
X109809523Y-74907200D02*
X109666666Y-74954819D01*
X109666666Y-74954819D02*
X109571428Y-74954819D01*
X109571428Y-74954819D02*
X109428571Y-74907200D01*
X109428571Y-74907200D02*
X109333333Y-74811961D01*
X109333333Y-74811961D02*
X109285714Y-74716723D01*
X109285714Y-74716723D02*
X109238095Y-74526247D01*
X109238095Y-74526247D02*
X109238095Y-74383390D01*
X109238095Y-74383390D02*
X109285714Y-74192914D01*
X109285714Y-74192914D02*
X109333333Y-74097676D01*
X109333333Y-74097676D02*
X109428571Y-74002438D01*
X109428571Y-74002438D02*
X109571428Y-73954819D01*
X109571428Y-73954819D02*
X109666666Y-73954819D01*
X109666666Y-73954819D02*
X109809523Y-74002438D01*
X109809523Y-74002438D02*
X109857142Y-74050057D01*
X110809523Y-74954819D02*
X110238095Y-74954819D01*
X110523809Y-74954819D02*
X110523809Y-73954819D01*
X110523809Y-73954819D02*
X110428571Y-74097676D01*
X110428571Y-74097676D02*
X110333333Y-74192914D01*
X110333333Y-74192914D02*
X110238095Y-74240533D01*
X111714285Y-73954819D02*
X111238095Y-73954819D01*
X111238095Y-73954819D02*
X111190476Y-74431009D01*
X111190476Y-74431009D02*
X111238095Y-74383390D01*
X111238095Y-74383390D02*
X111333333Y-74335771D01*
X111333333Y-74335771D02*
X111571428Y-74335771D01*
X111571428Y-74335771D02*
X111666666Y-74383390D01*
X111666666Y-74383390D02*
X111714285Y-74431009D01*
X111714285Y-74431009D02*
X111761904Y-74526247D01*
X111761904Y-74526247D02*
X111761904Y-74764342D01*
X111761904Y-74764342D02*
X111714285Y-74859580D01*
X111714285Y-74859580D02*
X111666666Y-74907200D01*
X111666666Y-74907200D02*
X111571428Y-74954819D01*
X111571428Y-74954819D02*
X111333333Y-74954819D01*
X111333333Y-74954819D02*
X111238095Y-74907200D01*
X111238095Y-74907200D02*
X111190476Y-74859580D01*
X155017666Y-69739819D02*
X155017666Y-70454104D01*
X155017666Y-70454104D02*
X154970047Y-70596961D01*
X154970047Y-70596961D02*
X154874809Y-70692200D01*
X154874809Y-70692200D02*
X154731952Y-70739819D01*
X154731952Y-70739819D02*
X154636714Y-70739819D01*
X156017666Y-70739819D02*
X155446238Y-70739819D01*
X155731952Y-70739819D02*
X155731952Y-69739819D01*
X155731952Y-69739819D02*
X155636714Y-69882676D01*
X155636714Y-69882676D02*
X155541476Y-69977914D01*
X155541476Y-69977914D02*
X155446238Y-70025533D01*
X110013905Y-93688819D02*
X110013905Y-94498342D01*
X110013905Y-94498342D02*
X110061524Y-94593580D01*
X110061524Y-94593580D02*
X110109143Y-94641200D01*
X110109143Y-94641200D02*
X110204381Y-94688819D01*
X110204381Y-94688819D02*
X110394857Y-94688819D01*
X110394857Y-94688819D02*
X110490095Y-94641200D01*
X110490095Y-94641200D02*
X110537714Y-94593580D01*
X110537714Y-94593580D02*
X110585333Y-94498342D01*
X110585333Y-94498342D02*
X110585333Y-93688819D01*
X111585333Y-94688819D02*
X111013905Y-94688819D01*
X111299619Y-94688819D02*
X111299619Y-93688819D01*
X111299619Y-93688819D02*
X111204381Y-93831676D01*
X111204381Y-93831676D02*
X111109143Y-93926914D01*
X111109143Y-93926914D02*
X111013905Y-93974533D01*
X112204381Y-93688819D02*
X112299619Y-93688819D01*
X112299619Y-93688819D02*
X112394857Y-93736438D01*
X112394857Y-93736438D02*
X112442476Y-93784057D01*
X112442476Y-93784057D02*
X112490095Y-93879295D01*
X112490095Y-93879295D02*
X112537714Y-94069771D01*
X112537714Y-94069771D02*
X112537714Y-94307866D01*
X112537714Y-94307866D02*
X112490095Y-94498342D01*
X112490095Y-94498342D02*
X112442476Y-94593580D01*
X112442476Y-94593580D02*
X112394857Y-94641200D01*
X112394857Y-94641200D02*
X112299619Y-94688819D01*
X112299619Y-94688819D02*
X112204381Y-94688819D01*
X112204381Y-94688819D02*
X112109143Y-94641200D01*
X112109143Y-94641200D02*
X112061524Y-94593580D01*
X112061524Y-94593580D02*
X112013905Y-94498342D01*
X112013905Y-94498342D02*
X111966286Y-94307866D01*
X111966286Y-94307866D02*
X111966286Y-94069771D01*
X111966286Y-94069771D02*
X112013905Y-93879295D01*
X112013905Y-93879295D02*
X112061524Y-93784057D01*
X112061524Y-93784057D02*
X112109143Y-93736438D01*
X112109143Y-93736438D02*
X112204381Y-93688819D01*
X135386695Y-82595019D02*
X135386695Y-83404542D01*
X135386695Y-83404542D02*
X135434314Y-83499780D01*
X135434314Y-83499780D02*
X135481933Y-83547400D01*
X135481933Y-83547400D02*
X135577171Y-83595019D01*
X135577171Y-83595019D02*
X135767647Y-83595019D01*
X135767647Y-83595019D02*
X135862885Y-83547400D01*
X135862885Y-83547400D02*
X135910504Y-83499780D01*
X135910504Y-83499780D02*
X135958123Y-83404542D01*
X135958123Y-83404542D02*
X135958123Y-82595019D01*
X136577171Y-83023590D02*
X136481933Y-82975971D01*
X136481933Y-82975971D02*
X136434314Y-82928352D01*
X136434314Y-82928352D02*
X136386695Y-82833114D01*
X136386695Y-82833114D02*
X136386695Y-82785495D01*
X136386695Y-82785495D02*
X136434314Y-82690257D01*
X136434314Y-82690257D02*
X136481933Y-82642638D01*
X136481933Y-82642638D02*
X136577171Y-82595019D01*
X136577171Y-82595019D02*
X136767647Y-82595019D01*
X136767647Y-82595019D02*
X136862885Y-82642638D01*
X136862885Y-82642638D02*
X136910504Y-82690257D01*
X136910504Y-82690257D02*
X136958123Y-82785495D01*
X136958123Y-82785495D02*
X136958123Y-82833114D01*
X136958123Y-82833114D02*
X136910504Y-82928352D01*
X136910504Y-82928352D02*
X136862885Y-82975971D01*
X136862885Y-82975971D02*
X136767647Y-83023590D01*
X136767647Y-83023590D02*
X136577171Y-83023590D01*
X136577171Y-83023590D02*
X136481933Y-83071209D01*
X136481933Y-83071209D02*
X136434314Y-83118828D01*
X136434314Y-83118828D02*
X136386695Y-83214066D01*
X136386695Y-83214066D02*
X136386695Y-83404542D01*
X136386695Y-83404542D02*
X136434314Y-83499780D01*
X136434314Y-83499780D02*
X136481933Y-83547400D01*
X136481933Y-83547400D02*
X136577171Y-83595019D01*
X136577171Y-83595019D02*
X136767647Y-83595019D01*
X136767647Y-83595019D02*
X136862885Y-83547400D01*
X136862885Y-83547400D02*
X136910504Y-83499780D01*
X136910504Y-83499780D02*
X136958123Y-83404542D01*
X136958123Y-83404542D02*
X136958123Y-83214066D01*
X136958123Y-83214066D02*
X136910504Y-83118828D01*
X136910504Y-83118828D02*
X136862885Y-83071209D01*
X136862885Y-83071209D02*
X136767647Y-83023590D01*
X112336342Y-79202780D02*
X112288723Y-79250400D01*
X112288723Y-79250400D02*
X112145866Y-79298019D01*
X112145866Y-79298019D02*
X112050628Y-79298019D01*
X112050628Y-79298019D02*
X111907771Y-79250400D01*
X111907771Y-79250400D02*
X111812533Y-79155161D01*
X111812533Y-79155161D02*
X111764914Y-79059923D01*
X111764914Y-79059923D02*
X111717295Y-78869447D01*
X111717295Y-78869447D02*
X111717295Y-78726590D01*
X111717295Y-78726590D02*
X111764914Y-78536114D01*
X111764914Y-78536114D02*
X111812533Y-78440876D01*
X111812533Y-78440876D02*
X111907771Y-78345638D01*
X111907771Y-78345638D02*
X112050628Y-78298019D01*
X112050628Y-78298019D02*
X112145866Y-78298019D01*
X112145866Y-78298019D02*
X112288723Y-78345638D01*
X112288723Y-78345638D02*
X112336342Y-78393257D01*
X112717295Y-78393257D02*
X112764914Y-78345638D01*
X112764914Y-78345638D02*
X112860152Y-78298019D01*
X112860152Y-78298019D02*
X113098247Y-78298019D01*
X113098247Y-78298019D02*
X113193485Y-78345638D01*
X113193485Y-78345638D02*
X113241104Y-78393257D01*
X113241104Y-78393257D02*
X113288723Y-78488495D01*
X113288723Y-78488495D02*
X113288723Y-78583733D01*
X113288723Y-78583733D02*
X113241104Y-78726590D01*
X113241104Y-78726590D02*
X112669676Y-79298019D01*
X112669676Y-79298019D02*
X113288723Y-79298019D01*
X113622057Y-78298019D02*
X114288723Y-78298019D01*
X114288723Y-78298019D02*
X113860152Y-79298019D01*
X104951819Y-96142857D02*
X104475628Y-96476190D01*
X104951819Y-96714285D02*
X103951819Y-96714285D01*
X103951819Y-96714285D02*
X103951819Y-96333333D01*
X103951819Y-96333333D02*
X103999438Y-96238095D01*
X103999438Y-96238095D02*
X104047057Y-96190476D01*
X104047057Y-96190476D02*
X104142295Y-96142857D01*
X104142295Y-96142857D02*
X104285152Y-96142857D01*
X104285152Y-96142857D02*
X104380390Y-96190476D01*
X104380390Y-96190476D02*
X104428009Y-96238095D01*
X104428009Y-96238095D02*
X104475628Y-96333333D01*
X104475628Y-96333333D02*
X104475628Y-96714285D01*
X104951819Y-95190476D02*
X104951819Y-95761904D01*
X104951819Y-95476190D02*
X103951819Y-95476190D01*
X103951819Y-95476190D02*
X104094676Y-95571428D01*
X104094676Y-95571428D02*
X104189914Y-95666666D01*
X104189914Y-95666666D02*
X104237533Y-95761904D01*
X104951819Y-94714285D02*
X104951819Y-94523809D01*
X104951819Y-94523809D02*
X104904200Y-94428571D01*
X104904200Y-94428571D02*
X104856580Y-94380952D01*
X104856580Y-94380952D02*
X104713723Y-94285714D01*
X104713723Y-94285714D02*
X104523247Y-94238095D01*
X104523247Y-94238095D02*
X104142295Y-94238095D01*
X104142295Y-94238095D02*
X104047057Y-94285714D01*
X104047057Y-94285714D02*
X103999438Y-94333333D01*
X103999438Y-94333333D02*
X103951819Y-94428571D01*
X103951819Y-94428571D02*
X103951819Y-94619047D01*
X103951819Y-94619047D02*
X103999438Y-94714285D01*
X103999438Y-94714285D02*
X104047057Y-94761904D01*
X104047057Y-94761904D02*
X104142295Y-94809523D01*
X104142295Y-94809523D02*
X104380390Y-94809523D01*
X104380390Y-94809523D02*
X104475628Y-94761904D01*
X104475628Y-94761904D02*
X104523247Y-94714285D01*
X104523247Y-94714285D02*
X104570866Y-94619047D01*
X104570866Y-94619047D02*
X104570866Y-94428571D01*
X104570866Y-94428571D02*
X104523247Y-94333333D01*
X104523247Y-94333333D02*
X104475628Y-94285714D01*
X104475628Y-94285714D02*
X104380390Y-94238095D01*
X103107142Y-76954819D02*
X102773809Y-76478628D01*
X102535714Y-76954819D02*
X102535714Y-75954819D01*
X102535714Y-75954819D02*
X102916666Y-75954819D01*
X102916666Y-75954819D02*
X103011904Y-76002438D01*
X103011904Y-76002438D02*
X103059523Y-76050057D01*
X103059523Y-76050057D02*
X103107142Y-76145295D01*
X103107142Y-76145295D02*
X103107142Y-76288152D01*
X103107142Y-76288152D02*
X103059523Y-76383390D01*
X103059523Y-76383390D02*
X103011904Y-76431009D01*
X103011904Y-76431009D02*
X102916666Y-76478628D01*
X102916666Y-76478628D02*
X102535714Y-76478628D01*
X104059523Y-76954819D02*
X103488095Y-76954819D01*
X103773809Y-76954819D02*
X103773809Y-75954819D01*
X103773809Y-75954819D02*
X103678571Y-76097676D01*
X103678571Y-76097676D02*
X103583333Y-76192914D01*
X103583333Y-76192914D02*
X103488095Y-76240533D01*
X104964285Y-75954819D02*
X104488095Y-75954819D01*
X104488095Y-75954819D02*
X104440476Y-76431009D01*
X104440476Y-76431009D02*
X104488095Y-76383390D01*
X104488095Y-76383390D02*
X104583333Y-76335771D01*
X104583333Y-76335771D02*
X104821428Y-76335771D01*
X104821428Y-76335771D02*
X104916666Y-76383390D01*
X104916666Y-76383390D02*
X104964285Y-76431009D01*
X104964285Y-76431009D02*
X105011904Y-76526247D01*
X105011904Y-76526247D02*
X105011904Y-76764342D01*
X105011904Y-76764342D02*
X104964285Y-76859580D01*
X104964285Y-76859580D02*
X104916666Y-76907200D01*
X104916666Y-76907200D02*
X104821428Y-76954819D01*
X104821428Y-76954819D02*
X104583333Y-76954819D01*
X104583333Y-76954819D02*
X104488095Y-76907200D01*
X104488095Y-76907200D02*
X104440476Y-76859580D01*
X134857666Y-69739819D02*
X134857666Y-70454104D01*
X134857666Y-70454104D02*
X134810047Y-70596961D01*
X134810047Y-70596961D02*
X134714809Y-70692200D01*
X134714809Y-70692200D02*
X134571952Y-70739819D01*
X134571952Y-70739819D02*
X134476714Y-70739819D01*
X135286238Y-69835057D02*
X135333857Y-69787438D01*
X135333857Y-69787438D02*
X135429095Y-69739819D01*
X135429095Y-69739819D02*
X135667190Y-69739819D01*
X135667190Y-69739819D02*
X135762428Y-69787438D01*
X135762428Y-69787438D02*
X135810047Y-69835057D01*
X135810047Y-69835057D02*
X135857666Y-69930295D01*
X135857666Y-69930295D02*
X135857666Y-70025533D01*
X135857666Y-70025533D02*
X135810047Y-70168390D01*
X135810047Y-70168390D02*
X135238619Y-70739819D01*
X135238619Y-70739819D02*
X135857666Y-70739819D01*
X112387142Y-91418580D02*
X112339523Y-91466200D01*
X112339523Y-91466200D02*
X112196666Y-91513819D01*
X112196666Y-91513819D02*
X112101428Y-91513819D01*
X112101428Y-91513819D02*
X111958571Y-91466200D01*
X111958571Y-91466200D02*
X111863333Y-91370961D01*
X111863333Y-91370961D02*
X111815714Y-91275723D01*
X111815714Y-91275723D02*
X111768095Y-91085247D01*
X111768095Y-91085247D02*
X111768095Y-90942390D01*
X111768095Y-90942390D02*
X111815714Y-90751914D01*
X111815714Y-90751914D02*
X111863333Y-90656676D01*
X111863333Y-90656676D02*
X111958571Y-90561438D01*
X111958571Y-90561438D02*
X112101428Y-90513819D01*
X112101428Y-90513819D02*
X112196666Y-90513819D01*
X112196666Y-90513819D02*
X112339523Y-90561438D01*
X112339523Y-90561438D02*
X112387142Y-90609057D01*
X112768095Y-90609057D02*
X112815714Y-90561438D01*
X112815714Y-90561438D02*
X112910952Y-90513819D01*
X112910952Y-90513819D02*
X113149047Y-90513819D01*
X113149047Y-90513819D02*
X113244285Y-90561438D01*
X113244285Y-90561438D02*
X113291904Y-90609057D01*
X113291904Y-90609057D02*
X113339523Y-90704295D01*
X113339523Y-90704295D02*
X113339523Y-90799533D01*
X113339523Y-90799533D02*
X113291904Y-90942390D01*
X113291904Y-90942390D02*
X112720476Y-91513819D01*
X112720476Y-91513819D02*
X113339523Y-91513819D01*
X114196666Y-90513819D02*
X114006190Y-90513819D01*
X114006190Y-90513819D02*
X113910952Y-90561438D01*
X113910952Y-90561438D02*
X113863333Y-90609057D01*
X113863333Y-90609057D02*
X113768095Y-90751914D01*
X113768095Y-90751914D02*
X113720476Y-90942390D01*
X113720476Y-90942390D02*
X113720476Y-91323342D01*
X113720476Y-91323342D02*
X113768095Y-91418580D01*
X113768095Y-91418580D02*
X113815714Y-91466200D01*
X113815714Y-91466200D02*
X113910952Y-91513819D01*
X113910952Y-91513819D02*
X114101428Y-91513819D01*
X114101428Y-91513819D02*
X114196666Y-91466200D01*
X114196666Y-91466200D02*
X114244285Y-91418580D01*
X114244285Y-91418580D02*
X114291904Y-91323342D01*
X114291904Y-91323342D02*
X114291904Y-91085247D01*
X114291904Y-91085247D02*
X114244285Y-90990009D01*
X114244285Y-90990009D02*
X114196666Y-90942390D01*
X114196666Y-90942390D02*
X114101428Y-90894771D01*
X114101428Y-90894771D02*
X113910952Y-90894771D01*
X113910952Y-90894771D02*
X113815714Y-90942390D01*
X113815714Y-90942390D02*
X113768095Y-90990009D01*
X113768095Y-90990009D02*
X113720476Y-91085247D01*
X113157142Y-98911580D02*
X113109523Y-98959200D01*
X113109523Y-98959200D02*
X112966666Y-99006819D01*
X112966666Y-99006819D02*
X112871428Y-99006819D01*
X112871428Y-99006819D02*
X112728571Y-98959200D01*
X112728571Y-98959200D02*
X112633333Y-98863961D01*
X112633333Y-98863961D02*
X112585714Y-98768723D01*
X112585714Y-98768723D02*
X112538095Y-98578247D01*
X112538095Y-98578247D02*
X112538095Y-98435390D01*
X112538095Y-98435390D02*
X112585714Y-98244914D01*
X112585714Y-98244914D02*
X112633333Y-98149676D01*
X112633333Y-98149676D02*
X112728571Y-98054438D01*
X112728571Y-98054438D02*
X112871428Y-98006819D01*
X112871428Y-98006819D02*
X112966666Y-98006819D01*
X112966666Y-98006819D02*
X113109523Y-98054438D01*
X113109523Y-98054438D02*
X113157142Y-98102057D01*
X114109523Y-99006819D02*
X113538095Y-99006819D01*
X113823809Y-99006819D02*
X113823809Y-98006819D01*
X113823809Y-98006819D02*
X113728571Y-98149676D01*
X113728571Y-98149676D02*
X113633333Y-98244914D01*
X113633333Y-98244914D02*
X113538095Y-98292533D01*
X114680952Y-98435390D02*
X114585714Y-98387771D01*
X114585714Y-98387771D02*
X114538095Y-98340152D01*
X114538095Y-98340152D02*
X114490476Y-98244914D01*
X114490476Y-98244914D02*
X114490476Y-98197295D01*
X114490476Y-98197295D02*
X114538095Y-98102057D01*
X114538095Y-98102057D02*
X114585714Y-98054438D01*
X114585714Y-98054438D02*
X114680952Y-98006819D01*
X114680952Y-98006819D02*
X114871428Y-98006819D01*
X114871428Y-98006819D02*
X114966666Y-98054438D01*
X114966666Y-98054438D02*
X115014285Y-98102057D01*
X115014285Y-98102057D02*
X115061904Y-98197295D01*
X115061904Y-98197295D02*
X115061904Y-98244914D01*
X115061904Y-98244914D02*
X115014285Y-98340152D01*
X115014285Y-98340152D02*
X114966666Y-98387771D01*
X114966666Y-98387771D02*
X114871428Y-98435390D01*
X114871428Y-98435390D02*
X114680952Y-98435390D01*
X114680952Y-98435390D02*
X114585714Y-98483009D01*
X114585714Y-98483009D02*
X114538095Y-98530628D01*
X114538095Y-98530628D02*
X114490476Y-98625866D01*
X114490476Y-98625866D02*
X114490476Y-98816342D01*
X114490476Y-98816342D02*
X114538095Y-98911580D01*
X114538095Y-98911580D02*
X114585714Y-98959200D01*
X114585714Y-98959200D02*
X114680952Y-99006819D01*
X114680952Y-99006819D02*
X114871428Y-99006819D01*
X114871428Y-99006819D02*
X114966666Y-98959200D01*
X114966666Y-98959200D02*
X115014285Y-98911580D01*
X115014285Y-98911580D02*
X115061904Y-98816342D01*
X115061904Y-98816342D02*
X115061904Y-98625866D01*
X115061904Y-98625866D02*
X115014285Y-98530628D01*
X115014285Y-98530628D02*
X114966666Y-98483009D01*
X114966666Y-98483009D02*
X114871428Y-98435390D01*
X103107142Y-73454819D02*
X102773809Y-72978628D01*
X102535714Y-73454819D02*
X102535714Y-72454819D01*
X102535714Y-72454819D02*
X102916666Y-72454819D01*
X102916666Y-72454819D02*
X103011904Y-72502438D01*
X103011904Y-72502438D02*
X103059523Y-72550057D01*
X103059523Y-72550057D02*
X103107142Y-72645295D01*
X103107142Y-72645295D02*
X103107142Y-72788152D01*
X103107142Y-72788152D02*
X103059523Y-72883390D01*
X103059523Y-72883390D02*
X103011904Y-72931009D01*
X103011904Y-72931009D02*
X102916666Y-72978628D01*
X102916666Y-72978628D02*
X102535714Y-72978628D01*
X104059523Y-73454819D02*
X103488095Y-73454819D01*
X103773809Y-73454819D02*
X103773809Y-72454819D01*
X103773809Y-72454819D02*
X103678571Y-72597676D01*
X103678571Y-72597676D02*
X103583333Y-72692914D01*
X103583333Y-72692914D02*
X103488095Y-72740533D01*
X104392857Y-72454819D02*
X105011904Y-72454819D01*
X105011904Y-72454819D02*
X104678571Y-72835771D01*
X104678571Y-72835771D02*
X104821428Y-72835771D01*
X104821428Y-72835771D02*
X104916666Y-72883390D01*
X104916666Y-72883390D02*
X104964285Y-72931009D01*
X104964285Y-72931009D02*
X105011904Y-73026247D01*
X105011904Y-73026247D02*
X105011904Y-73264342D01*
X105011904Y-73264342D02*
X104964285Y-73359580D01*
X104964285Y-73359580D02*
X104916666Y-73407200D01*
X104916666Y-73407200D02*
X104821428Y-73454819D01*
X104821428Y-73454819D02*
X104535714Y-73454819D01*
X104535714Y-73454819D02*
X104440476Y-73407200D01*
X104440476Y-73407200D02*
X104392857Y-73359580D01*
X100690476Y-103454819D02*
X101357142Y-104454819D01*
X101357142Y-103454819D02*
X100690476Y-104454819D01*
X101642857Y-103454819D02*
X102261904Y-103454819D01*
X102261904Y-103454819D02*
X101928571Y-103835771D01*
X101928571Y-103835771D02*
X102071428Y-103835771D01*
X102071428Y-103835771D02*
X102166666Y-103883390D01*
X102166666Y-103883390D02*
X102214285Y-103931009D01*
X102214285Y-103931009D02*
X102261904Y-104026247D01*
X102261904Y-104026247D02*
X102261904Y-104264342D01*
X102261904Y-104264342D02*
X102214285Y-104359580D01*
X102214285Y-104359580D02*
X102166666Y-104407200D01*
X102166666Y-104407200D02*
X102071428Y-104454819D01*
X102071428Y-104454819D02*
X101785714Y-104454819D01*
X101785714Y-104454819D02*
X101690476Y-104407200D01*
X101690476Y-104407200D02*
X101642857Y-104359580D01*
X87917495Y-100278019D02*
X88488923Y-100278019D01*
X88203209Y-101278019D02*
X88203209Y-100278019D01*
X88822257Y-101278019D02*
X88822257Y-100278019D01*
X88822257Y-100278019D02*
X89203209Y-100278019D01*
X89203209Y-100278019D02*
X89298447Y-100325638D01*
X89298447Y-100325638D02*
X89346066Y-100373257D01*
X89346066Y-100373257D02*
X89393685Y-100468495D01*
X89393685Y-100468495D02*
X89393685Y-100611352D01*
X89393685Y-100611352D02*
X89346066Y-100706590D01*
X89346066Y-100706590D02*
X89298447Y-100754209D01*
X89298447Y-100754209D02*
X89203209Y-100801828D01*
X89203209Y-100801828D02*
X88822257Y-100801828D01*
X90298447Y-100278019D02*
X89822257Y-100278019D01*
X89822257Y-100278019D02*
X89774638Y-100754209D01*
X89774638Y-100754209D02*
X89822257Y-100706590D01*
X89822257Y-100706590D02*
X89917495Y-100658971D01*
X89917495Y-100658971D02*
X90155590Y-100658971D01*
X90155590Y-100658971D02*
X90250828Y-100706590D01*
X90250828Y-100706590D02*
X90298447Y-100754209D01*
X90298447Y-100754209D02*
X90346066Y-100849447D01*
X90346066Y-100849447D02*
X90346066Y-101087542D01*
X90346066Y-101087542D02*
X90298447Y-101182780D01*
X90298447Y-101182780D02*
X90250828Y-101230400D01*
X90250828Y-101230400D02*
X90155590Y-101278019D01*
X90155590Y-101278019D02*
X89917495Y-101278019D01*
X89917495Y-101278019D02*
X89822257Y-101230400D01*
X89822257Y-101230400D02*
X89774638Y-101182780D01*
X124057142Y-79126580D02*
X124009523Y-79174200D01*
X124009523Y-79174200D02*
X123866666Y-79221819D01*
X123866666Y-79221819D02*
X123771428Y-79221819D01*
X123771428Y-79221819D02*
X123628571Y-79174200D01*
X123628571Y-79174200D02*
X123533333Y-79078961D01*
X123533333Y-79078961D02*
X123485714Y-78983723D01*
X123485714Y-78983723D02*
X123438095Y-78793247D01*
X123438095Y-78793247D02*
X123438095Y-78650390D01*
X123438095Y-78650390D02*
X123485714Y-78459914D01*
X123485714Y-78459914D02*
X123533333Y-78364676D01*
X123533333Y-78364676D02*
X123628571Y-78269438D01*
X123628571Y-78269438D02*
X123771428Y-78221819D01*
X123771428Y-78221819D02*
X123866666Y-78221819D01*
X123866666Y-78221819D02*
X124009523Y-78269438D01*
X124009523Y-78269438D02*
X124057142Y-78317057D01*
X124438095Y-78317057D02*
X124485714Y-78269438D01*
X124485714Y-78269438D02*
X124580952Y-78221819D01*
X124580952Y-78221819D02*
X124819047Y-78221819D01*
X124819047Y-78221819D02*
X124914285Y-78269438D01*
X124914285Y-78269438D02*
X124961904Y-78317057D01*
X124961904Y-78317057D02*
X125009523Y-78412295D01*
X125009523Y-78412295D02*
X125009523Y-78507533D01*
X125009523Y-78507533D02*
X124961904Y-78650390D01*
X124961904Y-78650390D02*
X124390476Y-79221819D01*
X124390476Y-79221819D02*
X125009523Y-79221819D01*
X125580952Y-78650390D02*
X125485714Y-78602771D01*
X125485714Y-78602771D02*
X125438095Y-78555152D01*
X125438095Y-78555152D02*
X125390476Y-78459914D01*
X125390476Y-78459914D02*
X125390476Y-78412295D01*
X125390476Y-78412295D02*
X125438095Y-78317057D01*
X125438095Y-78317057D02*
X125485714Y-78269438D01*
X125485714Y-78269438D02*
X125580952Y-78221819D01*
X125580952Y-78221819D02*
X125771428Y-78221819D01*
X125771428Y-78221819D02*
X125866666Y-78269438D01*
X125866666Y-78269438D02*
X125914285Y-78317057D01*
X125914285Y-78317057D02*
X125961904Y-78412295D01*
X125961904Y-78412295D02*
X125961904Y-78459914D01*
X125961904Y-78459914D02*
X125914285Y-78555152D01*
X125914285Y-78555152D02*
X125866666Y-78602771D01*
X125866666Y-78602771D02*
X125771428Y-78650390D01*
X125771428Y-78650390D02*
X125580952Y-78650390D01*
X125580952Y-78650390D02*
X125485714Y-78698009D01*
X125485714Y-78698009D02*
X125438095Y-78745628D01*
X125438095Y-78745628D02*
X125390476Y-78840866D01*
X125390476Y-78840866D02*
X125390476Y-79031342D01*
X125390476Y-79031342D02*
X125438095Y-79126580D01*
X125438095Y-79126580D02*
X125485714Y-79174200D01*
X125485714Y-79174200D02*
X125580952Y-79221819D01*
X125580952Y-79221819D02*
X125771428Y-79221819D01*
X125771428Y-79221819D02*
X125866666Y-79174200D01*
X125866666Y-79174200D02*
X125914285Y-79126580D01*
X125914285Y-79126580D02*
X125961904Y-79031342D01*
X125961904Y-79031342D02*
X125961904Y-78840866D01*
X125961904Y-78840866D02*
X125914285Y-78745628D01*
X125914285Y-78745628D02*
X125866666Y-78698009D01*
X125866666Y-78698009D02*
X125771428Y-78650390D01*
X103357142Y-78704819D02*
X103023809Y-78228628D01*
X102785714Y-78704819D02*
X102785714Y-77704819D01*
X102785714Y-77704819D02*
X103166666Y-77704819D01*
X103166666Y-77704819D02*
X103261904Y-77752438D01*
X103261904Y-77752438D02*
X103309523Y-77800057D01*
X103309523Y-77800057D02*
X103357142Y-77895295D01*
X103357142Y-77895295D02*
X103357142Y-78038152D01*
X103357142Y-78038152D02*
X103309523Y-78133390D01*
X103309523Y-78133390D02*
X103261904Y-78181009D01*
X103261904Y-78181009D02*
X103166666Y-78228628D01*
X103166666Y-78228628D02*
X102785714Y-78228628D01*
X104309523Y-78704819D02*
X103738095Y-78704819D01*
X104023809Y-78704819D02*
X104023809Y-77704819D01*
X104023809Y-77704819D02*
X103928571Y-77847676D01*
X103928571Y-77847676D02*
X103833333Y-77942914D01*
X103833333Y-77942914D02*
X103738095Y-77990533D01*
X105166666Y-78038152D02*
X105166666Y-78704819D01*
X104928571Y-77657200D02*
X104690476Y-78371485D01*
X104690476Y-78371485D02*
X105309523Y-78371485D01*
X90678095Y-87338819D02*
X90678095Y-88148342D01*
X90678095Y-88148342D02*
X90725714Y-88243580D01*
X90725714Y-88243580D02*
X90773333Y-88291200D01*
X90773333Y-88291200D02*
X90868571Y-88338819D01*
X90868571Y-88338819D02*
X91059047Y-88338819D01*
X91059047Y-88338819D02*
X91154285Y-88291200D01*
X91154285Y-88291200D02*
X91201904Y-88243580D01*
X91201904Y-88243580D02*
X91249523Y-88148342D01*
X91249523Y-88148342D02*
X91249523Y-87338819D01*
X91678095Y-87434057D02*
X91725714Y-87386438D01*
X91725714Y-87386438D02*
X91820952Y-87338819D01*
X91820952Y-87338819D02*
X92059047Y-87338819D01*
X92059047Y-87338819D02*
X92154285Y-87386438D01*
X92154285Y-87386438D02*
X92201904Y-87434057D01*
X92201904Y-87434057D02*
X92249523Y-87529295D01*
X92249523Y-87529295D02*
X92249523Y-87624533D01*
X92249523Y-87624533D02*
X92201904Y-87767390D01*
X92201904Y-87767390D02*
X91630476Y-88338819D01*
X91630476Y-88338819D02*
X92249523Y-88338819D01*
X140129419Y-91270057D02*
X139653228Y-91603390D01*
X140129419Y-91841485D02*
X139129419Y-91841485D01*
X139129419Y-91841485D02*
X139129419Y-91460533D01*
X139129419Y-91460533D02*
X139177038Y-91365295D01*
X139177038Y-91365295D02*
X139224657Y-91317676D01*
X139224657Y-91317676D02*
X139319895Y-91270057D01*
X139319895Y-91270057D02*
X139462752Y-91270057D01*
X139462752Y-91270057D02*
X139557990Y-91317676D01*
X139557990Y-91317676D02*
X139605609Y-91365295D01*
X139605609Y-91365295D02*
X139653228Y-91460533D01*
X139653228Y-91460533D02*
X139653228Y-91841485D01*
X139224657Y-90889104D02*
X139177038Y-90841485D01*
X139177038Y-90841485D02*
X139129419Y-90746247D01*
X139129419Y-90746247D02*
X139129419Y-90508152D01*
X139129419Y-90508152D02*
X139177038Y-90412914D01*
X139177038Y-90412914D02*
X139224657Y-90365295D01*
X139224657Y-90365295D02*
X139319895Y-90317676D01*
X139319895Y-90317676D02*
X139415133Y-90317676D01*
X139415133Y-90317676D02*
X139557990Y-90365295D01*
X139557990Y-90365295D02*
X140129419Y-90936723D01*
X140129419Y-90936723D02*
X140129419Y-90317676D01*
X139129419Y-89984342D02*
X139129419Y-89365295D01*
X139129419Y-89365295D02*
X139510371Y-89698628D01*
X139510371Y-89698628D02*
X139510371Y-89555771D01*
X139510371Y-89555771D02*
X139557990Y-89460533D01*
X139557990Y-89460533D02*
X139605609Y-89412914D01*
X139605609Y-89412914D02*
X139700847Y-89365295D01*
X139700847Y-89365295D02*
X139938942Y-89365295D01*
X139938942Y-89365295D02*
X140034180Y-89412914D01*
X140034180Y-89412914D02*
X140081800Y-89460533D01*
X140081800Y-89460533D02*
X140129419Y-89555771D01*
X140129419Y-89555771D02*
X140129419Y-89841485D01*
X140129419Y-89841485D02*
X140081800Y-89936723D01*
X140081800Y-89936723D02*
X140034180Y-89984342D01*
X93789667Y-70638200D02*
X93932524Y-70685819D01*
X93932524Y-70685819D02*
X94170619Y-70685819D01*
X94170619Y-70685819D02*
X94265857Y-70638200D01*
X94265857Y-70638200D02*
X94313476Y-70590580D01*
X94313476Y-70590580D02*
X94361095Y-70495342D01*
X94361095Y-70495342D02*
X94361095Y-70400104D01*
X94361095Y-70400104D02*
X94313476Y-70304866D01*
X94313476Y-70304866D02*
X94265857Y-70257247D01*
X94265857Y-70257247D02*
X94170619Y-70209628D01*
X94170619Y-70209628D02*
X93980143Y-70162009D01*
X93980143Y-70162009D02*
X93884905Y-70114390D01*
X93884905Y-70114390D02*
X93837286Y-70066771D01*
X93837286Y-70066771D02*
X93789667Y-69971533D01*
X93789667Y-69971533D02*
X93789667Y-69876295D01*
X93789667Y-69876295D02*
X93837286Y-69781057D01*
X93837286Y-69781057D02*
X93884905Y-69733438D01*
X93884905Y-69733438D02*
X93980143Y-69685819D01*
X93980143Y-69685819D02*
X94218238Y-69685819D01*
X94218238Y-69685819D02*
X94361095Y-69733438D01*
X94694429Y-69685819D02*
X94932524Y-70685819D01*
X94932524Y-70685819D02*
X95123000Y-69971533D01*
X95123000Y-69971533D02*
X95313476Y-70685819D01*
X95313476Y-70685819D02*
X95551572Y-69685819D01*
X96361095Y-70019152D02*
X96361095Y-70685819D01*
X96123000Y-69638200D02*
X95884905Y-70352485D01*
X95884905Y-70352485D02*
X96503952Y-70352485D01*
X92745160Y-78925057D02*
X92792779Y-78877438D01*
X92792779Y-78877438D02*
X92888017Y-78829819D01*
X92888017Y-78829819D02*
X93126112Y-78829819D01*
X93126112Y-78829819D02*
X93221350Y-78877438D01*
X93221350Y-78877438D02*
X93268969Y-78925057D01*
X93268969Y-78925057D02*
X93316588Y-79020295D01*
X93316588Y-79020295D02*
X93316588Y-79115533D01*
X93316588Y-79115533D02*
X93268969Y-79258390D01*
X93268969Y-79258390D02*
X92697541Y-79829819D01*
X92697541Y-79829819D02*
X93316588Y-79829819D01*
X97507588Y-79702819D02*
X96936160Y-79702819D01*
X97221874Y-79702819D02*
X97221874Y-78702819D01*
X97221874Y-78702819D02*
X97126636Y-78845676D01*
X97126636Y-78845676D02*
X97031398Y-78940914D01*
X97031398Y-78940914D02*
X96936160Y-78988533D01*
X103954819Y-84892857D02*
X103478628Y-85226190D01*
X103954819Y-85464285D02*
X102954819Y-85464285D01*
X102954819Y-85464285D02*
X102954819Y-85083333D01*
X102954819Y-85083333D02*
X103002438Y-84988095D01*
X103002438Y-84988095D02*
X103050057Y-84940476D01*
X103050057Y-84940476D02*
X103145295Y-84892857D01*
X103145295Y-84892857D02*
X103288152Y-84892857D01*
X103288152Y-84892857D02*
X103383390Y-84940476D01*
X103383390Y-84940476D02*
X103431009Y-84988095D01*
X103431009Y-84988095D02*
X103478628Y-85083333D01*
X103478628Y-85083333D02*
X103478628Y-85464285D01*
X103050057Y-84511904D02*
X103002438Y-84464285D01*
X103002438Y-84464285D02*
X102954819Y-84369047D01*
X102954819Y-84369047D02*
X102954819Y-84130952D01*
X102954819Y-84130952D02*
X103002438Y-84035714D01*
X103002438Y-84035714D02*
X103050057Y-83988095D01*
X103050057Y-83988095D02*
X103145295Y-83940476D01*
X103145295Y-83940476D02*
X103240533Y-83940476D01*
X103240533Y-83940476D02*
X103383390Y-83988095D01*
X103383390Y-83988095D02*
X103954819Y-84559523D01*
X103954819Y-84559523D02*
X103954819Y-83940476D01*
X102954819Y-83321428D02*
X102954819Y-83226190D01*
X102954819Y-83226190D02*
X103002438Y-83130952D01*
X103002438Y-83130952D02*
X103050057Y-83083333D01*
X103050057Y-83083333D02*
X103145295Y-83035714D01*
X103145295Y-83035714D02*
X103335771Y-82988095D01*
X103335771Y-82988095D02*
X103573866Y-82988095D01*
X103573866Y-82988095D02*
X103764342Y-83035714D01*
X103764342Y-83035714D02*
X103859580Y-83083333D01*
X103859580Y-83083333D02*
X103907200Y-83130952D01*
X103907200Y-83130952D02*
X103954819Y-83226190D01*
X103954819Y-83226190D02*
X103954819Y-83321428D01*
X103954819Y-83321428D02*
X103907200Y-83416666D01*
X103907200Y-83416666D02*
X103859580Y-83464285D01*
X103859580Y-83464285D02*
X103764342Y-83511904D01*
X103764342Y-83511904D02*
X103573866Y-83559523D01*
X103573866Y-83559523D02*
X103335771Y-83559523D01*
X103335771Y-83559523D02*
X103145295Y-83511904D01*
X103145295Y-83511904D02*
X103050057Y-83464285D01*
X103050057Y-83464285D02*
X103002438Y-83416666D01*
X103002438Y-83416666D02*
X102954819Y-83321428D01*
X140224419Y-83726257D02*
X139748228Y-84059590D01*
X140224419Y-84297685D02*
X139224419Y-84297685D01*
X139224419Y-84297685D02*
X139224419Y-83916733D01*
X139224419Y-83916733D02*
X139272038Y-83821495D01*
X139272038Y-83821495D02*
X139319657Y-83773876D01*
X139319657Y-83773876D02*
X139414895Y-83726257D01*
X139414895Y-83726257D02*
X139557752Y-83726257D01*
X139557752Y-83726257D02*
X139652990Y-83773876D01*
X139652990Y-83773876D02*
X139700609Y-83821495D01*
X139700609Y-83821495D02*
X139748228Y-83916733D01*
X139748228Y-83916733D02*
X139748228Y-84297685D01*
X139319657Y-83345304D02*
X139272038Y-83297685D01*
X139272038Y-83297685D02*
X139224419Y-83202447D01*
X139224419Y-83202447D02*
X139224419Y-82964352D01*
X139224419Y-82964352D02*
X139272038Y-82869114D01*
X139272038Y-82869114D02*
X139319657Y-82821495D01*
X139319657Y-82821495D02*
X139414895Y-82773876D01*
X139414895Y-82773876D02*
X139510133Y-82773876D01*
X139510133Y-82773876D02*
X139652990Y-82821495D01*
X139652990Y-82821495D02*
X140224419Y-83392923D01*
X140224419Y-83392923D02*
X140224419Y-82773876D01*
X139224419Y-81869114D02*
X139224419Y-82345304D01*
X139224419Y-82345304D02*
X139700609Y-82392923D01*
X139700609Y-82392923D02*
X139652990Y-82345304D01*
X139652990Y-82345304D02*
X139605371Y-82250066D01*
X139605371Y-82250066D02*
X139605371Y-82011971D01*
X139605371Y-82011971D02*
X139652990Y-81916733D01*
X139652990Y-81916733D02*
X139700609Y-81869114D01*
X139700609Y-81869114D02*
X139795847Y-81821495D01*
X139795847Y-81821495D02*
X140033942Y-81821495D01*
X140033942Y-81821495D02*
X140129180Y-81869114D01*
X140129180Y-81869114D02*
X140176800Y-81916733D01*
X140176800Y-81916733D02*
X140224419Y-82011971D01*
X140224419Y-82011971D02*
X140224419Y-82250066D01*
X140224419Y-82250066D02*
X140176800Y-82345304D01*
X140176800Y-82345304D02*
X140129180Y-82392923D01*
X166738095Y-117802819D02*
X166738095Y-116802819D01*
X166738095Y-117279009D02*
X167309523Y-117279009D01*
X167309523Y-117802819D02*
X167309523Y-116802819D01*
X167738095Y-116898057D02*
X167785714Y-116850438D01*
X167785714Y-116850438D02*
X167880952Y-116802819D01*
X167880952Y-116802819D02*
X168119047Y-116802819D01*
X168119047Y-116802819D02*
X168214285Y-116850438D01*
X168214285Y-116850438D02*
X168261904Y-116898057D01*
X168261904Y-116898057D02*
X168309523Y-116993295D01*
X168309523Y-116993295D02*
X168309523Y-117088533D01*
X168309523Y-117088533D02*
X168261904Y-117231390D01*
X168261904Y-117231390D02*
X167690476Y-117802819D01*
X167690476Y-117802819D02*
X168309523Y-117802819D01*
X108458095Y-98006819D02*
X108458095Y-98816342D01*
X108458095Y-98816342D02*
X108505714Y-98911580D01*
X108505714Y-98911580D02*
X108553333Y-98959200D01*
X108553333Y-98959200D02*
X108648571Y-99006819D01*
X108648571Y-99006819D02*
X108839047Y-99006819D01*
X108839047Y-99006819D02*
X108934285Y-98959200D01*
X108934285Y-98959200D02*
X108981904Y-98911580D01*
X108981904Y-98911580D02*
X109029523Y-98816342D01*
X109029523Y-98816342D02*
X109029523Y-98006819D01*
X109553333Y-99006819D02*
X109743809Y-99006819D01*
X109743809Y-99006819D02*
X109839047Y-98959200D01*
X109839047Y-98959200D02*
X109886666Y-98911580D01*
X109886666Y-98911580D02*
X109981904Y-98768723D01*
X109981904Y-98768723D02*
X110029523Y-98578247D01*
X110029523Y-98578247D02*
X110029523Y-98197295D01*
X110029523Y-98197295D02*
X109981904Y-98102057D01*
X109981904Y-98102057D02*
X109934285Y-98054438D01*
X109934285Y-98054438D02*
X109839047Y-98006819D01*
X109839047Y-98006819D02*
X109648571Y-98006819D01*
X109648571Y-98006819D02*
X109553333Y-98054438D01*
X109553333Y-98054438D02*
X109505714Y-98102057D01*
X109505714Y-98102057D02*
X109458095Y-98197295D01*
X109458095Y-98197295D02*
X109458095Y-98435390D01*
X109458095Y-98435390D02*
X109505714Y-98530628D01*
X109505714Y-98530628D02*
X109553333Y-98578247D01*
X109553333Y-98578247D02*
X109648571Y-98625866D01*
X109648571Y-98625866D02*
X109839047Y-98625866D01*
X109839047Y-98625866D02*
X109934285Y-98578247D01*
X109934285Y-98578247D02*
X109981904Y-98530628D01*
X109981904Y-98530628D02*
X110029523Y-98435390D01*
X130056095Y-81623819D02*
X130627523Y-81623819D01*
X130341809Y-82623819D02*
X130341809Y-81623819D01*
X130960857Y-82623819D02*
X130960857Y-81623819D01*
X130960857Y-81623819D02*
X131341809Y-81623819D01*
X131341809Y-81623819D02*
X131437047Y-81671438D01*
X131437047Y-81671438D02*
X131484666Y-81719057D01*
X131484666Y-81719057D02*
X131532285Y-81814295D01*
X131532285Y-81814295D02*
X131532285Y-81957152D01*
X131532285Y-81957152D02*
X131484666Y-82052390D01*
X131484666Y-82052390D02*
X131437047Y-82100009D01*
X131437047Y-82100009D02*
X131341809Y-82147628D01*
X131341809Y-82147628D02*
X130960857Y-82147628D01*
X132389428Y-81957152D02*
X132389428Y-82623819D01*
X132151333Y-81576200D02*
X131913238Y-82290485D01*
X131913238Y-82290485D02*
X132532285Y-82290485D01*
X117377380Y-100642857D02*
X117425000Y-100690476D01*
X117425000Y-100690476D02*
X117472619Y-100833333D01*
X117472619Y-100833333D02*
X117472619Y-100928571D01*
X117472619Y-100928571D02*
X117425000Y-101071428D01*
X117425000Y-101071428D02*
X117329761Y-101166666D01*
X117329761Y-101166666D02*
X117234523Y-101214285D01*
X117234523Y-101214285D02*
X117044047Y-101261904D01*
X117044047Y-101261904D02*
X116901190Y-101261904D01*
X116901190Y-101261904D02*
X116710714Y-101214285D01*
X116710714Y-101214285D02*
X116615476Y-101166666D01*
X116615476Y-101166666D02*
X116520238Y-101071428D01*
X116520238Y-101071428D02*
X116472619Y-100928571D01*
X116472619Y-100928571D02*
X116472619Y-100833333D01*
X116472619Y-100833333D02*
X116520238Y-100690476D01*
X116520238Y-100690476D02*
X116567857Y-100642857D01*
X117472619Y-99690476D02*
X117472619Y-100261904D01*
X117472619Y-99976190D02*
X116472619Y-99976190D01*
X116472619Y-99976190D02*
X116615476Y-100071428D01*
X116615476Y-100071428D02*
X116710714Y-100166666D01*
X116710714Y-100166666D02*
X116758333Y-100261904D01*
X117472619Y-99214285D02*
X117472619Y-99023809D01*
X117472619Y-99023809D02*
X117425000Y-98928571D01*
X117425000Y-98928571D02*
X117377380Y-98880952D01*
X117377380Y-98880952D02*
X117234523Y-98785714D01*
X117234523Y-98785714D02*
X117044047Y-98738095D01*
X117044047Y-98738095D02*
X116663095Y-98738095D01*
X116663095Y-98738095D02*
X116567857Y-98785714D01*
X116567857Y-98785714D02*
X116520238Y-98833333D01*
X116520238Y-98833333D02*
X116472619Y-98928571D01*
X116472619Y-98928571D02*
X116472619Y-99119047D01*
X116472619Y-99119047D02*
X116520238Y-99214285D01*
X116520238Y-99214285D02*
X116567857Y-99261904D01*
X116567857Y-99261904D02*
X116663095Y-99309523D01*
X116663095Y-99309523D02*
X116901190Y-99309523D01*
X116901190Y-99309523D02*
X116996428Y-99261904D01*
X116996428Y-99261904D02*
X117044047Y-99214285D01*
X117044047Y-99214285D02*
X117091666Y-99119047D01*
X117091666Y-99119047D02*
X117091666Y-98928571D01*
X117091666Y-98928571D02*
X117044047Y-98833333D01*
X117044047Y-98833333D02*
X116996428Y-98785714D01*
X116996428Y-98785714D02*
X116901190Y-98738095D01*
X147774819Y-77446094D02*
X146774819Y-77446094D01*
X147774819Y-76874666D02*
X147203390Y-77303237D01*
X146774819Y-76874666D02*
X147346247Y-77446094D01*
X147774819Y-75922285D02*
X147774819Y-76493713D01*
X147774819Y-76207999D02*
X146774819Y-76207999D01*
X146774819Y-76207999D02*
X146917676Y-76303237D01*
X146917676Y-76303237D02*
X147012914Y-76398475D01*
X147012914Y-76398475D02*
X147060533Y-76493713D01*
X105880819Y-90761904D02*
X106690342Y-90761904D01*
X106690342Y-90761904D02*
X106785580Y-90714285D01*
X106785580Y-90714285D02*
X106833200Y-90666666D01*
X106833200Y-90666666D02*
X106880819Y-90571428D01*
X106880819Y-90571428D02*
X106880819Y-90380952D01*
X106880819Y-90380952D02*
X106833200Y-90285714D01*
X106833200Y-90285714D02*
X106785580Y-90238095D01*
X106785580Y-90238095D02*
X106690342Y-90190476D01*
X106690342Y-90190476D02*
X105880819Y-90190476D01*
X105880819Y-89809523D02*
X105880819Y-89142857D01*
X105880819Y-89142857D02*
X106880819Y-89571428D01*
X125161200Y-100088532D02*
X125208819Y-99945675D01*
X125208819Y-99945675D02*
X125208819Y-99707580D01*
X125208819Y-99707580D02*
X125161200Y-99612342D01*
X125161200Y-99612342D02*
X125113580Y-99564723D01*
X125113580Y-99564723D02*
X125018342Y-99517104D01*
X125018342Y-99517104D02*
X124923104Y-99517104D01*
X124923104Y-99517104D02*
X124827866Y-99564723D01*
X124827866Y-99564723D02*
X124780247Y-99612342D01*
X124780247Y-99612342D02*
X124732628Y-99707580D01*
X124732628Y-99707580D02*
X124685009Y-99898056D01*
X124685009Y-99898056D02*
X124637390Y-99993294D01*
X124637390Y-99993294D02*
X124589771Y-100040913D01*
X124589771Y-100040913D02*
X124494533Y-100088532D01*
X124494533Y-100088532D02*
X124399295Y-100088532D01*
X124399295Y-100088532D02*
X124304057Y-100040913D01*
X124304057Y-100040913D02*
X124256438Y-99993294D01*
X124256438Y-99993294D02*
X124208819Y-99898056D01*
X124208819Y-99898056D02*
X124208819Y-99659961D01*
X124208819Y-99659961D02*
X124256438Y-99517104D01*
X124208819Y-99183770D02*
X125208819Y-98945675D01*
X125208819Y-98945675D02*
X124494533Y-98755199D01*
X124494533Y-98755199D02*
X125208819Y-98564723D01*
X125208819Y-98564723D02*
X124208819Y-98326628D01*
X124208819Y-98040913D02*
X124208819Y-97421866D01*
X124208819Y-97421866D02*
X124589771Y-97755199D01*
X124589771Y-97755199D02*
X124589771Y-97612342D01*
X124589771Y-97612342D02*
X124637390Y-97517104D01*
X124637390Y-97517104D02*
X124685009Y-97469485D01*
X124685009Y-97469485D02*
X124780247Y-97421866D01*
X124780247Y-97421866D02*
X125018342Y-97421866D01*
X125018342Y-97421866D02*
X125113580Y-97469485D01*
X125113580Y-97469485D02*
X125161200Y-97517104D01*
X125161200Y-97517104D02*
X125208819Y-97612342D01*
X125208819Y-97612342D02*
X125208819Y-97898056D01*
X125208819Y-97898056D02*
X125161200Y-97993294D01*
X125161200Y-97993294D02*
X125113580Y-98040913D01*
X114704819Y-74719047D02*
X114704819Y-75195237D01*
X114704819Y-75195237D02*
X113704819Y-75195237D01*
X114181009Y-74385713D02*
X114181009Y-74052380D01*
X114704819Y-73909523D02*
X114704819Y-74385713D01*
X114704819Y-74385713D02*
X113704819Y-74385713D01*
X113704819Y-74385713D02*
X113704819Y-73909523D01*
X114704819Y-73480951D02*
X113704819Y-73480951D01*
X113704819Y-73480951D02*
X113704819Y-73242856D01*
X113704819Y-73242856D02*
X113752438Y-73099999D01*
X113752438Y-73099999D02*
X113847676Y-73004761D01*
X113847676Y-73004761D02*
X113942914Y-72957142D01*
X113942914Y-72957142D02*
X114133390Y-72909523D01*
X114133390Y-72909523D02*
X114276247Y-72909523D01*
X114276247Y-72909523D02*
X114466723Y-72957142D01*
X114466723Y-72957142D02*
X114561961Y-73004761D01*
X114561961Y-73004761D02*
X114657200Y-73099999D01*
X114657200Y-73099999D02*
X114704819Y-73242856D01*
X114704819Y-73242856D02*
X114704819Y-73480951D01*
X114038152Y-72052380D02*
X114704819Y-72052380D01*
X113657200Y-72290475D02*
X114371485Y-72528570D01*
X114371485Y-72528570D02*
X114371485Y-71909523D01*
X120286542Y-78178819D02*
X119953209Y-77702628D01*
X119715114Y-78178819D02*
X119715114Y-77178819D01*
X119715114Y-77178819D02*
X120096066Y-77178819D01*
X120096066Y-77178819D02*
X120191304Y-77226438D01*
X120191304Y-77226438D02*
X120238923Y-77274057D01*
X120238923Y-77274057D02*
X120286542Y-77369295D01*
X120286542Y-77369295D02*
X120286542Y-77512152D01*
X120286542Y-77512152D02*
X120238923Y-77607390D01*
X120238923Y-77607390D02*
X120191304Y-77655009D01*
X120191304Y-77655009D02*
X120096066Y-77702628D01*
X120096066Y-77702628D02*
X119715114Y-77702628D01*
X121238923Y-78178819D02*
X120667495Y-78178819D01*
X120953209Y-78178819D02*
X120953209Y-77178819D01*
X120953209Y-77178819D02*
X120857971Y-77321676D01*
X120857971Y-77321676D02*
X120762733Y-77416914D01*
X120762733Y-77416914D02*
X120667495Y-77464533D01*
X121810352Y-77607390D02*
X121715114Y-77559771D01*
X121715114Y-77559771D02*
X121667495Y-77512152D01*
X121667495Y-77512152D02*
X121619876Y-77416914D01*
X121619876Y-77416914D02*
X121619876Y-77369295D01*
X121619876Y-77369295D02*
X121667495Y-77274057D01*
X121667495Y-77274057D02*
X121715114Y-77226438D01*
X121715114Y-77226438D02*
X121810352Y-77178819D01*
X121810352Y-77178819D02*
X122000828Y-77178819D01*
X122000828Y-77178819D02*
X122096066Y-77226438D01*
X122096066Y-77226438D02*
X122143685Y-77274057D01*
X122143685Y-77274057D02*
X122191304Y-77369295D01*
X122191304Y-77369295D02*
X122191304Y-77416914D01*
X122191304Y-77416914D02*
X122143685Y-77512152D01*
X122143685Y-77512152D02*
X122096066Y-77559771D01*
X122096066Y-77559771D02*
X122000828Y-77607390D01*
X122000828Y-77607390D02*
X121810352Y-77607390D01*
X121810352Y-77607390D02*
X121715114Y-77655009D01*
X121715114Y-77655009D02*
X121667495Y-77702628D01*
X121667495Y-77702628D02*
X121619876Y-77797866D01*
X121619876Y-77797866D02*
X121619876Y-77988342D01*
X121619876Y-77988342D02*
X121667495Y-78083580D01*
X121667495Y-78083580D02*
X121715114Y-78131200D01*
X121715114Y-78131200D02*
X121810352Y-78178819D01*
X121810352Y-78178819D02*
X122000828Y-78178819D01*
X122000828Y-78178819D02*
X122096066Y-78131200D01*
X122096066Y-78131200D02*
X122143685Y-78083580D01*
X122143685Y-78083580D02*
X122191304Y-77988342D01*
X122191304Y-77988342D02*
X122191304Y-77797866D01*
X122191304Y-77797866D02*
X122143685Y-77702628D01*
X122143685Y-77702628D02*
X122096066Y-77655009D01*
X122096066Y-77655009D02*
X122000828Y-77607390D01*
X130541142Y-95577819D02*
X130207809Y-95101628D01*
X129969714Y-95577819D02*
X129969714Y-94577819D01*
X129969714Y-94577819D02*
X130350666Y-94577819D01*
X130350666Y-94577819D02*
X130445904Y-94625438D01*
X130445904Y-94625438D02*
X130493523Y-94673057D01*
X130493523Y-94673057D02*
X130541142Y-94768295D01*
X130541142Y-94768295D02*
X130541142Y-94911152D01*
X130541142Y-94911152D02*
X130493523Y-95006390D01*
X130493523Y-95006390D02*
X130445904Y-95054009D01*
X130445904Y-95054009D02*
X130350666Y-95101628D01*
X130350666Y-95101628D02*
X129969714Y-95101628D01*
X131493523Y-95577819D02*
X130922095Y-95577819D01*
X131207809Y-95577819D02*
X131207809Y-94577819D01*
X131207809Y-94577819D02*
X131112571Y-94720676D01*
X131112571Y-94720676D02*
X131017333Y-94815914D01*
X131017333Y-94815914D02*
X130922095Y-94863533D01*
X132445904Y-95577819D02*
X131874476Y-95577819D01*
X132160190Y-95577819D02*
X132160190Y-94577819D01*
X132160190Y-94577819D02*
X132064952Y-94720676D01*
X132064952Y-94720676D02*
X131969714Y-94815914D01*
X131969714Y-94815914D02*
X131874476Y-94863533D01*
X100359580Y-83392857D02*
X100407200Y-83440476D01*
X100407200Y-83440476D02*
X100454819Y-83583333D01*
X100454819Y-83583333D02*
X100454819Y-83678571D01*
X100454819Y-83678571D02*
X100407200Y-83821428D01*
X100407200Y-83821428D02*
X100311961Y-83916666D01*
X100311961Y-83916666D02*
X100216723Y-83964285D01*
X100216723Y-83964285D02*
X100026247Y-84011904D01*
X100026247Y-84011904D02*
X99883390Y-84011904D01*
X99883390Y-84011904D02*
X99692914Y-83964285D01*
X99692914Y-83964285D02*
X99597676Y-83916666D01*
X99597676Y-83916666D02*
X99502438Y-83821428D01*
X99502438Y-83821428D02*
X99454819Y-83678571D01*
X99454819Y-83678571D02*
X99454819Y-83583333D01*
X99454819Y-83583333D02*
X99502438Y-83440476D01*
X99502438Y-83440476D02*
X99550057Y-83392857D01*
X99550057Y-83011904D02*
X99502438Y-82964285D01*
X99502438Y-82964285D02*
X99454819Y-82869047D01*
X99454819Y-82869047D02*
X99454819Y-82630952D01*
X99454819Y-82630952D02*
X99502438Y-82535714D01*
X99502438Y-82535714D02*
X99550057Y-82488095D01*
X99550057Y-82488095D02*
X99645295Y-82440476D01*
X99645295Y-82440476D02*
X99740533Y-82440476D01*
X99740533Y-82440476D02*
X99883390Y-82488095D01*
X99883390Y-82488095D02*
X100454819Y-83059523D01*
X100454819Y-83059523D02*
X100454819Y-82440476D01*
X99550057Y-82059523D02*
X99502438Y-82011904D01*
X99502438Y-82011904D02*
X99454819Y-81916666D01*
X99454819Y-81916666D02*
X99454819Y-81678571D01*
X99454819Y-81678571D02*
X99502438Y-81583333D01*
X99502438Y-81583333D02*
X99550057Y-81535714D01*
X99550057Y-81535714D02*
X99645295Y-81488095D01*
X99645295Y-81488095D02*
X99740533Y-81488095D01*
X99740533Y-81488095D02*
X99883390Y-81535714D01*
X99883390Y-81535714D02*
X100454819Y-82107142D01*
X100454819Y-82107142D02*
X100454819Y-81488095D01*
X95685142Y-90604380D02*
X95637523Y-90652000D01*
X95637523Y-90652000D02*
X95494666Y-90699619D01*
X95494666Y-90699619D02*
X95399428Y-90699619D01*
X95399428Y-90699619D02*
X95256571Y-90652000D01*
X95256571Y-90652000D02*
X95161333Y-90556761D01*
X95161333Y-90556761D02*
X95113714Y-90461523D01*
X95113714Y-90461523D02*
X95066095Y-90271047D01*
X95066095Y-90271047D02*
X95066095Y-90128190D01*
X95066095Y-90128190D02*
X95113714Y-89937714D01*
X95113714Y-89937714D02*
X95161333Y-89842476D01*
X95161333Y-89842476D02*
X95256571Y-89747238D01*
X95256571Y-89747238D02*
X95399428Y-89699619D01*
X95399428Y-89699619D02*
X95494666Y-89699619D01*
X95494666Y-89699619D02*
X95637523Y-89747238D01*
X95637523Y-89747238D02*
X95685142Y-89794857D01*
X96066095Y-89794857D02*
X96113714Y-89747238D01*
X96113714Y-89747238D02*
X96208952Y-89699619D01*
X96208952Y-89699619D02*
X96447047Y-89699619D01*
X96447047Y-89699619D02*
X96542285Y-89747238D01*
X96542285Y-89747238D02*
X96589904Y-89794857D01*
X96589904Y-89794857D02*
X96637523Y-89890095D01*
X96637523Y-89890095D02*
X96637523Y-89985333D01*
X96637523Y-89985333D02*
X96589904Y-90128190D01*
X96589904Y-90128190D02*
X96018476Y-90699619D01*
X96018476Y-90699619D02*
X96637523Y-90699619D01*
X97494666Y-90032952D02*
X97494666Y-90699619D01*
X97256571Y-89652000D02*
X97018476Y-90366285D01*
X97018476Y-90366285D02*
X97637523Y-90366285D01*
X105164095Y-81204819D02*
X105735523Y-81204819D01*
X105449809Y-82204819D02*
X105449809Y-81204819D01*
X106068857Y-82204819D02*
X106068857Y-81204819D01*
X106068857Y-81204819D02*
X106449809Y-81204819D01*
X106449809Y-81204819D02*
X106545047Y-81252438D01*
X106545047Y-81252438D02*
X106592666Y-81300057D01*
X106592666Y-81300057D02*
X106640285Y-81395295D01*
X106640285Y-81395295D02*
X106640285Y-81538152D01*
X106640285Y-81538152D02*
X106592666Y-81633390D01*
X106592666Y-81633390D02*
X106545047Y-81681009D01*
X106545047Y-81681009D02*
X106449809Y-81728628D01*
X106449809Y-81728628D02*
X106068857Y-81728628D01*
X107497428Y-81204819D02*
X107306952Y-81204819D01*
X107306952Y-81204819D02*
X107211714Y-81252438D01*
X107211714Y-81252438D02*
X107164095Y-81300057D01*
X107164095Y-81300057D02*
X107068857Y-81442914D01*
X107068857Y-81442914D02*
X107021238Y-81633390D01*
X107021238Y-81633390D02*
X107021238Y-82014342D01*
X107021238Y-82014342D02*
X107068857Y-82109580D01*
X107068857Y-82109580D02*
X107116476Y-82157200D01*
X107116476Y-82157200D02*
X107211714Y-82204819D01*
X107211714Y-82204819D02*
X107402190Y-82204819D01*
X107402190Y-82204819D02*
X107497428Y-82157200D01*
X107497428Y-82157200D02*
X107545047Y-82109580D01*
X107545047Y-82109580D02*
X107592666Y-82014342D01*
X107592666Y-82014342D02*
X107592666Y-81776247D01*
X107592666Y-81776247D02*
X107545047Y-81681009D01*
X107545047Y-81681009D02*
X107497428Y-81633390D01*
X107497428Y-81633390D02*
X107402190Y-81585771D01*
X107402190Y-81585771D02*
X107211714Y-81585771D01*
X107211714Y-81585771D02*
X107116476Y-81633390D01*
X107116476Y-81633390D02*
X107068857Y-81681009D01*
X107068857Y-81681009D02*
X107021238Y-81776247D01*
X103107142Y-75204819D02*
X102773809Y-74728628D01*
X102535714Y-75204819D02*
X102535714Y-74204819D01*
X102535714Y-74204819D02*
X102916666Y-74204819D01*
X102916666Y-74204819D02*
X103011904Y-74252438D01*
X103011904Y-74252438D02*
X103059523Y-74300057D01*
X103059523Y-74300057D02*
X103107142Y-74395295D01*
X103107142Y-74395295D02*
X103107142Y-74538152D01*
X103107142Y-74538152D02*
X103059523Y-74633390D01*
X103059523Y-74633390D02*
X103011904Y-74681009D01*
X103011904Y-74681009D02*
X102916666Y-74728628D01*
X102916666Y-74728628D02*
X102535714Y-74728628D01*
X104059523Y-75204819D02*
X103488095Y-75204819D01*
X103773809Y-75204819D02*
X103773809Y-74204819D01*
X103773809Y-74204819D02*
X103678571Y-74347676D01*
X103678571Y-74347676D02*
X103583333Y-74442914D01*
X103583333Y-74442914D02*
X103488095Y-74490533D01*
X104440476Y-74300057D02*
X104488095Y-74252438D01*
X104488095Y-74252438D02*
X104583333Y-74204819D01*
X104583333Y-74204819D02*
X104821428Y-74204819D01*
X104821428Y-74204819D02*
X104916666Y-74252438D01*
X104916666Y-74252438D02*
X104964285Y-74300057D01*
X104964285Y-74300057D02*
X105011904Y-74395295D01*
X105011904Y-74395295D02*
X105011904Y-74490533D01*
X105011904Y-74490533D02*
X104964285Y-74633390D01*
X104964285Y-74633390D02*
X104392857Y-75204819D01*
X104392857Y-75204819D02*
X105011904Y-75204819D01*
%TO.C,USB2*%
D13*
X79410000Y-83180000D02*
X81020000Y-83180000D01*
X79410000Y-92180000D02*
X79410000Y-83180000D01*
X79550000Y-92250000D02*
X81030000Y-92250000D01*
X82980000Y-92250000D02*
X84980000Y-92250000D01*
X82990000Y-83180000D02*
X84970000Y-83180000D01*
D14*
X87060000Y-83230000D02*
G75*
G02*
X87000000Y-83230000I-30000J0D01*
G01*
X87000000Y-83230000D02*
G75*
G02*
X87060000Y-83230000I30000J0D01*
G01*
%TO.C,R1*%
D12*
X144782800Y-85304200D02*
X145742800Y-85304200D01*
X144782800Y-86624200D02*
X144782800Y-85304200D01*
X145742800Y-86624200D02*
X144782800Y-86624200D01*
X146602800Y-86624200D02*
X147562800Y-86624200D01*
X147562800Y-85304200D02*
X146602800Y-85304200D01*
X147562800Y-86624200D02*
X147562800Y-85304200D01*
%TO.C,R24*%
X116090000Y-68110000D02*
X116090000Y-69070000D01*
X116090000Y-70890000D02*
X116090000Y-69930000D01*
X117410000Y-68110000D02*
X116090000Y-68110000D01*
X117410000Y-69070000D02*
X117410000Y-68110000D01*
X117410000Y-69930000D02*
X117410000Y-70890000D01*
X117410000Y-70890000D02*
X116090000Y-70890000D01*
%TO.C,C25*%
D13*
X100277000Y-95730000D02*
X100277000Y-96530000D01*
X100287000Y-95150000D02*
X100287000Y-94350000D01*
X100587000Y-96840000D02*
X101387000Y-96840000D01*
X100597000Y-94040000D02*
X101397000Y-94040000D01*
X101697000Y-95730000D02*
X101697000Y-96530000D01*
X101707000Y-95150000D02*
X101707000Y-94350000D01*
X100287000Y-94350000D02*
G75*
G02*
X100597000Y-94040000I310000J0D01*
G01*
X100587000Y-96840000D02*
G75*
G02*
X100277000Y-96530000I0J310000D01*
G01*
X101397000Y-94040000D02*
G75*
G02*
X101707000Y-94350000I0J-310000D01*
G01*
X101697000Y-96530000D02*
G75*
G02*
X101387000Y-96840000I-310000J0D01*
G01*
%TO.C,TP7*%
D15*
X107677000Y-71500000D02*
G75*
G02*
X105175000Y-71500000I-1251000J0D01*
G01*
X105175000Y-71500000D02*
G75*
G02*
X107677000Y-71500000I1251000J0D01*
G01*
%TO.C,R21*%
D12*
X121090000Y-68110000D02*
X121090000Y-69070000D01*
X121090000Y-70890000D02*
X121090000Y-69930000D01*
X122410000Y-68110000D02*
X121090000Y-68110000D01*
X122410000Y-69070000D02*
X122410000Y-68110000D01*
X122410000Y-69930000D02*
X122410000Y-70890000D01*
X122410000Y-70890000D02*
X121090000Y-70890000D01*
%TO.C,R16*%
X82360000Y-94590000D02*
X82360000Y-95910000D01*
X82360000Y-95910000D02*
X83320000Y-95910000D01*
X83320000Y-94590000D02*
X82360000Y-94590000D01*
X84180000Y-94590000D02*
X85140000Y-94590000D01*
X85140000Y-94590000D02*
X85140000Y-95910000D01*
X85140000Y-95910000D02*
X84180000Y-95910000D01*
%TO.C,D1*%
X154474400Y-83271000D02*
X154474400Y-83471000D01*
X154474400Y-85131000D02*
X154474400Y-84931000D01*
X156774400Y-85081000D02*
X156774400Y-83321000D01*
X157234400Y-83271000D02*
X154474400Y-83271000D01*
X157234400Y-85131000D02*
X154474400Y-85131000D01*
D14*
X157784400Y-83401000D02*
G75*
G02*
X157724400Y-83401000I-30000J0D01*
G01*
X157724400Y-83401000D02*
G75*
G02*
X157784400Y-83401000I30000J0D01*
G01*
D16*
G36*
X157459147Y-83518477D02*
G01*
X157154347Y-83518477D01*
X157154347Y-83198487D01*
X157459147Y-83198487D01*
X157459147Y-83518477D01*
G37*
G36*
X157459147Y-85203309D02*
G01*
X157154347Y-85203309D01*
X157154347Y-84883320D01*
X157459147Y-84883320D01*
X157459147Y-85203309D01*
G37*
%TO.C,C16*%
D13*
X131038600Y-84480200D02*
X131038600Y-85280200D01*
X132148600Y-84170200D02*
X131348600Y-84170200D01*
X132148600Y-85590200D02*
X131348600Y-85590200D01*
X132728600Y-84180200D02*
X133528600Y-84180200D01*
X132728600Y-85600200D02*
X133528600Y-85600200D01*
X133838600Y-84490200D02*
X133838600Y-85290200D01*
X131038600Y-84480200D02*
G75*
G02*
X131348600Y-84170200I310000J0D01*
G01*
X131348600Y-85590200D02*
G75*
G02*
X131038600Y-85280200I0J310000D01*
G01*
X133528600Y-84180200D02*
G75*
G02*
X133838600Y-84490200I0J-310000D01*
G01*
X133838600Y-85290200D02*
G75*
G02*
X133528600Y-85600200I-310000J0D01*
G01*
%TO.C,TP2*%
D15*
X86251000Y-71000000D02*
G75*
G02*
X83749000Y-71000000I-1251000J0D01*
G01*
X83749000Y-71000000D02*
G75*
G02*
X86251000Y-71000000I1251000J0D01*
G01*
%TO.C,TP1*%
X86251000Y-67000000D02*
G75*
G02*
X83749000Y-67000000I-1251000J0D01*
G01*
X83749000Y-67000000D02*
G75*
G02*
X86251000Y-67000000I1251000J0D01*
G01*
%TO.C,C23*%
D13*
X105810000Y-76900000D02*
X105810000Y-76100000D01*
X106920000Y-75790000D02*
X106120000Y-75790000D01*
X106920000Y-77210000D02*
X106120000Y-77210000D01*
X107500000Y-75800000D02*
X108300000Y-75800000D01*
X107500000Y-77220000D02*
X108300000Y-77220000D01*
X108610000Y-76910000D02*
X108610000Y-76110000D01*
X105810000Y-76100000D02*
G75*
G02*
X106120000Y-75790000I310000J0D01*
G01*
X106120000Y-77210000D02*
G75*
G02*
X105810000Y-76900000I0J310000D01*
G01*
X108300000Y-75800000D02*
G75*
G02*
X108610000Y-76110000I0J-310000D01*
G01*
X108610000Y-76910000D02*
G75*
G02*
X108300000Y-77220000I-310000J0D01*
G01*
%TO.C,X2*%
X115670000Y-93765600D02*
X115670000Y-92365600D01*
X115680000Y-91215600D02*
X122320000Y-91215600D01*
X115680000Y-92365600D02*
X115680000Y-91215600D01*
X115680000Y-94915600D02*
X115680000Y-93765600D01*
D11*
X118380000Y-93055600D02*
X118080000Y-93055600D01*
X118480000Y-94055600D02*
X118480000Y-91955600D01*
X118780000Y-92055600D02*
X118780000Y-93955600D01*
X118780000Y-93955600D02*
X119180000Y-93955600D01*
X119180000Y-92055600D02*
X118780000Y-92055600D01*
X119180000Y-93955600D02*
X119180000Y-92055600D01*
X119480000Y-94055600D02*
X119480000Y-91955600D01*
X119940000Y-93065600D02*
X119580000Y-93065600D01*
D13*
X122320000Y-91215600D02*
X122320000Y-92365600D01*
X122320000Y-92365600D02*
X122320000Y-93765600D01*
X122320000Y-93765600D02*
X122320000Y-94915600D01*
X122320000Y-94915600D02*
X115680000Y-94915600D01*
D14*
X121530000Y-91465600D02*
G75*
G02*
X121470000Y-91465600I-30000J0D01*
G01*
X121470000Y-91465600D02*
G75*
G02*
X121530000Y-91465600I30000J0D01*
G01*
%TO.C,LED3*%
D13*
X120740000Y-71560000D02*
X120740000Y-73110000D01*
X120740000Y-75390000D02*
X120740000Y-73870000D01*
X121120000Y-75770000D02*
X120740000Y-75390000D01*
X121250000Y-73350000D02*
X121650000Y-73750000D01*
X121250000Y-73350000D02*
X122250000Y-73350000D01*
X121650000Y-73750000D02*
X121750000Y-73850000D01*
X121750000Y-73850000D02*
X121850000Y-73750000D01*
X121850000Y-73750000D02*
X122250000Y-73350000D01*
X122390000Y-75770000D02*
X121120000Y-75770000D01*
X122770000Y-71560000D02*
X120740000Y-71560000D01*
X122770000Y-73110000D02*
X122770000Y-71560000D01*
X122790000Y-73890000D02*
X122790000Y-75370000D01*
X122790000Y-75370000D02*
X122390000Y-75770000D01*
D14*
X121150000Y-72550000D02*
G75*
G02*
X121090000Y-72550000I-30000J0D01*
G01*
X121090000Y-72550000D02*
G75*
G02*
X121150000Y-72550000I30000J0D01*
G01*
%TO.C,TP8*%
D15*
X128435000Y-93695200D02*
G75*
G02*
X125933000Y-93695200I-1251000J0D01*
G01*
X125933000Y-93695200D02*
G75*
G02*
X128435000Y-93695200I1251000J0D01*
G01*
%TO.C,REF\u002A\u002A*%
D17*
X128588000Y-78136000D02*
X132588000Y-71216000D01*
D18*
X129078000Y-78116000D02*
X128811678Y-77706736D01*
X132438000Y-71636000D02*
X132748000Y-71636000D01*
D17*
X132588000Y-71216000D02*
X136588000Y-78136000D01*
D18*
X136098000Y-78116000D02*
X136364322Y-77706736D01*
D17*
X136588000Y-78136000D02*
X128588000Y-78136000D01*
D19*
X132813000Y-73176000D02*
G75*
G02*
X132363000Y-73176000I-225000J0D01*
G01*
X132363000Y-73176000D02*
G75*
G02*
X132813000Y-73176000I225000J0D01*
G01*
D13*
X132713000Y-76176000D02*
G75*
G02*
X132463000Y-76176000I-125000J0D01*
G01*
X132463000Y-76176000D02*
G75*
G02*
X132713000Y-76176000I125000J0D01*
G01*
D20*
X132788000Y-77176000D02*
G75*
G02*
X132388000Y-77176000I-200000J0D01*
G01*
X132388000Y-77176000D02*
G75*
G02*
X132788000Y-77176000I200000J0D01*
G01*
D16*
G36*
X132838000Y-76176000D02*
G01*
X132338000Y-76176000D01*
X132138000Y-73176000D01*
X133038000Y-73176000D01*
X132838000Y-76176000D01*
G37*
%TO.C,U1*%
D12*
X93370000Y-83460000D02*
X93370000Y-84510000D01*
X93370000Y-86540000D02*
X93370000Y-85490000D01*
X95130000Y-83460000D02*
X93370000Y-83460000D01*
X95130000Y-84540000D02*
X95130000Y-85460000D01*
X95130000Y-86540000D02*
X93370000Y-86540000D01*
D14*
X95680000Y-86460000D02*
G75*
G02*
X95620000Y-86460000I-30000J0D01*
G01*
X95620000Y-86460000D02*
G75*
G02*
X95680000Y-86460000I30000J0D01*
G01*
%TO.C,C29*%
D13*
X123310000Y-89808000D02*
X123310000Y-89008000D01*
X124420000Y-88698000D02*
X123620000Y-88698000D01*
X124420000Y-90118000D02*
X123620000Y-90118000D01*
X125000000Y-88708000D02*
X125800000Y-88708000D01*
X125000000Y-90128000D02*
X125800000Y-90128000D01*
X126110000Y-89818000D02*
X126110000Y-89018000D01*
X123310000Y-89008000D02*
G75*
G02*
X123620000Y-88698000I310000J0D01*
G01*
X123620000Y-90118000D02*
G75*
G02*
X123310000Y-89808000I0J310000D01*
G01*
X125800000Y-88708000D02*
G75*
G02*
X126110000Y-89018000I0J-310000D01*
G01*
X126110000Y-89818000D02*
G75*
G02*
X125800000Y-90128000I-310000J0D01*
G01*
%TO.C,R17*%
D12*
X82360000Y-79840000D02*
X82360000Y-81160000D01*
X82360000Y-81160000D02*
X83320000Y-81160000D01*
X83320000Y-79840000D02*
X82360000Y-79840000D01*
X84180000Y-79840000D02*
X85140000Y-79840000D01*
X85140000Y-79840000D02*
X85140000Y-81160000D01*
X85140000Y-81160000D02*
X84180000Y-81160000D01*
%TO.C,C14*%
X89850000Y-82350000D02*
X89850000Y-80940000D01*
X89850000Y-83150000D02*
X89850000Y-84560000D01*
X90000000Y-80790000D02*
X91500000Y-80790000D01*
X90000000Y-84710000D02*
X91500000Y-84710000D01*
X91650000Y-80940000D02*
X91650000Y-82350000D01*
X91650000Y-84560000D02*
X91650000Y-83150000D01*
X89850000Y-80940000D02*
G75*
G02*
X90000000Y-80790000I150000J0D01*
G01*
X90000000Y-84710000D02*
G75*
G02*
X89850000Y-84560000I0J150000D01*
G01*
X91500000Y-80790000D02*
G75*
G02*
X91650000Y-80940000I0J-150000D01*
G01*
X91650000Y-84560000D02*
G75*
G02*
X91500000Y-84710000I-150000J0D01*
G01*
%TO.C,Q1*%
X148392800Y-84179200D02*
X149432800Y-84179200D01*
X148392800Y-85639200D02*
X148392800Y-84179200D01*
X150382800Y-85639200D02*
X149462800Y-85639200D01*
X151452800Y-84179200D02*
X150412800Y-84179200D01*
X151452800Y-85639200D02*
X151452800Y-84179200D01*
D14*
X148502800Y-86109200D02*
G75*
G02*
X148442800Y-86109200I-30000J0D01*
G01*
X148442800Y-86109200D02*
G75*
G02*
X148502800Y-86109200I30000J0D01*
G01*
%TO.C,C20*%
D13*
X119960000Y-97000000D02*
X119960000Y-97800000D01*
X119970000Y-96420000D02*
X119970000Y-95620000D01*
X120270000Y-98110000D02*
X121070000Y-98110000D01*
X120280000Y-95310000D02*
X121080000Y-95310000D01*
X121380000Y-97000000D02*
X121380000Y-97800000D01*
X121390000Y-96420000D02*
X121390000Y-95620000D01*
X119970000Y-95620000D02*
G75*
G02*
X120280000Y-95310000I310000J0D01*
G01*
X120270000Y-98110000D02*
G75*
G02*
X119960000Y-97800000I0J310000D01*
G01*
X121080000Y-95310000D02*
G75*
G02*
X121390000Y-95620000I0J-310000D01*
G01*
X121380000Y-97800000D02*
G75*
G02*
X121070000Y-98110000I-310000J0D01*
G01*
%TO.C,U5*%
D21*
X135562800Y-96000000D02*
X161562800Y-96000000D01*
X135562800Y-122000000D02*
X135562800Y-96000000D01*
X141562800Y-120000000D02*
X141562800Y-122000000D01*
X141562800Y-122000000D02*
X135562800Y-122000000D01*
X155562800Y-120000000D02*
X141562800Y-120000000D01*
X155562800Y-122000000D02*
X155562800Y-120000000D01*
X161562800Y-96000000D02*
X161562800Y-122000000D01*
X161562800Y-122000000D02*
X155562800Y-122000000D01*
D18*
X144662800Y-95500000D02*
G75*
G02*
X144462800Y-95500000I-100000J0D01*
G01*
X144462800Y-95500000D02*
G75*
G02*
X144662800Y-95500000I100000J0D01*
G01*
%TO.C,TP3*%
D15*
X86251000Y-75000000D02*
G75*
G02*
X83749000Y-75000000I-1251000J0D01*
G01*
X83749000Y-75000000D02*
G75*
G02*
X86251000Y-75000000I1251000J0D01*
G01*
%TO.C,U3*%
D18*
X115670000Y-81410000D02*
X116430000Y-81410000D01*
X115670000Y-88060000D02*
X115670000Y-81410000D01*
X116100000Y-81410000D02*
X122300000Y-81410000D01*
X122300000Y-81410000D02*
X122300000Y-88060000D01*
X122300000Y-88060000D02*
X115670000Y-88060000D01*
D20*
X115610000Y-88810000D02*
G75*
G02*
X115607452Y-88810016I-18J-200000D01*
G01*
D14*
X114530000Y-89250000D02*
G75*
G02*
X114470000Y-89250000I-30000J0D01*
G01*
X114470000Y-89250000D02*
G75*
G02*
X114530000Y-89250000I30000J0D01*
G01*
D13*
X116550000Y-87580000D02*
G75*
G02*
X116210000Y-87580000I-170000J0D01*
G01*
X116210000Y-87580000D02*
G75*
G02*
X116550000Y-87580000I170000J0D01*
G01*
%TO.C,C21*%
X129744000Y-98595200D02*
X129744000Y-97795200D01*
X130854000Y-97485200D02*
X130054000Y-97485200D01*
X130854000Y-98905200D02*
X130054000Y-98905200D01*
X131434000Y-97495200D02*
X132234000Y-97495200D01*
X131434000Y-98915200D02*
X132234000Y-98915200D01*
X132544000Y-98605200D02*
X132544000Y-97805200D01*
X129744000Y-97795200D02*
G75*
G02*
X130054000Y-97485200I310000J0D01*
G01*
X130054000Y-98905200D02*
G75*
G02*
X129744000Y-98595200I0J310000D01*
G01*
X132234000Y-97495200D02*
G75*
G02*
X132544000Y-97805200I0J-310000D01*
G01*
X132544000Y-98605200D02*
G75*
G02*
X132234000Y-98915200I-310000J0D01*
G01*
%TO.C,TP9*%
D15*
X132761000Y-115824000D02*
G75*
G02*
X130259000Y-115824000I-1251000J0D01*
G01*
X130259000Y-115824000D02*
G75*
G02*
X132761000Y-115824000I1251000J0D01*
G01*
%TO.C,H1*%
D13*
X105029000Y-63627000D02*
X115189000Y-63627000D01*
X105029000Y-66167000D02*
X105029000Y-63627000D01*
X112629000Y-66167000D02*
X105029000Y-66167000D01*
X112629000Y-66167000D02*
X112629000Y-63627000D01*
X115189000Y-63627000D02*
X115189000Y-66167000D01*
X115189000Y-66167000D02*
X112629000Y-66167000D01*
D14*
X115219000Y-63647000D02*
G75*
G02*
X115159000Y-63647000I-30000J0D01*
G01*
X115159000Y-63647000D02*
G75*
G02*
X115219000Y-63647000I30000J0D01*
G01*
%TO.C,R22*%
D12*
X148532800Y-87554200D02*
X148532800Y-88874200D01*
X148532800Y-88874200D02*
X149492800Y-88874200D01*
X149492800Y-87554200D02*
X148532800Y-87554200D01*
X150352800Y-87554200D02*
X151312800Y-87554200D01*
X151312800Y-87554200D02*
X151312800Y-88874200D01*
X151312800Y-88874200D02*
X150352800Y-88874200D01*
%TO.C,C30*%
D13*
X115622000Y-64360000D02*
X115622000Y-65160000D01*
X116732000Y-64050000D02*
X115932000Y-64050000D01*
X116732000Y-65470000D02*
X115932000Y-65470000D01*
X117312000Y-64060000D02*
X118112000Y-64060000D01*
X117312000Y-65480000D02*
X118112000Y-65480000D01*
X118422000Y-64370000D02*
X118422000Y-65170000D01*
X115622000Y-64360000D02*
G75*
G02*
X115932000Y-64050000I310000J0D01*
G01*
X115932000Y-65470000D02*
G75*
G02*
X115622000Y-65160000I0J310000D01*
G01*
X118112000Y-64060000D02*
G75*
G02*
X118422000Y-64370000I0J-310000D01*
G01*
X118422000Y-65170000D02*
G75*
G02*
X118112000Y-65480000I-310000J0D01*
G01*
%TO.C,U11*%
D12*
X97510000Y-112324000D02*
X97510000Y-113744000D01*
X97510000Y-112324000D02*
X100630000Y-112324000D01*
X97510000Y-119324000D02*
X97510000Y-117904000D01*
X97510000Y-119324000D02*
X100630000Y-119324000D01*
X99960000Y-107754000D02*
X100110000Y-107754000D01*
X99960000Y-107774000D02*
X99960000Y-123874000D01*
X100110000Y-107754000D02*
X100110000Y-123904000D01*
X100110000Y-123904000D02*
X99960000Y-123904000D01*
X100630000Y-107744000D02*
X122890000Y-107744000D01*
X100630000Y-123904000D02*
X122890000Y-123904000D01*
X102560000Y-109174000D02*
X101460000Y-109174000D01*
X120960000Y-122474000D02*
X122060000Y-122474000D01*
X121400000Y-107744000D02*
X121420000Y-107744000D01*
X121420000Y-107744000D02*
X122890000Y-109214000D01*
X121510000Y-123024000D02*
X121510000Y-121924000D01*
X122890000Y-107744000D02*
X122890000Y-113844000D01*
X122890000Y-113844000D02*
X122890000Y-117884000D01*
X122890000Y-123904000D02*
X122890000Y-117804000D01*
X126010000Y-112324000D02*
X122890000Y-112324000D01*
X126010000Y-112324000D02*
X126010000Y-113744000D01*
X126010000Y-119324000D02*
X122890000Y-119324000D01*
X126010000Y-119324000D02*
X126010000Y-117904000D01*
X105850000Y-123894000D02*
G75*
G02*
X105866036Y-107742281I5909999J8070000D01*
G01*
X117670000Y-107754000D02*
G75*
G02*
X117653964Y-123905719I-5910000J-8070000D01*
G01*
X102930000Y-109174000D02*
G75*
G02*
X101090000Y-109174000I-920000J0D01*
G01*
X101090000Y-109174000D02*
G75*
G02*
X102930000Y-109174000I920000J0D01*
G01*
X122430000Y-122474000D02*
G75*
G02*
X120590000Y-122474000I-920000J0D01*
G01*
X120590000Y-122474000D02*
G75*
G02*
X122430000Y-122474000I920000J0D01*
G01*
D14*
X127440000Y-107824000D02*
G75*
G02*
X127380000Y-107824000I-30000J0D01*
G01*
X127380000Y-107824000D02*
G75*
G02*
X127440000Y-107824000I30000J0D01*
G01*
D16*
G36*
X122886191Y-109220000D02*
G01*
X121412000Y-107747791D01*
X122886191Y-107747791D01*
X122886191Y-109220000D01*
G37*
G36*
X100710009Y-123976409D02*
G01*
X100405209Y-123976409D01*
X100405209Y-117756407D01*
X100710009Y-117756407D01*
X100710009Y-123976409D01*
G37*
G36*
X100710035Y-117774009D02*
G01*
X100410035Y-117823996D01*
X100405209Y-113891593D01*
X100405209Y-107671591D01*
X100710009Y-107671591D01*
X100710035Y-117774009D01*
G37*
%TO.C,C17*%
D12*
X94930000Y-98730000D02*
X94930000Y-98800000D01*
X94930000Y-100660000D02*
X94930000Y-100730000D01*
X94930000Y-100730000D02*
X95530000Y-101330000D01*
X95530000Y-98130000D02*
X94930000Y-98730000D01*
X95530000Y-101330000D02*
X99430000Y-101330000D01*
X96630000Y-99580000D02*
X96630000Y-99880000D01*
X96630000Y-99880000D02*
X96980000Y-99880000D01*
X96980000Y-98780000D02*
X96980000Y-99580000D01*
X96980000Y-99580000D02*
X96630000Y-99580000D01*
X96980000Y-99880000D02*
X96980000Y-100680000D01*
X97380000Y-98780000D02*
X97380000Y-100680000D01*
X99430000Y-98130000D02*
X95530000Y-98130000D01*
X99430000Y-98800000D02*
X99430000Y-98130000D01*
X99430000Y-101330000D02*
X99430000Y-100660000D01*
D14*
X94960000Y-101330000D02*
G75*
G02*
X94900000Y-101330000I-30000J0D01*
G01*
X94900000Y-101330000D02*
G75*
G02*
X94960000Y-101330000I30000J0D01*
G01*
D12*
X98180000Y-99730000D02*
G75*
G02*
X96180000Y-99730000I-1000000J0D01*
G01*
X96180000Y-99730000D02*
G75*
G02*
X98180000Y-99730000I1000000J0D01*
G01*
%TO.C,C15*%
D13*
X105810000Y-74900000D02*
X105810000Y-74100000D01*
X106920000Y-73790000D02*
X106120000Y-73790000D01*
X106920000Y-75210000D02*
X106120000Y-75210000D01*
X107500000Y-73800000D02*
X108300000Y-73800000D01*
X107500000Y-75220000D02*
X108300000Y-75220000D01*
X108610000Y-74910000D02*
X108610000Y-74110000D01*
X105810000Y-74100000D02*
G75*
G02*
X106120000Y-73790000I310000J0D01*
G01*
X106120000Y-75210000D02*
G75*
G02*
X105810000Y-74900000I0J310000D01*
G01*
X108300000Y-73800000D02*
G75*
G02*
X108610000Y-74110000I0J-310000D01*
G01*
X108610000Y-74910000D02*
G75*
G02*
X108300000Y-75220000I-310000J0D01*
G01*
%TO.C,J1*%
D15*
X147611000Y-58045000D02*
X160131000Y-58045000D01*
X147611000Y-69285000D02*
X147611000Y-58045000D01*
X160731000Y-58045000D02*
X163091000Y-58045000D01*
X163091000Y-58045000D02*
X163091000Y-69285000D01*
X163091000Y-58665000D02*
X147611000Y-58665000D01*
X163091000Y-61165000D02*
X147611000Y-61165000D01*
X163091000Y-67365000D02*
X147611000Y-67365000D01*
X163091000Y-69285000D02*
X147611000Y-69285000D01*
X160431000Y-58045000D02*
X159991000Y-57435000D01*
X160871000Y-57435000D01*
X160431000Y-58045000D01*
G36*
X160431000Y-58045000D02*
G01*
X159991000Y-57435000D01*
X160871000Y-57435000D01*
X160431000Y-58045000D01*
G37*
%TO.C,U10*%
D12*
X109650000Y-96130000D02*
X109650000Y-97590000D01*
X109650000Y-97590000D02*
X110760000Y-97590000D01*
X111710000Y-96130000D02*
X110650000Y-96130000D01*
X112710000Y-96130000D02*
X112710000Y-97590000D01*
X112710000Y-97590000D02*
X111600000Y-97590000D01*
D14*
X112660000Y-95460000D02*
G75*
G02*
X112600000Y-95460000I-30000J0D01*
G01*
X112600000Y-95460000D02*
G75*
G02*
X112660000Y-95460000I30000J0D01*
G01*
D12*
X112770000Y-95840000D02*
G75*
G02*
X112630000Y-95840000I-70000J0D01*
G01*
X112630000Y-95840000D02*
G75*
G02*
X112770000Y-95840000I70000J0D01*
G01*
%TO.C,U8*%
D18*
X137448600Y-84340200D02*
X134848600Y-84340200D01*
X137448600Y-86940200D02*
X134848600Y-86940200D01*
D22*
X137658600Y-86900200D02*
G75*
G02*
X137658626Y-86902809I130000J-9D01*
G01*
D14*
X137428600Y-86890200D02*
G75*
G02*
X137368600Y-86890200I-30000J0D01*
G01*
X137368600Y-86890200D02*
G75*
G02*
X137428600Y-86890200I30000J0D01*
G01*
%TO.C,C27*%
D13*
X111732800Y-79881000D02*
X111732800Y-80681000D01*
X112842800Y-79571000D02*
X112042800Y-79571000D01*
X112842800Y-80991000D02*
X112042800Y-80991000D01*
X113422800Y-79581000D02*
X114222800Y-79581000D01*
X113422800Y-81001000D02*
X114222800Y-81001000D01*
X114532800Y-79891000D02*
X114532800Y-80691000D01*
X111732800Y-79881000D02*
G75*
G02*
X112042800Y-79571000I310000J0D01*
G01*
X112042800Y-80991000D02*
G75*
G02*
X111732800Y-80681000I0J310000D01*
G01*
X114222800Y-79581000D02*
G75*
G02*
X114532800Y-79891000I0J-310000D01*
G01*
X114532800Y-80691000D02*
G75*
G02*
X114222800Y-81001000I-310000J0D01*
G01*
%TO.C,R19*%
D12*
X102337000Y-94050000D02*
X102337000Y-95010000D01*
X102337000Y-96830000D02*
X102337000Y-95870000D01*
X103657000Y-94050000D02*
X102337000Y-94050000D01*
X103657000Y-95010000D02*
X103657000Y-94050000D01*
X103657000Y-95870000D02*
X103657000Y-96830000D01*
X103657000Y-96830000D02*
X102337000Y-96830000D01*
%TO.C,R15*%
X99360000Y-75840000D02*
X100320000Y-75840000D01*
X99360000Y-77160000D02*
X99360000Y-75840000D01*
X100320000Y-77160000D02*
X99360000Y-77160000D01*
X101180000Y-77160000D02*
X102140000Y-77160000D01*
X102140000Y-75840000D02*
X101180000Y-75840000D01*
X102140000Y-77160000D02*
X102140000Y-75840000D01*
%TO.C,J2*%
D15*
X127451000Y-58045000D02*
X139971000Y-58045000D01*
X127451000Y-69285000D02*
X127451000Y-58045000D01*
X140571000Y-58045000D02*
X142931000Y-58045000D01*
X142931000Y-58045000D02*
X142931000Y-69285000D01*
X142931000Y-58665000D02*
X127451000Y-58665000D01*
X142931000Y-61165000D02*
X127451000Y-61165000D01*
X142931000Y-67365000D02*
X127451000Y-67365000D01*
X142931000Y-69285000D02*
X127451000Y-69285000D01*
X140271000Y-58045000D02*
X139831000Y-57435000D01*
X140711000Y-57435000D01*
X140271000Y-58045000D01*
G36*
X140271000Y-58045000D02*
G01*
X139831000Y-57435000D01*
X140711000Y-57435000D01*
X140271000Y-58045000D01*
G37*
%TO.C,C26*%
D13*
X111732800Y-89008000D02*
X111732800Y-89808000D01*
X112842800Y-88698000D02*
X112042800Y-88698000D01*
X112842800Y-90118000D02*
X112042800Y-90118000D01*
X113422800Y-88708000D02*
X114222800Y-88708000D01*
X113422800Y-90128000D02*
X114222800Y-90128000D01*
X114532800Y-89018000D02*
X114532800Y-89818000D01*
X111732800Y-89008000D02*
G75*
G02*
X112042800Y-88698000I310000J0D01*
G01*
X112042800Y-90118000D02*
G75*
G02*
X111732800Y-89808000I0J310000D01*
G01*
X114222800Y-88708000D02*
G75*
G02*
X114532800Y-89018000I0J-310000D01*
G01*
X114532800Y-89818000D02*
G75*
G02*
X114222800Y-90128000I-310000J0D01*
G01*
%TO.C,C18*%
X112410000Y-100400000D02*
X112410000Y-99600000D01*
X113520000Y-99290000D02*
X112720000Y-99290000D01*
X113520000Y-100710000D02*
X112720000Y-100710000D01*
X114100000Y-99300000D02*
X114900000Y-99300000D01*
X114100000Y-100720000D02*
X114900000Y-100720000D01*
X115210000Y-100410000D02*
X115210000Y-99610000D01*
X112410000Y-99600000D02*
G75*
G02*
X112720000Y-99290000I310000J0D01*
G01*
X112720000Y-100710000D02*
G75*
G02*
X112410000Y-100400000I0J310000D01*
G01*
X114900000Y-99300000D02*
G75*
G02*
X115210000Y-99610000I0J-310000D01*
G01*
X115210000Y-100410000D02*
G75*
G02*
X114900000Y-100720000I-310000J0D01*
G01*
%TO.C,R13*%
D12*
X99360000Y-72340000D02*
X100320000Y-72340000D01*
X99360000Y-73660000D02*
X99360000Y-72340000D01*
X100320000Y-73660000D02*
X99360000Y-73660000D01*
X101180000Y-73660000D02*
X102140000Y-73660000D01*
X102140000Y-72340000D02*
X101180000Y-72340000D01*
X102140000Y-73660000D02*
X102140000Y-72340000D01*
%TO.C,X3*%
D13*
X100670000Y-101510000D02*
X100670000Y-100490000D01*
X102190000Y-100490000D02*
X102190000Y-101510000D01*
D14*
X102360000Y-102750000D02*
G75*
G02*
X102300000Y-102750000I-30000J0D01*
G01*
X102300000Y-102750000D02*
G75*
G02*
X102360000Y-102750000I30000J0D01*
G01*
%TO.C,TP5*%
D15*
X90430400Y-103073200D02*
G75*
G02*
X87928400Y-103073200I-1251000J0D01*
G01*
X87928400Y-103073200D02*
G75*
G02*
X90430400Y-103073200I1251000J0D01*
G01*
%TO.C,C28*%
D13*
X123310000Y-80681000D02*
X123310000Y-79881000D01*
X124420000Y-79571000D02*
X123620000Y-79571000D01*
X124420000Y-80991000D02*
X123620000Y-80991000D01*
X125000000Y-79581000D02*
X125800000Y-79581000D01*
X125000000Y-81001000D02*
X125800000Y-81001000D01*
X126110000Y-80691000D02*
X126110000Y-79891000D01*
X123310000Y-79881000D02*
G75*
G02*
X123620000Y-79571000I310000J0D01*
G01*
X123620000Y-80991000D02*
G75*
G02*
X123310000Y-80681000I0J310000D01*
G01*
X125800000Y-79581000D02*
G75*
G02*
X126110000Y-79891000I0J-310000D01*
G01*
X126110000Y-80691000D02*
G75*
G02*
X125800000Y-81001000I-310000J0D01*
G01*
%TO.C,R14*%
D12*
X99360000Y-77590000D02*
X100320000Y-77590000D01*
X99360000Y-78910000D02*
X99360000Y-77590000D01*
X100320000Y-78910000D02*
X99360000Y-78910000D01*
X101180000Y-78910000D02*
X102140000Y-78910000D01*
X102140000Y-77590000D02*
X101180000Y-77590000D01*
X102140000Y-78910000D02*
X102140000Y-77590000D01*
%TO.C,U2*%
D11*
X89600000Y-87084000D02*
X89800000Y-87084000D01*
X89600000Y-87684000D02*
X89600000Y-87084000D01*
X89600000Y-88084000D02*
X89600000Y-88684000D01*
X89600000Y-88684000D02*
X89800000Y-88684000D01*
X90400000Y-87084000D02*
X90200000Y-87084000D01*
X90400000Y-87684000D02*
X90400000Y-87084000D01*
X90400000Y-88684000D02*
X90200000Y-88684000D01*
X90400000Y-88684000D02*
X90400000Y-88084000D01*
D14*
X90330000Y-88384000D02*
G75*
G02*
X90270000Y-88384000I-30000J0D01*
G01*
X90270000Y-88384000D02*
G75*
G02*
X90330000Y-88384000I30000J0D01*
G01*
%TO.C,R23*%
D12*
X140564000Y-89149000D02*
X141884000Y-89149000D01*
X140564000Y-90109000D02*
X140564000Y-89149000D01*
X140564000Y-90969000D02*
X140564000Y-91929000D01*
X140564000Y-91929000D02*
X141884000Y-91929000D01*
X141884000Y-89149000D02*
X141884000Y-90109000D01*
X141884000Y-91929000D02*
X141884000Y-90969000D01*
%TO.C,SW4*%
D13*
X92900000Y-73050000D02*
X92900000Y-78450000D01*
X92900000Y-73050000D02*
X97100000Y-73050000D01*
X92900000Y-78450000D02*
X97100000Y-78450000D01*
X93710000Y-74230000D02*
X94780000Y-74230000D01*
X93710000Y-75560000D02*
X94730000Y-75560000D01*
X93710000Y-76580000D02*
X93710000Y-75560000D01*
X93710000Y-77270000D02*
X93710000Y-74230000D01*
X94730000Y-75560000D02*
X94730000Y-76580000D01*
X94730000Y-76580000D02*
X93710000Y-76580000D01*
X94780000Y-74230000D02*
X94780000Y-77270000D01*
X94780000Y-77270000D02*
X93710000Y-77270000D01*
X95240000Y-74230000D02*
X96280000Y-74230000D01*
X95240000Y-75560000D02*
X96250000Y-75560000D01*
X95240000Y-76580000D02*
X95240000Y-75560000D01*
X95240000Y-77270000D02*
X95240000Y-74230000D01*
X96250000Y-75560000D02*
X96250000Y-76580000D01*
X96250000Y-76580000D02*
X95240000Y-76580000D01*
X96280000Y-74230000D02*
X96280000Y-77270000D01*
X96280000Y-77270000D02*
X95240000Y-77270000D01*
X97100000Y-73050000D02*
X97100000Y-78450000D01*
D14*
X97100000Y-71500000D02*
G75*
G02*
X97040000Y-71500000I-30000J0D01*
G01*
X97040000Y-71500000D02*
G75*
G02*
X97100000Y-71500000I30000J0D01*
G01*
%TO.C,R20*%
D12*
X101090000Y-82860000D02*
X101090000Y-83820000D01*
X101090000Y-85640000D02*
X101090000Y-84680000D01*
X102410000Y-82860000D02*
X101090000Y-82860000D01*
X102410000Y-83820000D02*
X102410000Y-82860000D01*
X102410000Y-84680000D02*
X102410000Y-85640000D01*
X102410000Y-85640000D02*
X101090000Y-85640000D01*
%TO.C,R25*%
X140564000Y-81680000D02*
X140564000Y-82640000D01*
X140564000Y-84460000D02*
X140564000Y-83500000D01*
X141884000Y-81680000D02*
X140564000Y-81680000D01*
X141884000Y-82640000D02*
X141884000Y-81680000D01*
X141884000Y-83500000D02*
X141884000Y-84460000D01*
X141884000Y-84460000D02*
X140564000Y-84460000D01*
%TO.C,U9*%
D13*
X105490000Y-99600000D02*
X105490000Y-99690000D01*
X105490000Y-104600000D02*
X105490000Y-104510000D01*
X105890000Y-99600000D02*
X105490000Y-99600000D01*
X105890000Y-99600000D02*
X106660000Y-99600000D01*
X105890000Y-104600000D02*
X105490000Y-104600000D01*
X108890000Y-99600000D02*
X108120000Y-99600000D01*
X108890000Y-99600000D02*
X109300000Y-99600000D01*
X108890000Y-104600000D02*
X105890000Y-104600000D01*
X108890000Y-104600000D02*
X109300000Y-104600000D01*
X109300000Y-99600000D02*
X109300000Y-99690000D01*
X109300000Y-104600000D02*
X109300000Y-104510000D01*
X108119889Y-99612740D02*
G75*
G02*
X108120000Y-99600000I-729889J12730D01*
G01*
D22*
X104870000Y-99560000D02*
G75*
G02*
X104570000Y-99560000I-150000J0D01*
G01*
X104570000Y-99560000D02*
G75*
G02*
X104870000Y-99560000I150000J0D01*
G01*
%TO.C,TP4*%
D15*
X129648000Y-82042000D02*
G75*
G02*
X127146000Y-82042000I-1251000J0D01*
G01*
X127146000Y-82042000D02*
G75*
G02*
X129648000Y-82042000I1251000J0D01*
G01*
%TO.C,C19*%
D13*
X116297800Y-97000000D02*
X116297800Y-97800000D01*
X116307800Y-96420000D02*
X116307800Y-95620000D01*
X116607800Y-98110000D02*
X117407800Y-98110000D01*
X116617800Y-95310000D02*
X117417800Y-95310000D01*
X117717800Y-97000000D02*
X117717800Y-97800000D01*
X117727800Y-96420000D02*
X117727800Y-95620000D01*
X116307800Y-95620000D02*
G75*
G02*
X116617800Y-95310000I310000J0D01*
G01*
X116607800Y-98110000D02*
G75*
G02*
X116297800Y-97800000I0J310000D01*
G01*
X117417800Y-95310000D02*
G75*
G02*
X117727800Y-95620000I0J-310000D01*
G01*
X117717800Y-97800000D02*
G75*
G02*
X117407800Y-98110000I-310000J0D01*
G01*
%TO.C,K1*%
X149769800Y-72434600D02*
X156269800Y-72434600D01*
X149779800Y-72904600D02*
X149779800Y-72434600D01*
X149779800Y-75104600D02*
X149779800Y-74364600D01*
X149779800Y-77304600D02*
X149779800Y-76564600D01*
X149779800Y-80504600D02*
X149779800Y-78764600D01*
X149779800Y-82454600D02*
X149779800Y-81964600D01*
X149779800Y-82454600D02*
X156279800Y-82454600D01*
X151839800Y-81944600D02*
X154329800Y-81944600D01*
X151929800Y-81194600D02*
X151899800Y-81164600D01*
X151929800Y-81944600D02*
X151929800Y-81194600D01*
X152559800Y-81914600D02*
X152559800Y-81164600D01*
X153219800Y-81944600D02*
X153219800Y-81164600D01*
X153849800Y-81944600D02*
X153849800Y-81164600D01*
X154359800Y-81194600D02*
X154359800Y-81164600D01*
X154359800Y-81944600D02*
X154359800Y-81194600D01*
X154389800Y-81134600D02*
X151839800Y-81134600D01*
X154389800Y-81944600D02*
X154359800Y-81944600D01*
X156279800Y-72904600D02*
X156279800Y-72434600D01*
X156279800Y-75104600D02*
X156279800Y-74364600D01*
X156279800Y-77304600D02*
X156279800Y-76564600D01*
X156279800Y-80504600D02*
X156279800Y-78764600D01*
X156279800Y-82454600D02*
X156279800Y-81964600D01*
X151809800Y-81934600D02*
G75*
G02*
X151809800Y-81134600I0J400000D01*
G01*
X154396453Y-81124816D02*
G75*
G02*
X154369800Y-81944600I-16652J-409784D01*
G01*
D11*
X156339800Y-82434600D02*
G75*
G02*
X156239800Y-82434600I-50000J0D01*
G01*
X156239800Y-82434600D02*
G75*
G02*
X156339800Y-82434600I50000J0D01*
G01*
%TO.C,U7*%
D18*
X99784200Y-87350000D02*
X100434200Y-87350000D01*
X99784200Y-88000000D02*
X99784200Y-87350000D01*
X99784200Y-92000000D02*
X99784200Y-92650000D01*
X99784200Y-92650000D02*
X100434200Y-92650000D01*
X104434200Y-92650000D02*
X105084200Y-92650000D01*
X105084200Y-87350000D02*
X104434200Y-87350000D01*
X105084200Y-88000000D02*
X105084200Y-87350000D01*
X105084200Y-92650000D02*
X105084200Y-92000000D01*
D22*
X99434200Y-87550000D02*
G75*
G02*
X99434179Y-87547461I-150000J29D01*
G01*
D14*
X99964200Y-87500000D02*
G75*
G02*
X99904200Y-87500000I-30000J0D01*
G01*
X99904200Y-87500000D02*
G75*
G02*
X99964200Y-87500000I30000J0D01*
G01*
%TO.C,SW3*%
D12*
X125714000Y-96725200D02*
X125714000Y-100785200D01*
X125714000Y-96725200D02*
X126144000Y-96725200D01*
X125714000Y-100785200D02*
X126144000Y-100785200D01*
X128364000Y-96725200D02*
X128794000Y-96725200D01*
X128794000Y-96725200D02*
X128794000Y-100785200D01*
X128794000Y-100785200D02*
X128364000Y-100785200D01*
D14*
X125814000Y-96255200D02*
G75*
G02*
X125754000Y-96255200I-30000J0D01*
G01*
X125754000Y-96255200D02*
G75*
G02*
X125814000Y-96255200I30000J0D01*
G01*
D13*
X128154000Y-98755200D02*
G75*
G02*
X126354000Y-98755200I-900000J0D01*
G01*
X126354000Y-98755200D02*
G75*
G02*
X128154000Y-98755200I900000J0D01*
G01*
%TO.C,LED4*%
X115790000Y-71620000D02*
X117690000Y-71620000D01*
X115800000Y-73100000D02*
X115790000Y-71620000D01*
X115800000Y-74100000D02*
X115800000Y-75350000D01*
D16*
X115800000Y-75350000D02*
X115799999Y-75350000D01*
X115799999Y-75350000D01*
X115799999Y-75350000D01*
X115799999Y-75350000D01*
X115799999Y-75350000D01*
X115799999Y-75350000D01*
X115799999Y-75350000D01*
X115799999Y-75349999D01*
X115799999Y-75349999D01*
X115799999Y-75349999D01*
X115799999Y-75349999D01*
X115799999Y-75349999D01*
X115800000Y-75349999D01*
X115800000Y-75349999D01*
X115800000Y-75349999D01*
X115800000Y-75349999D01*
X115800000Y-75349999D01*
X115800000Y-75349999D01*
X115800000Y-75349999D01*
X115800000Y-75349999D01*
X115800000Y-75349999D01*
X115800000Y-75349999D01*
X115800000Y-75349999D01*
X115800000Y-75349999D01*
X115800001Y-75349999D01*
X115800001Y-75349999D01*
X115800001Y-75349999D01*
X115800001Y-75349999D01*
X115800001Y-75349999D01*
X115800001Y-75349999D01*
X115800001Y-75350000D01*
X115800001Y-75350000D01*
X115800001Y-75350000D01*
X115800001Y-75350000D01*
X115800001Y-75350000D01*
X115800001Y-75350000D01*
X115800001Y-75350000D01*
X115800000Y-75350000D01*
X115800000Y-75350000D02*
X115800001Y-75350000D01*
X115800001Y-75350000D01*
X115800001Y-75350000D01*
X115800001Y-75350000D01*
X115800001Y-75350000D01*
X115800001Y-75350000D01*
X115800001Y-75350001D01*
X115800001Y-75350001D01*
X115800001Y-75350001D01*
X115800001Y-75350001D01*
X115800001Y-75350001D01*
X115800001Y-75350001D01*
X115800001Y-75350001D01*
X115800000Y-75350001D01*
X115800000Y-75350001D01*
X115800000Y-75350001D01*
X115800000Y-75350001D01*
X115800000Y-75350001D01*
X115800000Y-75350001D01*
X115800000Y-75350001D01*
X115800000Y-75350001D01*
X115800000Y-75350001D01*
X115800000Y-75350001D01*
X115800000Y-75350001D01*
X115800000Y-75350001D01*
X115799999Y-75350001D01*
X115799999Y-75350001D01*
X115799999Y-75350001D01*
X115799999Y-75350001D01*
X115799999Y-75350001D01*
X115799999Y-75350001D01*
X115799999Y-75350000D01*
X115799999Y-75350000D01*
X115799999Y-75350000D01*
X115799999Y-75350000D01*
X115799999Y-75350000D01*
X115799999Y-75350000D01*
X115800000Y-75350000D01*
D13*
X115800000Y-75350000D02*
X116150000Y-75700000D01*
X116150000Y-75700000D02*
X117350000Y-75700000D01*
X116250000Y-73300000D02*
X117250000Y-73300000D01*
X116760000Y-73300000D02*
X116760000Y-73800000D01*
X117690000Y-72960000D02*
X117690000Y-71620000D01*
X117700000Y-74100000D02*
X117700000Y-75350000D01*
X117700000Y-75350000D02*
X117350000Y-75700000D01*
D16*
X117700000Y-75350000D02*
X117699999Y-75350000D01*
X117699999Y-75350000D01*
X117699999Y-75350000D01*
X117699999Y-75350000D01*
X117699999Y-75350000D01*
X117699999Y-75350000D01*
X117699999Y-75350000D01*
X117699999Y-75349999D01*
X117699999Y-75349999D01*
X117699999Y-75349999D01*
X117699999Y-75349999D01*
X117699999Y-75349999D01*
X117700000Y-75349999D01*
X117700000Y-75349999D01*
X117700000Y-75349999D01*
X117700000Y-75349999D01*
X117700000Y-75349999D01*
X117700000Y-75349999D01*
X117700000Y-75349999D01*
X117700000Y-75349999D01*
X117700000Y-75349999D01*
X117700000Y-75349999D01*
X117700000Y-75349999D01*
X117700000Y-75349999D01*
X117700001Y-75349999D01*
X117700001Y-75349999D01*
X117700001Y-75349999D01*
X117700001Y-75349999D01*
X117700001Y-75349999D01*
X117700001Y-75349999D01*
X117700001Y-75350000D01*
X117700001Y-75350000D01*
X117700001Y-75350000D01*
X117700001Y-75350000D01*
X117700001Y-75350000D01*
X117700001Y-75350000D01*
X117700001Y-75350000D01*
X117700000Y-75350000D01*
X117700000Y-75350000D02*
X117700001Y-75350000D01*
X117700001Y-75350000D01*
X117700001Y-75350000D01*
X117700001Y-75350000D01*
X117700001Y-75350000D01*
X117700001Y-75350000D01*
X117700001Y-75350001D01*
X117700001Y-75350001D01*
X117700001Y-75350001D01*
X117700001Y-75350001D01*
X117700001Y-75350001D01*
X117700001Y-75350001D01*
X117700001Y-75350001D01*
X117700000Y-75350001D01*
X117700000Y-75350001D01*
X117700000Y-75350001D01*
X117700000Y-75350001D01*
X117700000Y-75350001D01*
X117700000Y-75350001D01*
X117700000Y-75350001D01*
X117700000Y-75350001D01*
X117700000Y-75350001D01*
X117700000Y-75350001D01*
X117700000Y-75350001D01*
X117700000Y-75350001D01*
X117699999Y-75350001D01*
X117699999Y-75350001D01*
X117699999Y-75350001D01*
X117699999Y-75350001D01*
X117699999Y-75350001D01*
X117699999Y-75350001D01*
X117699999Y-75350000D01*
X117699999Y-75350000D01*
X117699999Y-75350000D01*
X117699999Y-75350000D01*
X117699999Y-75350000D01*
X117699999Y-75350000D01*
X117700000Y-75350000D01*
D14*
X117400000Y-74600000D02*
G75*
G02*
X117340000Y-74600000I-30000J0D01*
G01*
X117340000Y-74600000D02*
G75*
G02*
X117400000Y-74600000I30000J0D01*
G01*
%TO.C,R18*%
D12*
X116605000Y-77089400D02*
X117565000Y-77089400D01*
X116605000Y-78409400D02*
X116605000Y-77089400D01*
X117565000Y-78409400D02*
X116605000Y-78409400D01*
X118425000Y-78409400D02*
X119385000Y-78409400D01*
X119385000Y-77089400D02*
X118425000Y-77089400D01*
X119385000Y-78409400D02*
X119385000Y-77089400D01*
%TO.C,R11*%
X129794000Y-95785200D02*
X130754000Y-95785200D01*
X129794000Y-97105200D02*
X129794000Y-95785200D01*
X130754000Y-97105200D02*
X129794000Y-97105200D01*
X131614000Y-97105200D02*
X132574000Y-97105200D01*
X132574000Y-95785200D02*
X131614000Y-95785200D01*
X132574000Y-97105200D02*
X132574000Y-95785200D01*
%TO.C,C22*%
X96850000Y-82350000D02*
X96850000Y-80940000D01*
X96850000Y-83150000D02*
X96850000Y-84560000D01*
X97000000Y-80790000D02*
X98500000Y-80790000D01*
X97000000Y-84710000D02*
X98500000Y-84710000D01*
X98650000Y-80940000D02*
X98650000Y-82350000D01*
X98650000Y-84560000D02*
X98650000Y-83150000D01*
X96850000Y-80940000D02*
G75*
G02*
X97000000Y-80790000I150000J0D01*
G01*
X97000000Y-84710000D02*
G75*
G02*
X96850000Y-84560000I0J150000D01*
G01*
X98500000Y-80790000D02*
G75*
G02*
X98650000Y-80940000I0J-150000D01*
G01*
X98650000Y-84560000D02*
G75*
G02*
X98500000Y-84710000I-150000J0D01*
G01*
%TO.C,C24*%
D13*
X94918000Y-91334800D02*
X94918000Y-92134800D01*
X96028000Y-91024800D02*
X95228000Y-91024800D01*
X96028000Y-92444800D02*
X95228000Y-92444800D01*
X96608000Y-91034800D02*
X97408000Y-91034800D01*
X96608000Y-92454800D02*
X97408000Y-92454800D01*
X97718000Y-91344800D02*
X97718000Y-92144800D01*
X94918000Y-91334800D02*
G75*
G02*
X95228000Y-91024800I310000J0D01*
G01*
X95228000Y-92444800D02*
G75*
G02*
X94918000Y-92134800I0J310000D01*
G01*
X97408000Y-91034800D02*
G75*
G02*
X97718000Y-91344800I0J-310000D01*
G01*
X97718000Y-92144800D02*
G75*
G02*
X97408000Y-92454800I-310000J0D01*
G01*
%TO.C,TP6*%
D15*
X107677000Y-79500000D02*
G75*
G02*
X105175000Y-79500000I-1251000J0D01*
G01*
X105175000Y-79500000D02*
G75*
G02*
X107677000Y-79500000I1251000J0D01*
G01*
%TO.C,R12*%
D12*
X99360000Y-74090000D02*
X99360000Y-75410000D01*
X99360000Y-75410000D02*
X100320000Y-75410000D01*
X100320000Y-74090000D02*
X99360000Y-74090000D01*
X101180000Y-74090000D02*
X102140000Y-74090000D01*
X102140000Y-74090000D02*
X102140000Y-75410000D01*
X102140000Y-75410000D02*
X101180000Y-75410000D01*
%TD*%
%LPC*%
D23*
%TO.C,USB2*%
X85680000Y-84790000D03*
X85680000Y-90570000D03*
D24*
X86760000Y-84480000D03*
X86760000Y-85280000D03*
D25*
X86760000Y-85930000D03*
X86760000Y-86430000D03*
X86760000Y-86930000D03*
X86760000Y-87430000D03*
X86760000Y-87930000D03*
X86760000Y-88430000D03*
X86760000Y-88930000D03*
X86760000Y-89430000D03*
D24*
X86760000Y-90080000D03*
X86760000Y-90880000D03*
D26*
X86210000Y-83360000D03*
D27*
X82000000Y-83360000D03*
D26*
X86210000Y-92000000D03*
D27*
X82000000Y-92000000D03*
%TD*%
D28*
%TO.C,R1*%
X145422800Y-85964200D03*
X146922800Y-85964200D03*
%TD*%
D29*
%TO.C,R24*%
X116750000Y-70250000D03*
X116750000Y-68750000D03*
%TD*%
D30*
%TO.C,C25*%
X100997000Y-96130000D03*
X100997000Y-94730000D03*
%TD*%
D31*
%TO.C,TP7*%
X106426000Y-71500000D03*
%TD*%
D29*
%TO.C,R21*%
X121750000Y-70250000D03*
X121750000Y-68750000D03*
%TD*%
D28*
%TO.C,R16*%
X84500000Y-95250000D03*
X83000000Y-95250000D03*
%TD*%
D32*
%TO.C,D1*%
X157584400Y-84201000D03*
X154124400Y-84201000D03*
%TD*%
D33*
%TO.C,C16*%
X131748600Y-84890200D03*
X133148600Y-84890200D03*
%TD*%
D31*
%TO.C,TP2*%
X85000000Y-71000000D03*
%TD*%
%TO.C,TP1*%
X85000000Y-67000000D03*
%TD*%
D33*
%TO.C,C23*%
X107900000Y-76500000D03*
X106500000Y-76500000D03*
%TD*%
D34*
%TO.C,X2*%
X121050000Y-93065600D03*
X116950000Y-93065600D03*
%TD*%
D35*
%TO.C,H4*%
X167500000Y-60000000D03*
%TD*%
D36*
%TO.C,LED3*%
X121750000Y-72500000D03*
X121750000Y-74600000D03*
%TD*%
D31*
%TO.C,TP8*%
X127184000Y-93695200D03*
%TD*%
D37*
%TO.C,U1*%
X95490000Y-85950000D03*
X95490000Y-84050000D03*
X93010000Y-85000000D03*
%TD*%
D35*
%TO.C,H5*%
X85000000Y-120000000D03*
%TD*%
D33*
%TO.C,C29*%
X125400000Y-89408000D03*
X124000000Y-89408000D03*
%TD*%
D28*
%TO.C,R17*%
X84500000Y-80500000D03*
X83000000Y-80500000D03*
%TD*%
D38*
%TO.C,C14*%
X90750000Y-81750000D03*
X90750000Y-83750000D03*
%TD*%
D39*
%TO.C,Q1*%
X148972800Y-85909200D03*
X150872800Y-85909200D03*
X149922800Y-83909200D03*
%TD*%
D30*
%TO.C,C20*%
X120680000Y-97400000D03*
X120680000Y-96000000D03*
%TD*%
D40*
%TO.C,U5*%
X144752800Y-97500000D03*
D41*
X147292800Y-97500000D03*
X149832800Y-97500000D03*
X152372800Y-97500000D03*
D42*
X137562800Y-98000000D03*
X159562800Y-98000000D03*
X159562800Y-120000000D03*
X137562800Y-120000000D03*
%TD*%
D31*
%TO.C,TP3*%
X85000000Y-75000000D03*
%TD*%
D35*
%TO.C,H3*%
X85000000Y-60000000D03*
%TD*%
D43*
%TO.C,U3*%
X116250000Y-89000000D03*
X116750000Y-89000000D03*
X117250000Y-89000000D03*
X117750000Y-89000000D03*
X118250000Y-89000000D03*
X118750000Y-89000000D03*
X119250000Y-89000000D03*
X119750000Y-89000000D03*
X120250000Y-89000000D03*
X120750000Y-89000000D03*
X121250000Y-89000000D03*
X121750000Y-89000000D03*
D44*
X123250000Y-87500000D03*
X123250000Y-87000000D03*
X123250000Y-86500000D03*
X123250000Y-86000000D03*
X123250000Y-85500000D03*
X123250000Y-85000000D03*
X123250000Y-84500000D03*
X123250000Y-84000000D03*
X123250000Y-83500000D03*
X123250000Y-83000000D03*
X123250000Y-82500000D03*
X123250000Y-82000000D03*
D43*
X121750000Y-80500000D03*
X121250000Y-80500000D03*
X120750000Y-80500000D03*
X120250000Y-80500000D03*
X119750000Y-80500000D03*
X119250000Y-80500000D03*
X118750000Y-80500000D03*
X118250000Y-80500000D03*
X117750000Y-80500000D03*
X117250000Y-80500000D03*
X116750000Y-80500000D03*
X116250000Y-80500000D03*
D44*
X114750000Y-82000000D03*
X114750000Y-82500000D03*
X114750000Y-83000000D03*
X114750000Y-83500000D03*
X114750000Y-84000000D03*
X114750000Y-84500000D03*
X114750000Y-85000000D03*
X114750000Y-85500000D03*
X114750000Y-86000000D03*
X114750000Y-86500000D03*
X114750000Y-87000000D03*
X114750000Y-87500000D03*
%TD*%
D33*
%TO.C,C21*%
X131834000Y-98195200D03*
X130434000Y-98195200D03*
%TD*%
D31*
%TO.C,TP9*%
X131510000Y-115824000D03*
%TD*%
D45*
%TO.C,H1*%
X113919000Y-64897000D03*
D46*
X111379000Y-64897000D03*
X108839000Y-64897000D03*
X106299000Y-64897000D03*
%TD*%
D28*
%TO.C,R22*%
X150672800Y-88214200D03*
X149172800Y-88214200D03*
%TD*%
D33*
%TO.C,C30*%
X116332000Y-64770000D03*
X117732000Y-64770000D03*
%TD*%
D47*
%TO.C,U11*%
X126150000Y-115824000D03*
X97370000Y-115824000D03*
%TD*%
D48*
%TO.C,C17*%
X95280000Y-99730000D03*
X99080000Y-99730000D03*
%TD*%
D33*
%TO.C,C15*%
X107900000Y-74500000D03*
X106500000Y-74500000D03*
%TD*%
D49*
%TO.C,J1*%
X160431000Y-63665000D03*
D50*
X155351000Y-63665000D03*
X150271000Y-63665000D03*
%TD*%
D51*
%TO.C,U10*%
X112130000Y-95740000D03*
X110230000Y-95740000D03*
X111180000Y-97980000D03*
%TD*%
D52*
%TO.C,U8*%
X137348600Y-86390200D03*
X137348600Y-85890200D03*
X137348600Y-85390200D03*
X137348600Y-84890200D03*
X134948600Y-84890200D03*
X134948600Y-85390200D03*
X134948600Y-85890200D03*
X134948600Y-86390200D03*
D53*
X136148600Y-85640200D03*
%TD*%
D33*
%TO.C,C27*%
X112442800Y-80291000D03*
X113842800Y-80291000D03*
%TD*%
D29*
%TO.C,R19*%
X102997000Y-96190000D03*
X102997000Y-94690000D03*
%TD*%
D28*
%TO.C,R15*%
X100000000Y-76500000D03*
X101500000Y-76500000D03*
%TD*%
D49*
%TO.C,J2*%
X140271000Y-63665000D03*
D50*
X135191000Y-63665000D03*
X130111000Y-63665000D03*
%TD*%
D33*
%TO.C,C26*%
X112442800Y-89418000D03*
X113842800Y-89418000D03*
%TD*%
%TO.C,C18*%
X114500000Y-100000000D03*
X113100000Y-100000000D03*
%TD*%
D28*
%TO.C,R13*%
X100000000Y-73000000D03*
X101500000Y-73000000D03*
%TD*%
D54*
%TO.C,X3*%
X101430000Y-102250000D03*
X101430000Y-99750000D03*
%TD*%
D31*
%TO.C,TP5*%
X89179400Y-103073200D03*
%TD*%
D33*
%TO.C,C28*%
X125400000Y-80281000D03*
X124000000Y-80281000D03*
%TD*%
D28*
%TO.C,R14*%
X100000000Y-78250000D03*
X101500000Y-78250000D03*
%TD*%
D55*
%TO.C,U2*%
X90000000Y-88304000D03*
X90000000Y-87464000D03*
%TD*%
D29*
%TO.C,R23*%
X141224000Y-89789000D03*
X141224000Y-91289000D03*
%TD*%
D56*
%TO.C,SW4*%
X95630000Y-71940000D03*
X94370000Y-71940000D03*
X94370000Y-79560000D03*
X95630000Y-79560000D03*
%TD*%
D29*
%TO.C,R20*%
X101750000Y-85000000D03*
X101750000Y-83500000D03*
%TD*%
%TO.C,R25*%
X141224000Y-83820000D03*
X141224000Y-82320000D03*
%TD*%
D35*
%TO.C,H2*%
X167500000Y-120000000D03*
%TD*%
D57*
%TO.C,U9*%
X104680000Y-100190000D03*
X104680000Y-101470000D03*
X104680000Y-102730000D03*
X104680000Y-104000000D03*
X110100000Y-104000000D03*
X110100000Y-102730000D03*
X110100000Y-101470000D03*
X110100000Y-100190000D03*
%TD*%
D31*
%TO.C,TP4*%
X128397000Y-82042000D03*
%TD*%
D30*
%TO.C,C19*%
X117017800Y-97400000D03*
X117017800Y-96000000D03*
%TD*%
D58*
%TO.C,K1*%
X156549800Y-81234600D03*
X156549800Y-78034600D03*
X156549800Y-75834600D03*
X156549800Y-73634600D03*
X149529800Y-73634600D03*
X149529800Y-75834600D03*
X149529800Y-78034600D03*
X149529800Y-81234600D03*
%TD*%
D59*
%TO.C,U7*%
X99934200Y-88500000D03*
X99934200Y-89000000D03*
X99934200Y-89500000D03*
X99934200Y-90000000D03*
X99934200Y-90500000D03*
X99934200Y-91000000D03*
X99934200Y-91500000D03*
D60*
X100934200Y-92500000D03*
X101434200Y-92500000D03*
X101934200Y-92500000D03*
X102434200Y-92500000D03*
X102934200Y-92500000D03*
X103434200Y-92500000D03*
X103934200Y-92500000D03*
D59*
X104934200Y-91500000D03*
X104934200Y-91000000D03*
X104934200Y-90500000D03*
X104934200Y-90000000D03*
X104934200Y-89500000D03*
X104934200Y-89000000D03*
X104934200Y-88500000D03*
D60*
X103934200Y-87500000D03*
X103434200Y-87500000D03*
X102934200Y-87500000D03*
X102434200Y-87500000D03*
X101934200Y-87500000D03*
X101434200Y-87500000D03*
X100934200Y-87500000D03*
D61*
X102434200Y-90000000D03*
%TD*%
D62*
%TO.C,SW3*%
X127254000Y-100935200D03*
X127254000Y-96575200D03*
%TD*%
D63*
%TO.C,LED4*%
X116750000Y-74700000D03*
X116750000Y-72500000D03*
%TD*%
D28*
%TO.C,R18*%
X117245000Y-77749400D03*
X118745000Y-77749400D03*
%TD*%
%TO.C,R11*%
X130434000Y-96445200D03*
X131934000Y-96445200D03*
%TD*%
D38*
%TO.C,C22*%
X97750000Y-81750000D03*
X97750000Y-83750000D03*
%TD*%
D33*
%TO.C,C24*%
X95628000Y-91744800D03*
X97028000Y-91744800D03*
%TD*%
D31*
%TO.C,TP6*%
X106426000Y-79500000D03*
%TD*%
D28*
%TO.C,R12*%
X101500000Y-74750000D03*
X100000000Y-74750000D03*
%TD*%
%LPD*%
M02*
