%TF.GenerationSoftware,KiCad,Pcbnew,10.0.1*%
%TF.CreationDate,2026-05-26T19:56:58-05:00*%
%TF.ProjectId,clock,636c6f63-6b2e-46b6-9963-61645f706362,rev?*%
%TF.SameCoordinates,Original*%
%TF.FileFunction,Soldermask,Top*%
%TF.FilePolarity,Negative*%
%FSLAX46Y46*%
G04 Gerber Fmt 4.6, Leading zero omitted, Abs format (unit mm)*
G04 Created by KiCad (PCBNEW 10.0.1) date 2026-05-26 19:56:58*
%MOMM*%
%LPD*%
G01*
G04 APERTURE LIST*
G04 Aperture macros list*
%AMRoundRect*
0 Rectangle with rounded corners*
0 $1 Rounding radius*
0 $2 $3 $4 $5 $6 $7 $8 $9 X,Y pos of 4 corners*
0 Add a 4 corners polygon primitive as box body*
4,1,4,$2,$3,$4,$5,$6,$7,$8,$9,$2,$3,0*
0 Add four circle primitives for the rounded corners*
1,1,$1+$1,$2,$3*
1,1,$1+$1,$4,$5*
1,1,$1+$1,$6,$7*
1,1,$1+$1,$8,$9*
0 Add four rect primitives between the rounded corners*
20,1,$1+$1,$2,$3,$4,$5,0*
20,1,$1+$1,$4,$5,$6,$7,0*
20,1,$1+$1,$6,$7,$8,$9,0*
20,1,$1+$1,$8,$9,$2,$3,0*%
G04 Aperture macros list end*
%ADD10C,0.700000*%
%ADD11R,1.100000X0.550000*%
%ADD12R,1.100000X0.300000*%
%ADD13O,2.000000X1.100000*%
%ADD14O,1.800000X1.200000*%
%ADD15R,0.810000X0.860000*%
%ADD16R,0.860000X0.810000*%
%ADD17R,0.900000X0.800000*%
%ADD18C,2.000000*%
%ADD19R,1.100000X1.000000*%
%ADD20R,0.800000X0.900000*%
%ADD21R,1.900000X2.400000*%
%ADD22R,1.400000X1.000000*%
%ADD23R,1.070000X0.600000*%
%ADD24R,1.350000X1.410000*%
%ADD25R,0.700000X1.250000*%
%ADD26RoundRect,0.102000X-0.754000X-0.754000X0.754000X-0.754000X0.754000X0.754000X-0.754000X0.754000X0*%
%ADD27C,1.712000*%
%ADD28C,3.204000*%
%ADD29O,0.270000X1.500000*%
%ADD30O,1.500000X0.270000*%
%ADD31R,1.700000X1.700000*%
%ADD32C,1.700000*%
%ADD33R,4.200000X3.800000*%
%ADD34R,1.300000X1.400000*%
%ADD35RoundRect,0.250000X1.050000X1.050000X-1.050000X1.050000X-1.050000X-1.050000X1.050000X-1.050000X0*%
%ADD36C,2.600000*%
%ADD37R,0.532000X1.040000*%
%ADD38R,0.700000X0.250000*%
%ADD39R,1.100000X1.800000*%
%ADD40R,1.800000X1.000000*%
%ADD41R,0.550000X0.450000*%
%ADD42R,0.762000X1.600000*%
%ADD43O,1.950000X0.570000*%
%ADD44R,2.100000X1.000000*%
%ADD45O,0.900000X0.280000*%
%ADD46O,0.280000X0.900000*%
%ADD47R,3.200000X3.200000*%
%ADD48R,1.860000X1.230000*%
%ADD49R,1.250000X1.000000*%
G04 APERTURE END LIST*
D10*
%TO.C,USB2*%
X85680000Y-84790000D03*
X85680000Y-90570000D03*
D11*
X86760000Y-84480000D03*
X86760000Y-85280000D03*
D12*
X86760000Y-85930000D03*
X86760000Y-86430000D03*
X86760000Y-86930000D03*
X86760000Y-87430000D03*
X86760000Y-87930000D03*
X86760000Y-88430000D03*
X86760000Y-88930000D03*
X86760000Y-89430000D03*
D11*
X86760000Y-90080000D03*
X86760000Y-90880000D03*
D13*
X86210000Y-83360000D03*
D14*
X82000000Y-83360000D03*
D13*
X86210000Y-92000000D03*
D14*
X82000000Y-92000000D03*
%TD*%
D15*
%TO.C,R1*%
X145422800Y-85964200D03*
X146922800Y-85964200D03*
%TD*%
D16*
%TO.C,R24*%
X116750000Y-70250000D03*
X116750000Y-68750000D03*
%TD*%
D17*
%TO.C,C25*%
X100997000Y-96130000D03*
X100997000Y-94730000D03*
%TD*%
D18*
%TO.C,TP7*%
X106426000Y-71500000D03*
%TD*%
D16*
%TO.C,R21*%
X121750000Y-70250000D03*
X121750000Y-68750000D03*
%TD*%
D15*
%TO.C,R16*%
X84500000Y-95250000D03*
X83000000Y-95250000D03*
%TD*%
D19*
%TO.C,D1*%
X157584400Y-84201000D03*
X154124400Y-84201000D03*
%TD*%
D20*
%TO.C,C16*%
X131748600Y-84890200D03*
X133148600Y-84890200D03*
%TD*%
D18*
%TO.C,TP2*%
X85000000Y-71000000D03*
%TD*%
%TO.C,TP1*%
X85000000Y-67000000D03*
%TD*%
D20*
%TO.C,C23*%
X107900000Y-76500000D03*
X106500000Y-76500000D03*
%TD*%
D21*
%TO.C,X2*%
X121050000Y-93065600D03*
X116950000Y-93065600D03*
%TD*%
D22*
%TO.C,LED3*%
X121750000Y-72500000D03*
X121750000Y-74600000D03*
%TD*%
D18*
%TO.C,TP8*%
X127184000Y-93695200D03*
%TD*%
D23*
%TO.C,U1*%
X95490000Y-85950000D03*
X95490000Y-84050000D03*
X93010000Y-85000000D03*
%TD*%
D20*
%TO.C,C29*%
X125400000Y-89408000D03*
X124000000Y-89408000D03*
%TD*%
D15*
%TO.C,R17*%
X84500000Y-80500000D03*
X83000000Y-80500000D03*
%TD*%
D24*
%TO.C,C14*%
X90750000Y-81750000D03*
X90750000Y-83750000D03*
%TD*%
D25*
%TO.C,Q1*%
X148972800Y-85909200D03*
X150872800Y-85909200D03*
X149922800Y-83909200D03*
%TD*%
D17*
%TO.C,C20*%
X120680000Y-97400000D03*
X120680000Y-96000000D03*
%TD*%
D26*
%TO.C,U5*%
X144752800Y-97500000D03*
D27*
X147292800Y-97500000D03*
X149832800Y-97500000D03*
X152372800Y-97500000D03*
D28*
X137562800Y-98000000D03*
X159562800Y-98000000D03*
X159562800Y-120000000D03*
X137562800Y-120000000D03*
%TD*%
D18*
%TO.C,TP3*%
X85000000Y-75000000D03*
%TD*%
D29*
%TO.C,U3*%
X116250000Y-89000000D03*
X116750000Y-89000000D03*
X117250000Y-89000000D03*
X117750000Y-89000000D03*
X118250000Y-89000000D03*
X118750000Y-89000000D03*
X119250000Y-89000000D03*
X119750000Y-89000000D03*
X120250000Y-89000000D03*
X120750000Y-89000000D03*
X121250000Y-89000000D03*
X121750000Y-89000000D03*
D30*
X123250000Y-87500000D03*
X123250000Y-87000000D03*
X123250000Y-86500000D03*
X123250000Y-86000000D03*
X123250000Y-85500000D03*
X123250000Y-85000000D03*
X123250000Y-84500000D03*
X123250000Y-84000000D03*
X123250000Y-83500000D03*
X123250000Y-83000000D03*
X123250000Y-82500000D03*
X123250000Y-82000000D03*
D29*
X121750000Y-80500000D03*
X121250000Y-80500000D03*
X120750000Y-80500000D03*
X120250000Y-80500000D03*
X119750000Y-80500000D03*
X119250000Y-80500000D03*
X118750000Y-80500000D03*
X118250000Y-80500000D03*
X117750000Y-80500000D03*
X117250000Y-80500000D03*
X116750000Y-80500000D03*
X116250000Y-80500000D03*
D30*
X114750000Y-82000000D03*
X114750000Y-82500000D03*
X114750000Y-83000000D03*
X114750000Y-83500000D03*
X114750000Y-84000000D03*
X114750000Y-84500000D03*
X114750000Y-85000000D03*
X114750000Y-85500000D03*
X114750000Y-86000000D03*
X114750000Y-86500000D03*
X114750000Y-87000000D03*
X114750000Y-87500000D03*
%TD*%
D20*
%TO.C,C21*%
X131834000Y-98195200D03*
X130434000Y-98195200D03*
%TD*%
D18*
%TO.C,TP9*%
X131510000Y-115824000D03*
%TD*%
D31*
%TO.C,H1*%
X113919000Y-64897000D03*
D32*
X111379000Y-64897000D03*
X108839000Y-64897000D03*
X106299000Y-64897000D03*
%TD*%
D15*
%TO.C,R22*%
X150672800Y-88214200D03*
X149172800Y-88214200D03*
%TD*%
D20*
%TO.C,C30*%
X116332000Y-64770000D03*
X117732000Y-64770000D03*
%TD*%
D33*
%TO.C,U11*%
X126150000Y-115824000D03*
X97370000Y-115824000D03*
%TD*%
D34*
%TO.C,C17*%
X95280000Y-99730000D03*
X99080000Y-99730000D03*
%TD*%
D20*
%TO.C,C15*%
X107900000Y-74500000D03*
X106500000Y-74500000D03*
%TD*%
D35*
%TO.C,J1*%
X160431000Y-63665000D03*
D36*
X155351000Y-63665000D03*
X150271000Y-63665000D03*
%TD*%
D37*
%TO.C,U10*%
X112130000Y-95740000D03*
X110230000Y-95740000D03*
X111180000Y-97980000D03*
%TD*%
D38*
%TO.C,U8*%
X137348600Y-86390200D03*
X137348600Y-85890200D03*
X137348600Y-85390200D03*
X137348600Y-84890200D03*
X134948600Y-84890200D03*
X134948600Y-85390200D03*
X134948600Y-85890200D03*
X134948600Y-86390200D03*
D39*
X136148600Y-85640200D03*
%TD*%
D20*
%TO.C,C27*%
X112442800Y-80291000D03*
X113842800Y-80291000D03*
%TD*%
D16*
%TO.C,R19*%
X102997000Y-96190000D03*
X102997000Y-94690000D03*
%TD*%
D15*
%TO.C,R15*%
X100000000Y-76500000D03*
X101500000Y-76500000D03*
%TD*%
D35*
%TO.C,J2*%
X140271000Y-63665000D03*
D36*
X135191000Y-63665000D03*
X130111000Y-63665000D03*
%TD*%
D20*
%TO.C,C26*%
X112442800Y-89418000D03*
X113842800Y-89418000D03*
%TD*%
%TO.C,C18*%
X114500000Y-100000000D03*
X113100000Y-100000000D03*
%TD*%
D15*
%TO.C,R13*%
X100000000Y-73000000D03*
X101500000Y-73000000D03*
%TD*%
D40*
%TO.C,X3*%
X101430000Y-102250000D03*
X101430000Y-99750000D03*
%TD*%
D18*
%TO.C,TP5*%
X89179400Y-103073200D03*
%TD*%
D20*
%TO.C,C28*%
X125400000Y-80281000D03*
X124000000Y-80281000D03*
%TD*%
D15*
%TO.C,R14*%
X100000000Y-78250000D03*
X101500000Y-78250000D03*
%TD*%
D41*
%TO.C,U2*%
X90000000Y-88304000D03*
X90000000Y-87464000D03*
%TD*%
D16*
%TO.C,R23*%
X141224000Y-89789000D03*
X141224000Y-91289000D03*
%TD*%
D42*
%TO.C,SW4*%
X95630000Y-71940000D03*
X94370000Y-71940000D03*
X94370000Y-79560000D03*
X95630000Y-79560000D03*
%TD*%
D16*
%TO.C,R20*%
X101750000Y-85000000D03*
X101750000Y-83500000D03*
%TD*%
%TO.C,R25*%
X141224000Y-83820000D03*
X141224000Y-82320000D03*
%TD*%
D43*
%TO.C,U9*%
X104680000Y-100190000D03*
X104680000Y-101470000D03*
X104680000Y-102730000D03*
X104680000Y-104000000D03*
X110100000Y-104000000D03*
X110100000Y-102730000D03*
X110100000Y-101470000D03*
X110100000Y-100190000D03*
%TD*%
D18*
%TO.C,TP4*%
X128397000Y-82042000D03*
%TD*%
D17*
%TO.C,C19*%
X117017800Y-97400000D03*
X117017800Y-96000000D03*
%TD*%
D44*
%TO.C,K1*%
X156549800Y-81234600D03*
X156549800Y-78034600D03*
X156549800Y-75834600D03*
X156549800Y-73634600D03*
X149529800Y-73634600D03*
X149529800Y-75834600D03*
X149529800Y-78034600D03*
X149529800Y-81234600D03*
%TD*%
D45*
%TO.C,U7*%
X99934200Y-88500000D03*
X99934200Y-89000000D03*
X99934200Y-89500000D03*
X99934200Y-90000000D03*
X99934200Y-90500000D03*
X99934200Y-91000000D03*
X99934200Y-91500000D03*
D46*
X100934200Y-92500000D03*
X101434200Y-92500000D03*
X101934200Y-92500000D03*
X102434200Y-92500000D03*
X102934200Y-92500000D03*
X103434200Y-92500000D03*
X103934200Y-92500000D03*
D45*
X104934200Y-91500000D03*
X104934200Y-91000000D03*
X104934200Y-90500000D03*
X104934200Y-90000000D03*
X104934200Y-89500000D03*
X104934200Y-89000000D03*
X104934200Y-88500000D03*
D46*
X103934200Y-87500000D03*
X103434200Y-87500000D03*
X102934200Y-87500000D03*
X102434200Y-87500000D03*
X101934200Y-87500000D03*
X101434200Y-87500000D03*
X100934200Y-87500000D03*
D47*
X102434200Y-90000000D03*
%TD*%
D48*
%TO.C,SW3*%
X127254000Y-100935200D03*
X127254000Y-96575200D03*
%TD*%
D49*
%TO.C,LED4*%
X116750000Y-74700000D03*
X116750000Y-72500000D03*
%TD*%
D15*
%TO.C,R18*%
X117245000Y-77749400D03*
X118745000Y-77749400D03*
%TD*%
%TO.C,R11*%
X130434000Y-96445200D03*
X131934000Y-96445200D03*
%TD*%
D24*
%TO.C,C22*%
X97750000Y-81750000D03*
X97750000Y-83750000D03*
%TD*%
D20*
%TO.C,C24*%
X95628000Y-91744800D03*
X97028000Y-91744800D03*
%TD*%
D18*
%TO.C,TP6*%
X106426000Y-79500000D03*
%TD*%
D15*
%TO.C,R12*%
X101500000Y-74750000D03*
X100000000Y-74750000D03*
%TD*%
M02*
