%TF.GenerationSoftware,KiCad,Pcbnew,10.0.1*%
%TF.CreationDate,2026-05-26T19:56:58-05:00*%
%TF.ProjectId,clock,636c6f63-6b2e-46b6-9963-61645f706362,rev?*%
%TF.SameCoordinates,Original*%
%TF.FileFunction,Copper,L3,Inr*%
%TF.FilePolarity,Positive*%
%FSLAX46Y46*%
G04 Gerber Fmt 4.6, Leading zero omitted, Abs format (unit mm)*
G04 Created by KiCad (PCBNEW 10.0.1) date 2026-05-26 19:56:58*
%MOMM*%
%LPD*%
G01*
G04 APERTURE LIST*
G04 Aperture macros list*
%AMRoundRect*
0 Rectangle with rounded corners*
0 $1 Rounding radius*
0 $2 $3 $4 $5 $6 $7 $8 $9 X,Y pos of 4 corners*
0 Add a 4 corners polygon primitive as box body*
4,1,4,$2,$3,$4,$5,$6,$7,$8,$9,$2,$3,0*
0 Add four circle primitives for the rounded corners*
1,1,$1+$1,$2,$3*
1,1,$1+$1,$4,$5*
1,1,$1+$1,$6,$7*
1,1,$1+$1,$8,$9*
0 Add four rect primitives between the rounded corners*
20,1,$1+$1,$2,$3,$4,$5,0*
20,1,$1+$1,$4,$5,$6,$7,0*
20,1,$1+$1,$6,$7,$8,$9,0*
20,1,$1+$1,$8,$9,$2,$3,0*%
G04 Aperture macros list end*
%TA.AperFunction,ComponentPad*%
%ADD10C,0.700000*%
%TD*%
%TA.AperFunction,ComponentPad*%
%ADD11O,2.000000X1.100000*%
%TD*%
%TA.AperFunction,ComponentPad*%
%ADD12O,1.800000X1.200000*%
%TD*%
%TA.AperFunction,ComponentPad*%
%ADD13C,2.000000*%
%TD*%
%TA.AperFunction,ComponentPad*%
%ADD14R,1.508000X1.508000*%
%TD*%
%TA.AperFunction,ComponentPad*%
%ADD15C,1.508000*%
%TD*%
%TA.AperFunction,ComponentPad*%
%ADD16C,3.000000*%
%TD*%
%TA.AperFunction,ComponentPad*%
%ADD17R,1.700000X1.700000*%
%TD*%
%TA.AperFunction,ComponentPad*%
%ADD18C,1.700000*%
%TD*%
%TA.AperFunction,ComponentPad*%
%ADD19RoundRect,0.250000X1.050000X1.050000X-1.050000X1.050000X-1.050000X-1.050000X1.050000X-1.050000X0*%
%TD*%
%TA.AperFunction,ComponentPad*%
%ADD20C,2.600000*%
%TD*%
%TA.AperFunction,ViaPad*%
%ADD21C,0.600000*%
%TD*%
%TA.AperFunction,ViaPad*%
%ADD22C,0.500000*%
%TD*%
G04 APERTURE END LIST*
D10*
%TO.N,*%
%TO.C,USB2*%
X85680000Y-84790000D03*
X85680000Y-90570000D03*
D11*
%TO.N,GND*%
X86210000Y-83360000D03*
D12*
X82000000Y-83360000D03*
D11*
X86210000Y-92000000D03*
D12*
X82000000Y-92000000D03*
%TD*%
D13*
%TO.N,/mcu/BOOT1*%
%TO.C,TP7*%
X106426000Y-71500000D03*
%TD*%
%TO.N,+3.3V*%
%TO.C,TP2*%
X85000000Y-71000000D03*
%TD*%
%TO.N,GND*%
%TO.C,TP1*%
X85000000Y-67000000D03*
%TD*%
%TO.N,/mcu/NRST*%
%TO.C,TP8*%
X127184000Y-93695200D03*
%TD*%
D14*
%TO.N,GND*%
%TO.C,U5*%
X144752800Y-97500000D03*
D15*
%TO.N,+3.3V*%
X147292800Y-97500000D03*
%TO.N,/mcu/SCL*%
X149832800Y-97500000D03*
%TO.N,/mcu/SDA*%
X152372800Y-97500000D03*
D16*
%TO.N,N/C*%
X137562800Y-98000000D03*
X159562800Y-98000000D03*
X159562800Y-120000000D03*
X137562800Y-120000000D03*
%TD*%
D13*
%TO.N,+5V*%
%TO.C,TP3*%
X85000000Y-75000000D03*
%TD*%
%TO.N,Net-(TP9-Pad1)*%
%TO.C,TP9*%
X131510000Y-115824000D03*
%TD*%
D17*
%TO.N,+3.3V*%
%TO.C,H1*%
X113919000Y-64897000D03*
D18*
%TO.N,/mcu/SWIO*%
X111379000Y-64897000D03*
%TO.N,/mcu/SWCLK*%
X108839000Y-64897000D03*
%TO.N,GND*%
X106299000Y-64897000D03*
%TD*%
D19*
%TO.N,Net-(J1-Pin_1)*%
%TO.C,J1*%
X160431000Y-63665000D03*
D20*
%TO.N,Net-(J1-Pin_2)*%
X155351000Y-63665000D03*
%TO.N,Net-(J1-Pin_3)*%
X150271000Y-63665000D03*
%TD*%
D19*
%TO.N,Net-(J2-Pin_1)*%
%TO.C,J2*%
X140271000Y-63665000D03*
D20*
%TO.N,Net-(J2-Pin_2)*%
X135191000Y-63665000D03*
%TO.N,Net-(J2-Pin_3)*%
X130111000Y-63665000D03*
%TD*%
D13*
%TO.N,/mcu/PA1*%
%TO.C,TP5*%
X89179400Y-103073200D03*
%TD*%
%TO.N,/mcu/PA2*%
%TO.C,TP4*%
X128397000Y-82042000D03*
%TD*%
%TO.N,/mcu/BOOT0*%
%TO.C,TP6*%
X106426000Y-79500000D03*
%TD*%
D21*
%TO.N,GND*%
X109220000Y-82042000D03*
X97917000Y-75692000D03*
D22*
X97536000Y-60325000D03*
X116234400Y-99165600D03*
D21*
X133578600Y-98272600D03*
D22*
X98425000Y-59309000D03*
X97028000Y-88392000D03*
X99695000Y-59309000D03*
X100711000Y-60325000D03*
D21*
X104521000Y-82677000D03*
X96505000Y-112947000D03*
X109728000Y-98298000D03*
D22*
X96139000Y-87376000D03*
X96139000Y-88392000D03*
X125476000Y-78994000D03*
D21*
X104140000Y-75565000D03*
D22*
X95123000Y-87376000D03*
X119888000Y-90170000D03*
D21*
X95489000Y-112947000D03*
D22*
X118897400Y-97400000D03*
X81788000Y-95250000D03*
X100711000Y-59309000D03*
D21*
X97521000Y-119297000D03*
X112522000Y-83185000D03*
D22*
X93599000Y-99822000D03*
X98425000Y-60325000D03*
X96520000Y-59309000D03*
D21*
X143256000Y-84455000D03*
X116738400Y-79044800D03*
X94386400Y-91744800D03*
X124790200Y-82499200D03*
D22*
X96520000Y-60325000D03*
D21*
X98537000Y-112947000D03*
D22*
X87832000Y-90880000D03*
X109601000Y-74422000D03*
D21*
X98537000Y-119297000D03*
X100958200Y-97332800D03*
D22*
X99695000Y-60325000D03*
X97536000Y-59309000D03*
D21*
X129514600Y-100965000D03*
D22*
X109601000Y-76581000D03*
D21*
X97521000Y-112947000D03*
D22*
X95123000Y-88392000D03*
D21*
X112014000Y-78867000D03*
D22*
X97028000Y-87376000D03*
D21*
X96505000Y-119297000D03*
X95489000Y-119297000D03*
D22*
%TO.N,+5V*%
X91059000Y-85344000D03*
D21*
X157711400Y-86106000D03*
D22*
X91059000Y-89408000D03*
%TO.N,/mcu/DP*%
X88138000Y-88646000D03*
X88138000Y-86741000D03*
%TO.N,+3.3V*%
X110236000Y-94234000D03*
D21*
X124079000Y-88392000D03*
X95631000Y-69850000D03*
X133173600Y-83667600D03*
D22*
X133096000Y-96520000D03*
X96520000Y-83185000D03*
D21*
X121793000Y-66548000D03*
D22*
X98806000Y-85090000D03*
X99060000Y-84201000D03*
X96774000Y-85090000D03*
D21*
X113284000Y-88265000D03*
X94361000Y-69850000D03*
X124002800Y-78536800D03*
D22*
X96520000Y-84201000D03*
D21*
X113919000Y-78867000D03*
X141212000Y-92722000D03*
X116205000Y-91059000D03*
D22*
X97790000Y-85090000D03*
D21*
X116713000Y-66675000D03*
X142748000Y-82296000D03*
D22*
X99060000Y-83185000D03*
D21*
%TO.N,/mcu/BOOT1*%
X110744000Y-91186000D03*
%TO.N,/mcu/BOOT0*%
X109220000Y-85500000D03*
D22*
%TO.N,/mcu/PC13*%
X121412000Y-76708000D03*
X116840000Y-90297000D03*
D21*
%TO.N,/mcu/SCL*%
X149832800Y-93472000D03*
%TO.N,/mcu/SDA*%
X107950000Y-84709000D03*
X109804200Y-84785200D03*
X152450800Y-101168200D03*
%TO.N,/mcu/PA1*%
X106248200Y-94234000D03*
X121208800Y-90246200D03*
%TO.N,/mcu/SWCLK*%
X113411000Y-82042000D03*
%TO.N,Net-(TP9-Pad1)*%
X112293400Y-98475800D03*
%TD*%
%TA.AperFunction,Conductor*%
%TO.N,+3.3V*%
G36*
X126796531Y-55519713D02*
G01*
X126833076Y-55570013D01*
X126838000Y-55601100D01*
X126838000Y-80000000D01*
X164338000Y-80000000D01*
X164338000Y-59881777D01*
X165696300Y-59881777D01*
X165696300Y-60118222D01*
X165727161Y-60352633D01*
X165727162Y-60352641D01*
X165788357Y-60581024D01*
X165788358Y-60581026D01*
X165878840Y-60799470D01*
X165997057Y-61004228D01*
X165997059Y-61004231D01*
X165997060Y-61004232D01*
X166140997Y-61191814D01*
X166308186Y-61359003D01*
X166495768Y-61502940D01*
X166495771Y-61502942D01*
X166700529Y-61621159D01*
X166918973Y-61711641D01*
X166918975Y-61711642D01*
X167050833Y-61746973D01*
X167147361Y-61772838D01*
X167342709Y-61798556D01*
X167381778Y-61803700D01*
X167381779Y-61803700D01*
X167618222Y-61803700D01*
X167651709Y-61799291D01*
X167852639Y-61772838D01*
X168081024Y-61711642D01*
X168299468Y-61621160D01*
X168504232Y-61502940D01*
X168691814Y-61359003D01*
X168859003Y-61191814D01*
X169002940Y-61004232D01*
X169115937Y-60808514D01*
X169121159Y-60799470D01*
X169168871Y-60684284D01*
X169211642Y-60581024D01*
X169272838Y-60352639D01*
X169303700Y-60118221D01*
X169303700Y-59881779D01*
X169272838Y-59647361D01*
X169211642Y-59418976D01*
X169197033Y-59383705D01*
X169121159Y-59200529D01*
X169002942Y-58995771D01*
X168967599Y-58949711D01*
X168859003Y-58808186D01*
X168691814Y-58640997D01*
X168504232Y-58497060D01*
X168504231Y-58497059D01*
X168504228Y-58497057D01*
X168299470Y-58378840D01*
X168081026Y-58288358D01*
X168081024Y-58288357D01*
X167852641Y-58227162D01*
X167852633Y-58227161D01*
X167618222Y-58196300D01*
X167618221Y-58196300D01*
X167381779Y-58196300D01*
X167381778Y-58196300D01*
X167147366Y-58227161D01*
X167147358Y-58227162D01*
X166918975Y-58288357D01*
X166918973Y-58288358D01*
X166700529Y-58378840D01*
X166495771Y-58497057D01*
X166308182Y-58641000D01*
X166141000Y-58808182D01*
X165997057Y-58995771D01*
X165878840Y-59200529D01*
X165788358Y-59418973D01*
X165788357Y-59418975D01*
X165727162Y-59647358D01*
X165727161Y-59647366D01*
X165696300Y-59881777D01*
X164338000Y-59881777D01*
X164338000Y-55601100D01*
X164357213Y-55541969D01*
X164407513Y-55505424D01*
X164438600Y-55500500D01*
X171433111Y-55500500D01*
X171434923Y-55501089D01*
X171436757Y-55500566D01*
X171464334Y-55510645D01*
X171492242Y-55519713D01*
X171495153Y-55521909D01*
X171639543Y-55635031D01*
X171648636Y-55643087D01*
X171856912Y-55851363D01*
X171864967Y-55860456D01*
X171978090Y-56004846D01*
X171999434Y-56063242D01*
X171999500Y-56066888D01*
X171999500Y-123933110D01*
X171998910Y-123934922D01*
X171999434Y-123936756D01*
X171989354Y-123964333D01*
X171980287Y-123992241D01*
X171978091Y-123995152D01*
X171864968Y-124139543D01*
X171856912Y-124148636D01*
X171648636Y-124356912D01*
X171639543Y-124364967D01*
X171495153Y-124478090D01*
X171436757Y-124499434D01*
X171433111Y-124499500D01*
X81066889Y-124499500D01*
X81065076Y-124498910D01*
X81063243Y-124499434D01*
X81035665Y-124489354D01*
X81007758Y-124480287D01*
X81004847Y-124478091D01*
X80860456Y-124364968D01*
X80860455Y-124364967D01*
X80851363Y-124356912D01*
X80643087Y-124148636D01*
X80635031Y-124139543D01*
X80521909Y-123995152D01*
X80500566Y-123936755D01*
X80500500Y-123933110D01*
X80500500Y-119881777D01*
X83196300Y-119881777D01*
X83196300Y-120118222D01*
X83227161Y-120352633D01*
X83227162Y-120352641D01*
X83288357Y-120581024D01*
X83288358Y-120581026D01*
X83378840Y-120799470D01*
X83497057Y-121004228D01*
X83497059Y-121004231D01*
X83497060Y-121004232D01*
X83640997Y-121191814D01*
X83808186Y-121359003D01*
X83995768Y-121502940D01*
X83995771Y-121502942D01*
X84200529Y-121621159D01*
X84418973Y-121711641D01*
X84418975Y-121711642D01*
X84550833Y-121746973D01*
X84647361Y-121772838D01*
X84842709Y-121798556D01*
X84881778Y-121803700D01*
X84881779Y-121803700D01*
X85118222Y-121803700D01*
X85151709Y-121799291D01*
X85352639Y-121772838D01*
X85581024Y-121711642D01*
X85799468Y-121621160D01*
X86004232Y-121502940D01*
X86191814Y-121359003D01*
X86359003Y-121191814D01*
X86502940Y-121004232D01*
X86621160Y-120799468D01*
X86711642Y-120581024D01*
X86772838Y-120352639D01*
X86803700Y-120118221D01*
X86803700Y-119881779D01*
X86772838Y-119647361D01*
X86711642Y-119418976D01*
X86694101Y-119376629D01*
X86642034Y-119250926D01*
X86628135Y-119217370D01*
X94680500Y-119217370D01*
X94680500Y-119376629D01*
X94711569Y-119532829D01*
X94772515Y-119679964D01*
X94772519Y-119679972D01*
X94808101Y-119733224D01*
X94860997Y-119812389D01*
X94973611Y-119925003D01*
X95011633Y-119950408D01*
X95106027Y-120013480D01*
X95106029Y-120013481D01*
X95106032Y-120013483D01*
X95253169Y-120074430D01*
X95409370Y-120105500D01*
X95409371Y-120105500D01*
X95568629Y-120105500D01*
X95568630Y-120105500D01*
X95724831Y-120074430D01*
X95871968Y-120013483D01*
X95941111Y-119967283D01*
X96000949Y-119950408D01*
X96052888Y-119967283D01*
X96122032Y-120013483D01*
X96269169Y-120074430D01*
X96425370Y-120105500D01*
X96425371Y-120105500D01*
X96584629Y-120105500D01*
X96584630Y-120105500D01*
X96740831Y-120074430D01*
X96887968Y-120013483D01*
X96957111Y-119967283D01*
X97016949Y-119950408D01*
X97068888Y-119967283D01*
X97138032Y-120013483D01*
X97285169Y-120074430D01*
X97441370Y-120105500D01*
X97441371Y-120105500D01*
X97600629Y-120105500D01*
X97600630Y-120105500D01*
X97756831Y-120074430D01*
X97903968Y-120013483D01*
X97973111Y-119967283D01*
X98032949Y-119950408D01*
X98084888Y-119967283D01*
X98154032Y-120013483D01*
X98301169Y-120074430D01*
X98457370Y-120105500D01*
X98457371Y-120105500D01*
X98616629Y-120105500D01*
X98616630Y-120105500D01*
X98772831Y-120074430D01*
X98919968Y-120013483D01*
X99052389Y-119925003D01*
X99109038Y-119868354D01*
X135554300Y-119868354D01*
X135554300Y-120131645D01*
X135588666Y-120392679D01*
X135588668Y-120392692D01*
X135656809Y-120646996D01*
X135656810Y-120646999D01*
X135757565Y-120890242D01*
X135889204Y-121118248D01*
X135889207Y-121118252D01*
X135889210Y-121118257D01*
X136049489Y-121327138D01*
X136235662Y-121513311D01*
X136444543Y-121673590D01*
X136444548Y-121673593D01*
X136444551Y-121673595D01*
X136672557Y-121805234D01*
X136915800Y-121905989D01*
X136915803Y-121905990D01*
X137170107Y-121974131D01*
X137170111Y-121974131D01*
X137170120Y-121974134D01*
X137400787Y-122004501D01*
X137431155Y-122008500D01*
X137431156Y-122008500D01*
X137694445Y-122008500D01*
X137721648Y-122004918D01*
X137955480Y-121974134D01*
X137955490Y-121974131D01*
X137955492Y-121974131D01*
X138068816Y-121943765D01*
X138209797Y-121905990D01*
X138453043Y-121805234D01*
X138681057Y-121673590D01*
X138889938Y-121513311D01*
X139076111Y-121327138D01*
X139236390Y-121118257D01*
X139368034Y-120890243D01*
X139468790Y-120646997D01*
X139536934Y-120392680D01*
X139571300Y-120131644D01*
X139571300Y-119868356D01*
X139571300Y-119868354D01*
X157554300Y-119868354D01*
X157554300Y-120131645D01*
X157588666Y-120392679D01*
X157588668Y-120392692D01*
X157656809Y-120646996D01*
X157656810Y-120646999D01*
X157757565Y-120890242D01*
X157889204Y-121118248D01*
X157889207Y-121118252D01*
X157889210Y-121118257D01*
X158049489Y-121327138D01*
X158235662Y-121513311D01*
X158444543Y-121673590D01*
X158444548Y-121673593D01*
X158444551Y-121673595D01*
X158672557Y-121805234D01*
X158915800Y-121905989D01*
X158915803Y-121905990D01*
X159170107Y-121974131D01*
X159170111Y-121974131D01*
X159170120Y-121974134D01*
X159400787Y-122004501D01*
X159431155Y-122008500D01*
X159431156Y-122008500D01*
X159694445Y-122008500D01*
X159721648Y-122004918D01*
X159955480Y-121974134D01*
X159955490Y-121974131D01*
X159955492Y-121974131D01*
X160068816Y-121943765D01*
X160209797Y-121905990D01*
X160453043Y-121805234D01*
X160681057Y-121673590D01*
X160889938Y-121513311D01*
X161076111Y-121327138D01*
X161236390Y-121118257D01*
X161368034Y-120890243D01*
X161468790Y-120646997D01*
X161536934Y-120392680D01*
X161571300Y-120131644D01*
X161571300Y-119881777D01*
X165696300Y-119881777D01*
X165696300Y-120118222D01*
X165727161Y-120352633D01*
X165727162Y-120352641D01*
X165788357Y-120581024D01*
X165788358Y-120581026D01*
X165878840Y-120799470D01*
X165997057Y-121004228D01*
X165997059Y-121004231D01*
X165997060Y-121004232D01*
X166140997Y-121191814D01*
X166308186Y-121359003D01*
X166495768Y-121502940D01*
X166495771Y-121502942D01*
X166700529Y-121621159D01*
X166918973Y-121711641D01*
X166918975Y-121711642D01*
X167050833Y-121746973D01*
X167147361Y-121772838D01*
X167342709Y-121798556D01*
X167381778Y-121803700D01*
X167381779Y-121803700D01*
X167618222Y-121803700D01*
X167651709Y-121799291D01*
X167852639Y-121772838D01*
X168081024Y-121711642D01*
X168299468Y-121621160D01*
X168504232Y-121502940D01*
X168691814Y-121359003D01*
X168859003Y-121191814D01*
X169002940Y-121004232D01*
X169121160Y-120799468D01*
X169211642Y-120581024D01*
X169272838Y-120352639D01*
X169303700Y-120118221D01*
X169303700Y-119881779D01*
X169272838Y-119647361D01*
X169211642Y-119418976D01*
X169194102Y-119376629D01*
X169121159Y-119200529D01*
X169002942Y-118995771D01*
X169002940Y-118995768D01*
X168859003Y-118808186D01*
X168691814Y-118640997D01*
X168504232Y-118497060D01*
X168504231Y-118497059D01*
X168504228Y-118497057D01*
X168299470Y-118378840D01*
X168081026Y-118288358D01*
X168081024Y-118288357D01*
X167852641Y-118227162D01*
X167852633Y-118227161D01*
X167618222Y-118196300D01*
X167618221Y-118196300D01*
X167381779Y-118196300D01*
X167381778Y-118196300D01*
X167147366Y-118227161D01*
X167147358Y-118227162D01*
X166918975Y-118288357D01*
X166918973Y-118288358D01*
X166700529Y-118378840D01*
X166495771Y-118497057D01*
X166308182Y-118641000D01*
X166141000Y-118808182D01*
X165997057Y-118995771D01*
X165878840Y-119200529D01*
X165788358Y-119418973D01*
X165788357Y-119418975D01*
X165727162Y-119647358D01*
X165727161Y-119647366D01*
X165696300Y-119881777D01*
X161571300Y-119881777D01*
X161571300Y-119868356D01*
X161536934Y-119607320D01*
X161516974Y-119532829D01*
X161468790Y-119353003D01*
X161468789Y-119353000D01*
X161368034Y-119109757D01*
X161236395Y-118881751D01*
X161236393Y-118881748D01*
X161236390Y-118881743D01*
X161076111Y-118672862D01*
X160889938Y-118486689D01*
X160681057Y-118326410D01*
X160681052Y-118326407D01*
X160681048Y-118326404D01*
X160453042Y-118194765D01*
X160209799Y-118094010D01*
X160209796Y-118094009D01*
X159955492Y-118025868D01*
X159955481Y-118025866D01*
X159955480Y-118025866D01*
X159824962Y-118008683D01*
X159694445Y-117991500D01*
X159694444Y-117991500D01*
X159431156Y-117991500D01*
X159431155Y-117991500D01*
X159170120Y-118025866D01*
X159170107Y-118025868D01*
X158915803Y-118094009D01*
X158915800Y-118094010D01*
X158672557Y-118194765D01*
X158444551Y-118326404D01*
X158235662Y-118486688D01*
X158049488Y-118672862D01*
X157889204Y-118881751D01*
X157757565Y-119109757D01*
X157656810Y-119353000D01*
X157656809Y-119353003D01*
X157588668Y-119607307D01*
X157588666Y-119607320D01*
X157554300Y-119868354D01*
X139571300Y-119868354D01*
X139536934Y-119607320D01*
X139516974Y-119532829D01*
X139468790Y-119353003D01*
X139468789Y-119353000D01*
X139368034Y-119109757D01*
X139236395Y-118881751D01*
X139236393Y-118881748D01*
X139236390Y-118881743D01*
X139076111Y-118672862D01*
X138889938Y-118486689D01*
X138681057Y-118326410D01*
X138681052Y-118326407D01*
X138681048Y-118326404D01*
X138453042Y-118194765D01*
X138209799Y-118094010D01*
X138209796Y-118094009D01*
X137955492Y-118025868D01*
X137955481Y-118025866D01*
X137955480Y-118025866D01*
X137824962Y-118008683D01*
X137694445Y-117991500D01*
X137694444Y-117991500D01*
X137431156Y-117991500D01*
X137431155Y-117991500D01*
X137170120Y-118025866D01*
X137170107Y-118025868D01*
X136915803Y-118094009D01*
X136915800Y-118094010D01*
X136672557Y-118194765D01*
X136444551Y-118326404D01*
X136235662Y-118486688D01*
X136049488Y-118672862D01*
X135889204Y-118881751D01*
X135757565Y-119109757D01*
X135656810Y-119353000D01*
X135656809Y-119353003D01*
X135588668Y-119607307D01*
X135588666Y-119607320D01*
X135554300Y-119868354D01*
X99109038Y-119868354D01*
X99165003Y-119812389D01*
X99253483Y-119679968D01*
X99314430Y-119532831D01*
X99345500Y-119376630D01*
X99345500Y-119217370D01*
X99314430Y-119061169D01*
X99253483Y-118914032D01*
X99165003Y-118781611D01*
X99052389Y-118668997D01*
X98989109Y-118626715D01*
X98919972Y-118580519D01*
X98919964Y-118580515D01*
X98869478Y-118559603D01*
X98772831Y-118519570D01*
X98772827Y-118519569D01*
X98772830Y-118519569D01*
X98647699Y-118494679D01*
X98616630Y-118488500D01*
X98457370Y-118488500D01*
X98426301Y-118494679D01*
X98301170Y-118519569D01*
X98154035Y-118580515D01*
X98154027Y-118580519D01*
X98084890Y-118626715D01*
X98025050Y-118643591D01*
X97973110Y-118626715D01*
X97903972Y-118580519D01*
X97903964Y-118580515D01*
X97853478Y-118559603D01*
X97756831Y-118519570D01*
X97756827Y-118519569D01*
X97756830Y-118519569D01*
X97631699Y-118494679D01*
X97600630Y-118488500D01*
X97441370Y-118488500D01*
X97410301Y-118494679D01*
X97285170Y-118519569D01*
X97138035Y-118580515D01*
X97138027Y-118580519D01*
X97068890Y-118626715D01*
X97009050Y-118643591D01*
X96957110Y-118626715D01*
X96887972Y-118580519D01*
X96887964Y-118580515D01*
X96837478Y-118559603D01*
X96740831Y-118519570D01*
X96740827Y-118519569D01*
X96740830Y-118519569D01*
X96615699Y-118494679D01*
X96584630Y-118488500D01*
X96425370Y-118488500D01*
X96394301Y-118494679D01*
X96269170Y-118519569D01*
X96122035Y-118580515D01*
X96122027Y-118580519D01*
X96052890Y-118626715D01*
X95993050Y-118643591D01*
X95941110Y-118626715D01*
X95871972Y-118580519D01*
X95871964Y-118580515D01*
X95821478Y-118559603D01*
X95724831Y-118519570D01*
X95724827Y-118519569D01*
X95724830Y-118519569D01*
X95599699Y-118494679D01*
X95568630Y-118488500D01*
X95409370Y-118488500D01*
X95378301Y-118494679D01*
X95253170Y-118519569D01*
X95106035Y-118580515D01*
X95106027Y-118580519D01*
X95015516Y-118640997D01*
X94973611Y-118668997D01*
X94973610Y-118668998D01*
X94973609Y-118668998D01*
X94860998Y-118781609D01*
X94860998Y-118781610D01*
X94772519Y-118914027D01*
X94772515Y-118914035D01*
X94711569Y-119061170D01*
X94680500Y-119217370D01*
X86628135Y-119217370D01*
X86621159Y-119200529D01*
X86502942Y-118995771D01*
X86502940Y-118995768D01*
X86359003Y-118808186D01*
X86191814Y-118640997D01*
X86004232Y-118497060D01*
X86004231Y-118497059D01*
X86004228Y-118497057D01*
X85799470Y-118378840D01*
X85581026Y-118288358D01*
X85581024Y-118288357D01*
X85352641Y-118227162D01*
X85352633Y-118227161D01*
X85118222Y-118196300D01*
X85118221Y-118196300D01*
X84881779Y-118196300D01*
X84881778Y-118196300D01*
X84647366Y-118227161D01*
X84647358Y-118227162D01*
X84418975Y-118288357D01*
X84418973Y-118288358D01*
X84200529Y-118378840D01*
X83995771Y-118497057D01*
X83808182Y-118641000D01*
X83641000Y-118808182D01*
X83497057Y-118995771D01*
X83378840Y-119200529D01*
X83288358Y-119418973D01*
X83288357Y-119418975D01*
X83227162Y-119647358D01*
X83227161Y-119647366D01*
X83196300Y-119881777D01*
X80500500Y-119881777D01*
X80500500Y-115705271D01*
X130001500Y-115705271D01*
X130001500Y-115942728D01*
X130038642Y-116177234D01*
X130038646Y-116177250D01*
X130112018Y-116403065D01*
X130112019Y-116403067D01*
X130219807Y-116614614D01*
X130219812Y-116614622D01*
X130219815Y-116614627D01*
X130289597Y-116710674D01*
X130359378Y-116806720D01*
X130359380Y-116806722D01*
X130527278Y-116974620D01*
X130719373Y-117114185D01*
X130719379Y-117114188D01*
X130719385Y-117114192D01*
X130930932Y-117221980D01*
X130930934Y-117221981D01*
X131156749Y-117295353D01*
X131156752Y-117295353D01*
X131156759Y-117295356D01*
X131156764Y-117295356D01*
X131156765Y-117295357D01*
X131391271Y-117332499D01*
X131391276Y-117332500D01*
X131391278Y-117332500D01*
X131628724Y-117332500D01*
X131628728Y-117332499D01*
X131863241Y-117295356D01*
X132089063Y-117221982D01*
X132089067Y-117221980D01*
X132300614Y-117114192D01*
X132300616Y-117114190D01*
X132300627Y-117114185D01*
X132492722Y-116974620D01*
X132660620Y-116806722D01*
X132800185Y-116614627D01*
X132907982Y-116403063D01*
X132981356Y-116177241D01*
X133018500Y-115942722D01*
X133018500Y-115705278D01*
X132981356Y-115470759D01*
X132907982Y-115244937D01*
X132907981Y-115244936D01*
X132907981Y-115244934D01*
X132907980Y-115244932D01*
X132800192Y-115033385D01*
X132800188Y-115033379D01*
X132800185Y-115033373D01*
X132660620Y-114841278D01*
X132492722Y-114673380D01*
X132492720Y-114673378D01*
X132396674Y-114603597D01*
X132300627Y-114533815D01*
X132300622Y-114533812D01*
X132300614Y-114533807D01*
X132089067Y-114426019D01*
X132089065Y-114426018D01*
X131863250Y-114352646D01*
X131863234Y-114352642D01*
X131628728Y-114315500D01*
X131628722Y-114315500D01*
X131391278Y-114315500D01*
X131391271Y-114315500D01*
X131156765Y-114352642D01*
X131156749Y-114352646D01*
X130930934Y-114426018D01*
X130930932Y-114426019D01*
X130719385Y-114533807D01*
X130719370Y-114533817D01*
X130527279Y-114673378D01*
X130359378Y-114841279D01*
X130219817Y-115033370D01*
X130219807Y-115033385D01*
X130112019Y-115244932D01*
X130112018Y-115244934D01*
X130038646Y-115470749D01*
X130038642Y-115470765D01*
X130001500Y-115705271D01*
X80500500Y-115705271D01*
X80500500Y-112867370D01*
X94680500Y-112867370D01*
X94680500Y-113026629D01*
X94711569Y-113182829D01*
X94772515Y-113329964D01*
X94772519Y-113329972D01*
X94808101Y-113383224D01*
X94860997Y-113462389D01*
X94973611Y-113575003D01*
X95011633Y-113600408D01*
X95106027Y-113663480D01*
X95106029Y-113663481D01*
X95106032Y-113663483D01*
X95253169Y-113724430D01*
X95409370Y-113755500D01*
X95409371Y-113755500D01*
X95568629Y-113755500D01*
X95568630Y-113755500D01*
X95724831Y-113724430D01*
X95871968Y-113663483D01*
X95941111Y-113617283D01*
X96000949Y-113600408D01*
X96052888Y-113617283D01*
X96122032Y-113663483D01*
X96269169Y-113724430D01*
X96425370Y-113755500D01*
X96425371Y-113755500D01*
X96584629Y-113755500D01*
X96584630Y-113755500D01*
X96740831Y-113724430D01*
X96887968Y-113663483D01*
X96957111Y-113617283D01*
X97016949Y-113600408D01*
X97068888Y-113617283D01*
X97138032Y-113663483D01*
X97285169Y-113724430D01*
X97441370Y-113755500D01*
X97441371Y-113755500D01*
X97600629Y-113755500D01*
X97600630Y-113755500D01*
X97756831Y-113724430D01*
X97903968Y-113663483D01*
X97973111Y-113617283D01*
X98032949Y-113600408D01*
X98084888Y-113617283D01*
X98154032Y-113663483D01*
X98301169Y-113724430D01*
X98457370Y-113755500D01*
X98457371Y-113755500D01*
X98616629Y-113755500D01*
X98616630Y-113755500D01*
X98772831Y-113724430D01*
X98919968Y-113663483D01*
X99052389Y-113575003D01*
X99165003Y-113462389D01*
X99253483Y-113329968D01*
X99314430Y-113182831D01*
X99345500Y-113026630D01*
X99345500Y-112867370D01*
X99314430Y-112711169D01*
X99253483Y-112564032D01*
X99165003Y-112431611D01*
X99052389Y-112318997D01*
X98989109Y-112276715D01*
X98919972Y-112230519D01*
X98919964Y-112230515D01*
X98869478Y-112209603D01*
X98772831Y-112169570D01*
X98772827Y-112169569D01*
X98772830Y-112169569D01*
X98647699Y-112144679D01*
X98616630Y-112138500D01*
X98457370Y-112138500D01*
X98426301Y-112144679D01*
X98301170Y-112169569D01*
X98154035Y-112230515D01*
X98154027Y-112230519D01*
X98084890Y-112276715D01*
X98025050Y-112293591D01*
X97973110Y-112276715D01*
X97903972Y-112230519D01*
X97903964Y-112230515D01*
X97853478Y-112209603D01*
X97756831Y-112169570D01*
X97756827Y-112169569D01*
X97756830Y-112169569D01*
X97631699Y-112144679D01*
X97600630Y-112138500D01*
X97441370Y-112138500D01*
X97410301Y-112144679D01*
X97285170Y-112169569D01*
X97138035Y-112230515D01*
X97138027Y-112230519D01*
X97068890Y-112276715D01*
X97009050Y-112293591D01*
X96957110Y-112276715D01*
X96887972Y-112230519D01*
X96887964Y-112230515D01*
X96837478Y-112209603D01*
X96740831Y-112169570D01*
X96740827Y-112169569D01*
X96740830Y-112169569D01*
X96615699Y-112144679D01*
X96584630Y-112138500D01*
X96425370Y-112138500D01*
X96394301Y-112144679D01*
X96269170Y-112169569D01*
X96122035Y-112230515D01*
X96122027Y-112230519D01*
X96052890Y-112276715D01*
X95993050Y-112293591D01*
X95941110Y-112276715D01*
X95871972Y-112230519D01*
X95871964Y-112230515D01*
X95821478Y-112209603D01*
X95724831Y-112169570D01*
X95724827Y-112169569D01*
X95724830Y-112169569D01*
X95599699Y-112144679D01*
X95568630Y-112138500D01*
X95409370Y-112138500D01*
X95378301Y-112144679D01*
X95253170Y-112169569D01*
X95106035Y-112230515D01*
X95106027Y-112230519D01*
X95011634Y-112293591D01*
X94973611Y-112318997D01*
X94973610Y-112318998D01*
X94973609Y-112318998D01*
X94860998Y-112431609D01*
X94860998Y-112431610D01*
X94772519Y-112564027D01*
X94772515Y-112564035D01*
X94711569Y-112711170D01*
X94680500Y-112867370D01*
X80500500Y-112867370D01*
X80500500Y-102954471D01*
X87670900Y-102954471D01*
X87670900Y-103191928D01*
X87708042Y-103426434D01*
X87708046Y-103426450D01*
X87781418Y-103652265D01*
X87781419Y-103652267D01*
X87889207Y-103863814D01*
X87889212Y-103863822D01*
X87889215Y-103863827D01*
X87958997Y-103959874D01*
X88028778Y-104055920D01*
X88028780Y-104055922D01*
X88196678Y-104223820D01*
X88388773Y-104363385D01*
X88388779Y-104363388D01*
X88388785Y-104363392D01*
X88600332Y-104471180D01*
X88600334Y-104471181D01*
X88826149Y-104544553D01*
X88826152Y-104544553D01*
X88826159Y-104544556D01*
X88826164Y-104544556D01*
X88826165Y-104544557D01*
X89060671Y-104581699D01*
X89060676Y-104581700D01*
X89060678Y-104581700D01*
X89298124Y-104581700D01*
X89298128Y-104581699D01*
X89532641Y-104544556D01*
X89758463Y-104471182D01*
X89758467Y-104471180D01*
X89970014Y-104363392D01*
X89970016Y-104363390D01*
X89970027Y-104363385D01*
X90162122Y-104223820D01*
X90330020Y-104055922D01*
X90469585Y-103863827D01*
X90577382Y-103652263D01*
X90650756Y-103426441D01*
X90687900Y-103191922D01*
X90687900Y-102954478D01*
X90650756Y-102719959D01*
X90577382Y-102494137D01*
X90577381Y-102494136D01*
X90577381Y-102494134D01*
X90577380Y-102494132D01*
X90469592Y-102282585D01*
X90469588Y-102282579D01*
X90469585Y-102282573D01*
X90330020Y-102090478D01*
X90162122Y-101922580D01*
X90162120Y-101922578D01*
X90066074Y-101852797D01*
X89970027Y-101783015D01*
X89970022Y-101783012D01*
X89970014Y-101783007D01*
X89758467Y-101675219D01*
X89758465Y-101675218D01*
X89532650Y-101601846D01*
X89532634Y-101601842D01*
X89298128Y-101564700D01*
X89298122Y-101564700D01*
X89060678Y-101564700D01*
X89060671Y-101564700D01*
X88826165Y-101601842D01*
X88826149Y-101601846D01*
X88600334Y-101675218D01*
X88600332Y-101675219D01*
X88388785Y-101783007D01*
X88388770Y-101783017D01*
X88196679Y-101922578D01*
X88028778Y-102090479D01*
X87889217Y-102282570D01*
X87889207Y-102282585D01*
X87781419Y-102494132D01*
X87781418Y-102494134D01*
X87708046Y-102719949D01*
X87708042Y-102719965D01*
X87670900Y-102954471D01*
X80500500Y-102954471D01*
X80500500Y-100885370D01*
X128706100Y-100885370D01*
X128706100Y-101044629D01*
X128737169Y-101200829D01*
X128798115Y-101347964D01*
X128798119Y-101347972D01*
X128833701Y-101401224D01*
X128886597Y-101480389D01*
X128999211Y-101593003D01*
X129012440Y-101601842D01*
X129131627Y-101681480D01*
X129131629Y-101681481D01*
X129131632Y-101681483D01*
X129278769Y-101742430D01*
X129434970Y-101773500D01*
X129434971Y-101773500D01*
X129594229Y-101773500D01*
X129594230Y-101773500D01*
X129750431Y-101742430D01*
X129897568Y-101681483D01*
X130029989Y-101593003D01*
X130142603Y-101480389D01*
X130231083Y-101347968D01*
X130292030Y-101200831D01*
X130314360Y-101088570D01*
X151642300Y-101088570D01*
X151642300Y-101247829D01*
X151673369Y-101404029D01*
X151734315Y-101551164D01*
X151734319Y-101551172D01*
X151762270Y-101593003D01*
X151822797Y-101683589D01*
X151935411Y-101796203D01*
X152022893Y-101854656D01*
X152067827Y-101884680D01*
X152067829Y-101884681D01*
X152067832Y-101884683D01*
X152214969Y-101945630D01*
X152371170Y-101976700D01*
X152371171Y-101976700D01*
X152530429Y-101976700D01*
X152530430Y-101976700D01*
X152686631Y-101945630D01*
X152833768Y-101884683D01*
X152966189Y-101796203D01*
X153078803Y-101683589D01*
X153167283Y-101551168D01*
X153228230Y-101404031D01*
X153259300Y-101247830D01*
X153259300Y-101088570D01*
X153228230Y-100932369D01*
X153167283Y-100785232D01*
X153078803Y-100652811D01*
X152966189Y-100540197D01*
X152897306Y-100494171D01*
X152833772Y-100451719D01*
X152833764Y-100451715D01*
X152783278Y-100430803D01*
X152686631Y-100390770D01*
X152686627Y-100390769D01*
X152686630Y-100390769D01*
X152561499Y-100365879D01*
X152530430Y-100359700D01*
X152371170Y-100359700D01*
X152340101Y-100365879D01*
X152214970Y-100390769D01*
X152067835Y-100451715D01*
X152067827Y-100451719D01*
X152004288Y-100494175D01*
X151935411Y-100540197D01*
X151935410Y-100540198D01*
X151935409Y-100540198D01*
X151822798Y-100652809D01*
X151822798Y-100652810D01*
X151734319Y-100785227D01*
X151734315Y-100785235D01*
X151673369Y-100932370D01*
X151642300Y-101088570D01*
X130314360Y-101088570D01*
X130323100Y-101044630D01*
X130323100Y-100885370D01*
X130292030Y-100729169D01*
X130231083Y-100582032D01*
X130230059Y-100580500D01*
X130172379Y-100494175D01*
X130142603Y-100449611D01*
X130029989Y-100336997D01*
X129982871Y-100305514D01*
X129897572Y-100248519D01*
X129897564Y-100248515D01*
X129847078Y-100227603D01*
X129750431Y-100187570D01*
X129750427Y-100187569D01*
X129750430Y-100187569D01*
X129625299Y-100162679D01*
X129594230Y-100156500D01*
X129434970Y-100156500D01*
X129403901Y-100162679D01*
X129278770Y-100187569D01*
X129131635Y-100248515D01*
X129131627Y-100248519D01*
X129046329Y-100305514D01*
X128999211Y-100336997D01*
X128999210Y-100336998D01*
X128999209Y-100336998D01*
X128886598Y-100449609D01*
X128886598Y-100449610D01*
X128886597Y-100449611D01*
X128869045Y-100475878D01*
X128798119Y-100582027D01*
X128798115Y-100582035D01*
X128737169Y-100729170D01*
X128706100Y-100885370D01*
X80500500Y-100885370D01*
X80500500Y-99747294D01*
X92840500Y-99747294D01*
X92840500Y-99896705D01*
X92869649Y-100043248D01*
X92926824Y-100181280D01*
X92926828Y-100181288D01*
X93009833Y-100305514D01*
X93115485Y-100411166D01*
X93239711Y-100494171D01*
X93239713Y-100494172D01*
X93239716Y-100494174D01*
X93308735Y-100522762D01*
X93377751Y-100551350D01*
X93377752Y-100551350D01*
X93377754Y-100551351D01*
X93524294Y-100580500D01*
X93524295Y-100580500D01*
X93673705Y-100580500D01*
X93673706Y-100580500D01*
X93820246Y-100551351D01*
X93958284Y-100494174D01*
X94082516Y-100411165D01*
X94188165Y-100305516D01*
X94271174Y-100181284D01*
X94328351Y-100043246D01*
X94357500Y-99896706D01*
X94357500Y-99747294D01*
X94328351Y-99600754D01*
X94271174Y-99462716D01*
X94220479Y-99386846D01*
X94188166Y-99338485D01*
X94082514Y-99232833D01*
X93958288Y-99149828D01*
X93958280Y-99149824D01*
X93820248Y-99092649D01*
X93722552Y-99073216D01*
X93673706Y-99063500D01*
X93524294Y-99063500D01*
X93487659Y-99070787D01*
X93377751Y-99092649D01*
X93239719Y-99149824D01*
X93239711Y-99149828D01*
X93115485Y-99232833D01*
X93115484Y-99232835D01*
X93009835Y-99338484D01*
X93009833Y-99338485D01*
X92926828Y-99462711D01*
X92926824Y-99462719D01*
X92869649Y-99600751D01*
X92840500Y-99747294D01*
X80500500Y-99747294D01*
X80500500Y-98218370D01*
X108919500Y-98218370D01*
X108919500Y-98377630D01*
X108922494Y-98392680D01*
X108950569Y-98533829D01*
X109011515Y-98680964D01*
X109011519Y-98680972D01*
X109027500Y-98704889D01*
X109099997Y-98813389D01*
X109212611Y-98926003D01*
X109300093Y-98984456D01*
X109345027Y-99014480D01*
X109345029Y-99014481D01*
X109345032Y-99014483D01*
X109492169Y-99075430D01*
X109648370Y-99106500D01*
X109648371Y-99106500D01*
X109807629Y-99106500D01*
X109807630Y-99106500D01*
X109963831Y-99075430D01*
X110110968Y-99014483D01*
X110243389Y-98926003D01*
X110356003Y-98813389D01*
X110444483Y-98680968D01*
X110505430Y-98533831D01*
X110532812Y-98396170D01*
X111484900Y-98396170D01*
X111484900Y-98555429D01*
X111515969Y-98711629D01*
X111576915Y-98858764D01*
X111576919Y-98858772D01*
X111604870Y-98900603D01*
X111665397Y-98991189D01*
X111778011Y-99103803D01*
X111846887Y-99149824D01*
X111910427Y-99192280D01*
X111910429Y-99192281D01*
X111910432Y-99192283D01*
X112057569Y-99253230D01*
X112213770Y-99284300D01*
X112213771Y-99284300D01*
X112373029Y-99284300D01*
X112373030Y-99284300D01*
X112529231Y-99253230D01*
X112676368Y-99192283D01*
X112808789Y-99103803D01*
X112821698Y-99090894D01*
X115475900Y-99090894D01*
X115475900Y-99240305D01*
X115505049Y-99386848D01*
X115562224Y-99524880D01*
X115562228Y-99524888D01*
X115645233Y-99649114D01*
X115750885Y-99754766D01*
X115875111Y-99837771D01*
X115875113Y-99837772D01*
X115875116Y-99837774D01*
X115944135Y-99866362D01*
X116013151Y-99894950D01*
X116013152Y-99894950D01*
X116013154Y-99894951D01*
X116159694Y-99924100D01*
X116159695Y-99924100D01*
X116309105Y-99924100D01*
X116309106Y-99924100D01*
X116455646Y-99894951D01*
X116593684Y-99837774D01*
X116717916Y-99754765D01*
X116823565Y-99649116D01*
X116906574Y-99524884D01*
X116963751Y-99386846D01*
X116992900Y-99240306D01*
X116992900Y-99090894D01*
X116963751Y-98944354D01*
X116906574Y-98806316D01*
X116894328Y-98787989D01*
X116823566Y-98682085D01*
X116717914Y-98576433D01*
X116593688Y-98493428D01*
X116593680Y-98493424D01*
X116455648Y-98436249D01*
X116357952Y-98416816D01*
X116309106Y-98407100D01*
X116159694Y-98407100D01*
X116123059Y-98414387D01*
X116013151Y-98436249D01*
X115875119Y-98493424D01*
X115875111Y-98493428D01*
X115750885Y-98576433D01*
X115750884Y-98576435D01*
X115645235Y-98682084D01*
X115645233Y-98682085D01*
X115562228Y-98806311D01*
X115562224Y-98806319D01*
X115505049Y-98944351D01*
X115475900Y-99090894D01*
X112821698Y-99090894D01*
X112921403Y-98991189D01*
X113009883Y-98858768D01*
X113070830Y-98711631D01*
X113101900Y-98555430D01*
X113101900Y-98396170D01*
X113070830Y-98239969D01*
X113051362Y-98192970D01*
X132770100Y-98192970D01*
X132770100Y-98352230D01*
X132775152Y-98377627D01*
X132801169Y-98508429D01*
X132862115Y-98655564D01*
X132862119Y-98655572D01*
X132879091Y-98680972D01*
X132950597Y-98787989D01*
X133063211Y-98900603D01*
X133128685Y-98944351D01*
X133195627Y-98989080D01*
X133195629Y-98989081D01*
X133195632Y-98989083D01*
X133342769Y-99050030D01*
X133498970Y-99081100D01*
X133498971Y-99081100D01*
X133658229Y-99081100D01*
X133658230Y-99081100D01*
X133814431Y-99050030D01*
X133961568Y-98989083D01*
X134093989Y-98900603D01*
X134206603Y-98787989D01*
X134295083Y-98655568D01*
X134356030Y-98508431D01*
X134387100Y-98352230D01*
X134387100Y-98192970D01*
X134356030Y-98036769D01*
X134308093Y-97921041D01*
X134300853Y-97903561D01*
X134295085Y-97889636D01*
X134295080Y-97889627D01*
X134280866Y-97868354D01*
X135554300Y-97868354D01*
X135554300Y-98131645D01*
X135588666Y-98392679D01*
X135588668Y-98392692D01*
X135656809Y-98646996D01*
X135656810Y-98646999D01*
X135757565Y-98890242D01*
X135889204Y-99118248D01*
X135889207Y-99118252D01*
X135889210Y-99118257D01*
X136049489Y-99327138D01*
X136235662Y-99513311D01*
X136444543Y-99673590D01*
X136444548Y-99673593D01*
X136444551Y-99673595D01*
X136672557Y-99805234D01*
X136915800Y-99905989D01*
X136915803Y-99905990D01*
X137170107Y-99974131D01*
X137170111Y-99974131D01*
X137170120Y-99974134D01*
X137400787Y-100004501D01*
X137431155Y-100008500D01*
X137431156Y-100008500D01*
X137694445Y-100008500D01*
X137721648Y-100004918D01*
X137955480Y-99974134D01*
X137955490Y-99974131D01*
X137955492Y-99974131D01*
X138068816Y-99943765D01*
X138209797Y-99905990D01*
X138453043Y-99805234D01*
X138681057Y-99673590D01*
X138889938Y-99513311D01*
X139076111Y-99327138D01*
X139236390Y-99118257D01*
X139368034Y-98890243D01*
X139468790Y-98646997D01*
X139536934Y-98392680D01*
X139571300Y-98131644D01*
X139571300Y-97868356D01*
X139568593Y-97847798D01*
X139561726Y-97795636D01*
X139536934Y-97607320D01*
X139534802Y-97599365D01*
X139468790Y-97353003D01*
X139468789Y-97353000D01*
X139368034Y-97109757D01*
X139236395Y-96881751D01*
X139236393Y-96881748D01*
X139236390Y-96881743D01*
X139094910Y-96697362D01*
X143490300Y-96697362D01*
X143490300Y-98302638D01*
X143495632Y-98352229D01*
X143496811Y-98363200D01*
X143496811Y-98363202D01*
X143547909Y-98500202D01*
X143547911Y-98500206D01*
X143635535Y-98617257D01*
X143635542Y-98617264D01*
X143752593Y-98704888D01*
X143752597Y-98704890D01*
X143801485Y-98723124D01*
X143889599Y-98755989D01*
X143950162Y-98762500D01*
X145555438Y-98762500D01*
X145616001Y-98755989D01*
X145713500Y-98719623D01*
X145753002Y-98704890D01*
X145753006Y-98704888D01*
X145870057Y-98617264D01*
X145870057Y-98617263D01*
X145870061Y-98617261D01*
X145932518Y-98533829D01*
X145957688Y-98500206D01*
X145957689Y-98500204D01*
X146008789Y-98363201D01*
X146015300Y-98302638D01*
X146015300Y-98173966D01*
X146034513Y-98114835D01*
X146084813Y-98078290D01*
X146146987Y-98078290D01*
X146197287Y-98114835D01*
X146205536Y-98128295D01*
X146220283Y-98157238D01*
X146246257Y-98192988D01*
X146809837Y-97629408D01*
X146826875Y-97692993D01*
X146892701Y-97807007D01*
X146985793Y-97900099D01*
X147099807Y-97965925D01*
X147163390Y-97982962D01*
X146599810Y-98546542D01*
X146635563Y-98572518D01*
X146635568Y-98572521D01*
X146811430Y-98662128D01*
X146999144Y-98723120D01*
X146999160Y-98723124D01*
X147194102Y-98753999D01*
X147194106Y-98754000D01*
X147391494Y-98754000D01*
X147391497Y-98753999D01*
X147586439Y-98723124D01*
X147586455Y-98723120D01*
X147774169Y-98662128D01*
X147950041Y-98572515D01*
X147950042Y-98572514D01*
X147985789Y-98546542D01*
X147422209Y-97982962D01*
X147485793Y-97965925D01*
X147599807Y-97900099D01*
X147692899Y-97807007D01*
X147758725Y-97692993D01*
X147775762Y-97629409D01*
X148339342Y-98192989D01*
X148365314Y-98157242D01*
X148365315Y-98157241D01*
X148454927Y-97981371D01*
X148462654Y-97957589D01*
X148499198Y-97907288D01*
X148558329Y-97888074D01*
X148617461Y-97907286D01*
X148654007Y-97957585D01*
X148654007Y-97957586D01*
X148662795Y-97984633D01*
X148753008Y-98161685D01*
X148753013Y-98161694D01*
X148809883Y-98239969D01*
X148869817Y-98322462D01*
X149010337Y-98462982D01*
X149024189Y-98473046D01*
X149171106Y-98579787D01*
X149171114Y-98579791D01*
X149348167Y-98670005D01*
X149537154Y-98731410D01*
X149537156Y-98731410D01*
X149537164Y-98731413D01*
X149733435Y-98762499D01*
X149733437Y-98762500D01*
X149733439Y-98762500D01*
X149932163Y-98762500D01*
X149932163Y-98762499D01*
X150128436Y-98731413D01*
X150317432Y-98670005D01*
X150494494Y-98579787D01*
X150655264Y-98462981D01*
X150795781Y-98322464D01*
X150912587Y-98161694D01*
X151002805Y-97984632D01*
X151007123Y-97971339D01*
X151043668Y-97921041D01*
X151102799Y-97901827D01*
X151161930Y-97921039D01*
X151198476Y-97971339D01*
X151198477Y-97971341D01*
X151202796Y-97984636D01*
X151293008Y-98161685D01*
X151293013Y-98161694D01*
X151349883Y-98239969D01*
X151409817Y-98322462D01*
X151550337Y-98462982D01*
X151564189Y-98473046D01*
X151711106Y-98579787D01*
X151711114Y-98579791D01*
X151888167Y-98670005D01*
X152077154Y-98731410D01*
X152077156Y-98731410D01*
X152077164Y-98731413D01*
X152273435Y-98762499D01*
X152273437Y-98762500D01*
X152273439Y-98762500D01*
X152472163Y-98762500D01*
X152472163Y-98762499D01*
X152668436Y-98731413D01*
X152857432Y-98670005D01*
X153034494Y-98579787D01*
X153195264Y-98462981D01*
X153335781Y-98322464D01*
X153452587Y-98161694D01*
X153542805Y-97984632D01*
X153550675Y-97960410D01*
X153580586Y-97868354D01*
X157554300Y-97868354D01*
X157554300Y-98131645D01*
X157588666Y-98392679D01*
X157588668Y-98392692D01*
X157656809Y-98646996D01*
X157656810Y-98646999D01*
X157757565Y-98890242D01*
X157889204Y-99118248D01*
X157889207Y-99118252D01*
X157889210Y-99118257D01*
X158049489Y-99327138D01*
X158235662Y-99513311D01*
X158444543Y-99673590D01*
X158444548Y-99673593D01*
X158444551Y-99673595D01*
X158672557Y-99805234D01*
X158915800Y-99905989D01*
X158915803Y-99905990D01*
X159170107Y-99974131D01*
X159170111Y-99974131D01*
X159170120Y-99974134D01*
X159400787Y-100004501D01*
X159431155Y-100008500D01*
X159431156Y-100008500D01*
X159694445Y-100008500D01*
X159721648Y-100004918D01*
X159955480Y-99974134D01*
X159955490Y-99974131D01*
X159955492Y-99974131D01*
X160068816Y-99943765D01*
X160209797Y-99905990D01*
X160453043Y-99805234D01*
X160681057Y-99673590D01*
X160889938Y-99513311D01*
X161076111Y-99327138D01*
X161236390Y-99118257D01*
X161368034Y-98890243D01*
X161468790Y-98646997D01*
X161536934Y-98392680D01*
X161571300Y-98131644D01*
X161571300Y-97868356D01*
X161568593Y-97847798D01*
X161561726Y-97795636D01*
X161536934Y-97607320D01*
X161534802Y-97599365D01*
X161468790Y-97353003D01*
X161468789Y-97353000D01*
X161368034Y-97109757D01*
X161236395Y-96881751D01*
X161236393Y-96881748D01*
X161236390Y-96881743D01*
X161076111Y-96672862D01*
X160889938Y-96486689D01*
X160681057Y-96326410D01*
X160681052Y-96326407D01*
X160681048Y-96326404D01*
X160453042Y-96194765D01*
X160209799Y-96094010D01*
X160209796Y-96094009D01*
X159955492Y-96025868D01*
X159955481Y-96025866D01*
X159955480Y-96025866D01*
X159823572Y-96008500D01*
X159694445Y-95991500D01*
X159694444Y-95991500D01*
X159431156Y-95991500D01*
X159431155Y-95991500D01*
X159170120Y-96025866D01*
X159170107Y-96025868D01*
X158915803Y-96094009D01*
X158915800Y-96094010D01*
X158672557Y-96194765D01*
X158444551Y-96326404D01*
X158235662Y-96486688D01*
X158049488Y-96672862D01*
X157889204Y-96881751D01*
X157757565Y-97109757D01*
X157656810Y-97353000D01*
X157656809Y-97353003D01*
X157588668Y-97607307D01*
X157588666Y-97607320D01*
X157554300Y-97868354D01*
X153580586Y-97868354D01*
X153591756Y-97833976D01*
X153591756Y-97833975D01*
X153604211Y-97795641D01*
X153604213Y-97795636D01*
X153635300Y-97599361D01*
X153635300Y-97400639D01*
X153604213Y-97204364D01*
X153604210Y-97204354D01*
X153542805Y-97015367D01*
X153464330Y-96861353D01*
X153452587Y-96838306D01*
X153355587Y-96704797D01*
X153335782Y-96677537D01*
X153195262Y-96537017D01*
X153114879Y-96478616D01*
X153034494Y-96420213D01*
X153034488Y-96420210D01*
X153034485Y-96420208D01*
X152857432Y-96329994D01*
X152668445Y-96268589D01*
X152668431Y-96268586D01*
X152472165Y-96237500D01*
X152472161Y-96237500D01*
X152273439Y-96237500D01*
X152273434Y-96237500D01*
X152077168Y-96268586D01*
X152077154Y-96268589D01*
X151888167Y-96329994D01*
X151711114Y-96420208D01*
X151711103Y-96420215D01*
X151550337Y-96537017D01*
X151409817Y-96677537D01*
X151293015Y-96838303D01*
X151293008Y-96838314D01*
X151202795Y-97015366D01*
X151198476Y-97028660D01*
X151161931Y-97078959D01*
X151102799Y-97098172D01*
X151043668Y-97078959D01*
X151007124Y-97028660D01*
X151005532Y-97023763D01*
X151002805Y-97015368D01*
X150912587Y-96838306D01*
X150815587Y-96704797D01*
X150795782Y-96677537D01*
X150655262Y-96537017D01*
X150574879Y-96478616D01*
X150494494Y-96420213D01*
X150494488Y-96420210D01*
X150494485Y-96420208D01*
X150317432Y-96329994D01*
X150128445Y-96268589D01*
X150128431Y-96268586D01*
X149932165Y-96237500D01*
X149932161Y-96237500D01*
X149733439Y-96237500D01*
X149733434Y-96237500D01*
X149537168Y-96268586D01*
X149537154Y-96268589D01*
X149348167Y-96329994D01*
X149171114Y-96420208D01*
X149171103Y-96420215D01*
X149010337Y-96537017D01*
X148869817Y-96677537D01*
X148753015Y-96838303D01*
X148753008Y-96838314D01*
X148662796Y-97015364D01*
X148654007Y-97042414D01*
X148617461Y-97092713D01*
X148558330Y-97111925D01*
X148499199Y-97092711D01*
X148462654Y-97042411D01*
X148454926Y-97018626D01*
X148365321Y-96842768D01*
X148365318Y-96842763D01*
X148339341Y-96807010D01*
X147775762Y-97370590D01*
X147758725Y-97307007D01*
X147692899Y-97192993D01*
X147599807Y-97099901D01*
X147485793Y-97034075D01*
X147422207Y-97017037D01*
X147985788Y-96453457D01*
X147950036Y-96427481D01*
X147774169Y-96337871D01*
X147586455Y-96276879D01*
X147586439Y-96276875D01*
X147391497Y-96246000D01*
X147194102Y-96246000D01*
X146999160Y-96276875D01*
X146999144Y-96276879D01*
X146811430Y-96337871D01*
X146635563Y-96427481D01*
X146599810Y-96453457D01*
X147163390Y-97017037D01*
X147099807Y-97034075D01*
X146985793Y-97099901D01*
X146892701Y-97192993D01*
X146826875Y-97307007D01*
X146809837Y-97370590D01*
X146246257Y-96807010D01*
X146220281Y-96842763D01*
X146205535Y-96871705D01*
X146161571Y-96915669D01*
X146100162Y-96925394D01*
X146044765Y-96897167D01*
X146016538Y-96841770D01*
X146015300Y-96826033D01*
X146015300Y-96697362D01*
X146008789Y-96636799D01*
X145994725Y-96599093D01*
X145967819Y-96526954D01*
X145957690Y-96499797D01*
X145957688Y-96499793D01*
X145870064Y-96382742D01*
X145870057Y-96382735D01*
X145753006Y-96295111D01*
X145753002Y-96295109D01*
X145616001Y-96244011D01*
X145555438Y-96237500D01*
X143950162Y-96237500D01*
X143889599Y-96244011D01*
X143889597Y-96244011D01*
X143752597Y-96295109D01*
X143752593Y-96295111D01*
X143635542Y-96382735D01*
X143635535Y-96382742D01*
X143547911Y-96499793D01*
X143547909Y-96499797D01*
X143496811Y-96636797D01*
X143496811Y-96636799D01*
X143490300Y-96697362D01*
X139094910Y-96697362D01*
X139076111Y-96672862D01*
X138889938Y-96486689D01*
X138681057Y-96326410D01*
X138681052Y-96326407D01*
X138681048Y-96326404D01*
X138453042Y-96194765D01*
X138209799Y-96094010D01*
X138209796Y-96094009D01*
X137955492Y-96025868D01*
X137955481Y-96025866D01*
X137955480Y-96025866D01*
X137823572Y-96008500D01*
X137694445Y-95991500D01*
X137694444Y-95991500D01*
X137431156Y-95991500D01*
X137431155Y-95991500D01*
X137170120Y-96025866D01*
X137170107Y-96025868D01*
X136915803Y-96094009D01*
X136915800Y-96094010D01*
X136672557Y-96194765D01*
X136444551Y-96326404D01*
X136235662Y-96486688D01*
X136049488Y-96672862D01*
X135889204Y-96881751D01*
X135757565Y-97109757D01*
X135656810Y-97353000D01*
X135656809Y-97353003D01*
X135588668Y-97607307D01*
X135588666Y-97607320D01*
X135554300Y-97868354D01*
X134280866Y-97868354D01*
X134270976Y-97853553D01*
X134206603Y-97757211D01*
X134093989Y-97644597D01*
X134050247Y-97615370D01*
X133961572Y-97556119D01*
X133961564Y-97556115D01*
X133875751Y-97520570D01*
X133814431Y-97495170D01*
X133814427Y-97495169D01*
X133814430Y-97495169D01*
X133689299Y-97470279D01*
X133658230Y-97464100D01*
X133498970Y-97464100D01*
X133467901Y-97470279D01*
X133342770Y-97495169D01*
X133195635Y-97556115D01*
X133195627Y-97556119D01*
X133089478Y-97627045D01*
X133063211Y-97644597D01*
X133063210Y-97644598D01*
X133063209Y-97644598D01*
X132950598Y-97757209D01*
X132950598Y-97757210D01*
X132950597Y-97757211D01*
X132933627Y-97782609D01*
X132862119Y-97889627D01*
X132862115Y-97889635D01*
X132801169Y-98036770D01*
X132776956Y-98158500D01*
X132770100Y-98192970D01*
X113051362Y-98192970D01*
X113009883Y-98092832D01*
X113000166Y-98078290D01*
X112991849Y-98065843D01*
X112921403Y-97960411D01*
X112808789Y-97847797D01*
X112747742Y-97807007D01*
X112676372Y-97759319D01*
X112676364Y-97759315D01*
X112625878Y-97738403D01*
X112529231Y-97698370D01*
X112529227Y-97698369D01*
X112529230Y-97698369D01*
X112404099Y-97673479D01*
X112373030Y-97667300D01*
X112213770Y-97667300D01*
X112182701Y-97673479D01*
X112057570Y-97698369D01*
X111910435Y-97759315D01*
X111910427Y-97759319D01*
X111839058Y-97807007D01*
X111778011Y-97847797D01*
X111778010Y-97847798D01*
X111778009Y-97847798D01*
X111665398Y-97960409D01*
X111665398Y-97960410D01*
X111665397Y-97960411D01*
X111665135Y-97960803D01*
X111576919Y-98092827D01*
X111576915Y-98092835D01*
X111515969Y-98239970D01*
X111484900Y-98396170D01*
X110532812Y-98396170D01*
X110536500Y-98377630D01*
X110536500Y-98218370D01*
X110505430Y-98062169D01*
X110444483Y-97915032D01*
X110439307Y-97907286D01*
X110423425Y-97883516D01*
X110356003Y-97782611D01*
X110243389Y-97669997D01*
X110199647Y-97640770D01*
X110110972Y-97581519D01*
X110110964Y-97581515D01*
X110060478Y-97560603D01*
X109963831Y-97520570D01*
X109963827Y-97520569D01*
X109963830Y-97520569D01*
X109836130Y-97495169D01*
X109807630Y-97489500D01*
X109648370Y-97489500D01*
X109619870Y-97495169D01*
X109492170Y-97520569D01*
X109345035Y-97581515D01*
X109345027Y-97581519D01*
X109238878Y-97652445D01*
X109212611Y-97669997D01*
X109212610Y-97669998D01*
X109212609Y-97669998D01*
X109099998Y-97782609D01*
X109099998Y-97782610D01*
X109099997Y-97782611D01*
X109091294Y-97795636D01*
X109011519Y-97915027D01*
X109011515Y-97915035D01*
X108950569Y-98062170D01*
X108919500Y-98218370D01*
X80500500Y-98218370D01*
X80500500Y-97253170D01*
X100149700Y-97253170D01*
X100149700Y-97412429D01*
X100180769Y-97568629D01*
X100241715Y-97715764D01*
X100241719Y-97715772D01*
X100277301Y-97769024D01*
X100330197Y-97848189D01*
X100442811Y-97960803D01*
X100485260Y-97989166D01*
X100575227Y-98049280D01*
X100575229Y-98049281D01*
X100575232Y-98049283D01*
X100722369Y-98110230D01*
X100878570Y-98141300D01*
X100878571Y-98141300D01*
X101037829Y-98141300D01*
X101037830Y-98141300D01*
X101194031Y-98110230D01*
X101341168Y-98049283D01*
X101473589Y-97960803D01*
X101586203Y-97848189D01*
X101674683Y-97715768D01*
X101735630Y-97568631D01*
X101766700Y-97412430D01*
X101766700Y-97325294D01*
X118138900Y-97325294D01*
X118138900Y-97474706D01*
X118142971Y-97495170D01*
X118168049Y-97621248D01*
X118225224Y-97759280D01*
X118225228Y-97759288D01*
X118308233Y-97883514D01*
X118413885Y-97989166D01*
X118538111Y-98072171D01*
X118538113Y-98072172D01*
X118538116Y-98072174D01*
X118587977Y-98092827D01*
X118676151Y-98129350D01*
X118676152Y-98129350D01*
X118676154Y-98129351D01*
X118822694Y-98158500D01*
X118822695Y-98158500D01*
X118972105Y-98158500D01*
X118972106Y-98158500D01*
X119118646Y-98129351D01*
X119153870Y-98114761D01*
X119201370Y-98095086D01*
X119217728Y-98088309D01*
X119256684Y-98072174D01*
X119380916Y-97989165D01*
X119486565Y-97883516D01*
X119569574Y-97759284D01*
X119626751Y-97621246D01*
X119655900Y-97474706D01*
X119655900Y-97325294D01*
X119626751Y-97178754D01*
X119569574Y-97040716D01*
X119561518Y-97028660D01*
X119486566Y-96916485D01*
X119380914Y-96810833D01*
X119256688Y-96727828D01*
X119256680Y-96727824D01*
X119118648Y-96670649D01*
X119020952Y-96651216D01*
X118972106Y-96641500D01*
X118822694Y-96641500D01*
X118786059Y-96648787D01*
X118676151Y-96670649D01*
X118538119Y-96727824D01*
X118538111Y-96727828D01*
X118413885Y-96810833D01*
X118413884Y-96810835D01*
X118308235Y-96916484D01*
X118308233Y-96916485D01*
X118225228Y-97040711D01*
X118225224Y-97040719D01*
X118168049Y-97178751D01*
X118138900Y-97325294D01*
X101766700Y-97325294D01*
X101766700Y-97253170D01*
X101735630Y-97096969D01*
X101674683Y-96949832D01*
X101586203Y-96817411D01*
X101473589Y-96704797D01*
X101422482Y-96670649D01*
X101341172Y-96616319D01*
X101341164Y-96616315D01*
X101290678Y-96595403D01*
X101194031Y-96555370D01*
X101194027Y-96555369D01*
X101194030Y-96555369D01*
X101068899Y-96530479D01*
X101037830Y-96524300D01*
X100878570Y-96524300D01*
X100847501Y-96530479D01*
X100722370Y-96555369D01*
X100575235Y-96616315D01*
X100575227Y-96616319D01*
X100483610Y-96677536D01*
X100442811Y-96704797D01*
X100442810Y-96704798D01*
X100442809Y-96704798D01*
X100330198Y-96817409D01*
X100330198Y-96817410D01*
X100241719Y-96949827D01*
X100241715Y-96949835D01*
X100180769Y-97096970D01*
X100149700Y-97253170D01*
X80500500Y-97253170D01*
X80500500Y-95175294D01*
X81029500Y-95175294D01*
X81029500Y-95324705D01*
X81058649Y-95471248D01*
X81115824Y-95609280D01*
X81115828Y-95609288D01*
X81198833Y-95733514D01*
X81304485Y-95839166D01*
X81428711Y-95922171D01*
X81428713Y-95922172D01*
X81428716Y-95922174D01*
X81497735Y-95950762D01*
X81566751Y-95979350D01*
X81566752Y-95979350D01*
X81566754Y-95979351D01*
X81713294Y-96008500D01*
X81713295Y-96008500D01*
X81862705Y-96008500D01*
X81862706Y-96008500D01*
X82009246Y-95979351D01*
X82147284Y-95922174D01*
X82271516Y-95839165D01*
X82377165Y-95733516D01*
X82460174Y-95609284D01*
X82517351Y-95471246D01*
X82546500Y-95324706D01*
X82546500Y-95175294D01*
X82517351Y-95028754D01*
X82460174Y-94890716D01*
X82440987Y-94862001D01*
X82377166Y-94766485D01*
X82271514Y-94660833D01*
X82147288Y-94577828D01*
X82147280Y-94577824D01*
X82009248Y-94520649D01*
X81911552Y-94501216D01*
X81862706Y-94491500D01*
X81713294Y-94491500D01*
X81676659Y-94498787D01*
X81566751Y-94520649D01*
X81428719Y-94577824D01*
X81428711Y-94577828D01*
X81304485Y-94660833D01*
X81304484Y-94660835D01*
X81198835Y-94766484D01*
X81198833Y-94766485D01*
X81115828Y-94890711D01*
X81115824Y-94890719D01*
X81058649Y-95028751D01*
X81029500Y-95175294D01*
X80500500Y-95175294D01*
X80500500Y-94154370D01*
X105439700Y-94154370D01*
X105439700Y-94313629D01*
X105470769Y-94469829D01*
X105531715Y-94616964D01*
X105531719Y-94616972D01*
X105561026Y-94660833D01*
X105620197Y-94749389D01*
X105732811Y-94862003D01*
X105775788Y-94890719D01*
X105865227Y-94950480D01*
X105865229Y-94950481D01*
X105865232Y-94950483D01*
X106012369Y-95011430D01*
X106168570Y-95042500D01*
X106168571Y-95042500D01*
X106327829Y-95042500D01*
X106327830Y-95042500D01*
X106484031Y-95011430D01*
X106631168Y-94950483D01*
X106763589Y-94862003D01*
X106876203Y-94749389D01*
X106964683Y-94616968D01*
X107025630Y-94469831D01*
X107056700Y-94313630D01*
X107056700Y-94154370D01*
X107025630Y-93998169D01*
X106964683Y-93851032D01*
X106876203Y-93718611D01*
X106763589Y-93605997D01*
X106719400Y-93576471D01*
X125675500Y-93576471D01*
X125675500Y-93813928D01*
X125712642Y-94048434D01*
X125712646Y-94048450D01*
X125786018Y-94274265D01*
X125786019Y-94274267D01*
X125893807Y-94485814D01*
X125893812Y-94485822D01*
X125893815Y-94485827D01*
X125897937Y-94491500D01*
X126033378Y-94677920D01*
X126033380Y-94677922D01*
X126201278Y-94845820D01*
X126393373Y-94985385D01*
X126393379Y-94985388D01*
X126393385Y-94985392D01*
X126604932Y-95093180D01*
X126604934Y-95093181D01*
X126830749Y-95166553D01*
X126830752Y-95166553D01*
X126830759Y-95166556D01*
X126830764Y-95166556D01*
X126830765Y-95166557D01*
X127065271Y-95203699D01*
X127065276Y-95203700D01*
X127065278Y-95203700D01*
X127302724Y-95203700D01*
X127302728Y-95203699D01*
X127482071Y-95175294D01*
X127537241Y-95166556D01*
X127763063Y-95093182D01*
X127763067Y-95093180D01*
X127974614Y-94985392D01*
X127974616Y-94985390D01*
X127974627Y-94985385D01*
X128166722Y-94845820D01*
X128334620Y-94677922D01*
X128474185Y-94485827D01*
X128482336Y-94469831D01*
X128581980Y-94274267D01*
X128581981Y-94274265D01*
X128590051Y-94249430D01*
X128655356Y-94048441D01*
X128692500Y-93813922D01*
X128692500Y-93576478D01*
X128663340Y-93392370D01*
X149024300Y-93392370D01*
X149024300Y-93551629D01*
X149055369Y-93707829D01*
X149116315Y-93854964D01*
X149116319Y-93854972D01*
X149151901Y-93908224D01*
X149204797Y-93987389D01*
X149317411Y-94100003D01*
X149398778Y-94154370D01*
X149449827Y-94188480D01*
X149449829Y-94188481D01*
X149449832Y-94188483D01*
X149596969Y-94249430D01*
X149753170Y-94280500D01*
X149753171Y-94280500D01*
X149912429Y-94280500D01*
X149912430Y-94280500D01*
X150068631Y-94249430D01*
X150215768Y-94188483D01*
X150348189Y-94100003D01*
X150460803Y-93987389D01*
X150549283Y-93854968D01*
X150610230Y-93707831D01*
X150641300Y-93551630D01*
X150641300Y-93392370D01*
X150610230Y-93236169D01*
X150549283Y-93089032D01*
X150460803Y-92956611D01*
X150348189Y-92843997D01*
X150304447Y-92814770D01*
X150215772Y-92755519D01*
X150215764Y-92755515D01*
X150165278Y-92734603D01*
X150068631Y-92694570D01*
X150068627Y-92694569D01*
X150068630Y-92694569D01*
X149943499Y-92669679D01*
X149912430Y-92663500D01*
X149753170Y-92663500D01*
X149722101Y-92669679D01*
X149596970Y-92694569D01*
X149449835Y-92755515D01*
X149449827Y-92755519D01*
X149350046Y-92822191D01*
X149317411Y-92843997D01*
X149317410Y-92843998D01*
X149317409Y-92843998D01*
X149204798Y-92956609D01*
X149204798Y-92956610D01*
X149116319Y-93089027D01*
X149116315Y-93089035D01*
X149055369Y-93236170D01*
X149024300Y-93392370D01*
X128663340Y-93392370D01*
X128655356Y-93341959D01*
X128581982Y-93116137D01*
X128581981Y-93116136D01*
X128581981Y-93116134D01*
X128581980Y-93116132D01*
X128474192Y-92904585D01*
X128474188Y-92904579D01*
X128474185Y-92904573D01*
X128334620Y-92712478D01*
X128166722Y-92544580D01*
X128166720Y-92544578D01*
X128002844Y-92425516D01*
X127974627Y-92405015D01*
X127974622Y-92405012D01*
X127974614Y-92405007D01*
X127763067Y-92297219D01*
X127763065Y-92297218D01*
X127537250Y-92223846D01*
X127537234Y-92223842D01*
X127302728Y-92186700D01*
X127302722Y-92186700D01*
X127065278Y-92186700D01*
X127065271Y-92186700D01*
X126830765Y-92223842D01*
X126830749Y-92223846D01*
X126604934Y-92297218D01*
X126604932Y-92297219D01*
X126393385Y-92405007D01*
X126393370Y-92405017D01*
X126201279Y-92544578D01*
X126033378Y-92712479D01*
X125893817Y-92904570D01*
X125893807Y-92904585D01*
X125786019Y-93116132D01*
X125786018Y-93116134D01*
X125712646Y-93341949D01*
X125712642Y-93341965D01*
X125675500Y-93576471D01*
X106719400Y-93576471D01*
X106631172Y-93517519D01*
X106631164Y-93517515D01*
X106580678Y-93496603D01*
X106484031Y-93456570D01*
X106484027Y-93456569D01*
X106484030Y-93456569D01*
X106358899Y-93431679D01*
X106327830Y-93425500D01*
X106168570Y-93425500D01*
X106137501Y-93431679D01*
X106012370Y-93456569D01*
X105865235Y-93517515D01*
X105865227Y-93517519D01*
X105759078Y-93588445D01*
X105732811Y-93605997D01*
X105732810Y-93605998D01*
X105732809Y-93605998D01*
X105620198Y-93718609D01*
X105620198Y-93718610D01*
X105531719Y-93851027D01*
X105531715Y-93851035D01*
X105470769Y-93998170D01*
X105439700Y-94154370D01*
X80500500Y-94154370D01*
X80500500Y-92506560D01*
X80519713Y-92447429D01*
X80570013Y-92410884D01*
X80632187Y-92410884D01*
X80682487Y-92447429D01*
X80690735Y-92460888D01*
X80737821Y-92553300D01*
X80751926Y-92580981D01*
X80803204Y-92651560D01*
X80854481Y-92722137D01*
X80854483Y-92722139D01*
X80977861Y-92845517D01*
X81119019Y-92948074D01*
X81119027Y-92948078D01*
X81274483Y-93027288D01*
X81440416Y-93081202D01*
X81440418Y-93081202D01*
X81440426Y-93081205D01*
X81612755Y-93108499D01*
X81612757Y-93108500D01*
X81612759Y-93108500D01*
X82387243Y-93108500D01*
X82387243Y-93108499D01*
X82559574Y-93081205D01*
X82725516Y-93027288D01*
X82880981Y-92948074D01*
X83022139Y-92845517D01*
X83145517Y-92722139D01*
X83248074Y-92580981D01*
X83327288Y-92425516D01*
X83381205Y-92259574D01*
X83408500Y-92087241D01*
X83408500Y-91912759D01*
X83408499Y-91912752D01*
X83407516Y-91906542D01*
X83405806Y-91895747D01*
X84701500Y-91895747D01*
X84701500Y-92104252D01*
X84742177Y-92308755D01*
X84821967Y-92501384D01*
X84821971Y-92501392D01*
X84937807Y-92674753D01*
X85085246Y-92822192D01*
X85258607Y-92938028D01*
X85258609Y-92938029D01*
X85258612Y-92938031D01*
X85303466Y-92956610D01*
X85451244Y-93017822D01*
X85451245Y-93017822D01*
X85451247Y-93017823D01*
X85655747Y-93058500D01*
X85655748Y-93058500D01*
X86764252Y-93058500D01*
X86764253Y-93058500D01*
X86968753Y-93017823D01*
X87161388Y-92938031D01*
X87334755Y-92822191D01*
X87482191Y-92674755D01*
X87598031Y-92501388D01*
X87677823Y-92308753D01*
X87718500Y-92104253D01*
X87718500Y-91895747D01*
X87691245Y-91758725D01*
X87698553Y-91696983D01*
X87727961Y-91665170D01*
X93577900Y-91665170D01*
X93577900Y-91824429D01*
X93608969Y-91980629D01*
X93669915Y-92127764D01*
X93669919Y-92127772D01*
X93705501Y-92181024D01*
X93758397Y-92260189D01*
X93871011Y-92372803D01*
X93928004Y-92410884D01*
X94003427Y-92461280D01*
X94003429Y-92461281D01*
X94003432Y-92461283D01*
X94150569Y-92522230D01*
X94306770Y-92553300D01*
X94306771Y-92553300D01*
X94466029Y-92553300D01*
X94466030Y-92553300D01*
X94622231Y-92522230D01*
X94769368Y-92461283D01*
X94901789Y-92372803D01*
X95014403Y-92260189D01*
X95102883Y-92127768D01*
X95163830Y-91980631D01*
X95194900Y-91824430D01*
X95194900Y-91665170D01*
X95163830Y-91508969D01*
X95102883Y-91361832D01*
X95014403Y-91229411D01*
X94901789Y-91116797D01*
X94886184Y-91106370D01*
X109935500Y-91106370D01*
X109935500Y-91265629D01*
X109966569Y-91421829D01*
X110027515Y-91568964D01*
X110027519Y-91568972D01*
X110043441Y-91592800D01*
X110115997Y-91701389D01*
X110228611Y-91814003D01*
X110316093Y-91872456D01*
X110361027Y-91902480D01*
X110361029Y-91902481D01*
X110361032Y-91902483D01*
X110508169Y-91963430D01*
X110664370Y-91994500D01*
X110664371Y-91994500D01*
X110823629Y-91994500D01*
X110823630Y-91994500D01*
X110979831Y-91963430D01*
X111126968Y-91902483D01*
X111259389Y-91814003D01*
X111372003Y-91701389D01*
X111460483Y-91568968D01*
X111521430Y-91421831D01*
X111552500Y-91265630D01*
X111552500Y-91106370D01*
X111521430Y-90950169D01*
X111460483Y-90803032D01*
X111372003Y-90670611D01*
X111259389Y-90557997D01*
X111203598Y-90520719D01*
X111126972Y-90469519D01*
X111126964Y-90469515D01*
X111076478Y-90448603D01*
X110979831Y-90408570D01*
X110979827Y-90408569D01*
X110979830Y-90408569D01*
X110854699Y-90383679D01*
X110823630Y-90377500D01*
X110664370Y-90377500D01*
X110633301Y-90383679D01*
X110508170Y-90408569D01*
X110361035Y-90469515D01*
X110361027Y-90469519D01*
X110271589Y-90529280D01*
X110228611Y-90557997D01*
X110228610Y-90557998D01*
X110228609Y-90557998D01*
X110115998Y-90670609D01*
X110115998Y-90670610D01*
X110027519Y-90803027D01*
X110027515Y-90803035D01*
X109966569Y-90950170D01*
X109935500Y-91106370D01*
X94886184Y-91106370D01*
X94810051Y-91055500D01*
X94769372Y-91028319D01*
X94769364Y-91028315D01*
X94718878Y-91007403D01*
X94622231Y-90967370D01*
X94622227Y-90967369D01*
X94622230Y-90967369D01*
X94482424Y-90939561D01*
X94466030Y-90936300D01*
X94306770Y-90936300D01*
X94290376Y-90939561D01*
X94150570Y-90967369D01*
X94003435Y-91028315D01*
X94003427Y-91028319D01*
X93897278Y-91099245D01*
X93871011Y-91116797D01*
X93871010Y-91116798D01*
X93871009Y-91116798D01*
X93758398Y-91229409D01*
X93758398Y-91229410D01*
X93758397Y-91229411D01*
X93741579Y-91254581D01*
X93669919Y-91361827D01*
X93669915Y-91361835D01*
X93608969Y-91508970D01*
X93577900Y-91665170D01*
X87727961Y-91665170D01*
X87740757Y-91651327D01*
X87789912Y-91638500D01*
X87906705Y-91638500D01*
X87906706Y-91638500D01*
X88053246Y-91609351D01*
X88137423Y-91574484D01*
X88154801Y-91567286D01*
X88166305Y-91562520D01*
X88191284Y-91552174D01*
X88315516Y-91469165D01*
X88421165Y-91363516D01*
X88504174Y-91239284D01*
X88561351Y-91101246D01*
X88590500Y-90954706D01*
X88590500Y-90805294D01*
X88561351Y-90658754D01*
X88559611Y-90654554D01*
X88519616Y-90557997D01*
X88504174Y-90520716D01*
X88478324Y-90482029D01*
X88421166Y-90396485D01*
X88315514Y-90290833D01*
X88212938Y-90222294D01*
X116081500Y-90222294D01*
X116081500Y-90371705D01*
X116110649Y-90518248D01*
X116167824Y-90656280D01*
X116167828Y-90656288D01*
X116250833Y-90780514D01*
X116356485Y-90886166D01*
X116480711Y-90969171D01*
X116480713Y-90969172D01*
X116480716Y-90969174D01*
X116512108Y-90982177D01*
X116618751Y-91026350D01*
X116618752Y-91026350D01*
X116618754Y-91026351D01*
X116765294Y-91055500D01*
X116765295Y-91055500D01*
X116914705Y-91055500D01*
X116914706Y-91055500D01*
X117061246Y-91026351D01*
X117199284Y-90969174D01*
X117323516Y-90886165D01*
X117429165Y-90780516D01*
X117512174Y-90656284D01*
X117569351Y-90518246D01*
X117598500Y-90371706D01*
X117598500Y-90222294D01*
X117576159Y-90109978D01*
X117573238Y-90095294D01*
X119129500Y-90095294D01*
X119129500Y-90244705D01*
X119158649Y-90391248D01*
X119215824Y-90529280D01*
X119215828Y-90529288D01*
X119298833Y-90653514D01*
X119404485Y-90759166D01*
X119528711Y-90842171D01*
X119528713Y-90842172D01*
X119528716Y-90842174D01*
X119597735Y-90870762D01*
X119666751Y-90899350D01*
X119666752Y-90899350D01*
X119666754Y-90899351D01*
X119813294Y-90928500D01*
X119813295Y-90928500D01*
X119962705Y-90928500D01*
X119962706Y-90928500D01*
X120109246Y-90899351D01*
X120247284Y-90842174D01*
X120371516Y-90759165D01*
X120409323Y-90721357D01*
X120464718Y-90693132D01*
X120526127Y-90702857D01*
X120564100Y-90736601D01*
X120580797Y-90761589D01*
X120693411Y-90874203D01*
X120765375Y-90922287D01*
X120825827Y-90962680D01*
X120825829Y-90962681D01*
X120825832Y-90962683D01*
X120972969Y-91023630D01*
X121129170Y-91054700D01*
X121129171Y-91054700D01*
X121288429Y-91054700D01*
X121288430Y-91054700D01*
X121444631Y-91023630D01*
X121591768Y-90962683D01*
X121724189Y-90874203D01*
X121836803Y-90761589D01*
X121925283Y-90629168D01*
X121986230Y-90482031D01*
X122017300Y-90325830D01*
X122017300Y-90166570D01*
X121986230Y-90010369D01*
X121925283Y-89863232D01*
X121836803Y-89730811D01*
X121724189Y-89618197D01*
X121648538Y-89567649D01*
X121591772Y-89529719D01*
X121591764Y-89529715D01*
X121514777Y-89497826D01*
X121444631Y-89468770D01*
X121444627Y-89468769D01*
X121444630Y-89468769D01*
X121319499Y-89443879D01*
X121288430Y-89437700D01*
X121129170Y-89437700D01*
X121098101Y-89443879D01*
X120972970Y-89468769D01*
X120825835Y-89529715D01*
X120825827Y-89529719D01*
X120693410Y-89618198D01*
X120693403Y-89618203D01*
X120622278Y-89689328D01*
X120566881Y-89717555D01*
X120505472Y-89707828D01*
X120480009Y-89689328D01*
X120371514Y-89580833D01*
X120247288Y-89497828D01*
X120247280Y-89497824D01*
X120109248Y-89440649D01*
X120011552Y-89421216D01*
X119962706Y-89411500D01*
X119813294Y-89411500D01*
X119776659Y-89418787D01*
X119666751Y-89440649D01*
X119528719Y-89497824D01*
X119528711Y-89497828D01*
X119404485Y-89580833D01*
X119404484Y-89580835D01*
X119298835Y-89686484D01*
X119298833Y-89686485D01*
X119215828Y-89810711D01*
X119215824Y-89810719D01*
X119158649Y-89948751D01*
X119129500Y-90095294D01*
X117573238Y-90095294D01*
X117570230Y-90080174D01*
X117569351Y-90075754D01*
X117569350Y-90075751D01*
X117569350Y-90075750D01*
X117512175Y-89937719D01*
X117512174Y-89937716D01*
X117489084Y-89903160D01*
X117429166Y-89813485D01*
X117323514Y-89707833D01*
X117199288Y-89624828D01*
X117199280Y-89624824D01*
X117061248Y-89567649D01*
X116963552Y-89548216D01*
X116914706Y-89538500D01*
X116765294Y-89538500D01*
X116728659Y-89545787D01*
X116618751Y-89567649D01*
X116480719Y-89624824D01*
X116480711Y-89624828D01*
X116356485Y-89707833D01*
X116356484Y-89707835D01*
X116250835Y-89813484D01*
X116250833Y-89813485D01*
X116167828Y-89937711D01*
X116167824Y-89937719D01*
X116110649Y-90075751D01*
X116081500Y-90222294D01*
X88212938Y-90222294D01*
X88191288Y-90207828D01*
X88191280Y-90207824D01*
X88053248Y-90150649D01*
X87921335Y-90124410D01*
X87906706Y-90121500D01*
X87757294Y-90121500D01*
X87742665Y-90124410D01*
X87610751Y-90150649D01*
X87472719Y-90207824D01*
X87472711Y-90207828D01*
X87348485Y-90290833D01*
X87348484Y-90290835D01*
X87242835Y-90396484D01*
X87242833Y-90396485D01*
X87159828Y-90520711D01*
X87159824Y-90520719D01*
X87102649Y-90658751D01*
X87073500Y-90805294D01*
X87073500Y-90880430D01*
X87054287Y-90939561D01*
X87003987Y-90976106D01*
X86953275Y-90979097D01*
X86764254Y-90941500D01*
X86764253Y-90941500D01*
X86604004Y-90941500D01*
X86544873Y-90922287D01*
X86508328Y-90871987D01*
X86505337Y-90821274D01*
X86517691Y-90759166D01*
X86538500Y-90654555D01*
X86538500Y-90485445D01*
X86505508Y-90319585D01*
X86493599Y-90290835D01*
X86459215Y-90207824D01*
X86440793Y-90163348D01*
X86423422Y-90137351D01*
X86412831Y-90121500D01*
X86346841Y-90022738D01*
X86227262Y-89903159D01*
X86093055Y-89813485D01*
X86086656Y-89809209D01*
X86086648Y-89809205D01*
X85930417Y-89744492D01*
X85794995Y-89717555D01*
X85764555Y-89711500D01*
X85595445Y-89711500D01*
X85565005Y-89717555D01*
X85429582Y-89744492D01*
X85273351Y-89809205D01*
X85273343Y-89809209D01*
X85160630Y-89884522D01*
X85132738Y-89903159D01*
X85132737Y-89903160D01*
X85132736Y-89903160D01*
X85013160Y-90022736D01*
X85013160Y-90022737D01*
X84919209Y-90163343D01*
X84919205Y-90163351D01*
X84854492Y-90319582D01*
X84824669Y-90469515D01*
X84821500Y-90485445D01*
X84821500Y-90654555D01*
X84824694Y-90670610D01*
X84854492Y-90820417D01*
X84919205Y-90976648D01*
X84919209Y-90976656D01*
X84956140Y-91031927D01*
X85012848Y-91116797D01*
X85013160Y-91117263D01*
X85015104Y-91119632D01*
X85015614Y-91120935D01*
X85015905Y-91121371D01*
X85015809Y-91121434D01*
X85037761Y-91177532D01*
X85022058Y-91237690D01*
X85008471Y-91254581D01*
X84937809Y-91325244D01*
X84937807Y-91325246D01*
X84821971Y-91498607D01*
X84821967Y-91498615D01*
X84742177Y-91691244D01*
X84701500Y-91895747D01*
X83405806Y-91895747D01*
X83393886Y-91820492D01*
X83381205Y-91740426D01*
X83368522Y-91701390D01*
X83327288Y-91574483D01*
X83248078Y-91419027D01*
X83248074Y-91419019D01*
X83145517Y-91277861D01*
X83022139Y-91154483D01*
X83022137Y-91154481D01*
X82885900Y-91055500D01*
X82880981Y-91051926D01*
X82880975Y-91051923D01*
X82880972Y-91051921D01*
X82725516Y-90972711D01*
X82559583Y-90918797D01*
X82559569Y-90918794D01*
X82387245Y-90891500D01*
X82387241Y-90891500D01*
X81612759Y-90891500D01*
X81612754Y-90891500D01*
X81440430Y-90918794D01*
X81440416Y-90918797D01*
X81274483Y-90972711D01*
X81119027Y-91051921D01*
X81119016Y-91051928D01*
X80977862Y-91154481D01*
X80854481Y-91277862D01*
X80751928Y-91419016D01*
X80751921Y-91419027D01*
X80690735Y-91539111D01*
X80646771Y-91583075D01*
X80585362Y-91592800D01*
X80529965Y-91564573D01*
X80501738Y-91509176D01*
X80500500Y-91493439D01*
X80500500Y-88571294D01*
X87379500Y-88571294D01*
X87379500Y-88720705D01*
X87408649Y-88867248D01*
X87465824Y-89005280D01*
X87465828Y-89005288D01*
X87548833Y-89129514D01*
X87654485Y-89235166D01*
X87778711Y-89318171D01*
X87778713Y-89318172D01*
X87778716Y-89318174D01*
X87815219Y-89333294D01*
X87916751Y-89375350D01*
X87916752Y-89375350D01*
X87916754Y-89375351D01*
X88063294Y-89404500D01*
X88063295Y-89404500D01*
X88212705Y-89404500D01*
X88212706Y-89404500D01*
X88359246Y-89375351D01*
X88460781Y-89333294D01*
X90300500Y-89333294D01*
X90300500Y-89482705D01*
X90329649Y-89629248D01*
X90386824Y-89767280D01*
X90386828Y-89767288D01*
X90469833Y-89891514D01*
X90575485Y-89997166D01*
X90699711Y-90080171D01*
X90699713Y-90080172D01*
X90699716Y-90080174D01*
X90736219Y-90095294D01*
X90837751Y-90137350D01*
X90837752Y-90137350D01*
X90837754Y-90137351D01*
X90984294Y-90166500D01*
X90984295Y-90166500D01*
X91133705Y-90166500D01*
X91133706Y-90166500D01*
X91280246Y-90137351D01*
X91286847Y-90134616D01*
X91311490Y-90124410D01*
X91364217Y-90102569D01*
X91418284Y-90080174D01*
X91542516Y-89997165D01*
X91648165Y-89891516D01*
X91731174Y-89767284D01*
X91788351Y-89629246D01*
X91817500Y-89482706D01*
X91817500Y-89333294D01*
X91788351Y-89186754D01*
X91731174Y-89048716D01*
X91702156Y-89005288D01*
X91648166Y-88924485D01*
X91542514Y-88818833D01*
X91418288Y-88735828D01*
X91418280Y-88735824D01*
X91280248Y-88678649D01*
X91182552Y-88659216D01*
X91133706Y-88649500D01*
X90984294Y-88649500D01*
X90947659Y-88656787D01*
X90837751Y-88678649D01*
X90699719Y-88735824D01*
X90699711Y-88735828D01*
X90575485Y-88818833D01*
X90575484Y-88818835D01*
X90469835Y-88924484D01*
X90469833Y-88924485D01*
X90386828Y-89048711D01*
X90386824Y-89048719D01*
X90329649Y-89186751D01*
X90300500Y-89333294D01*
X88460781Y-89333294D01*
X88497284Y-89318174D01*
X88621516Y-89235165D01*
X88727165Y-89129516D01*
X88810174Y-89005284D01*
X88867351Y-88867246D01*
X88896500Y-88720706D01*
X88896500Y-88571294D01*
X88867351Y-88424754D01*
X88810174Y-88286716D01*
X88727165Y-88162484D01*
X88621516Y-88056835D01*
X88621514Y-88056833D01*
X88497288Y-87973828D01*
X88497280Y-87973824D01*
X88359248Y-87916649D01*
X88261552Y-87897216D01*
X88212706Y-87887500D01*
X88063294Y-87887500D01*
X88026659Y-87894787D01*
X87916751Y-87916649D01*
X87778719Y-87973824D01*
X87778711Y-87973828D01*
X87654485Y-88056833D01*
X87654484Y-88056835D01*
X87548835Y-88162484D01*
X87548833Y-88162485D01*
X87465828Y-88286711D01*
X87465824Y-88286719D01*
X87408649Y-88424751D01*
X87379500Y-88571294D01*
X80500500Y-88571294D01*
X80500500Y-86666294D01*
X87379500Y-86666294D01*
X87379500Y-86815706D01*
X87380848Y-86822483D01*
X87408649Y-86962248D01*
X87465824Y-87100280D01*
X87465828Y-87100288D01*
X87548833Y-87224514D01*
X87654485Y-87330166D01*
X87778711Y-87413171D01*
X87778713Y-87413172D01*
X87778716Y-87413174D01*
X87847735Y-87441762D01*
X87916751Y-87470350D01*
X87916752Y-87470350D01*
X87916754Y-87470351D01*
X88063294Y-87499500D01*
X88063295Y-87499500D01*
X88212705Y-87499500D01*
X88212706Y-87499500D01*
X88359246Y-87470351D01*
X88497284Y-87413174D01*
X88621516Y-87330165D01*
X88650387Y-87301294D01*
X94364500Y-87301294D01*
X94364500Y-87450706D01*
X94368408Y-87470351D01*
X94393649Y-87597248D01*
X94450824Y-87735280D01*
X94450828Y-87735288D01*
X94512849Y-87828110D01*
X94529725Y-87887950D01*
X94512849Y-87939890D01*
X94450828Y-88032711D01*
X94450824Y-88032719D01*
X94393649Y-88170751D01*
X94364500Y-88317294D01*
X94364500Y-88466705D01*
X94393649Y-88613248D01*
X94450824Y-88751280D01*
X94450828Y-88751288D01*
X94533833Y-88875514D01*
X94639485Y-88981166D01*
X94763711Y-89064171D01*
X94763713Y-89064172D01*
X94763716Y-89064174D01*
X94832735Y-89092762D01*
X94901751Y-89121350D01*
X94901752Y-89121350D01*
X94901754Y-89121351D01*
X95048294Y-89150500D01*
X95048295Y-89150500D01*
X95197705Y-89150500D01*
X95197706Y-89150500D01*
X95344246Y-89121351D01*
X95482284Y-89064174D01*
X95567501Y-89007234D01*
X95575110Y-89002150D01*
X95634949Y-88985274D01*
X95686890Y-89002150D01*
X95779711Y-89064171D01*
X95779713Y-89064172D01*
X95779716Y-89064174D01*
X95848735Y-89092762D01*
X95917751Y-89121350D01*
X95917752Y-89121350D01*
X95917754Y-89121351D01*
X96064294Y-89150500D01*
X96064295Y-89150500D01*
X96213705Y-89150500D01*
X96213706Y-89150500D01*
X96360246Y-89121351D01*
X96498284Y-89064174D01*
X96527610Y-89044578D01*
X96587449Y-89027702D01*
X96639389Y-89044578D01*
X96668716Y-89064174D01*
X96668717Y-89064174D01*
X96668718Y-89064175D01*
X96806751Y-89121350D01*
X96806752Y-89121350D01*
X96806754Y-89121351D01*
X96953294Y-89150500D01*
X96953295Y-89150500D01*
X97102705Y-89150500D01*
X97102706Y-89150500D01*
X97249246Y-89121351D01*
X97387284Y-89064174D01*
X97511516Y-88981165D01*
X97617165Y-88875516D01*
X97700174Y-88751284D01*
X97757351Y-88613246D01*
X97786500Y-88466706D01*
X97786500Y-88317294D01*
X97757351Y-88170754D01*
X97753925Y-88162484D01*
X97710164Y-88056835D01*
X97700174Y-88032716D01*
X97660826Y-87973828D01*
X97638150Y-87939890D01*
X97621274Y-87880051D01*
X97638150Y-87828110D01*
X97700171Y-87735288D01*
X97700174Y-87735284D01*
X97757351Y-87597246D01*
X97786500Y-87450706D01*
X97786500Y-87301294D01*
X97757351Y-87154754D01*
X97700174Y-87016716D01*
X97663778Y-86962246D01*
X97617166Y-86892485D01*
X97511514Y-86786833D01*
X97387288Y-86703828D01*
X97387280Y-86703824D01*
X97249248Y-86646649D01*
X97151552Y-86627216D01*
X97102706Y-86617500D01*
X96953294Y-86617500D01*
X96933743Y-86621389D01*
X96806751Y-86646649D01*
X96668719Y-86703824D01*
X96668705Y-86703831D01*
X96639389Y-86723420D01*
X96579549Y-86740296D01*
X96527611Y-86723420D01*
X96498294Y-86703831D01*
X96498280Y-86703824D01*
X96360248Y-86646649D01*
X96262552Y-86627216D01*
X96213706Y-86617500D01*
X96064294Y-86617500D01*
X96044743Y-86621389D01*
X95917751Y-86646649D01*
X95779719Y-86703824D01*
X95779711Y-86703828D01*
X95686890Y-86765849D01*
X95627050Y-86782725D01*
X95575110Y-86765849D01*
X95482288Y-86703828D01*
X95482280Y-86703824D01*
X95344248Y-86646649D01*
X95246552Y-86627216D01*
X95197706Y-86617500D01*
X95048294Y-86617500D01*
X95028743Y-86621389D01*
X94901751Y-86646649D01*
X94763719Y-86703824D01*
X94763711Y-86703828D01*
X94639485Y-86786833D01*
X94639484Y-86786835D01*
X94533835Y-86892484D01*
X94533833Y-86892485D01*
X94450828Y-87016711D01*
X94450824Y-87016719D01*
X94393649Y-87154751D01*
X94379772Y-87224516D01*
X94364500Y-87301294D01*
X88650387Y-87301294D01*
X88727165Y-87224516D01*
X88810174Y-87100284D01*
X88867351Y-86962246D01*
X88896500Y-86815706D01*
X88896500Y-86666294D01*
X88867351Y-86519754D01*
X88854597Y-86488964D01*
X88810175Y-86381719D01*
X88810174Y-86381716D01*
X88783522Y-86341829D01*
X88727166Y-86257485D01*
X88621514Y-86151833D01*
X88497288Y-86068828D01*
X88497280Y-86068824D01*
X88359248Y-86011649D01*
X88261552Y-85992216D01*
X88212706Y-85982500D01*
X88063294Y-85982500D01*
X88026659Y-85989787D01*
X87916751Y-86011649D01*
X87778719Y-86068824D01*
X87778711Y-86068828D01*
X87654485Y-86151833D01*
X87654484Y-86151835D01*
X87548835Y-86257484D01*
X87548833Y-86257485D01*
X87465828Y-86381711D01*
X87465824Y-86381719D01*
X87408649Y-86519751D01*
X87389206Y-86617500D01*
X87379500Y-86666294D01*
X80500500Y-86666294D01*
X80500500Y-83866560D01*
X80519713Y-83807429D01*
X80570013Y-83770884D01*
X80632187Y-83770884D01*
X80682487Y-83807429D01*
X80690735Y-83820888D01*
X80747130Y-83931570D01*
X80751926Y-83940981D01*
X80790083Y-83993500D01*
X80854481Y-84082137D01*
X80977862Y-84205518D01*
X81013150Y-84231156D01*
X81119019Y-84308074D01*
X81119027Y-84308078D01*
X81274483Y-84387288D01*
X81440416Y-84441202D01*
X81440418Y-84441202D01*
X81440426Y-84441205D01*
X81612755Y-84468499D01*
X81612757Y-84468500D01*
X81612759Y-84468500D01*
X82387243Y-84468500D01*
X82387243Y-84468499D01*
X82559574Y-84441205D01*
X82725516Y-84387288D01*
X82880981Y-84308074D01*
X83022139Y-84205517D01*
X83145517Y-84082139D01*
X83248074Y-83940981D01*
X83327288Y-83785516D01*
X83381205Y-83619574D01*
X83408500Y-83447241D01*
X83408500Y-83272759D01*
X83408499Y-83272752D01*
X83407516Y-83266542D01*
X83405806Y-83255747D01*
X84701500Y-83255747D01*
X84701500Y-83464253D01*
X84711267Y-83513356D01*
X84742177Y-83668755D01*
X84821967Y-83861384D01*
X84821971Y-83861392D01*
X84937807Y-84034753D01*
X85008470Y-84105416D01*
X85036696Y-84160814D01*
X85026970Y-84222222D01*
X85015114Y-84240353D01*
X85013167Y-84242725D01*
X84919209Y-84383343D01*
X84919205Y-84383351D01*
X84854492Y-84539582D01*
X84821500Y-84705445D01*
X84821500Y-84874554D01*
X84854492Y-85040417D01*
X84919205Y-85196648D01*
X84919209Y-85196656D01*
X84943113Y-85232430D01*
X85013159Y-85337262D01*
X85132738Y-85456841D01*
X85199845Y-85501680D01*
X85273343Y-85550790D01*
X85273345Y-85550791D01*
X85273348Y-85550793D01*
X85307167Y-85564801D01*
X85429582Y-85615507D01*
X85429583Y-85615507D01*
X85429585Y-85615508D01*
X85595445Y-85648500D01*
X85595446Y-85648500D01*
X85764554Y-85648500D01*
X85764555Y-85648500D01*
X85930415Y-85615508D01*
X86086652Y-85550793D01*
X86227262Y-85456841D01*
X86346841Y-85337262D01*
X86392255Y-85269294D01*
X90300500Y-85269294D01*
X90300500Y-85418706D01*
X90301848Y-85425483D01*
X90329649Y-85565248D01*
X90386824Y-85703280D01*
X90386828Y-85703288D01*
X90469833Y-85827514D01*
X90575485Y-85933166D01*
X90699711Y-86016171D01*
X90699713Y-86016172D01*
X90699716Y-86016174D01*
X90768735Y-86044762D01*
X90837751Y-86073350D01*
X90837752Y-86073350D01*
X90837754Y-86073351D01*
X90984294Y-86102500D01*
X90984295Y-86102500D01*
X91133705Y-86102500D01*
X91133706Y-86102500D01*
X91280246Y-86073351D01*
X91418284Y-86016174D01*
X91542516Y-85933165D01*
X91648165Y-85827516D01*
X91731174Y-85703284D01*
X91788351Y-85565246D01*
X91817500Y-85418706D01*
X91817500Y-85269294D01*
X91788351Y-85122754D01*
X91775597Y-85091964D01*
X91731175Y-84984719D01*
X91731174Y-84984716D01*
X91704522Y-84944829D01*
X91648166Y-84860485D01*
X91542517Y-84754836D01*
X91472533Y-84708074D01*
X91472531Y-84708072D01*
X91418288Y-84671828D01*
X91418280Y-84671824D01*
X91315787Y-84629370D01*
X107141500Y-84629370D01*
X107141500Y-84788629D01*
X107172569Y-84944829D01*
X107233515Y-85091964D01*
X107233519Y-85091972D01*
X107254085Y-85122751D01*
X107321997Y-85224389D01*
X107434611Y-85337003D01*
X107513202Y-85389515D01*
X107567027Y-85425480D01*
X107567029Y-85425481D01*
X107567032Y-85425483D01*
X107714169Y-85486430D01*
X107870370Y-85517500D01*
X107870371Y-85517500D01*
X108029629Y-85517500D01*
X108029630Y-85517500D01*
X108185831Y-85486430D01*
X108272404Y-85450569D01*
X108334384Y-85445691D01*
X108387396Y-85478177D01*
X108411190Y-85535618D01*
X108411500Y-85543512D01*
X108411500Y-85579629D01*
X108442569Y-85735829D01*
X108503515Y-85882964D01*
X108503519Y-85882972D01*
X108537057Y-85933165D01*
X108591997Y-86015389D01*
X108704611Y-86128003D01*
X108790855Y-86185629D01*
X108837027Y-86216480D01*
X108837029Y-86216481D01*
X108837032Y-86216483D01*
X108984169Y-86277430D01*
X109140370Y-86308500D01*
X109140371Y-86308500D01*
X109299629Y-86308500D01*
X109299630Y-86308500D01*
X109455831Y-86277430D01*
X109602968Y-86216483D01*
X109735389Y-86128003D01*
X109837022Y-86026370D01*
X156902900Y-86026370D01*
X156902900Y-86185629D01*
X156933969Y-86341829D01*
X156994915Y-86488964D01*
X156994919Y-86488972D01*
X157015485Y-86519751D01*
X157083397Y-86621389D01*
X157196011Y-86734003D01*
X157283493Y-86792456D01*
X157328427Y-86822480D01*
X157328429Y-86822481D01*
X157328432Y-86822483D01*
X157475569Y-86883430D01*
X157631770Y-86914500D01*
X157631771Y-86914500D01*
X157791029Y-86914500D01*
X157791030Y-86914500D01*
X157947231Y-86883430D01*
X158094368Y-86822483D01*
X158226789Y-86734003D01*
X158339403Y-86621389D01*
X158427883Y-86488968D01*
X158488830Y-86341831D01*
X158519900Y-86185630D01*
X158519900Y-86026370D01*
X158488830Y-85870169D01*
X158427883Y-85723032D01*
X158339403Y-85590611D01*
X158226789Y-85477997D01*
X158148197Y-85425484D01*
X158094372Y-85389519D01*
X158094364Y-85389515D01*
X158036990Y-85365750D01*
X157947231Y-85328570D01*
X157947227Y-85328569D01*
X157947230Y-85328569D01*
X157822099Y-85303679D01*
X157791030Y-85297500D01*
X157631770Y-85297500D01*
X157600701Y-85303679D01*
X157475570Y-85328569D01*
X157328435Y-85389515D01*
X157328427Y-85389519D01*
X157222278Y-85460445D01*
X157196011Y-85477997D01*
X157196010Y-85477998D01*
X157196009Y-85477998D01*
X157083398Y-85590609D01*
X157083398Y-85590610D01*
X156994919Y-85723027D01*
X156994915Y-85723035D01*
X156933969Y-85870170D01*
X156902900Y-86026370D01*
X109837022Y-86026370D01*
X109848003Y-86015389D01*
X109936483Y-85882968D01*
X109997430Y-85735831D01*
X110020659Y-85619047D01*
X110051038Y-85564801D01*
X110080828Y-85545731D01*
X110086185Y-85543512D01*
X110187168Y-85501683D01*
X110319589Y-85413203D01*
X110432203Y-85300589D01*
X110520683Y-85168168D01*
X110581630Y-85021031D01*
X110612700Y-84864830D01*
X110612700Y-84705570D01*
X110581630Y-84549369D01*
X110520683Y-84402232D01*
X110502735Y-84375370D01*
X142447500Y-84375370D01*
X142447500Y-84534629D01*
X142478569Y-84690829D01*
X142539515Y-84837964D01*
X142539519Y-84837972D01*
X142557465Y-84864830D01*
X142627997Y-84970389D01*
X142740611Y-85083003D01*
X142800099Y-85122751D01*
X142873027Y-85171480D01*
X142873029Y-85171481D01*
X142873032Y-85171483D01*
X143020169Y-85232430D01*
X143176370Y-85263500D01*
X143176371Y-85263500D01*
X143335629Y-85263500D01*
X143335630Y-85263500D01*
X143491831Y-85232430D01*
X143638968Y-85171483D01*
X143771389Y-85083003D01*
X143884003Y-84970389D01*
X143972483Y-84837968D01*
X144033430Y-84690831D01*
X144064500Y-84534630D01*
X144064500Y-84375370D01*
X144033430Y-84219169D01*
X143972483Y-84072032D01*
X143970269Y-84068719D01*
X143954449Y-84045043D01*
X143884003Y-83939611D01*
X143771389Y-83826997D01*
X143709308Y-83785516D01*
X143638972Y-83738519D01*
X143638964Y-83738515D01*
X143588478Y-83717603D01*
X143491831Y-83677570D01*
X143491827Y-83677569D01*
X143491830Y-83677569D01*
X143366699Y-83652679D01*
X143335630Y-83646500D01*
X143176370Y-83646500D01*
X143145301Y-83652679D01*
X143020170Y-83677569D01*
X142873035Y-83738515D01*
X142873027Y-83738519D01*
X142802692Y-83785516D01*
X142740611Y-83826997D01*
X142740610Y-83826998D01*
X142740609Y-83826998D01*
X142627998Y-83939609D01*
X142627998Y-83939610D01*
X142627997Y-83939611D01*
X142612750Y-83962430D01*
X142539519Y-84072027D01*
X142539515Y-84072035D01*
X142478569Y-84219170D01*
X142447500Y-84375370D01*
X110502735Y-84375370D01*
X110432203Y-84269811D01*
X110319589Y-84157197D01*
X110275847Y-84127970D01*
X110187172Y-84068719D01*
X110187164Y-84068715D01*
X110136678Y-84047803D01*
X110040031Y-84007770D01*
X110040027Y-84007769D01*
X110040030Y-84007769D01*
X109914899Y-83982879D01*
X109883830Y-83976700D01*
X109724570Y-83976700D01*
X109693501Y-83982879D01*
X109568370Y-84007769D01*
X109421235Y-84068715D01*
X109421227Y-84068719D01*
X109315078Y-84139645D01*
X109288811Y-84157197D01*
X109288810Y-84157198D01*
X109288809Y-84157198D01*
X109176198Y-84269809D01*
X109176198Y-84269810D01*
X109087719Y-84402227D01*
X109087715Y-84402235D01*
X109026769Y-84549371D01*
X109003540Y-84666152D01*
X108994817Y-84681727D01*
X108990650Y-84699087D01*
X108980002Y-84708181D01*
X108973160Y-84720399D01*
X108943373Y-84739467D01*
X108897600Y-84758428D01*
X108835618Y-84763308D01*
X108782605Y-84730823D01*
X108758810Y-84673382D01*
X108758500Y-84665487D01*
X108758500Y-84629370D01*
X108739655Y-84534629D01*
X108727430Y-84473169D01*
X108666483Y-84326032D01*
X108578003Y-84193611D01*
X108465389Y-84080997D01*
X108421647Y-84051770D01*
X108332972Y-83992519D01*
X108332964Y-83992515D01*
X108282478Y-83971603D01*
X108185831Y-83931570D01*
X108185827Y-83931569D01*
X108185830Y-83931569D01*
X108060699Y-83906679D01*
X108029630Y-83900500D01*
X107870370Y-83900500D01*
X107839301Y-83906679D01*
X107714170Y-83931569D01*
X107567035Y-83992515D01*
X107567027Y-83992519D01*
X107460878Y-84063445D01*
X107434611Y-84080997D01*
X107434610Y-84080998D01*
X107434609Y-84080998D01*
X107321998Y-84193609D01*
X107321998Y-84193610D01*
X107233519Y-84326027D01*
X107233515Y-84326035D01*
X107172569Y-84473170D01*
X107141500Y-84629370D01*
X91315787Y-84629370D01*
X91280248Y-84614649D01*
X91182552Y-84595216D01*
X91133706Y-84585500D01*
X90984294Y-84585500D01*
X90947659Y-84592787D01*
X90837751Y-84614649D01*
X90699719Y-84671824D01*
X90699711Y-84671828D01*
X90575485Y-84754833D01*
X90575484Y-84754835D01*
X90469835Y-84860484D01*
X90469833Y-84860485D01*
X90386828Y-84984711D01*
X90386824Y-84984719D01*
X90329649Y-85122751D01*
X90300500Y-85269294D01*
X86392255Y-85269294D01*
X86440793Y-85196652D01*
X86505508Y-85040415D01*
X86538500Y-84874555D01*
X86538500Y-84705445D01*
X86505508Y-84539585D01*
X86505507Y-84539582D01*
X86505337Y-84538726D01*
X86512645Y-84476983D01*
X86554849Y-84431327D01*
X86604004Y-84418500D01*
X86764252Y-84418500D01*
X86764253Y-84418500D01*
X86968753Y-84377823D01*
X87161388Y-84298031D01*
X87334755Y-84182191D01*
X87482191Y-84034755D01*
X87598031Y-83861388D01*
X87677823Y-83668753D01*
X87718500Y-83464253D01*
X87718500Y-83255747D01*
X87677823Y-83051247D01*
X87598031Y-82858612D01*
X87582064Y-82834716D01*
X87482192Y-82685246D01*
X87394316Y-82597370D01*
X103712500Y-82597370D01*
X103712500Y-82756629D01*
X103743569Y-82912829D01*
X103804515Y-83059964D01*
X103804519Y-83059972D01*
X103834853Y-83105370D01*
X103892997Y-83192389D01*
X104005611Y-83305003D01*
X104046303Y-83332192D01*
X104138027Y-83393480D01*
X104138029Y-83393481D01*
X104138032Y-83393483D01*
X104285169Y-83454430D01*
X104441370Y-83485500D01*
X104441371Y-83485500D01*
X104600629Y-83485500D01*
X104600630Y-83485500D01*
X104756831Y-83454430D01*
X104903968Y-83393483D01*
X105036389Y-83305003D01*
X105149003Y-83192389D01*
X105207147Y-83105370D01*
X111713500Y-83105370D01*
X111713500Y-83264630D01*
X111715116Y-83272752D01*
X111744569Y-83420829D01*
X111805515Y-83567964D01*
X111805519Y-83567972D01*
X111839995Y-83619569D01*
X111893997Y-83700389D01*
X112006611Y-83813003D01*
X112079019Y-83861384D01*
X112139027Y-83901480D01*
X112139029Y-83901481D01*
X112139032Y-83901483D01*
X112286169Y-83962430D01*
X112442370Y-83993500D01*
X112442371Y-83993500D01*
X112601629Y-83993500D01*
X112601630Y-83993500D01*
X112757831Y-83962430D01*
X112904968Y-83901483D01*
X113037389Y-83813003D01*
X113150003Y-83700389D01*
X113238483Y-83567968D01*
X113299430Y-83420831D01*
X113330500Y-83264630D01*
X113330500Y-83105370D01*
X113321468Y-83059964D01*
X113303718Y-82970726D01*
X113311026Y-82908983D01*
X113353230Y-82863327D01*
X113402385Y-82850500D01*
X113490629Y-82850500D01*
X113490630Y-82850500D01*
X113646831Y-82819430D01*
X113793968Y-82758483D01*
X113926389Y-82670003D01*
X114039003Y-82557389D01*
X114127483Y-82424968D01*
X114129719Y-82419570D01*
X123981700Y-82419570D01*
X123981700Y-82578829D01*
X124012769Y-82735029D01*
X124073715Y-82882164D01*
X124073719Y-82882172D01*
X124091634Y-82908983D01*
X124162197Y-83014589D01*
X124274811Y-83127203D01*
X124362293Y-83185656D01*
X124407227Y-83215680D01*
X124407229Y-83215681D01*
X124407232Y-83215683D01*
X124554369Y-83276630D01*
X124710570Y-83307700D01*
X124710571Y-83307700D01*
X124869829Y-83307700D01*
X124869830Y-83307700D01*
X125026031Y-83276630D01*
X125173168Y-83215683D01*
X125305589Y-83127203D01*
X125418203Y-83014589D01*
X125506683Y-82882168D01*
X125567630Y-82735031D01*
X125598700Y-82578830D01*
X125598700Y-82419570D01*
X125567630Y-82263369D01*
X125506683Y-82116232D01*
X125418203Y-81983811D01*
X125357663Y-81923271D01*
X126888500Y-81923271D01*
X126888500Y-82160728D01*
X126925642Y-82395234D01*
X126925646Y-82395250D01*
X126999018Y-82621065D01*
X126999019Y-82621067D01*
X127106807Y-82832614D01*
X127106812Y-82832622D01*
X127106815Y-82832627D01*
X127162291Y-82908983D01*
X127246378Y-83024720D01*
X127414279Y-83192621D01*
X127446023Y-83215684D01*
X127606373Y-83332185D01*
X127606379Y-83332188D01*
X127606385Y-83332192D01*
X127817932Y-83439980D01*
X127817934Y-83439981D01*
X128043749Y-83513353D01*
X128043752Y-83513353D01*
X128043759Y-83513356D01*
X128043764Y-83513356D01*
X128043765Y-83513357D01*
X128278271Y-83550499D01*
X128278276Y-83550500D01*
X128278278Y-83550500D01*
X128515724Y-83550500D01*
X128515728Y-83550499D01*
X128750241Y-83513356D01*
X128976063Y-83439982D01*
X129067329Y-83393480D01*
X129187614Y-83332192D01*
X129187616Y-83332190D01*
X129187627Y-83332185D01*
X129379722Y-83192620D01*
X129547620Y-83024722D01*
X129687185Y-82832627D01*
X129693910Y-82819430D01*
X129794980Y-82621067D01*
X129794981Y-82621065D01*
X129808705Y-82578829D01*
X129868356Y-82395241D01*
X129905500Y-82160722D01*
X129905500Y-81923278D01*
X129868356Y-81688759D01*
X129858695Y-81659027D01*
X129794981Y-81462934D01*
X129794980Y-81462932D01*
X129687192Y-81251385D01*
X129687188Y-81251379D01*
X129687185Y-81251373D01*
X129547620Y-81059278D01*
X129379722Y-80891380D01*
X129379720Y-80891378D01*
X129240439Y-80790185D01*
X129187627Y-80751815D01*
X129187622Y-80751812D01*
X129187614Y-80751807D01*
X128976067Y-80644019D01*
X128976065Y-80644018D01*
X128750250Y-80570646D01*
X128750234Y-80570642D01*
X128515728Y-80533500D01*
X128515722Y-80533500D01*
X128278278Y-80533500D01*
X128278271Y-80533500D01*
X128043765Y-80570642D01*
X128043749Y-80570646D01*
X127817934Y-80644018D01*
X127817932Y-80644019D01*
X127606385Y-80751807D01*
X127606370Y-80751817D01*
X127414279Y-80891378D01*
X127246378Y-81059279D01*
X127106817Y-81251370D01*
X127106807Y-81251385D01*
X126999019Y-81462932D01*
X126999018Y-81462934D01*
X126925646Y-81688749D01*
X126925642Y-81688765D01*
X126888500Y-81923271D01*
X125357663Y-81923271D01*
X125305589Y-81871197D01*
X125261847Y-81841970D01*
X125173172Y-81782719D01*
X125173164Y-81782715D01*
X125122678Y-81761803D01*
X125026031Y-81721770D01*
X125026027Y-81721769D01*
X125026030Y-81721769D01*
X124900899Y-81696879D01*
X124869830Y-81690700D01*
X124710570Y-81690700D01*
X124679501Y-81696879D01*
X124554370Y-81721769D01*
X124407235Y-81782715D01*
X124407227Y-81782719D01*
X124301078Y-81853645D01*
X124274811Y-81871197D01*
X124274810Y-81871198D01*
X124274809Y-81871198D01*
X124162198Y-81983809D01*
X124162198Y-81983810D01*
X124073719Y-82116227D01*
X124073715Y-82116235D01*
X124012769Y-82263370D01*
X123981700Y-82419570D01*
X114129719Y-82419570D01*
X114139797Y-82395241D01*
X114147713Y-82376130D01*
X114165697Y-82332712D01*
X114188430Y-82277831D01*
X114219500Y-82121630D01*
X114219500Y-81962370D01*
X114188430Y-81806169D01*
X114127483Y-81659032D01*
X114039003Y-81526611D01*
X113926389Y-81413997D01*
X113882647Y-81384770D01*
X113793972Y-81325519D01*
X113793964Y-81325515D01*
X113743478Y-81304603D01*
X113646831Y-81264570D01*
X113646827Y-81264569D01*
X113646830Y-81264569D01*
X113521699Y-81239679D01*
X113490630Y-81233500D01*
X113331370Y-81233500D01*
X113300301Y-81239679D01*
X113175170Y-81264569D01*
X113028035Y-81325515D01*
X113028027Y-81325519D01*
X112921878Y-81396445D01*
X112895611Y-81413997D01*
X112895610Y-81413998D01*
X112895609Y-81413998D01*
X112782998Y-81526609D01*
X112782998Y-81526610D01*
X112694519Y-81659027D01*
X112694515Y-81659035D01*
X112633569Y-81806170D01*
X112610277Y-81923271D01*
X112602500Y-81962370D01*
X112602500Y-82121630D01*
X112610453Y-82161611D01*
X112629282Y-82256274D01*
X112621974Y-82318017D01*
X112579770Y-82363673D01*
X112530615Y-82376500D01*
X112442370Y-82376500D01*
X112411301Y-82382679D01*
X112286170Y-82407569D01*
X112139035Y-82468515D01*
X112139027Y-82468519D01*
X112070241Y-82514481D01*
X112006611Y-82556997D01*
X112006610Y-82556998D01*
X112006609Y-82556998D01*
X111893998Y-82669609D01*
X111893998Y-82669610D01*
X111893997Y-82669611D01*
X111893735Y-82670003D01*
X111805519Y-82802027D01*
X111805515Y-82802035D01*
X111744569Y-82949170D01*
X111722531Y-83059968D01*
X111713500Y-83105370D01*
X105207147Y-83105370D01*
X105237483Y-83059968D01*
X105298430Y-82912831D01*
X105329500Y-82756630D01*
X105329500Y-82597370D01*
X105298430Y-82441169D01*
X105237483Y-82294032D01*
X105227303Y-82278797D01*
X105219449Y-82267043D01*
X105149003Y-82161611D01*
X105036389Y-82048997D01*
X105024530Y-82041073D01*
X104906742Y-81962370D01*
X108411500Y-81962370D01*
X108411500Y-82121629D01*
X108442569Y-82277829D01*
X108503515Y-82424964D01*
X108503519Y-82424972D01*
X108539101Y-82478224D01*
X108591997Y-82557389D01*
X108704611Y-82670003D01*
X108792093Y-82728456D01*
X108837027Y-82758480D01*
X108837029Y-82758481D01*
X108837032Y-82758483D01*
X108984169Y-82819430D01*
X109140370Y-82850500D01*
X109140371Y-82850500D01*
X109299629Y-82850500D01*
X109299630Y-82850500D01*
X109455831Y-82819430D01*
X109602968Y-82758483D01*
X109735389Y-82670003D01*
X109848003Y-82557389D01*
X109936483Y-82424968D01*
X109997430Y-82277831D01*
X110028500Y-82121630D01*
X110028500Y-81962370D01*
X109997430Y-81806169D01*
X109936483Y-81659032D01*
X109848003Y-81526611D01*
X109735389Y-81413997D01*
X109691647Y-81384770D01*
X109602972Y-81325519D01*
X109602964Y-81325515D01*
X109552478Y-81304603D01*
X109455831Y-81264570D01*
X109455827Y-81264569D01*
X109455830Y-81264569D01*
X109330699Y-81239679D01*
X109299630Y-81233500D01*
X109140370Y-81233500D01*
X109109301Y-81239679D01*
X108984170Y-81264569D01*
X108837035Y-81325515D01*
X108837027Y-81325519D01*
X108730878Y-81396445D01*
X108704611Y-81413997D01*
X108704610Y-81413998D01*
X108704609Y-81413998D01*
X108591998Y-81526609D01*
X108591998Y-81526610D01*
X108503519Y-81659027D01*
X108503515Y-81659035D01*
X108442569Y-81806170D01*
X108411500Y-81962370D01*
X104906742Y-81962370D01*
X104903972Y-81960519D01*
X104903964Y-81960515D01*
X104814066Y-81923278D01*
X104756831Y-81899570D01*
X104756827Y-81899569D01*
X104756830Y-81899569D01*
X104631699Y-81874679D01*
X104600630Y-81868500D01*
X104441370Y-81868500D01*
X104410301Y-81874679D01*
X104285170Y-81899569D01*
X104138035Y-81960515D01*
X104138027Y-81960519D01*
X104031878Y-82031445D01*
X104005611Y-82048997D01*
X104005610Y-82048998D01*
X104005609Y-82048998D01*
X103892998Y-82161609D01*
X103892998Y-82161610D01*
X103804519Y-82294027D01*
X103804515Y-82294035D01*
X103743569Y-82441170D01*
X103712500Y-82597370D01*
X87394316Y-82597370D01*
X87334753Y-82537807D01*
X87161392Y-82421971D01*
X87161384Y-82421967D01*
X86968755Y-82342177D01*
X86832419Y-82315059D01*
X86764253Y-82301500D01*
X85655747Y-82301500D01*
X85604622Y-82311669D01*
X85451244Y-82342177D01*
X85258615Y-82421967D01*
X85258607Y-82421971D01*
X85085246Y-82537807D01*
X85085245Y-82537809D01*
X84937809Y-82685245D01*
X84937807Y-82685246D01*
X84821971Y-82858607D01*
X84821967Y-82858615D01*
X84742177Y-83051244D01*
X84714056Y-83192621D01*
X84701500Y-83255747D01*
X83405806Y-83255747D01*
X83385446Y-83127203D01*
X83381205Y-83100426D01*
X83368060Y-83059968D01*
X83327288Y-82934483D01*
X83248078Y-82779027D01*
X83248074Y-82779019D01*
X83145517Y-82637861D01*
X83022139Y-82514483D01*
X83022137Y-82514481D01*
X82921232Y-82441170D01*
X82880981Y-82411926D01*
X82880975Y-82411923D01*
X82880972Y-82411921D01*
X82725516Y-82332711D01*
X82559583Y-82278797D01*
X82559569Y-82278794D01*
X82387245Y-82251500D01*
X82387241Y-82251500D01*
X81612759Y-82251500D01*
X81612754Y-82251500D01*
X81440430Y-82278794D01*
X81440416Y-82278797D01*
X81274483Y-82332711D01*
X81119027Y-82411921D01*
X81119016Y-82411928D01*
X80977862Y-82514481D01*
X80854481Y-82637862D01*
X80751928Y-82779016D01*
X80751921Y-82779027D01*
X80690735Y-82899111D01*
X80646771Y-82943075D01*
X80585362Y-82952800D01*
X80529965Y-82924573D01*
X80501738Y-82869176D01*
X80500500Y-82853439D01*
X80500500Y-79381271D01*
X104917500Y-79381271D01*
X104917500Y-79618728D01*
X104954642Y-79853234D01*
X104954646Y-79853250D01*
X105028018Y-80079065D01*
X105028019Y-80079067D01*
X105135807Y-80290614D01*
X105135812Y-80290622D01*
X105135815Y-80290627D01*
X105205597Y-80386674D01*
X105275378Y-80482720D01*
X105275380Y-80482722D01*
X105443278Y-80650620D01*
X105635373Y-80790185D01*
X105635379Y-80790188D01*
X105635385Y-80790192D01*
X105846932Y-80897980D01*
X105846934Y-80897981D01*
X106072749Y-80971353D01*
X106072752Y-80971353D01*
X106072759Y-80971356D01*
X106072764Y-80971356D01*
X106072765Y-80971357D01*
X106307271Y-81008499D01*
X106307276Y-81008500D01*
X106307278Y-81008500D01*
X106544724Y-81008500D01*
X106544728Y-81008499D01*
X106779241Y-80971356D01*
X107005063Y-80897982D01*
X107018024Y-80891378D01*
X107216614Y-80790192D01*
X107216616Y-80790190D01*
X107216627Y-80790185D01*
X107408722Y-80650620D01*
X107576620Y-80482722D01*
X107716185Y-80290627D01*
X107823982Y-80079063D01*
X107897356Y-79853241D01*
X107934500Y-79618722D01*
X107934500Y-79381278D01*
X107897356Y-79146759D01*
X107823982Y-78920937D01*
X107823981Y-78920936D01*
X107823981Y-78920934D01*
X107823980Y-78920932D01*
X107776681Y-78828101D01*
X107776680Y-78828100D01*
X107755927Y-78787370D01*
X111205500Y-78787370D01*
X111205500Y-78946630D01*
X111209188Y-78965170D01*
X111236569Y-79102829D01*
X111297515Y-79249964D01*
X111297519Y-79249972D01*
X111318004Y-79280629D01*
X111385997Y-79382389D01*
X111498611Y-79495003D01*
X111586093Y-79553456D01*
X111631027Y-79583480D01*
X111631029Y-79583481D01*
X111631032Y-79583483D01*
X111778169Y-79644430D01*
X111934370Y-79675500D01*
X111934371Y-79675500D01*
X112093629Y-79675500D01*
X112093630Y-79675500D01*
X112249831Y-79644430D01*
X112396968Y-79583483D01*
X112529389Y-79495003D01*
X112642003Y-79382389D01*
X112730483Y-79249968D01*
X112791430Y-79102831D01*
X112818812Y-78965170D01*
X115929900Y-78965170D01*
X115929900Y-79124430D01*
X115934343Y-79146765D01*
X115960969Y-79280629D01*
X116021915Y-79427764D01*
X116021919Y-79427772D01*
X116055156Y-79477514D01*
X116110397Y-79560189D01*
X116223011Y-79672803D01*
X116298661Y-79723350D01*
X116355427Y-79761280D01*
X116355429Y-79761281D01*
X116355432Y-79761283D01*
X116502569Y-79822230D01*
X116658770Y-79853300D01*
X116658771Y-79853300D01*
X116818029Y-79853300D01*
X116818030Y-79853300D01*
X116974231Y-79822230D01*
X117121368Y-79761283D01*
X117253789Y-79672803D01*
X117366403Y-79560189D01*
X117454883Y-79427768D01*
X117515830Y-79280631D01*
X117546900Y-79124430D01*
X117546900Y-78965170D01*
X117546900Y-78965168D01*
X117540696Y-78933976D01*
X117537775Y-78919294D01*
X124717500Y-78919294D01*
X124717500Y-79068705D01*
X124746649Y-79215248D01*
X124803824Y-79353280D01*
X124803828Y-79353288D01*
X124886833Y-79477514D01*
X124992485Y-79583166D01*
X125116711Y-79666171D01*
X125116713Y-79666172D01*
X125116716Y-79666174D01*
X125132720Y-79672803D01*
X125254751Y-79723350D01*
X125254752Y-79723350D01*
X125254754Y-79723351D01*
X125401294Y-79752500D01*
X125401295Y-79752500D01*
X125550705Y-79752500D01*
X125550706Y-79752500D01*
X125697246Y-79723351D01*
X125835284Y-79666174D01*
X125959516Y-79583165D01*
X126065165Y-79477516D01*
X126148174Y-79353284D01*
X126205351Y-79215246D01*
X126234500Y-79068706D01*
X126234500Y-78919294D01*
X126205351Y-78772754D01*
X126148174Y-78634716D01*
X126077810Y-78529409D01*
X126065166Y-78510485D01*
X125959514Y-78404833D01*
X125835288Y-78321828D01*
X125835280Y-78321824D01*
X125697248Y-78264649D01*
X125568286Y-78238997D01*
X125550706Y-78235500D01*
X125401294Y-78235500D01*
X125383714Y-78238997D01*
X125254751Y-78264649D01*
X125116719Y-78321824D01*
X125116711Y-78321828D01*
X124992485Y-78404833D01*
X124992484Y-78404835D01*
X124886835Y-78510484D01*
X124886833Y-78510485D01*
X124803828Y-78634711D01*
X124803824Y-78634719D01*
X124746649Y-78772751D01*
X124717500Y-78919294D01*
X117537775Y-78919294D01*
X117524017Y-78850132D01*
X117515830Y-78808969D01*
X117454883Y-78661832D01*
X117366403Y-78529411D01*
X117253789Y-78416797D01*
X117210047Y-78387570D01*
X117121372Y-78328319D01*
X117121364Y-78328315D01*
X117070878Y-78307403D01*
X116974231Y-78267370D01*
X116974227Y-78267369D01*
X116974230Y-78267369D01*
X116849099Y-78242479D01*
X116818030Y-78236300D01*
X116658770Y-78236300D01*
X116627701Y-78242479D01*
X116502570Y-78267369D01*
X116355435Y-78328315D01*
X116355427Y-78328319D01*
X116249278Y-78399245D01*
X116223011Y-78416797D01*
X116223010Y-78416798D01*
X116223009Y-78416798D01*
X116110398Y-78529409D01*
X116110398Y-78529410D01*
X116021919Y-78661827D01*
X116021915Y-78661835D01*
X115960969Y-78808970D01*
X115957164Y-78828101D01*
X115929900Y-78965170D01*
X112818812Y-78965170D01*
X112822500Y-78946630D01*
X112822500Y-78787370D01*
X112791430Y-78631169D01*
X112730483Y-78484032D01*
X112642003Y-78351611D01*
X112529389Y-78238997D01*
X112485647Y-78209770D01*
X112396972Y-78150519D01*
X112396964Y-78150515D01*
X112346478Y-78129603D01*
X112249831Y-78089570D01*
X112249827Y-78089569D01*
X112249830Y-78089569D01*
X112124699Y-78064679D01*
X112093630Y-78058500D01*
X111934370Y-78058500D01*
X111903301Y-78064679D01*
X111778170Y-78089569D01*
X111631035Y-78150515D01*
X111631027Y-78150519D01*
X111542297Y-78209807D01*
X111498611Y-78238997D01*
X111498610Y-78238998D01*
X111498609Y-78238998D01*
X111385998Y-78351609D01*
X111385998Y-78351610D01*
X111297519Y-78484027D01*
X111297515Y-78484035D01*
X111236569Y-78631170D01*
X111221012Y-78709385D01*
X111205500Y-78787370D01*
X107755927Y-78787370D01*
X107716189Y-78709381D01*
X107716185Y-78709373D01*
X107585435Y-78529411D01*
X107576621Y-78517279D01*
X107408720Y-78349378D01*
X107295843Y-78267369D01*
X107216627Y-78209815D01*
X107216622Y-78209812D01*
X107216614Y-78209807D01*
X107005067Y-78102019D01*
X107005065Y-78102018D01*
X106779250Y-78028646D01*
X106779234Y-78028642D01*
X106544728Y-77991500D01*
X106544722Y-77991500D01*
X106307278Y-77991500D01*
X106307271Y-77991500D01*
X106072765Y-78028642D01*
X106072749Y-78028646D01*
X105846934Y-78102018D01*
X105846932Y-78102019D01*
X105635385Y-78209807D01*
X105635370Y-78209817D01*
X105443279Y-78349378D01*
X105275378Y-78517279D01*
X105135817Y-78709370D01*
X105135807Y-78709385D01*
X105028019Y-78920932D01*
X105028018Y-78920934D01*
X104954646Y-79146749D01*
X104954642Y-79146765D01*
X104917500Y-79381271D01*
X80500500Y-79381271D01*
X80500500Y-74881271D01*
X83491500Y-74881271D01*
X83491500Y-75118728D01*
X83528642Y-75353234D01*
X83528646Y-75353250D01*
X83602018Y-75579065D01*
X83602019Y-75579067D01*
X83709807Y-75790614D01*
X83709812Y-75790622D01*
X83709815Y-75790627D01*
X83717229Y-75800831D01*
X83849378Y-75982720D01*
X83849380Y-75982722D01*
X84017278Y-76150620D01*
X84209373Y-76290185D01*
X84209379Y-76290188D01*
X84209385Y-76290192D01*
X84420932Y-76397980D01*
X84420934Y-76397981D01*
X84646749Y-76471353D01*
X84646752Y-76471353D01*
X84646759Y-76471356D01*
X84646764Y-76471356D01*
X84646765Y-76471357D01*
X84881271Y-76508499D01*
X84881276Y-76508500D01*
X84881278Y-76508500D01*
X85118724Y-76508500D01*
X85118728Y-76508499D01*
X85132650Y-76506294D01*
X108842500Y-76506294D01*
X108842500Y-76655705D01*
X108871649Y-76802248D01*
X108928824Y-76940280D01*
X108928828Y-76940288D01*
X109011833Y-77064514D01*
X109117485Y-77170166D01*
X109241711Y-77253171D01*
X109241713Y-77253172D01*
X109241716Y-77253174D01*
X109310735Y-77281762D01*
X109379751Y-77310350D01*
X109379752Y-77310350D01*
X109379754Y-77310351D01*
X109526294Y-77339500D01*
X109526295Y-77339500D01*
X109675705Y-77339500D01*
X109675706Y-77339500D01*
X109822246Y-77310351D01*
X109960284Y-77253174D01*
X110084516Y-77170165D01*
X110190165Y-77064516D01*
X110273174Y-76940284D01*
X110330351Y-76802246D01*
X110359500Y-76655706D01*
X110359500Y-76633294D01*
X120653500Y-76633294D01*
X120653500Y-76782705D01*
X120682649Y-76929248D01*
X120739824Y-77067280D01*
X120739828Y-77067288D01*
X120822833Y-77191514D01*
X120928485Y-77297166D01*
X121052711Y-77380171D01*
X121052713Y-77380172D01*
X121052716Y-77380174D01*
X121121735Y-77408762D01*
X121190751Y-77437350D01*
X121190752Y-77437350D01*
X121190754Y-77437351D01*
X121337294Y-77466500D01*
X121337295Y-77466500D01*
X121486705Y-77466500D01*
X121486706Y-77466500D01*
X121633246Y-77437351D01*
X121771284Y-77380174D01*
X121895516Y-77297165D01*
X122001165Y-77191516D01*
X122084174Y-77067284D01*
X122141351Y-76929246D01*
X122170500Y-76782706D01*
X122170500Y-76633294D01*
X122141351Y-76486754D01*
X122134973Y-76471357D01*
X122084175Y-76348719D01*
X122084174Y-76348716D01*
X122064987Y-76320001D01*
X122001166Y-76224485D01*
X121895514Y-76118833D01*
X121771288Y-76035828D01*
X121771280Y-76035824D01*
X121633248Y-75978649D01*
X121535552Y-75959216D01*
X121486706Y-75949500D01*
X121337294Y-75949500D01*
X121300659Y-75956787D01*
X121190751Y-75978649D01*
X121052719Y-76035824D01*
X121052711Y-76035828D01*
X120928485Y-76118833D01*
X120928484Y-76118835D01*
X120822835Y-76224484D01*
X120822833Y-76224485D01*
X120739828Y-76348711D01*
X120739824Y-76348719D01*
X120682649Y-76486751D01*
X120653500Y-76633294D01*
X110359500Y-76633294D01*
X110359500Y-76506294D01*
X110330351Y-76359754D01*
X110273174Y-76221716D01*
X110253987Y-76193001D01*
X110190166Y-76097485D01*
X110084514Y-75991833D01*
X109960288Y-75908828D01*
X109960280Y-75908824D01*
X109822248Y-75851649D01*
X109724552Y-75832216D01*
X109675706Y-75822500D01*
X109526294Y-75822500D01*
X109489659Y-75829787D01*
X109379751Y-75851649D01*
X109241719Y-75908824D01*
X109241711Y-75908828D01*
X109117485Y-75991833D01*
X109117484Y-75991835D01*
X109011835Y-76097484D01*
X109011833Y-76097485D01*
X108928828Y-76221711D01*
X108928824Y-76221719D01*
X108871649Y-76359751D01*
X108842500Y-76506294D01*
X85132650Y-76506294D01*
X85256040Y-76486751D01*
X85353241Y-76471356D01*
X85579063Y-76397982D01*
X85654096Y-76359751D01*
X85790614Y-76290192D01*
X85790616Y-76290190D01*
X85790627Y-76290185D01*
X85982722Y-76150620D01*
X86150620Y-75982722D01*
X86290185Y-75790627D01*
X86299865Y-75771630D01*
X86381011Y-75612370D01*
X97108500Y-75612370D01*
X97108500Y-75771629D01*
X97139569Y-75927829D01*
X97200515Y-76074964D01*
X97200519Y-76074972D01*
X97215562Y-76097485D01*
X97288997Y-76207389D01*
X97401611Y-76320003D01*
X97444588Y-76348719D01*
X97534027Y-76408480D01*
X97534029Y-76408481D01*
X97534032Y-76408483D01*
X97681169Y-76469430D01*
X97837370Y-76500500D01*
X97837371Y-76500500D01*
X97996629Y-76500500D01*
X97996630Y-76500500D01*
X98152831Y-76469430D01*
X98299968Y-76408483D01*
X98432389Y-76320003D01*
X98545003Y-76207389D01*
X98633483Y-76074968D01*
X98694430Y-75927831D01*
X98725500Y-75771630D01*
X98725500Y-75612370D01*
X98700238Y-75485370D01*
X103331500Y-75485370D01*
X103331500Y-75644629D01*
X103362569Y-75800829D01*
X103423515Y-75947964D01*
X103423519Y-75947972D01*
X103452826Y-75991833D01*
X103511997Y-76080389D01*
X103624611Y-76193003D01*
X103671728Y-76224485D01*
X103757027Y-76281480D01*
X103757029Y-76281481D01*
X103757032Y-76281483D01*
X103904169Y-76342430D01*
X104060370Y-76373500D01*
X104060371Y-76373500D01*
X104219629Y-76373500D01*
X104219630Y-76373500D01*
X104375831Y-76342430D01*
X104522968Y-76281483D01*
X104655389Y-76193003D01*
X104768003Y-76080389D01*
X104856483Y-75947968D01*
X104917430Y-75800831D01*
X104948500Y-75644630D01*
X104948500Y-75485370D01*
X104917430Y-75329169D01*
X104856483Y-75182032D01*
X104855459Y-75180500D01*
X104797779Y-75094175D01*
X104768003Y-75049611D01*
X104655389Y-74936997D01*
X104608271Y-74905514D01*
X104522972Y-74848519D01*
X104522964Y-74848515D01*
X104472478Y-74827603D01*
X104375831Y-74787570D01*
X104375827Y-74787569D01*
X104375830Y-74787569D01*
X104250699Y-74762679D01*
X104219630Y-74756500D01*
X104060370Y-74756500D01*
X104029301Y-74762679D01*
X103904170Y-74787569D01*
X103757035Y-74848515D01*
X103757027Y-74848519D01*
X103671729Y-74905514D01*
X103624611Y-74936997D01*
X103624610Y-74936998D01*
X103624609Y-74936998D01*
X103511998Y-75049609D01*
X103511998Y-75049610D01*
X103423519Y-75182027D01*
X103423515Y-75182035D01*
X103362569Y-75329170D01*
X103331500Y-75485370D01*
X98700238Y-75485370D01*
X98694430Y-75456169D01*
X98633483Y-75309032D01*
X98545003Y-75176611D01*
X98432389Y-75063997D01*
X98353320Y-75011165D01*
X98299972Y-74975519D01*
X98299964Y-74975515D01*
X98206976Y-74936998D01*
X98152831Y-74914570D01*
X98152827Y-74914569D01*
X98152830Y-74914569D01*
X98027699Y-74889679D01*
X97996630Y-74883500D01*
X97837370Y-74883500D01*
X97806301Y-74889679D01*
X97681170Y-74914569D01*
X97534035Y-74975515D01*
X97534027Y-74975519D01*
X97427878Y-75046445D01*
X97401611Y-75063997D01*
X97401610Y-75063998D01*
X97401609Y-75063998D01*
X97288998Y-75176609D01*
X97288998Y-75176610D01*
X97288997Y-75176611D01*
X97285378Y-75182027D01*
X97200519Y-75309027D01*
X97200515Y-75309035D01*
X97139569Y-75456170D01*
X97108500Y-75612370D01*
X86381011Y-75612370D01*
X86397980Y-75579067D01*
X86397982Y-75579063D01*
X86398868Y-75576338D01*
X86471353Y-75353250D01*
X86471356Y-75353241D01*
X86508500Y-75118722D01*
X86508500Y-74881278D01*
X86471356Y-74646759D01*
X86397982Y-74420937D01*
X86397982Y-74420936D01*
X86381212Y-74388024D01*
X86381211Y-74388022D01*
X86360459Y-74347294D01*
X108842500Y-74347294D01*
X108842500Y-74496705D01*
X108871649Y-74643248D01*
X108928824Y-74781280D01*
X108928828Y-74781288D01*
X109011833Y-74905514D01*
X109117485Y-75011166D01*
X109241711Y-75094171D01*
X109241713Y-75094172D01*
X109241716Y-75094174D01*
X109300980Y-75118722D01*
X109379751Y-75151350D01*
X109379752Y-75151350D01*
X109379754Y-75151351D01*
X109526294Y-75180500D01*
X109526295Y-75180500D01*
X109675705Y-75180500D01*
X109675706Y-75180500D01*
X109822246Y-75151351D01*
X109960284Y-75094174D01*
X110084516Y-75011165D01*
X110190165Y-74905516D01*
X110273174Y-74781284D01*
X110330351Y-74643246D01*
X110359500Y-74496706D01*
X110359500Y-74347294D01*
X110330351Y-74200754D01*
X110273174Y-74062716D01*
X110242813Y-74017278D01*
X110190166Y-73938485D01*
X110084514Y-73832833D01*
X109960288Y-73749828D01*
X109960280Y-73749824D01*
X109822248Y-73692649D01*
X109724552Y-73673216D01*
X109675706Y-73663500D01*
X109526294Y-73663500D01*
X109489659Y-73670787D01*
X109379751Y-73692649D01*
X109241719Y-73749824D01*
X109241711Y-73749828D01*
X109117485Y-73832833D01*
X109117484Y-73832835D01*
X109011835Y-73938484D01*
X109011833Y-73938485D01*
X108928828Y-74062711D01*
X108928824Y-74062719D01*
X108871649Y-74200751D01*
X108842500Y-74347294D01*
X86360459Y-74347294D01*
X86290192Y-74209385D01*
X86290188Y-74209379D01*
X86290185Y-74209373D01*
X86150620Y-74017278D01*
X85982722Y-73849380D01*
X85982720Y-73849378D01*
X85845697Y-73749826D01*
X85790627Y-73709815D01*
X85790622Y-73709812D01*
X85790614Y-73709807D01*
X85579067Y-73602019D01*
X85579065Y-73602018D01*
X85353250Y-73528646D01*
X85353234Y-73528642D01*
X85118728Y-73491500D01*
X85118722Y-73491500D01*
X84881278Y-73491500D01*
X84881271Y-73491500D01*
X84646765Y-73528642D01*
X84646749Y-73528646D01*
X84420934Y-73602018D01*
X84420932Y-73602019D01*
X84209385Y-73709807D01*
X84209370Y-73709817D01*
X84017279Y-73849378D01*
X83849378Y-74017279D01*
X83709817Y-74209370D01*
X83709807Y-74209385D01*
X83602019Y-74420932D01*
X83602018Y-74420934D01*
X83528646Y-74646749D01*
X83528642Y-74646765D01*
X83491500Y-74881271D01*
X80500500Y-74881271D01*
X80500500Y-70881940D01*
X83500000Y-70881940D01*
X83500000Y-71118059D01*
X83536933Y-71351244D01*
X83536937Y-71351260D01*
X83609896Y-71575802D01*
X83609897Y-71575804D01*
X83717082Y-71786167D01*
X83717086Y-71786173D01*
X83777339Y-71869105D01*
X83777340Y-71869105D01*
X84517037Y-71129408D01*
X84534075Y-71192993D01*
X84599901Y-71307007D01*
X84692993Y-71400099D01*
X84807007Y-71465925D01*
X84870590Y-71482962D01*
X84130893Y-72222658D01*
X84130893Y-72222659D01*
X84213826Y-72282913D01*
X84213832Y-72282917D01*
X84424195Y-72390102D01*
X84424197Y-72390103D01*
X84648739Y-72463062D01*
X84648755Y-72463066D01*
X84881940Y-72499999D01*
X84881945Y-72500000D01*
X85118055Y-72500000D01*
X85118059Y-72499999D01*
X85351244Y-72463066D01*
X85351260Y-72463062D01*
X85575802Y-72390103D01*
X85575804Y-72390102D01*
X85786167Y-72282917D01*
X85786171Y-72282915D01*
X85869105Y-72222659D01*
X85869105Y-72222658D01*
X85129409Y-71482962D01*
X85192993Y-71465925D01*
X85307007Y-71400099D01*
X85400099Y-71307007D01*
X85465925Y-71192993D01*
X85482962Y-71129409D01*
X86222658Y-71869105D01*
X86222659Y-71869105D01*
X86282915Y-71786171D01*
X86282917Y-71786167D01*
X86390102Y-71575804D01*
X86390103Y-71575802D01*
X86453311Y-71381271D01*
X104917500Y-71381271D01*
X104917500Y-71618728D01*
X104954642Y-71853234D01*
X104954646Y-71853250D01*
X105028018Y-72079065D01*
X105028019Y-72079067D01*
X105135807Y-72290614D01*
X105135812Y-72290622D01*
X105135815Y-72290627D01*
X105205597Y-72386674D01*
X105275378Y-72482720D01*
X105275380Y-72482722D01*
X105443278Y-72650620D01*
X105635373Y-72790185D01*
X105635379Y-72790188D01*
X105635385Y-72790192D01*
X105846932Y-72897980D01*
X105846934Y-72897981D01*
X106072749Y-72971353D01*
X106072752Y-72971353D01*
X106072759Y-72971356D01*
X106072764Y-72971356D01*
X106072765Y-72971357D01*
X106307271Y-73008499D01*
X106307276Y-73008500D01*
X106307278Y-73008500D01*
X106544724Y-73008500D01*
X106544728Y-73008499D01*
X106779241Y-72971356D01*
X107005063Y-72897982D01*
X107005067Y-72897980D01*
X107216614Y-72790192D01*
X107216616Y-72790190D01*
X107216627Y-72790185D01*
X107408722Y-72650620D01*
X107576620Y-72482722D01*
X107716185Y-72290627D01*
X107720114Y-72282917D01*
X107823980Y-72079067D01*
X107823981Y-72079065D01*
X107897353Y-71853250D01*
X107897356Y-71853241D01*
X107934500Y-71618722D01*
X107934500Y-71381278D01*
X107897356Y-71146759D01*
X107823982Y-70920937D01*
X107823981Y-70920936D01*
X107823981Y-70920934D01*
X107823980Y-70920932D01*
X107716192Y-70709385D01*
X107716188Y-70709379D01*
X107716185Y-70709373D01*
X107576620Y-70517278D01*
X107408722Y-70349380D01*
X107408720Y-70349378D01*
X107312674Y-70279597D01*
X107216627Y-70209815D01*
X107216622Y-70209812D01*
X107216614Y-70209807D01*
X107005067Y-70102019D01*
X107005065Y-70102018D01*
X106779250Y-70028646D01*
X106779234Y-70028642D01*
X106544728Y-69991500D01*
X106544722Y-69991500D01*
X106307278Y-69991500D01*
X106307271Y-69991500D01*
X106072765Y-70028642D01*
X106072749Y-70028646D01*
X105846934Y-70102018D01*
X105846932Y-70102019D01*
X105635385Y-70209807D01*
X105635370Y-70209817D01*
X105443279Y-70349378D01*
X105275378Y-70517279D01*
X105135817Y-70709370D01*
X105135807Y-70709385D01*
X105028019Y-70920932D01*
X105028018Y-70920934D01*
X104954646Y-71146749D01*
X104954642Y-71146765D01*
X104917500Y-71381271D01*
X86453311Y-71381271D01*
X86463063Y-71351257D01*
X86463065Y-71351247D01*
X86499999Y-71118059D01*
X86500000Y-71118055D01*
X86500000Y-70881945D01*
X86499999Y-70881940D01*
X86463066Y-70648755D01*
X86463062Y-70648739D01*
X86390103Y-70424197D01*
X86390102Y-70424195D01*
X86282917Y-70213832D01*
X86282913Y-70213826D01*
X86222659Y-70130893D01*
X86222658Y-70130893D01*
X85482962Y-70870589D01*
X85465925Y-70807007D01*
X85400099Y-70692993D01*
X85307007Y-70599901D01*
X85192993Y-70534075D01*
X85129407Y-70517037D01*
X85869105Y-69777340D01*
X85869105Y-69777339D01*
X85786173Y-69717086D01*
X85786167Y-69717082D01*
X85575804Y-69609897D01*
X85575802Y-69609896D01*
X85351260Y-69536937D01*
X85351244Y-69536933D01*
X85118059Y-69500000D01*
X84881940Y-69500000D01*
X84648755Y-69536933D01*
X84648739Y-69536937D01*
X84424197Y-69609896D01*
X84424195Y-69609897D01*
X84213832Y-69717082D01*
X84213828Y-69717085D01*
X84130893Y-69777339D01*
X84130893Y-69777340D01*
X84870590Y-70517037D01*
X84807007Y-70534075D01*
X84692993Y-70599901D01*
X84599901Y-70692993D01*
X84534075Y-70807007D01*
X84517037Y-70870590D01*
X83777340Y-70130893D01*
X83777339Y-70130893D01*
X83717085Y-70213828D01*
X83717082Y-70213832D01*
X83609897Y-70424195D01*
X83609896Y-70424197D01*
X83536937Y-70648739D01*
X83536933Y-70648755D01*
X83500000Y-70881940D01*
X80500500Y-70881940D01*
X80500500Y-66881271D01*
X83491500Y-66881271D01*
X83491500Y-67118728D01*
X83528642Y-67353234D01*
X83528646Y-67353250D01*
X83602018Y-67579065D01*
X83602019Y-67579067D01*
X83709807Y-67790614D01*
X83709812Y-67790622D01*
X83709815Y-67790627D01*
X83779597Y-67886674D01*
X83849378Y-67982720D01*
X83849380Y-67982722D01*
X84017278Y-68150620D01*
X84209373Y-68290185D01*
X84209379Y-68290188D01*
X84209385Y-68290192D01*
X84420932Y-68397980D01*
X84420934Y-68397981D01*
X84646749Y-68471353D01*
X84646752Y-68471353D01*
X84646759Y-68471356D01*
X84646764Y-68471356D01*
X84646765Y-68471357D01*
X84881271Y-68508499D01*
X84881276Y-68508500D01*
X84881278Y-68508500D01*
X85118724Y-68508500D01*
X85118728Y-68508499D01*
X85353241Y-68471356D01*
X85579063Y-68397982D01*
X85579067Y-68397980D01*
X85790614Y-68290192D01*
X85790616Y-68290190D01*
X85790627Y-68290185D01*
X85982722Y-68150620D01*
X86150620Y-67982722D01*
X86290185Y-67790627D01*
X86397982Y-67579063D01*
X86471356Y-67353241D01*
X86508500Y-67118722D01*
X86508500Y-66881278D01*
X86471356Y-66646759D01*
X86397982Y-66420937D01*
X86397981Y-66420936D01*
X86397981Y-66420934D01*
X86397980Y-66420932D01*
X86290192Y-66209385D01*
X86290188Y-66209379D01*
X86290185Y-66209373D01*
X86150620Y-66017278D01*
X85982722Y-65849380D01*
X85982720Y-65849378D01*
X85879749Y-65774566D01*
X85790627Y-65709815D01*
X85790622Y-65709812D01*
X85790614Y-65709807D01*
X85579067Y-65602019D01*
X85579065Y-65602018D01*
X85353250Y-65528646D01*
X85353234Y-65528642D01*
X85118728Y-65491500D01*
X85118722Y-65491500D01*
X84881278Y-65491500D01*
X84881271Y-65491500D01*
X84646765Y-65528642D01*
X84646749Y-65528646D01*
X84420934Y-65602018D01*
X84420932Y-65602019D01*
X84209385Y-65709807D01*
X84209370Y-65709817D01*
X84017279Y-65849378D01*
X83849378Y-66017279D01*
X83709817Y-66209370D01*
X83709807Y-66209385D01*
X83602019Y-66420932D01*
X83602018Y-66420934D01*
X83528646Y-66646749D01*
X83528642Y-66646765D01*
X83491500Y-66881271D01*
X80500500Y-66881271D01*
X80500500Y-64790079D01*
X104940500Y-64790079D01*
X104940500Y-65003920D01*
X104973950Y-65215111D01*
X104973953Y-65215125D01*
X105040027Y-65418483D01*
X105133544Y-65602019D01*
X105137106Y-65609009D01*
X105199950Y-65695506D01*
X105262792Y-65782002D01*
X105262794Y-65782004D01*
X105413996Y-65933206D01*
X105586991Y-66058894D01*
X105586999Y-66058898D01*
X105777516Y-66155972D01*
X105980874Y-66222046D01*
X105980876Y-66222046D01*
X105980884Y-66222049D01*
X106192080Y-66255499D01*
X106192082Y-66255500D01*
X106192084Y-66255500D01*
X106405918Y-66255500D01*
X106405918Y-66255499D01*
X106617116Y-66222049D01*
X106820483Y-66155972D01*
X107011009Y-66058894D01*
X107184004Y-65933206D01*
X107335206Y-65782004D01*
X107460894Y-65609009D01*
X107479365Y-65572756D01*
X107523328Y-65528794D01*
X107584737Y-65519067D01*
X107640134Y-65547294D01*
X107658633Y-65572754D01*
X107677106Y-65609009D01*
X107739950Y-65695506D01*
X107802792Y-65782002D01*
X107802794Y-65782004D01*
X107953996Y-65933206D01*
X108126991Y-66058894D01*
X108126999Y-66058898D01*
X108317516Y-66155972D01*
X108520874Y-66222046D01*
X108520876Y-66222046D01*
X108520884Y-66222049D01*
X108732080Y-66255499D01*
X108732082Y-66255500D01*
X108732084Y-66255500D01*
X108945918Y-66255500D01*
X108945918Y-66255499D01*
X109157116Y-66222049D01*
X109360483Y-66155972D01*
X109551009Y-66058894D01*
X109724004Y-65933206D01*
X109875206Y-65782004D01*
X110000894Y-65609009D01*
X110019365Y-65572756D01*
X110063328Y-65528794D01*
X110124737Y-65519067D01*
X110180134Y-65547294D01*
X110198633Y-65572754D01*
X110217106Y-65609009D01*
X110279950Y-65695506D01*
X110342792Y-65782002D01*
X110342794Y-65782004D01*
X110493996Y-65933206D01*
X110666991Y-66058894D01*
X110666999Y-66058898D01*
X110857516Y-66155972D01*
X111060874Y-66222046D01*
X111060876Y-66222046D01*
X111060884Y-66222049D01*
X111272080Y-66255499D01*
X111272082Y-66255500D01*
X111272084Y-66255500D01*
X111485918Y-66255500D01*
X111485918Y-66255499D01*
X111697116Y-66222049D01*
X111900483Y-66155972D01*
X112091009Y-66058894D01*
X112264004Y-65933206D01*
X112404145Y-65793064D01*
X112459540Y-65764840D01*
X112520949Y-65774566D01*
X112564913Y-65818529D01*
X112573768Y-65848291D01*
X112573954Y-65848248D01*
X112574720Y-65851490D01*
X112575301Y-65853442D01*
X112575400Y-65854369D01*
X112575403Y-65854380D01*
X112625644Y-65989085D01*
X112625645Y-65989087D01*
X112711811Y-66104188D01*
X112826912Y-66190354D01*
X112826914Y-66190355D01*
X112961619Y-66240596D01*
X112961624Y-66240597D01*
X113021172Y-66247000D01*
X113669000Y-66247000D01*
X113669000Y-65387761D01*
X113706703Y-65409530D01*
X113846590Y-65447012D01*
X113991410Y-65447012D01*
X114131297Y-65409530D01*
X114169000Y-65387761D01*
X114169000Y-66247000D01*
X114816828Y-66247000D01*
X114876375Y-66240597D01*
X114876380Y-66240596D01*
X115011085Y-66190355D01*
X115011087Y-66190354D01*
X115126188Y-66104188D01*
X115212354Y-65989087D01*
X115212355Y-65989085D01*
X115262596Y-65854380D01*
X115262597Y-65854375D01*
X115269000Y-65794827D01*
X115269000Y-65147000D01*
X114409762Y-65147000D01*
X114431530Y-65109297D01*
X114469012Y-64969410D01*
X114469012Y-64824590D01*
X114431530Y-64684703D01*
X114409762Y-64647000D01*
X115269000Y-64647000D01*
X115269000Y-63999172D01*
X115262597Y-63939624D01*
X115262596Y-63939619D01*
X115212355Y-63804914D01*
X115212354Y-63804912D01*
X115126188Y-63689811D01*
X115011087Y-63603645D01*
X115011085Y-63603644D01*
X114876380Y-63553403D01*
X114876375Y-63553402D01*
X114816828Y-63547000D01*
X114169000Y-63547000D01*
X114169000Y-64406238D01*
X114131297Y-64384470D01*
X113991410Y-64346988D01*
X113846590Y-64346988D01*
X113706703Y-64384470D01*
X113669000Y-64406238D01*
X113669000Y-63547000D01*
X113021172Y-63547000D01*
X112961624Y-63553402D01*
X112961619Y-63553403D01*
X112826914Y-63603644D01*
X112826912Y-63603645D01*
X112711811Y-63689811D01*
X112625645Y-63804912D01*
X112625644Y-63804914D01*
X112575403Y-63939619D01*
X112575400Y-63939629D01*
X112575301Y-63940559D01*
X112575047Y-63941123D01*
X112573954Y-63945752D01*
X112573067Y-63945542D01*
X112549873Y-63997296D01*
X112495952Y-64028251D01*
X112434135Y-64021600D01*
X112404143Y-64000933D01*
X112264002Y-63860792D01*
X112177506Y-63797950D01*
X112091009Y-63735106D01*
X112091003Y-63735103D01*
X112091000Y-63735101D01*
X111900483Y-63638027D01*
X111697125Y-63571953D01*
X111697111Y-63571950D01*
X111485920Y-63538500D01*
X111485916Y-63538500D01*
X111272084Y-63538500D01*
X111272079Y-63538500D01*
X111060888Y-63571950D01*
X111060874Y-63571953D01*
X110857516Y-63638027D01*
X110666999Y-63735101D01*
X110666988Y-63735108D01*
X110493997Y-63860792D01*
X110342792Y-64011997D01*
X110217108Y-64184988D01*
X110217101Y-64184999D01*
X110198635Y-64221242D01*
X110154671Y-64265205D01*
X110093262Y-64274931D01*
X110037865Y-64246705D01*
X110019365Y-64221242D01*
X110000898Y-64184999D01*
X110000894Y-64184991D01*
X109875206Y-64011996D01*
X109724004Y-63860794D01*
X109724002Y-63860792D01*
X109637506Y-63797950D01*
X109551009Y-63735106D01*
X109551003Y-63735103D01*
X109551000Y-63735101D01*
X109360483Y-63638027D01*
X109157125Y-63571953D01*
X109157111Y-63571950D01*
X108945920Y-63538500D01*
X108945916Y-63538500D01*
X108732084Y-63538500D01*
X108732079Y-63538500D01*
X108520888Y-63571950D01*
X108520874Y-63571953D01*
X108317516Y-63638027D01*
X108126999Y-63735101D01*
X108126988Y-63735108D01*
X107953997Y-63860792D01*
X107802792Y-64011997D01*
X107677108Y-64184988D01*
X107677101Y-64184999D01*
X107658635Y-64221242D01*
X107614671Y-64265205D01*
X107553262Y-64274931D01*
X107497865Y-64246705D01*
X107479365Y-64221242D01*
X107460898Y-64184999D01*
X107460894Y-64184991D01*
X107335206Y-64011996D01*
X107184004Y-63860794D01*
X107184002Y-63860792D01*
X107097506Y-63797950D01*
X107011009Y-63735106D01*
X107011003Y-63735103D01*
X107011000Y-63735101D01*
X106820483Y-63638027D01*
X106617125Y-63571953D01*
X106617111Y-63571950D01*
X106405920Y-63538500D01*
X106405916Y-63538500D01*
X106192084Y-63538500D01*
X106192079Y-63538500D01*
X105980888Y-63571950D01*
X105980874Y-63571953D01*
X105777516Y-63638027D01*
X105586999Y-63735101D01*
X105586988Y-63735108D01*
X105413997Y-63860792D01*
X105262792Y-64011997D01*
X105137108Y-64184988D01*
X105137101Y-64184999D01*
X105040027Y-64375516D01*
X104973953Y-64578874D01*
X104973950Y-64578888D01*
X104940500Y-64790079D01*
X80500500Y-64790079D01*
X80500500Y-59881777D01*
X83196300Y-59881777D01*
X83196300Y-60118222D01*
X83227161Y-60352633D01*
X83227162Y-60352641D01*
X83288357Y-60581024D01*
X83288358Y-60581026D01*
X83378840Y-60799470D01*
X83497057Y-61004228D01*
X83497059Y-61004231D01*
X83497060Y-61004232D01*
X83640997Y-61191814D01*
X83808186Y-61359003D01*
X83995768Y-61502940D01*
X83995771Y-61502942D01*
X84200529Y-61621159D01*
X84418973Y-61711641D01*
X84418975Y-61711642D01*
X84550833Y-61746973D01*
X84647361Y-61772838D01*
X84842709Y-61798556D01*
X84881778Y-61803700D01*
X84881779Y-61803700D01*
X85118222Y-61803700D01*
X85151709Y-61799291D01*
X85352639Y-61772838D01*
X85581024Y-61711642D01*
X85799468Y-61621160D01*
X86004232Y-61502940D01*
X86191814Y-61359003D01*
X86359003Y-61191814D01*
X86502940Y-61004232D01*
X86615937Y-60808514D01*
X86621159Y-60799470D01*
X86668871Y-60684284D01*
X86711642Y-60581024D01*
X86772838Y-60352639D01*
X86803700Y-60118221D01*
X86803700Y-59881779D01*
X86772838Y-59647361D01*
X86711642Y-59418976D01*
X86697032Y-59383705D01*
X86649044Y-59267850D01*
X86635145Y-59234294D01*
X95761500Y-59234294D01*
X95761500Y-59383705D01*
X95790649Y-59530248D01*
X95847824Y-59668280D01*
X95847828Y-59668288D01*
X95909849Y-59761110D01*
X95926725Y-59820950D01*
X95909849Y-59872890D01*
X95847828Y-59965711D01*
X95847824Y-59965719D01*
X95790649Y-60103751D01*
X95761500Y-60250294D01*
X95761500Y-60399705D01*
X95790649Y-60546248D01*
X95847824Y-60684280D01*
X95847828Y-60684288D01*
X95930833Y-60808514D01*
X96036485Y-60914166D01*
X96160711Y-60997171D01*
X96160713Y-60997172D01*
X96160716Y-60997174D01*
X96177746Y-61004228D01*
X96298751Y-61054350D01*
X96298752Y-61054350D01*
X96298754Y-61054351D01*
X96445294Y-61083500D01*
X96445295Y-61083500D01*
X96594705Y-61083500D01*
X96594706Y-61083500D01*
X96741246Y-61054351D01*
X96879284Y-60997174D01*
X96972110Y-60935150D01*
X97031949Y-60918274D01*
X97083890Y-60935150D01*
X97176711Y-60997171D01*
X97176713Y-60997172D01*
X97176716Y-60997174D01*
X97193746Y-61004228D01*
X97314751Y-61054350D01*
X97314752Y-61054350D01*
X97314754Y-61054351D01*
X97461294Y-61083500D01*
X97461295Y-61083500D01*
X97610705Y-61083500D01*
X97610706Y-61083500D01*
X97757246Y-61054351D01*
X97895284Y-60997174D01*
X97924610Y-60977578D01*
X97984449Y-60960702D01*
X98036389Y-60977578D01*
X98065716Y-60997174D01*
X98065717Y-60997174D01*
X98065718Y-60997175D01*
X98203751Y-61054350D01*
X98203752Y-61054350D01*
X98203754Y-61054351D01*
X98350294Y-61083500D01*
X98350295Y-61083500D01*
X98499705Y-61083500D01*
X98499706Y-61083500D01*
X98646246Y-61054351D01*
X98784284Y-60997174D01*
X98908516Y-60914165D01*
X98988865Y-60833816D01*
X99044263Y-60805590D01*
X99105671Y-60815316D01*
X99131135Y-60833816D01*
X99211485Y-60914166D01*
X99335711Y-60997171D01*
X99335713Y-60997172D01*
X99335716Y-60997174D01*
X99352746Y-61004228D01*
X99473751Y-61054350D01*
X99473752Y-61054350D01*
X99473754Y-61054351D01*
X99620294Y-61083500D01*
X99620295Y-61083500D01*
X99769705Y-61083500D01*
X99769706Y-61083500D01*
X99916246Y-61054351D01*
X100054284Y-60997174D01*
X100147110Y-60935150D01*
X100206949Y-60918274D01*
X100258890Y-60935150D01*
X100351711Y-60997171D01*
X100351713Y-60997172D01*
X100351716Y-60997174D01*
X100368746Y-61004228D01*
X100489751Y-61054350D01*
X100489752Y-61054350D01*
X100489754Y-61054351D01*
X100636294Y-61083500D01*
X100636295Y-61083500D01*
X100785705Y-61083500D01*
X100785706Y-61083500D01*
X100932246Y-61054351D01*
X101070284Y-60997174D01*
X101194516Y-60914165D01*
X101300165Y-60808516D01*
X101383174Y-60684284D01*
X101440351Y-60546246D01*
X101469500Y-60399706D01*
X101469500Y-60250294D01*
X101440351Y-60103754D01*
X101383174Y-59965716D01*
X101321150Y-59872890D01*
X101304274Y-59813051D01*
X101321150Y-59761110D01*
X101383171Y-59668288D01*
X101383174Y-59668284D01*
X101440351Y-59530246D01*
X101469500Y-59383706D01*
X101469500Y-59234294D01*
X101440351Y-59087754D01*
X101383174Y-58949716D01*
X101300165Y-58825484D01*
X101194516Y-58719835D01*
X101194514Y-58719833D01*
X101070288Y-58636828D01*
X101070280Y-58636824D01*
X100932248Y-58579649D01*
X100834552Y-58560216D01*
X100785706Y-58550500D01*
X100636294Y-58550500D01*
X100599659Y-58557787D01*
X100489751Y-58579649D01*
X100351719Y-58636824D01*
X100351711Y-58636828D01*
X100258890Y-58698849D01*
X100199050Y-58715725D01*
X100147110Y-58698849D01*
X100054288Y-58636828D01*
X100054280Y-58636824D01*
X99916248Y-58579649D01*
X99818552Y-58560216D01*
X99769706Y-58550500D01*
X99620294Y-58550500D01*
X99583659Y-58557787D01*
X99473751Y-58579649D01*
X99335719Y-58636824D01*
X99335711Y-58636828D01*
X99211485Y-58719833D01*
X99211484Y-58719835D01*
X99131135Y-58800184D01*
X99075737Y-58828410D01*
X99014329Y-58818684D01*
X98988865Y-58800184D01*
X98908514Y-58719833D01*
X98784288Y-58636828D01*
X98784280Y-58636824D01*
X98646248Y-58579649D01*
X98548552Y-58560216D01*
X98499706Y-58550500D01*
X98350294Y-58550500D01*
X98313659Y-58557787D01*
X98203751Y-58579649D01*
X98065719Y-58636824D01*
X98065705Y-58636831D01*
X98036389Y-58656420D01*
X97976549Y-58673296D01*
X97924611Y-58656420D01*
X97895294Y-58636831D01*
X97895280Y-58636824D01*
X97757248Y-58579649D01*
X97659552Y-58560216D01*
X97610706Y-58550500D01*
X97461294Y-58550500D01*
X97424659Y-58557787D01*
X97314751Y-58579649D01*
X97176719Y-58636824D01*
X97176711Y-58636828D01*
X97083890Y-58698849D01*
X97024050Y-58715725D01*
X96972110Y-58698849D01*
X96879288Y-58636828D01*
X96879280Y-58636824D01*
X96741248Y-58579649D01*
X96643552Y-58560216D01*
X96594706Y-58550500D01*
X96445294Y-58550500D01*
X96408659Y-58557787D01*
X96298751Y-58579649D01*
X96160719Y-58636824D01*
X96160711Y-58636828D01*
X96036485Y-58719833D01*
X96036484Y-58719835D01*
X95930835Y-58825484D01*
X95930833Y-58825485D01*
X95847828Y-58949711D01*
X95847824Y-58949719D01*
X95790649Y-59087751D01*
X95761500Y-59234294D01*
X86635145Y-59234294D01*
X86621159Y-59200529D01*
X86502942Y-58995771D01*
X86467599Y-58949711D01*
X86359003Y-58808186D01*
X86191814Y-58640997D01*
X86004232Y-58497060D01*
X86004231Y-58497059D01*
X86004228Y-58497057D01*
X85799470Y-58378840D01*
X85581026Y-58288358D01*
X85581024Y-58288357D01*
X85352641Y-58227162D01*
X85352633Y-58227161D01*
X85118222Y-58196300D01*
X85118221Y-58196300D01*
X84881779Y-58196300D01*
X84881778Y-58196300D01*
X84647366Y-58227161D01*
X84647358Y-58227162D01*
X84418975Y-58288357D01*
X84418973Y-58288358D01*
X84200529Y-58378840D01*
X83995771Y-58497057D01*
X83808182Y-58641000D01*
X83641000Y-58808182D01*
X83497057Y-58995771D01*
X83378840Y-59200529D01*
X83288358Y-59418973D01*
X83288357Y-59418975D01*
X83227162Y-59647358D01*
X83227161Y-59647366D01*
X83196300Y-59881777D01*
X80500500Y-59881777D01*
X80500500Y-56066888D01*
X80501089Y-56065075D01*
X80500566Y-56063242D01*
X80510645Y-56035664D01*
X80519713Y-56007757D01*
X80521889Y-56004872D01*
X80635038Y-55860447D01*
X80643079Y-55851371D01*
X80851371Y-55643079D01*
X80860447Y-55635038D01*
X81004847Y-55521909D01*
X81063244Y-55500566D01*
X81066889Y-55500500D01*
X126737400Y-55500500D01*
X126796531Y-55519713D01*
G37*
%TD.AperFunction*%
%TD*%
M02*
