%TF.GenerationSoftware,KiCad,Pcbnew,10.0.1*%
%TF.CreationDate,2026-05-26T19:56:58-05:00*%
%TF.ProjectId,clock,636c6f63-6b2e-46b6-9963-61645f706362,rev?*%
%TF.SameCoordinates,Original*%
%TF.FileFunction,Copper,L4,Bot*%
%TF.FilePolarity,Positive*%
%FSLAX46Y46*%
G04 Gerber Fmt 4.6, Leading zero omitted, Abs format (unit mm)*
G04 Created by KiCad (PCBNEW 10.0.1) date 2026-05-26 19:56:58*
%MOMM*%
%LPD*%
G01*
G04 APERTURE LIST*
G04 Aperture macros list*
%AMRoundRect*
0 Rectangle with rounded corners*
0 $1 Rounding radius*
0 $2 $3 $4 $5 $6 $7 $8 $9 X,Y pos of 4 corners*
0 Add a 4 corners polygon primitive as box body*
4,1,4,$2,$3,$4,$5,$6,$7,$8,$9,$2,$3,0*
0 Add four circle primitives for the rounded corners*
1,1,$1+$1,$2,$3*
1,1,$1+$1,$4,$5*
1,1,$1+$1,$6,$7*
1,1,$1+$1,$8,$9*
0 Add four rect primitives between the rounded corners*
20,1,$1+$1,$2,$3,$4,$5,0*
20,1,$1+$1,$4,$5,$6,$7,0*
20,1,$1+$1,$6,$7,$8,$9,0*
20,1,$1+$1,$8,$9,$2,$3,0*%
G04 Aperture macros list end*
%TA.AperFunction,ComponentPad*%
%ADD10C,0.700000*%
%TD*%
%TA.AperFunction,ComponentPad*%
%ADD11O,2.000000X1.100000*%
%TD*%
%TA.AperFunction,ComponentPad*%
%ADD12O,1.800000X1.200000*%
%TD*%
%TA.AperFunction,ComponentPad*%
%ADD13C,2.000000*%
%TD*%
%TA.AperFunction,ComponentPad*%
%ADD14R,1.508000X1.508000*%
%TD*%
%TA.AperFunction,ComponentPad*%
%ADD15C,1.508000*%
%TD*%
%TA.AperFunction,ComponentPad*%
%ADD16C,3.000000*%
%TD*%
%TA.AperFunction,ComponentPad*%
%ADD17R,1.700000X1.700000*%
%TD*%
%TA.AperFunction,ComponentPad*%
%ADD18C,1.700000*%
%TD*%
%TA.AperFunction,ComponentPad*%
%ADD19RoundRect,0.250000X1.050000X1.050000X-1.050000X1.050000X-1.050000X-1.050000X1.050000X-1.050000X0*%
%TD*%
%TA.AperFunction,ComponentPad*%
%ADD20C,2.600000*%
%TD*%
%TA.AperFunction,ViaPad*%
%ADD21C,0.600000*%
%TD*%
%TA.AperFunction,ViaPad*%
%ADD22C,0.500000*%
%TD*%
%TA.AperFunction,Conductor*%
%ADD23C,0.203200*%
%TD*%
%TA.AperFunction,Conductor*%
%ADD24C,0.508000*%
%TD*%
G04 APERTURE END LIST*
D10*
%TO.P,USB2,*%
%TO.N,*%
X85680000Y-84790000D03*
X85680000Y-90570000D03*
D11*
%TO.P,USB2,13,SHELL_13*%
%TO.N,GND*%
X86210000Y-83360000D03*
D12*
X82000000Y-83360000D03*
D11*
%TO.P,USB2,14,SHELL_14*%
X86210000Y-92000000D03*
D12*
X82000000Y-92000000D03*
%TD*%
D13*
%TO.P,TP7,1,1_1*%
%TO.N,/mcu/BOOT1*%
X106426000Y-71500000D03*
%TD*%
%TO.P,TP2,1,1_1*%
%TO.N,+3.3V*%
X85000000Y-71000000D03*
%TD*%
%TO.P,TP1,1,1_1*%
%TO.N,GND*%
X85000000Y-67000000D03*
%TD*%
%TO.P,TP8,1,1_1*%
%TO.N,/mcu/NRST*%
X127184000Y-93695200D03*
%TD*%
D14*
%TO.P,U5,1,GND_1*%
%TO.N,GND*%
X144752800Y-97500000D03*
D15*
%TO.P,U5,2,VCC_IN_2*%
%TO.N,+3.3V*%
X147292800Y-97500000D03*
%TO.P,U5,3,SCL_3*%
%TO.N,/mcu/SCL*%
X149832800Y-97500000D03*
%TO.P,U5,4,SDA_4*%
%TO.N,/mcu/SDA*%
X152372800Y-97500000D03*
D16*
%TO.P,U5,S1*%
%TO.N,N/C*%
X137562800Y-98000000D03*
%TO.P,U5,S2*%
X159562800Y-98000000D03*
%TO.P,U5,S3*%
X159562800Y-120000000D03*
%TO.P,U5,S4*%
X137562800Y-120000000D03*
%TD*%
D13*
%TO.P,TP3,1,1_1*%
%TO.N,+5V*%
X85000000Y-75000000D03*
%TD*%
%TO.P,TP9,1,1_1*%
%TO.N,Net-(TP9-Pad1)*%
X131510000Y-115824000D03*
%TD*%
D17*
%TO.P,H1,1,1_1*%
%TO.N,+3.3V*%
X113919000Y-64897000D03*
D18*
%TO.P,H1,2,2_2*%
%TO.N,/mcu/SWIO*%
X111379000Y-64897000D03*
%TO.P,H1,3,3_3*%
%TO.N,/mcu/SWCLK*%
X108839000Y-64897000D03*
%TO.P,H1,4,4_4*%
%TO.N,GND*%
X106299000Y-64897000D03*
%TD*%
D19*
%TO.P,J1,1,Pin_1_1*%
%TO.N,Net-(J1-Pin_1)*%
X160431000Y-63665000D03*
D20*
%TO.P,J1,2,Pin_2_2*%
%TO.N,Net-(J1-Pin_2)*%
X155351000Y-63665000D03*
%TO.P,J1,3,Pin_3_3*%
%TO.N,Net-(J1-Pin_3)*%
X150271000Y-63665000D03*
%TD*%
D19*
%TO.P,J2,1,Pin_1_1*%
%TO.N,Net-(J2-Pin_1)*%
X140271000Y-63665000D03*
D20*
%TO.P,J2,2,Pin_2_2*%
%TO.N,Net-(J2-Pin_2)*%
X135191000Y-63665000D03*
%TO.P,J2,3,Pin_3_3*%
%TO.N,Net-(J2-Pin_3)*%
X130111000Y-63665000D03*
%TD*%
D13*
%TO.P,TP5,1,1_1*%
%TO.N,/mcu/PA1*%
X89179400Y-103073200D03*
%TD*%
%TO.P,TP4,1,1_1*%
%TO.N,/mcu/PA2*%
X128397000Y-82042000D03*
%TD*%
%TO.P,TP6,1,1_1*%
%TO.N,/mcu/BOOT0*%
X106426000Y-79500000D03*
%TD*%
D21*
%TO.N,GND*%
X109220000Y-82042000D03*
X97917000Y-75692000D03*
D22*
X97536000Y-60325000D03*
X116234400Y-99165600D03*
D21*
X133578600Y-98272600D03*
D22*
X98425000Y-59309000D03*
X97028000Y-88392000D03*
X99695000Y-59309000D03*
X100711000Y-60325000D03*
D21*
X104521000Y-82677000D03*
X96505000Y-112947000D03*
X109728000Y-98298000D03*
D22*
X96139000Y-87376000D03*
X96139000Y-88392000D03*
X125476000Y-78994000D03*
D21*
X104140000Y-75565000D03*
D22*
X95123000Y-87376000D03*
X119888000Y-90170000D03*
D21*
X95489000Y-112947000D03*
D22*
X118897400Y-97400000D03*
X81788000Y-95250000D03*
X100711000Y-59309000D03*
D21*
X97521000Y-119297000D03*
X112522000Y-83185000D03*
D22*
X93599000Y-99822000D03*
X98425000Y-60325000D03*
X96520000Y-59309000D03*
D21*
X143256000Y-84455000D03*
X116738400Y-79044800D03*
X94386400Y-91744800D03*
X124790200Y-82499200D03*
D22*
X96520000Y-60325000D03*
D21*
X98537000Y-112947000D03*
D22*
X87832000Y-90880000D03*
X109601000Y-74422000D03*
D21*
X98537000Y-119297000D03*
X100958200Y-97332800D03*
D22*
X99695000Y-60325000D03*
X97536000Y-59309000D03*
D21*
X129514600Y-100965000D03*
D22*
X109601000Y-76581000D03*
D21*
X97521000Y-112947000D03*
D22*
X95123000Y-88392000D03*
D21*
X112014000Y-78867000D03*
D22*
X97028000Y-87376000D03*
D21*
X96505000Y-119297000D03*
X95489000Y-119297000D03*
D22*
%TO.N,+5V*%
X91059000Y-85344000D03*
D21*
X157711400Y-86106000D03*
D22*
X91059000Y-89408000D03*
%TO.N,/mcu/DP*%
X88138000Y-88646000D03*
X88138000Y-86741000D03*
%TO.N,+3.3V*%
X110236000Y-94234000D03*
D21*
X124079000Y-88392000D03*
X95631000Y-69850000D03*
X133173600Y-83667600D03*
D22*
X133096000Y-96520000D03*
X96520000Y-83185000D03*
D21*
X121793000Y-66548000D03*
D22*
X98806000Y-85090000D03*
X99060000Y-84201000D03*
X96774000Y-85090000D03*
D21*
X113284000Y-88265000D03*
X94361000Y-69850000D03*
X124002800Y-78536800D03*
D22*
X96520000Y-84201000D03*
D21*
X113919000Y-78867000D03*
X141212000Y-92722000D03*
X116205000Y-91059000D03*
D22*
X97790000Y-85090000D03*
D21*
X116713000Y-66675000D03*
X142748000Y-82296000D03*
D22*
X99060000Y-83185000D03*
D21*
%TO.N,/mcu/BOOT1*%
X110744000Y-91186000D03*
%TO.N,/mcu/BOOT0*%
X109220000Y-85500000D03*
D22*
%TO.N,/mcu/PC13*%
X121412000Y-76708000D03*
X116840000Y-90297000D03*
D21*
%TO.N,/mcu/SCL*%
X149832800Y-93472000D03*
%TO.N,/mcu/SDA*%
X107950000Y-84709000D03*
X109804200Y-84785200D03*
X152450800Y-101168200D03*
%TO.N,/mcu/PA1*%
X106248200Y-94234000D03*
X121208800Y-90246200D03*
%TO.N,/mcu/SWCLK*%
X113411000Y-82042000D03*
%TO.N,Net-(TP9-Pad1)*%
X112293400Y-98475800D03*
%TD*%
%TO.N,+5V*%
D23*
X157330400Y-86487000D02*
X143256000Y-86487000D01*
X143256000Y-86487000D02*
X142113000Y-87630000D01*
X140970000Y-87630000D02*
X132842000Y-95758000D01*
X93091000Y-95758000D02*
X91059000Y-93726000D01*
X91059000Y-81059000D02*
X91059000Y-85344000D01*
X132842000Y-95758000D02*
X93091000Y-95758000D01*
X85000000Y-75000000D02*
X91059000Y-81059000D01*
X157711400Y-86106000D02*
X157861000Y-86255600D01*
D24*
X91059000Y-89408000D02*
X91059000Y-85344000D01*
D23*
X142113000Y-87630000D02*
X140970000Y-87630000D01*
X157711400Y-86106000D02*
X157330400Y-86487000D01*
X91059000Y-93726000D02*
X91059000Y-85344000D01*
%TO.N,/mcu/DP*%
X88138000Y-88646000D02*
X88138000Y-86741000D01*
%TO.N,/mcu/BOOT1*%
X110744000Y-79298800D02*
X106426000Y-74980800D01*
X110744000Y-91186000D02*
X110744000Y-79298800D01*
X106426000Y-74980800D02*
X106426000Y-71824000D01*
X106426000Y-71824000D02*
X106750000Y-71500000D01*
%TO.N,/mcu/BOOT0*%
X107344000Y-85500000D02*
X106426000Y-84582000D01*
X109220000Y-85500000D02*
X107344000Y-85500000D01*
X106426000Y-84582000D02*
X106426000Y-80074000D01*
%TO.N,/mcu/PC13*%
X121412000Y-76708000D02*
X119202200Y-78917800D01*
X118872000Y-90297000D02*
X116840000Y-90297000D01*
X119202200Y-78917800D02*
X119202200Y-89966800D01*
X119202200Y-89966800D02*
X118872000Y-90297000D01*
%TO.N,/mcu/SCL*%
X149832800Y-93472000D02*
X149832800Y-97500000D01*
%TO.N,/mcu/SDA*%
X107950000Y-84709000D02*
X108026200Y-84785200D01*
X108026200Y-84785200D02*
X109804200Y-84785200D01*
X152450800Y-101168200D02*
X152372800Y-101090200D01*
X152372800Y-101090200D02*
X152372800Y-97500000D01*
%TO.N,/mcu/PA1*%
X120777000Y-92456000D02*
X120777000Y-90678000D01*
X106248200Y-94234000D02*
X106248200Y-93624400D01*
X107213400Y-92659200D02*
X120573800Y-92659200D01*
X120777000Y-90678000D02*
X121208800Y-90246200D01*
X106248200Y-93624400D02*
X107213400Y-92659200D01*
X120573800Y-92659200D02*
X120777000Y-92456000D01*
%TO.N,/mcu/SWCLK*%
X108712000Y-68834000D02*
X108712000Y-65024000D01*
X113157000Y-81788000D02*
X113157000Y-72390000D01*
X111887000Y-71120000D02*
X110998000Y-71120000D01*
X113157000Y-72390000D02*
X111887000Y-71120000D01*
X108712000Y-65024000D02*
X108839000Y-64897000D01*
X113411000Y-82042000D02*
X113157000Y-81788000D01*
X110998000Y-71120000D02*
X108712000Y-68834000D01*
%TO.N,Net-(TP9-Pad1)*%
X112293400Y-104800400D02*
X123317000Y-115824000D01*
X123317000Y-115824000D02*
X131510000Y-115824000D01*
X112293400Y-98475800D02*
X112293400Y-104800400D01*
%TD*%
%TA.AperFunction,Conductor*%
%TO.N,GND*%
G36*
X126796531Y-55519713D02*
G01*
X126833076Y-55570013D01*
X126838000Y-55601100D01*
X126838000Y-80000000D01*
X164338000Y-80000000D01*
X164338000Y-59881777D01*
X165696300Y-59881777D01*
X165696300Y-60118222D01*
X165727161Y-60352633D01*
X165727162Y-60352641D01*
X165788357Y-60581024D01*
X165788358Y-60581026D01*
X165878840Y-60799470D01*
X165997057Y-61004228D01*
X165997059Y-61004231D01*
X165997060Y-61004232D01*
X166140997Y-61191814D01*
X166308186Y-61359003D01*
X166495768Y-61502940D01*
X166495771Y-61502942D01*
X166700529Y-61621159D01*
X166918973Y-61711641D01*
X166918975Y-61711642D01*
X167050833Y-61746973D01*
X167147361Y-61772838D01*
X167342709Y-61798556D01*
X167381778Y-61803700D01*
X167381779Y-61803700D01*
X167618222Y-61803700D01*
X167651709Y-61799291D01*
X167852639Y-61772838D01*
X168081024Y-61711642D01*
X168299468Y-61621160D01*
X168504232Y-61502940D01*
X168691814Y-61359003D01*
X168859003Y-61191814D01*
X169002940Y-61004232D01*
X169121160Y-60799468D01*
X169211642Y-60581024D01*
X169272838Y-60352639D01*
X169303700Y-60118221D01*
X169303700Y-59881779D01*
X169272838Y-59647361D01*
X169211642Y-59418976D01*
X169121160Y-59200532D01*
X169121159Y-59200529D01*
X169002942Y-58995771D01*
X169002940Y-58995768D01*
X168859003Y-58808186D01*
X168691814Y-58640997D01*
X168504232Y-58497060D01*
X168504231Y-58497059D01*
X168504228Y-58497057D01*
X168299470Y-58378840D01*
X168081026Y-58288358D01*
X168081024Y-58288357D01*
X167852641Y-58227162D01*
X167852633Y-58227161D01*
X167618222Y-58196300D01*
X167618221Y-58196300D01*
X167381779Y-58196300D01*
X167381778Y-58196300D01*
X167147366Y-58227161D01*
X167147358Y-58227162D01*
X166918975Y-58288357D01*
X166918973Y-58288358D01*
X166700529Y-58378840D01*
X166495771Y-58497057D01*
X166308182Y-58641000D01*
X166141000Y-58808182D01*
X165997057Y-58995771D01*
X165878840Y-59200529D01*
X165788358Y-59418973D01*
X165788357Y-59418975D01*
X165727162Y-59647358D01*
X165727161Y-59647366D01*
X165696300Y-59881777D01*
X164338000Y-59881777D01*
X164338000Y-55601100D01*
X164357213Y-55541969D01*
X164407513Y-55505424D01*
X164438600Y-55500500D01*
X171898900Y-55500500D01*
X171958031Y-55519713D01*
X171994576Y-55570013D01*
X171999500Y-55601100D01*
X171999500Y-124398900D01*
X171980287Y-124458031D01*
X171929987Y-124494576D01*
X171898900Y-124499500D01*
X80601100Y-124499500D01*
X80541969Y-124480287D01*
X80505424Y-124429987D01*
X80500500Y-124398900D01*
X80500500Y-119881777D01*
X83196300Y-119881777D01*
X83196300Y-120118222D01*
X83227161Y-120352633D01*
X83227162Y-120352641D01*
X83288357Y-120581024D01*
X83288358Y-120581026D01*
X83378840Y-120799470D01*
X83497057Y-121004228D01*
X83497059Y-121004231D01*
X83497060Y-121004232D01*
X83640997Y-121191814D01*
X83808186Y-121359003D01*
X83995768Y-121502940D01*
X83995771Y-121502942D01*
X84200529Y-121621159D01*
X84418973Y-121711641D01*
X84418975Y-121711642D01*
X84550833Y-121746973D01*
X84647361Y-121772838D01*
X84842709Y-121798556D01*
X84881778Y-121803700D01*
X84881779Y-121803700D01*
X85118222Y-121803700D01*
X85151709Y-121799291D01*
X85352639Y-121772838D01*
X85581024Y-121711642D01*
X85799468Y-121621160D01*
X86004232Y-121502940D01*
X86191814Y-121359003D01*
X86359003Y-121191814D01*
X86502940Y-121004232D01*
X86621160Y-120799468D01*
X86711642Y-120581024D01*
X86772838Y-120352639D01*
X86803700Y-120118221D01*
X86803700Y-119881779D01*
X86801933Y-119868354D01*
X135554300Y-119868354D01*
X135554300Y-120131645D01*
X135588666Y-120392679D01*
X135588668Y-120392692D01*
X135656809Y-120646996D01*
X135656810Y-120646999D01*
X135757565Y-120890242D01*
X135889204Y-121118248D01*
X135889207Y-121118252D01*
X135889210Y-121118257D01*
X136049489Y-121327138D01*
X136235662Y-121513311D01*
X136444543Y-121673590D01*
X136444548Y-121673593D01*
X136444551Y-121673595D01*
X136672557Y-121805234D01*
X136915800Y-121905989D01*
X136915803Y-121905990D01*
X137170107Y-121974131D01*
X137170111Y-121974131D01*
X137170120Y-121974134D01*
X137400787Y-122004501D01*
X137431155Y-122008500D01*
X137431156Y-122008500D01*
X137694445Y-122008500D01*
X137721648Y-122004918D01*
X137955480Y-121974134D01*
X137955490Y-121974131D01*
X137955492Y-121974131D01*
X138068816Y-121943765D01*
X138209797Y-121905990D01*
X138453043Y-121805234D01*
X138681057Y-121673590D01*
X138889938Y-121513311D01*
X139076111Y-121327138D01*
X139236390Y-121118257D01*
X139368034Y-120890243D01*
X139468790Y-120646997D01*
X139536934Y-120392680D01*
X139571300Y-120131644D01*
X139571300Y-119868356D01*
X139571300Y-119868354D01*
X157554300Y-119868354D01*
X157554300Y-120131645D01*
X157588666Y-120392679D01*
X157588668Y-120392692D01*
X157656809Y-120646996D01*
X157656810Y-120646999D01*
X157757565Y-120890242D01*
X157889204Y-121118248D01*
X157889207Y-121118252D01*
X157889210Y-121118257D01*
X158049489Y-121327138D01*
X158235662Y-121513311D01*
X158444543Y-121673590D01*
X158444548Y-121673593D01*
X158444551Y-121673595D01*
X158672557Y-121805234D01*
X158915800Y-121905989D01*
X158915803Y-121905990D01*
X159170107Y-121974131D01*
X159170111Y-121974131D01*
X159170120Y-121974134D01*
X159400787Y-122004501D01*
X159431155Y-122008500D01*
X159431156Y-122008500D01*
X159694445Y-122008500D01*
X159721648Y-122004918D01*
X159955480Y-121974134D01*
X159955490Y-121974131D01*
X159955492Y-121974131D01*
X160068816Y-121943765D01*
X160209797Y-121905990D01*
X160453043Y-121805234D01*
X160681057Y-121673590D01*
X160889938Y-121513311D01*
X161076111Y-121327138D01*
X161236390Y-121118257D01*
X161368034Y-120890243D01*
X161468790Y-120646997D01*
X161536934Y-120392680D01*
X161571300Y-120131644D01*
X161571300Y-119881777D01*
X165696300Y-119881777D01*
X165696300Y-120118222D01*
X165727161Y-120352633D01*
X165727162Y-120352641D01*
X165788357Y-120581024D01*
X165788358Y-120581026D01*
X165878840Y-120799470D01*
X165997057Y-121004228D01*
X165997059Y-121004231D01*
X165997060Y-121004232D01*
X166140997Y-121191814D01*
X166308186Y-121359003D01*
X166495768Y-121502940D01*
X166495771Y-121502942D01*
X166700529Y-121621159D01*
X166918973Y-121711641D01*
X166918975Y-121711642D01*
X167050833Y-121746973D01*
X167147361Y-121772838D01*
X167342709Y-121798556D01*
X167381778Y-121803700D01*
X167381779Y-121803700D01*
X167618222Y-121803700D01*
X167651709Y-121799291D01*
X167852639Y-121772838D01*
X168081024Y-121711642D01*
X168299468Y-121621160D01*
X168504232Y-121502940D01*
X168691814Y-121359003D01*
X168859003Y-121191814D01*
X169002940Y-121004232D01*
X169121160Y-120799468D01*
X169211642Y-120581024D01*
X169272838Y-120352639D01*
X169303700Y-120118221D01*
X169303700Y-119881779D01*
X169303228Y-119878197D01*
X169294882Y-119814802D01*
X169272838Y-119647361D01*
X169211642Y-119418976D01*
X169121160Y-119200532D01*
X169121159Y-119200529D01*
X169002942Y-118995771D01*
X169002940Y-118995768D01*
X168859003Y-118808186D01*
X168691814Y-118640997D01*
X168504232Y-118497060D01*
X168504231Y-118497059D01*
X168504228Y-118497057D01*
X168299470Y-118378840D01*
X168081026Y-118288358D01*
X168081024Y-118288357D01*
X167852641Y-118227162D01*
X167852633Y-118227161D01*
X167618222Y-118196300D01*
X167618221Y-118196300D01*
X167381779Y-118196300D01*
X167381778Y-118196300D01*
X167147366Y-118227161D01*
X167147358Y-118227162D01*
X166918975Y-118288357D01*
X166918973Y-118288358D01*
X166700529Y-118378840D01*
X166495771Y-118497057D01*
X166308182Y-118641000D01*
X166141000Y-118808182D01*
X165997057Y-118995771D01*
X165878840Y-119200529D01*
X165788358Y-119418973D01*
X165788357Y-119418975D01*
X165727162Y-119647358D01*
X165727161Y-119647366D01*
X165696300Y-119881777D01*
X161571300Y-119881777D01*
X161571300Y-119868356D01*
X161536934Y-119607320D01*
X161486467Y-119418976D01*
X161468790Y-119353003D01*
X161468789Y-119353000D01*
X161368034Y-119109757D01*
X161236395Y-118881751D01*
X161236393Y-118881748D01*
X161236390Y-118881743D01*
X161076111Y-118672862D01*
X160889938Y-118486689D01*
X160681057Y-118326410D01*
X160681052Y-118326407D01*
X160681048Y-118326404D01*
X160453042Y-118194765D01*
X160209799Y-118094010D01*
X160209796Y-118094009D01*
X159955492Y-118025868D01*
X159955481Y-118025866D01*
X159955480Y-118025866D01*
X159824962Y-118008683D01*
X159694445Y-117991500D01*
X159694444Y-117991500D01*
X159431156Y-117991500D01*
X159431155Y-117991500D01*
X159170120Y-118025866D01*
X159170107Y-118025868D01*
X158915803Y-118094009D01*
X158915800Y-118094010D01*
X158672557Y-118194765D01*
X158444551Y-118326404D01*
X158235662Y-118486688D01*
X158049488Y-118672862D01*
X157889204Y-118881751D01*
X157757565Y-119109757D01*
X157656810Y-119353000D01*
X157656809Y-119353003D01*
X157588668Y-119607307D01*
X157588666Y-119607320D01*
X157554300Y-119868354D01*
X139571300Y-119868354D01*
X139536934Y-119607320D01*
X139486467Y-119418976D01*
X139468790Y-119353003D01*
X139468789Y-119353000D01*
X139368034Y-119109757D01*
X139236395Y-118881751D01*
X139236393Y-118881748D01*
X139236390Y-118881743D01*
X139076111Y-118672862D01*
X138889938Y-118486689D01*
X138681057Y-118326410D01*
X138681052Y-118326407D01*
X138681048Y-118326404D01*
X138453042Y-118194765D01*
X138209799Y-118094010D01*
X138209796Y-118094009D01*
X137955492Y-118025868D01*
X137955481Y-118025866D01*
X137955480Y-118025866D01*
X137824962Y-118008683D01*
X137694445Y-117991500D01*
X137694444Y-117991500D01*
X137431156Y-117991500D01*
X137431155Y-117991500D01*
X137170120Y-118025866D01*
X137170107Y-118025868D01*
X136915803Y-118094009D01*
X136915800Y-118094010D01*
X136672557Y-118194765D01*
X136444551Y-118326404D01*
X136235662Y-118486688D01*
X136049488Y-118672862D01*
X135889204Y-118881751D01*
X135757565Y-119109757D01*
X135656810Y-119353000D01*
X135656809Y-119353003D01*
X135588668Y-119607307D01*
X135588666Y-119607320D01*
X135554300Y-119868354D01*
X86801933Y-119868354D01*
X86772838Y-119647361D01*
X86711642Y-119418976D01*
X86621160Y-119200532D01*
X86621159Y-119200529D01*
X86502942Y-118995771D01*
X86502940Y-118995768D01*
X86359003Y-118808186D01*
X86191814Y-118640997D01*
X86004232Y-118497060D01*
X86004231Y-118497059D01*
X86004228Y-118497057D01*
X85799470Y-118378840D01*
X85581026Y-118288358D01*
X85581024Y-118288357D01*
X85352641Y-118227162D01*
X85352633Y-118227161D01*
X85118222Y-118196300D01*
X85118221Y-118196300D01*
X84881779Y-118196300D01*
X84881778Y-118196300D01*
X84647366Y-118227161D01*
X84647358Y-118227162D01*
X84418975Y-118288357D01*
X84418973Y-118288358D01*
X84200529Y-118378840D01*
X83995771Y-118497057D01*
X83808182Y-118641000D01*
X83641000Y-118808182D01*
X83497057Y-118995771D01*
X83378840Y-119200529D01*
X83288358Y-119418973D01*
X83288357Y-119418975D01*
X83227162Y-119647358D01*
X83227161Y-119647366D01*
X83196300Y-119881777D01*
X80500500Y-119881777D01*
X80500500Y-102954471D01*
X87670900Y-102954471D01*
X87670900Y-103191928D01*
X87708042Y-103426434D01*
X87708046Y-103426450D01*
X87781418Y-103652265D01*
X87781419Y-103652267D01*
X87889207Y-103863814D01*
X87889212Y-103863822D01*
X87889215Y-103863827D01*
X87958997Y-103959874D01*
X88028778Y-104055920D01*
X88028780Y-104055922D01*
X88196678Y-104223820D01*
X88388773Y-104363385D01*
X88388779Y-104363388D01*
X88388785Y-104363392D01*
X88600332Y-104471180D01*
X88600334Y-104471181D01*
X88826149Y-104544553D01*
X88826152Y-104544553D01*
X88826159Y-104544556D01*
X88826164Y-104544556D01*
X88826165Y-104544557D01*
X89060671Y-104581699D01*
X89060676Y-104581700D01*
X89060678Y-104581700D01*
X89298124Y-104581700D01*
X89298128Y-104581699D01*
X89532641Y-104544556D01*
X89758463Y-104471182D01*
X89758467Y-104471180D01*
X89970014Y-104363392D01*
X89970016Y-104363390D01*
X89970027Y-104363385D01*
X90162122Y-104223820D01*
X90330020Y-104055922D01*
X90469585Y-103863827D01*
X90577382Y-103652263D01*
X90650756Y-103426441D01*
X90687900Y-103191922D01*
X90687900Y-102954478D01*
X90650756Y-102719959D01*
X90577382Y-102494137D01*
X90577381Y-102494136D01*
X90577381Y-102494134D01*
X90577380Y-102494132D01*
X90469592Y-102282585D01*
X90469588Y-102282579D01*
X90469585Y-102282573D01*
X90330020Y-102090478D01*
X90162122Y-101922580D01*
X90162120Y-101922578D01*
X90066074Y-101852797D01*
X89970027Y-101783015D01*
X89970022Y-101783012D01*
X89970014Y-101783007D01*
X89758467Y-101675219D01*
X89758465Y-101675218D01*
X89532650Y-101601846D01*
X89532634Y-101601842D01*
X89298128Y-101564700D01*
X89298122Y-101564700D01*
X89060678Y-101564700D01*
X89060671Y-101564700D01*
X88826165Y-101601842D01*
X88826149Y-101601846D01*
X88600334Y-101675218D01*
X88600332Y-101675219D01*
X88388785Y-101783007D01*
X88388770Y-101783017D01*
X88196679Y-101922578D01*
X88028778Y-102090479D01*
X87889217Y-102282570D01*
X87889207Y-102282585D01*
X87781419Y-102494132D01*
X87781418Y-102494134D01*
X87708046Y-102719949D01*
X87708042Y-102719965D01*
X87670900Y-102954471D01*
X80500500Y-102954471D01*
X80500500Y-98396170D01*
X111484900Y-98396170D01*
X111484900Y-98555430D01*
X111489745Y-98579787D01*
X111515969Y-98711629D01*
X111576915Y-98858764D01*
X111576916Y-98858767D01*
X111576917Y-98858768D01*
X111665397Y-98991189D01*
X111665401Y-98991193D01*
X111666346Y-98992607D01*
X111683300Y-99048498D01*
X111683300Y-104860489D01*
X111706744Y-104978359D01*
X111725794Y-105024349D01*
X111739265Y-105056870D01*
X111745139Y-105071052D01*
X111752734Y-105089388D01*
X111819502Y-105189314D01*
X111819504Y-105189316D01*
X122843104Y-116212916D01*
X122928084Y-116297896D01*
X123028009Y-116364664D01*
X123073997Y-116383712D01*
X123073999Y-116383713D01*
X123074000Y-116383713D01*
X123139041Y-116410655D01*
X123227442Y-116428238D01*
X123256909Y-116434100D01*
X123256910Y-116434100D01*
X130066185Y-116434100D01*
X130125316Y-116453313D01*
X130155817Y-116489025D01*
X130219815Y-116614627D01*
X130289597Y-116710674D01*
X130359378Y-116806720D01*
X130359380Y-116806722D01*
X130527278Y-116974620D01*
X130719373Y-117114185D01*
X130719379Y-117114188D01*
X130719385Y-117114192D01*
X130930932Y-117221980D01*
X130930934Y-117221981D01*
X131156749Y-117295353D01*
X131156752Y-117295353D01*
X131156759Y-117295356D01*
X131156764Y-117295356D01*
X131156765Y-117295357D01*
X131391271Y-117332499D01*
X131391276Y-117332500D01*
X131391278Y-117332500D01*
X131628724Y-117332500D01*
X131628728Y-117332499D01*
X131863241Y-117295356D01*
X132089063Y-117221982D01*
X132089067Y-117221980D01*
X132300614Y-117114192D01*
X132300616Y-117114190D01*
X132300627Y-117114185D01*
X132492722Y-116974620D01*
X132660620Y-116806722D01*
X132800185Y-116614627D01*
X132882379Y-116453313D01*
X132907980Y-116403067D01*
X132907981Y-116403065D01*
X132920459Y-116364664D01*
X132981356Y-116177241D01*
X133018500Y-115942722D01*
X133018500Y-115705278D01*
X132981356Y-115470759D01*
X132907982Y-115244937D01*
X132907981Y-115244936D01*
X132907981Y-115244934D01*
X132907980Y-115244932D01*
X132800192Y-115033385D01*
X132800188Y-115033379D01*
X132800185Y-115033373D01*
X132660620Y-114841278D01*
X132492722Y-114673380D01*
X132492720Y-114673378D01*
X132396674Y-114603597D01*
X132300627Y-114533815D01*
X132300622Y-114533812D01*
X132300614Y-114533807D01*
X132089067Y-114426019D01*
X132089065Y-114426018D01*
X131863250Y-114352646D01*
X131863234Y-114352642D01*
X131628728Y-114315500D01*
X131628722Y-114315500D01*
X131391278Y-114315500D01*
X131391271Y-114315500D01*
X131156765Y-114352642D01*
X131156749Y-114352646D01*
X130930934Y-114426018D01*
X130930932Y-114426019D01*
X130719385Y-114533807D01*
X130719370Y-114533817D01*
X130527279Y-114673378D01*
X130359378Y-114841279D01*
X130219817Y-115033370D01*
X130219813Y-115033376D01*
X130202852Y-115066663D01*
X130155818Y-115158973D01*
X130111857Y-115202935D01*
X130066185Y-115213900D01*
X123611382Y-115213900D01*
X123552251Y-115194687D01*
X123540247Y-115184435D01*
X112932965Y-104577153D01*
X112904739Y-104521755D01*
X112903500Y-104506018D01*
X112903500Y-99048498D01*
X112920454Y-98992607D01*
X112921398Y-98991193D01*
X112921403Y-98991189D01*
X113009883Y-98858768D01*
X113070830Y-98711631D01*
X113101900Y-98555430D01*
X113101900Y-98396170D01*
X113070830Y-98239969D01*
X113009883Y-98092832D01*
X112921403Y-97960411D01*
X112829346Y-97868354D01*
X135554300Y-97868354D01*
X135554300Y-98131645D01*
X135588666Y-98392679D01*
X135588668Y-98392692D01*
X135656809Y-98646996D01*
X135656810Y-98646999D01*
X135757565Y-98890242D01*
X135889204Y-99118248D01*
X135889207Y-99118252D01*
X135889210Y-99118257D01*
X136049489Y-99327138D01*
X136235662Y-99513311D01*
X136444543Y-99673590D01*
X136444548Y-99673593D01*
X136444551Y-99673595D01*
X136672557Y-99805234D01*
X136915800Y-99905989D01*
X136915803Y-99905990D01*
X137170107Y-99974131D01*
X137170111Y-99974131D01*
X137170120Y-99974134D01*
X137400787Y-100004501D01*
X137431155Y-100008500D01*
X137431156Y-100008500D01*
X137694445Y-100008500D01*
X137721648Y-100004918D01*
X137955480Y-99974134D01*
X137955490Y-99974131D01*
X137955492Y-99974131D01*
X138068816Y-99943765D01*
X138209797Y-99905990D01*
X138453043Y-99805234D01*
X138681057Y-99673590D01*
X138889938Y-99513311D01*
X139076111Y-99327138D01*
X139236390Y-99118257D01*
X139368034Y-98890243D01*
X139468790Y-98646997D01*
X139536934Y-98392680D01*
X139571300Y-98131644D01*
X139571300Y-97868356D01*
X139568593Y-97847798D01*
X139551961Y-97721461D01*
X139548213Y-97692993D01*
X139536934Y-97607320D01*
X139534802Y-97599365D01*
X139468790Y-97353003D01*
X139468789Y-97353000D01*
X139368034Y-97109757D01*
X139236395Y-96881751D01*
X139236393Y-96881748D01*
X139236390Y-96881743D01*
X139095532Y-96698172D01*
X143498800Y-96698172D01*
X143498800Y-97250000D01*
X144319788Y-97250000D01*
X144286875Y-97307007D01*
X144252800Y-97434174D01*
X144252800Y-97565826D01*
X144286875Y-97692993D01*
X144319788Y-97750000D01*
X143498800Y-97750000D01*
X143498800Y-98301827D01*
X143505202Y-98361375D01*
X143505203Y-98361380D01*
X143555444Y-98496085D01*
X143555445Y-98496087D01*
X143641611Y-98611188D01*
X143756712Y-98697354D01*
X143756714Y-98697355D01*
X143891419Y-98747596D01*
X143891424Y-98747597D01*
X143950972Y-98754000D01*
X144502800Y-98754000D01*
X144502800Y-97933012D01*
X144559807Y-97965925D01*
X144686974Y-98000000D01*
X144818626Y-98000000D01*
X144945793Y-97965925D01*
X145002800Y-97933012D01*
X145002800Y-98754000D01*
X145554628Y-98754000D01*
X145614175Y-98747597D01*
X145614180Y-98747596D01*
X145748885Y-98697355D01*
X145748887Y-98697354D01*
X145863988Y-98611188D01*
X145950154Y-98496087D01*
X145950155Y-98496085D01*
X146000396Y-98361380D01*
X146000397Y-98361375D01*
X146006800Y-98301827D01*
X146006800Y-98176007D01*
X146026013Y-98116876D01*
X146076313Y-98080331D01*
X146138487Y-98080331D01*
X146188787Y-98116876D01*
X146197031Y-98130328D01*
X146213013Y-98161694D01*
X146223412Y-98176007D01*
X146329817Y-98322462D01*
X146329819Y-98322464D01*
X146470336Y-98462981D01*
X146631106Y-98579787D01*
X146631114Y-98579791D01*
X146808167Y-98670005D01*
X146997154Y-98731410D01*
X146997156Y-98731410D01*
X146997164Y-98731413D01*
X147193435Y-98762499D01*
X147193437Y-98762500D01*
X147193439Y-98762500D01*
X147392163Y-98762500D01*
X147392163Y-98762499D01*
X147588436Y-98731413D01*
X147777432Y-98670005D01*
X147954494Y-98579787D01*
X148115264Y-98462981D01*
X148255781Y-98322464D01*
X148372587Y-98161694D01*
X148462805Y-97984632D01*
X148467123Y-97971339D01*
X148503668Y-97921041D01*
X148562799Y-97901827D01*
X148621930Y-97921039D01*
X148658476Y-97971339D01*
X148658477Y-97971341D01*
X148662796Y-97984636D01*
X148737702Y-98131645D01*
X148753013Y-98161694D01*
X148763412Y-98176007D01*
X148869817Y-98322462D01*
X148869819Y-98322464D01*
X149010336Y-98462981D01*
X149171106Y-98579787D01*
X149171114Y-98579791D01*
X149348167Y-98670005D01*
X149537154Y-98731410D01*
X149537156Y-98731410D01*
X149537164Y-98731413D01*
X149733435Y-98762499D01*
X149733437Y-98762500D01*
X149733439Y-98762500D01*
X149932163Y-98762500D01*
X149932163Y-98762499D01*
X150128436Y-98731413D01*
X150317432Y-98670005D01*
X150494494Y-98579787D01*
X150655264Y-98462981D01*
X150795781Y-98322464D01*
X150912587Y-98161694D01*
X151002805Y-97984632D01*
X151007123Y-97971339D01*
X151043668Y-97921041D01*
X151102799Y-97901827D01*
X151161930Y-97921039D01*
X151198476Y-97971339D01*
X151198477Y-97971341D01*
X151202796Y-97984636D01*
X151277702Y-98131645D01*
X151293013Y-98161694D01*
X151303412Y-98176007D01*
X151409817Y-98322462D01*
X151550337Y-98462982D01*
X151711103Y-98579785D01*
X151714474Y-98581851D01*
X151713342Y-98583697D01*
X151751681Y-98621944D01*
X151762700Y-98667723D01*
X151762700Y-100712236D01*
X151745747Y-100768125D01*
X151734318Y-100785229D01*
X151734315Y-100785235D01*
X151673369Y-100932370D01*
X151642300Y-101088570D01*
X151642300Y-101247829D01*
X151673369Y-101404029D01*
X151734315Y-101551164D01*
X151734319Y-101551172D01*
X151768176Y-101601842D01*
X151822797Y-101683589D01*
X151935411Y-101796203D01*
X152022893Y-101854656D01*
X152067827Y-101884680D01*
X152067829Y-101884681D01*
X152067832Y-101884683D01*
X152214969Y-101945630D01*
X152371170Y-101976700D01*
X152371171Y-101976700D01*
X152530429Y-101976700D01*
X152530430Y-101976700D01*
X152686631Y-101945630D01*
X152833768Y-101884683D01*
X152966189Y-101796203D01*
X153078803Y-101683589D01*
X153167283Y-101551168D01*
X153228230Y-101404031D01*
X153259300Y-101247830D01*
X153259300Y-101088570D01*
X153228230Y-100932369D01*
X153167283Y-100785232D01*
X153078803Y-100652811D01*
X153012365Y-100586373D01*
X152984139Y-100530975D01*
X152982900Y-100515238D01*
X152982900Y-98667723D01*
X153002113Y-98608592D01*
X153031927Y-98583158D01*
X153031126Y-98581851D01*
X153034486Y-98579790D01*
X153034494Y-98579787D01*
X153195264Y-98462981D01*
X153335781Y-98322464D01*
X153452587Y-98161694D01*
X153542805Y-97984632D01*
X153550675Y-97960410D01*
X153580586Y-97868354D01*
X157554300Y-97868354D01*
X157554300Y-98131645D01*
X157588666Y-98392679D01*
X157588668Y-98392692D01*
X157656809Y-98646996D01*
X157656810Y-98646999D01*
X157757565Y-98890242D01*
X157889204Y-99118248D01*
X157889207Y-99118252D01*
X157889210Y-99118257D01*
X158049489Y-99327138D01*
X158235662Y-99513311D01*
X158444543Y-99673590D01*
X158444548Y-99673593D01*
X158444551Y-99673595D01*
X158672557Y-99805234D01*
X158915800Y-99905989D01*
X158915803Y-99905990D01*
X159170107Y-99974131D01*
X159170111Y-99974131D01*
X159170120Y-99974134D01*
X159400787Y-100004501D01*
X159431155Y-100008500D01*
X159431156Y-100008500D01*
X159694445Y-100008500D01*
X159721648Y-100004918D01*
X159955480Y-99974134D01*
X159955490Y-99974131D01*
X159955492Y-99974131D01*
X160068816Y-99943765D01*
X160209797Y-99905990D01*
X160453043Y-99805234D01*
X160681057Y-99673590D01*
X160889938Y-99513311D01*
X161076111Y-99327138D01*
X161236390Y-99118257D01*
X161368034Y-98890243D01*
X161468790Y-98646997D01*
X161536934Y-98392680D01*
X161571300Y-98131644D01*
X161571300Y-97868356D01*
X161568593Y-97847798D01*
X161561726Y-97795636D01*
X161536934Y-97607320D01*
X161534802Y-97599365D01*
X161468790Y-97353003D01*
X161468789Y-97353000D01*
X161368034Y-97109757D01*
X161236395Y-96881751D01*
X161236393Y-96881748D01*
X161236390Y-96881743D01*
X161076111Y-96672862D01*
X160889938Y-96486689D01*
X160681057Y-96326410D01*
X160681052Y-96326407D01*
X160681048Y-96326404D01*
X160453042Y-96194765D01*
X160209799Y-96094010D01*
X160209796Y-96094009D01*
X159955492Y-96025868D01*
X159955481Y-96025866D01*
X159955480Y-96025866D01*
X159824962Y-96008683D01*
X159694445Y-95991500D01*
X159694444Y-95991500D01*
X159431156Y-95991500D01*
X159431155Y-95991500D01*
X159170120Y-96025866D01*
X159170107Y-96025868D01*
X158915803Y-96094009D01*
X158915800Y-96094010D01*
X158672557Y-96194765D01*
X158444551Y-96326404D01*
X158235662Y-96486688D01*
X158049488Y-96672862D01*
X157922542Y-96838303D01*
X157898479Y-96869664D01*
X157889204Y-96881751D01*
X157757565Y-97109757D01*
X157656810Y-97353000D01*
X157656809Y-97353003D01*
X157588668Y-97607307D01*
X157588666Y-97607320D01*
X157554300Y-97868354D01*
X153580586Y-97868354D01*
X153591756Y-97833976D01*
X153591756Y-97833975D01*
X153604211Y-97795641D01*
X153604213Y-97795636D01*
X153635300Y-97599361D01*
X153635300Y-97400639D01*
X153604213Y-97204364D01*
X153604210Y-97204354D01*
X153542805Y-97015367D01*
X153452591Y-96838314D01*
X153452587Y-96838306D01*
X153335781Y-96677536D01*
X153195264Y-96537019D01*
X153195262Y-96537017D01*
X153058443Y-96437613D01*
X153034494Y-96420213D01*
X153034488Y-96420210D01*
X153034485Y-96420208D01*
X152857432Y-96329994D01*
X152668445Y-96268589D01*
X152668431Y-96268586D01*
X152472165Y-96237500D01*
X152472161Y-96237500D01*
X152273439Y-96237500D01*
X152273434Y-96237500D01*
X152077168Y-96268586D01*
X152077154Y-96268589D01*
X151888167Y-96329994D01*
X151711114Y-96420208D01*
X151711103Y-96420215D01*
X151550337Y-96537017D01*
X151409817Y-96677537D01*
X151293015Y-96838303D01*
X151293008Y-96838314D01*
X151202795Y-97015366D01*
X151198476Y-97028660D01*
X151161931Y-97078959D01*
X151102799Y-97098172D01*
X151043668Y-97078959D01*
X151007124Y-97028660D01*
X151002804Y-97015366D01*
X150912591Y-96838314D01*
X150912587Y-96838306D01*
X150795781Y-96677536D01*
X150655264Y-96537019D01*
X150655262Y-96537017D01*
X150494497Y-96420215D01*
X150491118Y-96418144D01*
X150492225Y-96416337D01*
X150453824Y-96377868D01*
X150442900Y-96332276D01*
X150442900Y-94044698D01*
X150459854Y-93988807D01*
X150460798Y-93987393D01*
X150460803Y-93987389D01*
X150549283Y-93854968D01*
X150610230Y-93707831D01*
X150641300Y-93551630D01*
X150641300Y-93392370D01*
X150610230Y-93236169D01*
X150549283Y-93089032D01*
X150538513Y-93072914D01*
X150521944Y-93048116D01*
X150460803Y-92956611D01*
X150348189Y-92843997D01*
X150284780Y-92801629D01*
X150215772Y-92755519D01*
X150215764Y-92755515D01*
X150121815Y-92716600D01*
X150068631Y-92694570D01*
X150068627Y-92694569D01*
X150068630Y-92694569D01*
X149941760Y-92669334D01*
X149912430Y-92663500D01*
X149753170Y-92663500D01*
X149723840Y-92669334D01*
X149596970Y-92694569D01*
X149449835Y-92755515D01*
X149449827Y-92755519D01*
X149343678Y-92826445D01*
X149317411Y-92843997D01*
X149317410Y-92843998D01*
X149317409Y-92843998D01*
X149204798Y-92956609D01*
X149204798Y-92956610D01*
X149116319Y-93089027D01*
X149116315Y-93089035D01*
X149055369Y-93236170D01*
X149032727Y-93350003D01*
X149024300Y-93392370D01*
X149024300Y-93551630D01*
X149026822Y-93564310D01*
X149055369Y-93707829D01*
X149116315Y-93854964D01*
X149116316Y-93854967D01*
X149116317Y-93854968D01*
X149204797Y-93987389D01*
X149204801Y-93987393D01*
X149205746Y-93988807D01*
X149222700Y-94044698D01*
X149222700Y-96332276D01*
X149203487Y-96391407D01*
X149173701Y-96416869D01*
X149174482Y-96418144D01*
X149171102Y-96420215D01*
X149010337Y-96537017D01*
X148869817Y-96677537D01*
X148753015Y-96838303D01*
X148753008Y-96838314D01*
X148662795Y-97015366D01*
X148658476Y-97028660D01*
X148621931Y-97078959D01*
X148562799Y-97098172D01*
X148503668Y-97078959D01*
X148467124Y-97028660D01*
X148462804Y-97015366D01*
X148372591Y-96838314D01*
X148372587Y-96838306D01*
X148255781Y-96677536D01*
X148115264Y-96537019D01*
X148115262Y-96537017D01*
X147978443Y-96437613D01*
X147954494Y-96420213D01*
X147954488Y-96420210D01*
X147954485Y-96420208D01*
X147777432Y-96329994D01*
X147588445Y-96268589D01*
X147588431Y-96268586D01*
X147392165Y-96237500D01*
X147392161Y-96237500D01*
X147193439Y-96237500D01*
X147193434Y-96237500D01*
X146997168Y-96268586D01*
X146997154Y-96268589D01*
X146808167Y-96329994D01*
X146631114Y-96420208D01*
X146631103Y-96420215D01*
X146470337Y-96537017D01*
X146329817Y-96677537D01*
X146213015Y-96838303D01*
X146213008Y-96838314D01*
X146197035Y-96869664D01*
X146153071Y-96913628D01*
X146091662Y-96923353D01*
X146036265Y-96895127D01*
X146008038Y-96839729D01*
X146006800Y-96823992D01*
X146006800Y-96698172D01*
X146000397Y-96638624D01*
X146000396Y-96638619D01*
X145950155Y-96503914D01*
X145950154Y-96503912D01*
X145863988Y-96388811D01*
X145748887Y-96302645D01*
X145748885Y-96302644D01*
X145614180Y-96252403D01*
X145614175Y-96252402D01*
X145554628Y-96246000D01*
X145002800Y-96246000D01*
X145002800Y-97066988D01*
X144945793Y-97034075D01*
X144818626Y-97000000D01*
X144686974Y-97000000D01*
X144559807Y-97034075D01*
X144502800Y-97066988D01*
X144502800Y-96246000D01*
X143950972Y-96246000D01*
X143891424Y-96252402D01*
X143891419Y-96252403D01*
X143756714Y-96302644D01*
X143756712Y-96302645D01*
X143641611Y-96388811D01*
X143555445Y-96503912D01*
X143555444Y-96503914D01*
X143505203Y-96638619D01*
X143505202Y-96638624D01*
X143498800Y-96698172D01*
X139095532Y-96698172D01*
X139076111Y-96672862D01*
X138889938Y-96486689D01*
X138681057Y-96326410D01*
X138681052Y-96326407D01*
X138681048Y-96326404D01*
X138453042Y-96194765D01*
X138209799Y-96094010D01*
X138209796Y-96094009D01*
X137955492Y-96025868D01*
X137955481Y-96025866D01*
X137955480Y-96025866D01*
X137824962Y-96008683D01*
X137694445Y-95991500D01*
X137694444Y-95991500D01*
X137431156Y-95991500D01*
X137431155Y-95991500D01*
X137170120Y-96025866D01*
X137170107Y-96025868D01*
X136915803Y-96094009D01*
X136915800Y-96094010D01*
X136672557Y-96194765D01*
X136444551Y-96326404D01*
X136235662Y-96486688D01*
X136049488Y-96672862D01*
X135922542Y-96838303D01*
X135898479Y-96869664D01*
X135889204Y-96881751D01*
X135757565Y-97109757D01*
X135656810Y-97353000D01*
X135656809Y-97353003D01*
X135588668Y-97607307D01*
X135588666Y-97607320D01*
X135554300Y-97868354D01*
X112829346Y-97868354D01*
X112808789Y-97847797D01*
X112747742Y-97807007D01*
X112676372Y-97759319D01*
X112676364Y-97759315D01*
X112625878Y-97738403D01*
X112529231Y-97698370D01*
X112529227Y-97698369D01*
X112529230Y-97698369D01*
X112404099Y-97673479D01*
X112373030Y-97667300D01*
X112213770Y-97667300D01*
X112182701Y-97673479D01*
X112057570Y-97698369D01*
X111910435Y-97759315D01*
X111910427Y-97759319D01*
X111839058Y-97807007D01*
X111778011Y-97847797D01*
X111778010Y-97847798D01*
X111778009Y-97847798D01*
X111665398Y-97960409D01*
X111665398Y-97960410D01*
X111576919Y-98092827D01*
X111576915Y-98092835D01*
X111515969Y-98239970D01*
X111499561Y-98322462D01*
X111484900Y-98396170D01*
X80500500Y-98396170D01*
X80500500Y-92487836D01*
X80519713Y-92428705D01*
X80570013Y-92392160D01*
X80632187Y-92392160D01*
X80682487Y-92428705D01*
X80690735Y-92442164D01*
X80759196Y-92576526D01*
X80759197Y-92576527D01*
X80860965Y-92716600D01*
X80983399Y-92839034D01*
X81123472Y-92940802D01*
X81123473Y-92940803D01*
X81277746Y-93019410D01*
X81442406Y-93072911D01*
X81442420Y-93072914D01*
X81613423Y-93099999D01*
X81613425Y-93100000D01*
X81750000Y-93100000D01*
X81750000Y-92299999D01*
X82250000Y-92299999D01*
X82250000Y-93100000D01*
X82386575Y-93100000D01*
X82386576Y-93099999D01*
X82557579Y-93072914D01*
X82557593Y-93072911D01*
X82722253Y-93019410D01*
X82876526Y-92940803D01*
X82876527Y-92940802D01*
X83016600Y-92839034D01*
X83139034Y-92716600D01*
X83240802Y-92576527D01*
X83240803Y-92576526D01*
X83319410Y-92422253D01*
X83372912Y-92257589D01*
X83372915Y-92257576D01*
X83374115Y-92250000D01*
X82466986Y-92250000D01*
X82484204Y-92240059D01*
X82540059Y-92184204D01*
X82579555Y-92115795D01*
X82599999Y-92039496D01*
X82599999Y-91960504D01*
X82579555Y-91884205D01*
X82540059Y-91815796D01*
X82484204Y-91759941D01*
X82466986Y-91750000D01*
X83374115Y-91750000D01*
X84739157Y-91750000D01*
X85593002Y-91750000D01*
X85575784Y-91759941D01*
X85519929Y-91815796D01*
X85480433Y-91884205D01*
X85459989Y-91960504D01*
X85459989Y-92039496D01*
X85480433Y-92115795D01*
X85519929Y-92184204D01*
X85575784Y-92240059D01*
X85593002Y-92250000D01*
X84739157Y-92250000D01*
X84750350Y-92306275D01*
X84829499Y-92497357D01*
X84829504Y-92497366D01*
X84944409Y-92669334D01*
X85090665Y-92815590D01*
X85262633Y-92930495D01*
X85262642Y-92930500D01*
X85453723Y-93009649D01*
X85656585Y-93050000D01*
X85960000Y-93050000D01*
X85960000Y-92299999D01*
X86460000Y-92299999D01*
X86460000Y-93050000D01*
X86763415Y-93050000D01*
X86966276Y-93009649D01*
X87157357Y-92930500D01*
X87157366Y-92930495D01*
X87329334Y-92815590D01*
X87329336Y-92815589D01*
X87475589Y-92669336D01*
X87475590Y-92669334D01*
X87590495Y-92497366D01*
X87590500Y-92497357D01*
X87669649Y-92306275D01*
X87680843Y-92250000D01*
X86826998Y-92250000D01*
X86844216Y-92240059D01*
X86900071Y-92184204D01*
X86939567Y-92115795D01*
X86960011Y-92039496D01*
X86960011Y-91960504D01*
X86939567Y-91884205D01*
X86900071Y-91815796D01*
X86844216Y-91759941D01*
X86826998Y-91750000D01*
X87680843Y-91750000D01*
X87669649Y-91693724D01*
X87590500Y-91502642D01*
X87590495Y-91502633D01*
X87475590Y-91330665D01*
X87329334Y-91184409D01*
X87157366Y-91069504D01*
X87157357Y-91069499D01*
X86966276Y-90990350D01*
X86763415Y-90950000D01*
X86601842Y-90950000D01*
X86542711Y-90930787D01*
X86506166Y-90880487D01*
X86505627Y-90825477D01*
X86504544Y-90825262D01*
X86538500Y-90654554D01*
X86538500Y-90485445D01*
X86537821Y-90482031D01*
X86505508Y-90319585D01*
X86440793Y-90163348D01*
X86346841Y-90022738D01*
X86227262Y-89903159D01*
X86093055Y-89813485D01*
X86086656Y-89809209D01*
X86086648Y-89809205D01*
X85930417Y-89744492D01*
X85819841Y-89722497D01*
X85764555Y-89711500D01*
X85595445Y-89711500D01*
X85553980Y-89719748D01*
X85429582Y-89744492D01*
X85273351Y-89809205D01*
X85273343Y-89809209D01*
X85160630Y-89884522D01*
X85132738Y-89903159D01*
X85132737Y-89903160D01*
X85132736Y-89903160D01*
X85013160Y-90022736D01*
X85013160Y-90022737D01*
X85013159Y-90022738D01*
X85010385Y-90026890D01*
X84919209Y-90163343D01*
X84919205Y-90163351D01*
X84854492Y-90319582D01*
X84821500Y-90485445D01*
X84821500Y-90654554D01*
X84854492Y-90820417D01*
X84919205Y-90976648D01*
X84919209Y-90976656D01*
X84949332Y-91021737D01*
X85013159Y-91117262D01*
X85013160Y-91117263D01*
X85014351Y-91118454D01*
X85014700Y-91119140D01*
X85016298Y-91121087D01*
X85015871Y-91121437D01*
X85042577Y-91173852D01*
X85032851Y-91235260D01*
X85014351Y-91260724D01*
X84944411Y-91330664D01*
X84944409Y-91330665D01*
X84829504Y-91502633D01*
X84829499Y-91502642D01*
X84750350Y-91693724D01*
X84739157Y-91750000D01*
X83374115Y-91750000D01*
X83372915Y-91742423D01*
X83372912Y-91742410D01*
X83319410Y-91577746D01*
X83240803Y-91423473D01*
X83240802Y-91423472D01*
X83139034Y-91283399D01*
X83016600Y-91160965D01*
X82876527Y-91059197D01*
X82876526Y-91059196D01*
X82722253Y-90980589D01*
X82557593Y-90927088D01*
X82557579Y-90927085D01*
X82386576Y-90900000D01*
X82250000Y-90900000D01*
X82250000Y-91700001D01*
X81750000Y-91700001D01*
X81750000Y-90900000D01*
X81613424Y-90900000D01*
X81442420Y-90927085D01*
X81442406Y-90927088D01*
X81277746Y-90980589D01*
X81123473Y-91059196D01*
X81123472Y-91059197D01*
X80983399Y-91160965D01*
X80860965Y-91283399D01*
X80759197Y-91423472D01*
X80759196Y-91423473D01*
X80690735Y-91557835D01*
X80646771Y-91601799D01*
X80585362Y-91611524D01*
X80529965Y-91583297D01*
X80501738Y-91527900D01*
X80500500Y-91512163D01*
X80500500Y-86666294D01*
X87379500Y-86666294D01*
X87379500Y-86815705D01*
X87408649Y-86962248D01*
X87465824Y-87100280D01*
X87465829Y-87100290D01*
X87510945Y-87167809D01*
X87527900Y-87223700D01*
X87527900Y-88163298D01*
X87510946Y-88219188D01*
X87465828Y-88286711D01*
X87465824Y-88286719D01*
X87408649Y-88424751D01*
X87379500Y-88571294D01*
X87379500Y-88720705D01*
X87408649Y-88867248D01*
X87465824Y-89005280D01*
X87465828Y-89005288D01*
X87548833Y-89129514D01*
X87654485Y-89235166D01*
X87778711Y-89318171D01*
X87778713Y-89318172D01*
X87778716Y-89318174D01*
X87847735Y-89346762D01*
X87916751Y-89375350D01*
X87916752Y-89375350D01*
X87916754Y-89375351D01*
X88063294Y-89404500D01*
X88063295Y-89404500D01*
X88212705Y-89404500D01*
X88212706Y-89404500D01*
X88359246Y-89375351D01*
X88497284Y-89318174D01*
X88621516Y-89235165D01*
X88727165Y-89129516D01*
X88810174Y-89005284D01*
X88867351Y-88867246D01*
X88896500Y-88720706D01*
X88896500Y-88571294D01*
X88867351Y-88424754D01*
X88810174Y-88286716D01*
X88810171Y-88286711D01*
X88765054Y-88219188D01*
X88748100Y-88163298D01*
X88748100Y-87223700D01*
X88765055Y-87167809D01*
X88810170Y-87100290D01*
X88810170Y-87100289D01*
X88810174Y-87100284D01*
X88867351Y-86962246D01*
X88896500Y-86815706D01*
X88896500Y-86666294D01*
X88867351Y-86519754D01*
X88810174Y-86381716D01*
X88783522Y-86341829D01*
X88727166Y-86257485D01*
X88621514Y-86151833D01*
X88497288Y-86068828D01*
X88497280Y-86068824D01*
X88359248Y-86011649D01*
X88261552Y-85992216D01*
X88212706Y-85982500D01*
X88063294Y-85982500D01*
X88026659Y-85989787D01*
X87916751Y-86011649D01*
X87778719Y-86068824D01*
X87778711Y-86068828D01*
X87654485Y-86151833D01*
X87654484Y-86151835D01*
X87548835Y-86257484D01*
X87548833Y-86257485D01*
X87465828Y-86381711D01*
X87465824Y-86381719D01*
X87408649Y-86519751D01*
X87379500Y-86666294D01*
X80500500Y-86666294D01*
X80500500Y-83847836D01*
X80519713Y-83788705D01*
X80570013Y-83752160D01*
X80632187Y-83752160D01*
X80682487Y-83788705D01*
X80690735Y-83802164D01*
X80759196Y-83936526D01*
X80759197Y-83936527D01*
X80860965Y-84076600D01*
X80983399Y-84199034D01*
X81123472Y-84300802D01*
X81123473Y-84300803D01*
X81277746Y-84379410D01*
X81442406Y-84432911D01*
X81442420Y-84432914D01*
X81613423Y-84459999D01*
X81613425Y-84460000D01*
X81750000Y-84460000D01*
X81750000Y-83659999D01*
X82250000Y-83659999D01*
X82250000Y-84460000D01*
X82386575Y-84460000D01*
X82386576Y-84459999D01*
X82557579Y-84432914D01*
X82557593Y-84432911D01*
X82722253Y-84379410D01*
X82876526Y-84300803D01*
X82876527Y-84300802D01*
X83016600Y-84199034D01*
X83139034Y-84076600D01*
X83240802Y-83936527D01*
X83240803Y-83936526D01*
X83319410Y-83782253D01*
X83372912Y-83617589D01*
X83372915Y-83617576D01*
X83374115Y-83610000D01*
X82466986Y-83610000D01*
X82484204Y-83600059D01*
X82540059Y-83544204D01*
X82579555Y-83475795D01*
X82599999Y-83399496D01*
X82599999Y-83320504D01*
X82579555Y-83244205D01*
X82540059Y-83175796D01*
X82484204Y-83119941D01*
X82466986Y-83110000D01*
X83374115Y-83110000D01*
X84739157Y-83110000D01*
X85593014Y-83110000D01*
X85575796Y-83119941D01*
X85519941Y-83175796D01*
X85480445Y-83244205D01*
X85460001Y-83320504D01*
X85460001Y-83399496D01*
X85480445Y-83475795D01*
X85519941Y-83544204D01*
X85575796Y-83600059D01*
X85593014Y-83610000D01*
X84739157Y-83610000D01*
X84750350Y-83666275D01*
X84829499Y-83857357D01*
X84829504Y-83857366D01*
X84944409Y-84029334D01*
X85014351Y-84099276D01*
X85042577Y-84154674D01*
X85032851Y-84216082D01*
X85016276Y-84238895D01*
X85016298Y-84238913D01*
X85016000Y-84239275D01*
X85014351Y-84241546D01*
X85013160Y-84242736D01*
X85013160Y-84242737D01*
X84919209Y-84383343D01*
X84919205Y-84383351D01*
X84854492Y-84539582D01*
X84821500Y-84705445D01*
X84821500Y-84874554D01*
X84854492Y-85040417D01*
X84919205Y-85196648D01*
X84919209Y-85196656D01*
X84956992Y-85253202D01*
X85013159Y-85337262D01*
X85132738Y-85456841D01*
X85225629Y-85518908D01*
X85273343Y-85550790D01*
X85273345Y-85550791D01*
X85273348Y-85550793D01*
X85307461Y-85564923D01*
X85429582Y-85615507D01*
X85429583Y-85615507D01*
X85429585Y-85615508D01*
X85595445Y-85648500D01*
X85595446Y-85648500D01*
X85764554Y-85648500D01*
X85764555Y-85648500D01*
X85930415Y-85615508D01*
X86086652Y-85550793D01*
X86227262Y-85456841D01*
X86346841Y-85337262D01*
X86440793Y-85196652D01*
X86505508Y-85040415D01*
X86538500Y-84874555D01*
X86538500Y-84705445D01*
X86505508Y-84539585D01*
X86504544Y-84534738D01*
X86505679Y-84534512D01*
X86506793Y-84477646D01*
X86544315Y-84428071D01*
X86601842Y-84410000D01*
X86763415Y-84410000D01*
X86966276Y-84369649D01*
X87157357Y-84290500D01*
X87157366Y-84290495D01*
X87329334Y-84175590D01*
X87329336Y-84175589D01*
X87475589Y-84029336D01*
X87475590Y-84029334D01*
X87590495Y-83857366D01*
X87590500Y-83857357D01*
X87669649Y-83666275D01*
X87680843Y-83610000D01*
X86826986Y-83610000D01*
X86844204Y-83600059D01*
X86900059Y-83544204D01*
X86939555Y-83475795D01*
X86959999Y-83399496D01*
X86959999Y-83320504D01*
X86939555Y-83244205D01*
X86900059Y-83175796D01*
X86844204Y-83119941D01*
X86826986Y-83110000D01*
X87680843Y-83110000D01*
X87669649Y-83053724D01*
X87590500Y-82862642D01*
X87590495Y-82862633D01*
X87475590Y-82690665D01*
X87329334Y-82544409D01*
X87157366Y-82429504D01*
X87157357Y-82429499D01*
X86966276Y-82350350D01*
X86763415Y-82310000D01*
X86460000Y-82310000D01*
X86460000Y-83060001D01*
X85960000Y-83060001D01*
X85960000Y-82310000D01*
X85656585Y-82310000D01*
X85453723Y-82350350D01*
X85262642Y-82429499D01*
X85262633Y-82429504D01*
X85090665Y-82544409D01*
X85090664Y-82544411D01*
X84944411Y-82690664D01*
X84944409Y-82690665D01*
X84829504Y-82862633D01*
X84829499Y-82862642D01*
X84750350Y-83053724D01*
X84739157Y-83110000D01*
X83374115Y-83110000D01*
X83372915Y-83102423D01*
X83372912Y-83102410D01*
X83319410Y-82937746D01*
X83240803Y-82783473D01*
X83240802Y-82783472D01*
X83139034Y-82643399D01*
X83016600Y-82520965D01*
X82876527Y-82419197D01*
X82876526Y-82419196D01*
X82722253Y-82340589D01*
X82557593Y-82287088D01*
X82557579Y-82287085D01*
X82386576Y-82260000D01*
X82250000Y-82260000D01*
X82250000Y-83060001D01*
X81750000Y-83060001D01*
X81750000Y-82260000D01*
X81613424Y-82260000D01*
X81442420Y-82287085D01*
X81442406Y-82287088D01*
X81277746Y-82340589D01*
X81123473Y-82419196D01*
X81123472Y-82419197D01*
X80983399Y-82520965D01*
X80860965Y-82643399D01*
X80759197Y-82783472D01*
X80759196Y-82783473D01*
X80690735Y-82917835D01*
X80646771Y-82961799D01*
X80585362Y-82971524D01*
X80529965Y-82943297D01*
X80501738Y-82887900D01*
X80500500Y-82872163D01*
X80500500Y-74881271D01*
X83491500Y-74881271D01*
X83491500Y-75118728D01*
X83528642Y-75353234D01*
X83528646Y-75353250D01*
X83602018Y-75579065D01*
X83602019Y-75579067D01*
X83709807Y-75790614D01*
X83709812Y-75790622D01*
X83709815Y-75790627D01*
X83779597Y-75886674D01*
X83849378Y-75982720D01*
X83849380Y-75982722D01*
X84017278Y-76150620D01*
X84209373Y-76290185D01*
X84209379Y-76290188D01*
X84209385Y-76290192D01*
X84420932Y-76397980D01*
X84420934Y-76397981D01*
X84646749Y-76471353D01*
X84646752Y-76471353D01*
X84646759Y-76471356D01*
X84646764Y-76471356D01*
X84646765Y-76471357D01*
X84881271Y-76508499D01*
X84881276Y-76508500D01*
X84881278Y-76508500D01*
X85118724Y-76508500D01*
X85118728Y-76508499D01*
X85256040Y-76486751D01*
X85353241Y-76471356D01*
X85487304Y-76427795D01*
X85549476Y-76427795D01*
X85589525Y-76452337D01*
X90419435Y-81282247D01*
X90447661Y-81337645D01*
X90448900Y-81353382D01*
X90448900Y-84854099D01*
X90431946Y-84909989D01*
X90383284Y-84982816D01*
X90383280Y-84982824D01*
X90325803Y-85121585D01*
X90325801Y-85121594D01*
X90296500Y-85268900D01*
X90296500Y-89483100D01*
X90305773Y-89529717D01*
X90325801Y-89630405D01*
X90325803Y-89630414D01*
X90367389Y-89730810D01*
X90383282Y-89769179D01*
X90431946Y-89842009D01*
X90448900Y-89897899D01*
X90448900Y-93786089D01*
X90472344Y-93903959D01*
X90497719Y-93965220D01*
X90504865Y-93982470D01*
X90518336Y-94014991D01*
X90578608Y-94105194D01*
X90585104Y-94114916D01*
X92617104Y-96146916D01*
X92702084Y-96231896D01*
X92802009Y-96298664D01*
X92811535Y-96302610D01*
X92834530Y-96312135D01*
X92867050Y-96325604D01*
X92913040Y-96344655D01*
X93030910Y-96368100D01*
X132236900Y-96368100D01*
X132296031Y-96387313D01*
X132332576Y-96437613D01*
X132337500Y-96468700D01*
X132337500Y-96594705D01*
X132366649Y-96741248D01*
X132423824Y-96879280D01*
X132423828Y-96879288D01*
X132506833Y-97003514D01*
X132612485Y-97109166D01*
X132736711Y-97192171D01*
X132736713Y-97192172D01*
X132736716Y-97192174D01*
X132766155Y-97204368D01*
X132874751Y-97249350D01*
X132874752Y-97249350D01*
X132874754Y-97249351D01*
X133021294Y-97278500D01*
X133021295Y-97278500D01*
X133170705Y-97278500D01*
X133170706Y-97278500D01*
X133317246Y-97249351D01*
X133455284Y-97192174D01*
X133579516Y-97109165D01*
X133685165Y-97003516D01*
X133768174Y-96879284D01*
X133825351Y-96741246D01*
X133854500Y-96594706D01*
X133854500Y-96445294D01*
X133825351Y-96298754D01*
X133812855Y-96268587D01*
X133782278Y-96194766D01*
X133768174Y-96160716D01*
X133685165Y-96036484D01*
X133626879Y-95978198D01*
X133598654Y-95922803D01*
X133608379Y-95861394D01*
X133626877Y-95835933D01*
X136820441Y-92642370D01*
X140403500Y-92642370D01*
X140403500Y-92801630D01*
X140410568Y-92837162D01*
X140434569Y-92957829D01*
X140495515Y-93104964D01*
X140495519Y-93104972D01*
X140514310Y-93133094D01*
X140583997Y-93237389D01*
X140696611Y-93350003D01*
X140784093Y-93408456D01*
X140829027Y-93438480D01*
X140829029Y-93438481D01*
X140829032Y-93438483D01*
X140976169Y-93499430D01*
X141132370Y-93530500D01*
X141132371Y-93530500D01*
X141291629Y-93530500D01*
X141291630Y-93530500D01*
X141447831Y-93499430D01*
X141594968Y-93438483D01*
X141727389Y-93350003D01*
X141840003Y-93237389D01*
X141928483Y-93104968D01*
X141989430Y-92957831D01*
X142020500Y-92801630D01*
X142020500Y-92642370D01*
X141989430Y-92486169D01*
X141928483Y-92339032D01*
X141840003Y-92206611D01*
X141727389Y-92093997D01*
X141660195Y-92049100D01*
X141594972Y-92005519D01*
X141594964Y-92005515D01*
X141532368Y-91979587D01*
X141447831Y-91944570D01*
X141447827Y-91944569D01*
X141447830Y-91944569D01*
X141311302Y-91917413D01*
X141291630Y-91913500D01*
X141132370Y-91913500D01*
X141112698Y-91917413D01*
X140976170Y-91944569D01*
X140829035Y-92005515D01*
X140829027Y-92005519D01*
X140722878Y-92076445D01*
X140696611Y-92093997D01*
X140696610Y-92093998D01*
X140696609Y-92093998D01*
X140583998Y-92206609D01*
X140583998Y-92206610D01*
X140583997Y-92206611D01*
X140572481Y-92223846D01*
X140495519Y-92339027D01*
X140495515Y-92339035D01*
X140434569Y-92486170D01*
X140416597Y-92576526D01*
X140403500Y-92642370D01*
X136820441Y-92642370D01*
X141193247Y-88269565D01*
X141248645Y-88241339D01*
X141264382Y-88240100D01*
X142173090Y-88240100D01*
X142290960Y-88216655D01*
X142369470Y-88184134D01*
X142401991Y-88170664D01*
X142501916Y-88103896D01*
X142586896Y-88018916D01*
X143479247Y-87126565D01*
X143534645Y-87098339D01*
X143550382Y-87097100D01*
X157390490Y-87097100D01*
X157508360Y-87073655D01*
X157586870Y-87041134D01*
X157619391Y-87027664D01*
X157719316Y-86960896D01*
X157737847Y-86942364D01*
X157789357Y-86914832D01*
X157791026Y-86914500D01*
X157791030Y-86914500D01*
X157947231Y-86883430D01*
X158051269Y-86840335D01*
X158094362Y-86822486D01*
X158094364Y-86822484D01*
X158094368Y-86822483D01*
X158098649Y-86819622D01*
X158116039Y-86810325D01*
X158149990Y-86796263D01*
X158249916Y-86729496D01*
X158334896Y-86644516D01*
X158401663Y-86544590D01*
X158415725Y-86510639D01*
X158425022Y-86493249D01*
X158427883Y-86488968D01*
X158427884Y-86488964D01*
X158427886Y-86488962D01*
X158451239Y-86432580D01*
X158488830Y-86341831D01*
X158519900Y-86185630D01*
X158519900Y-86026370D01*
X158488830Y-85870169D01*
X158427883Y-85723032D01*
X158339403Y-85590611D01*
X158226789Y-85477997D01*
X158183047Y-85448770D01*
X158094372Y-85389519D01*
X158094364Y-85389515D01*
X158043878Y-85368603D01*
X157947231Y-85328570D01*
X157947227Y-85328569D01*
X157947230Y-85328569D01*
X157822099Y-85303679D01*
X157791030Y-85297500D01*
X157631770Y-85297500D01*
X157600701Y-85303679D01*
X157475570Y-85328569D01*
X157328435Y-85389515D01*
X157328427Y-85389519D01*
X157222278Y-85460445D01*
X157196011Y-85477997D01*
X157196010Y-85477998D01*
X157196009Y-85477998D01*
X157083398Y-85590609D01*
X157083398Y-85590610D01*
X156994919Y-85723027D01*
X156994915Y-85723035D01*
X156956906Y-85814798D01*
X156916527Y-85862076D01*
X156863964Y-85876900D01*
X143195910Y-85876900D01*
X143078042Y-85900344D01*
X143004868Y-85930654D01*
X142967013Y-85946333D01*
X142925762Y-85973895D01*
X142925763Y-85973896D01*
X142867082Y-86013105D01*
X141889753Y-86990435D01*
X141834355Y-87018661D01*
X141818618Y-87019900D01*
X140909910Y-87019900D01*
X140792042Y-87043344D01*
X140718868Y-87073654D01*
X140681012Y-87089334D01*
X140681009Y-87089335D01*
X140581082Y-87156105D01*
X132618753Y-95118435D01*
X132563355Y-95146661D01*
X132547618Y-95147900D01*
X128060558Y-95147900D01*
X128001427Y-95128687D01*
X127964882Y-95078387D01*
X127964882Y-95016213D01*
X128001425Y-94965914D01*
X128166722Y-94845820D01*
X128334620Y-94677922D01*
X128474185Y-94485827D01*
X128482336Y-94469831D01*
X128581980Y-94274267D01*
X128581981Y-94274265D01*
X128619338Y-94159294D01*
X128655356Y-94048441D01*
X128692500Y-93813922D01*
X128692500Y-93576478D01*
X128688564Y-93551630D01*
X128670643Y-93438480D01*
X128655356Y-93341959D01*
X128641321Y-93298765D01*
X128581981Y-93116134D01*
X128581980Y-93116132D01*
X128474192Y-92904585D01*
X128474188Y-92904579D01*
X128474185Y-92904573D01*
X128334620Y-92712478D01*
X128166722Y-92544580D01*
X128166720Y-92544578D01*
X128025758Y-92442164D01*
X127974627Y-92405015D01*
X127974622Y-92405012D01*
X127974614Y-92405007D01*
X127763067Y-92297219D01*
X127763065Y-92297218D01*
X127537250Y-92223846D01*
X127537234Y-92223842D01*
X127302728Y-92186700D01*
X127302722Y-92186700D01*
X127065278Y-92186700D01*
X127065271Y-92186700D01*
X126830765Y-92223842D01*
X126830749Y-92223846D01*
X126604934Y-92297218D01*
X126604932Y-92297219D01*
X126393385Y-92405007D01*
X126393370Y-92405017D01*
X126201279Y-92544578D01*
X126033378Y-92712479D01*
X125893817Y-92904570D01*
X125893807Y-92904585D01*
X125786019Y-93116132D01*
X125786018Y-93116134D01*
X125712646Y-93341949D01*
X125712644Y-93341957D01*
X125712644Y-93341959D01*
X125712643Y-93341964D01*
X125675500Y-93576471D01*
X125675500Y-93813928D01*
X125712642Y-94048434D01*
X125712646Y-94048450D01*
X125786018Y-94274265D01*
X125786019Y-94274267D01*
X125893807Y-94485814D01*
X125893812Y-94485822D01*
X125893815Y-94485827D01*
X125963597Y-94581874D01*
X126033378Y-94677920D01*
X126033380Y-94677922D01*
X126201278Y-94845820D01*
X126366574Y-94965914D01*
X126403118Y-95016212D01*
X126403118Y-95078387D01*
X126366574Y-95128687D01*
X126307443Y-95147900D01*
X110517457Y-95147900D01*
X110458326Y-95128687D01*
X110421781Y-95078387D01*
X110421781Y-95016213D01*
X110458326Y-94965913D01*
X110478959Y-94954358D01*
X110542317Y-94928113D01*
X110595284Y-94906174D01*
X110719516Y-94823165D01*
X110825165Y-94717516D01*
X110908174Y-94593284D01*
X110965351Y-94455246D01*
X110994500Y-94308706D01*
X110994500Y-94159294D01*
X110965351Y-94012754D01*
X110908174Y-93874716D01*
X110895902Y-93856350D01*
X110825166Y-93750485D01*
X110719514Y-93644833D01*
X110595288Y-93561828D01*
X110595280Y-93561824D01*
X110457248Y-93504649D01*
X110359552Y-93485216D01*
X110310706Y-93475500D01*
X110161294Y-93475500D01*
X110124659Y-93482787D01*
X110014751Y-93504649D01*
X109876719Y-93561824D01*
X109876711Y-93561828D01*
X109752485Y-93644833D01*
X109752484Y-93644835D01*
X109646835Y-93750484D01*
X109646833Y-93750485D01*
X109563828Y-93874711D01*
X109563824Y-93874719D01*
X109506649Y-94012751D01*
X109488261Y-94105194D01*
X109477500Y-94159294D01*
X109477500Y-94308706D01*
X109487216Y-94357552D01*
X109506649Y-94455248D01*
X109563824Y-94593280D01*
X109563828Y-94593288D01*
X109646833Y-94717514D01*
X109752485Y-94823166D01*
X109876711Y-94906171D01*
X109876713Y-94906172D01*
X109876716Y-94906174D01*
X109904163Y-94917542D01*
X109993041Y-94954358D01*
X110040319Y-94994737D01*
X110054833Y-95055193D01*
X110031040Y-95112635D01*
X109978027Y-95145120D01*
X109954543Y-95147900D01*
X106660312Y-95147900D01*
X106601181Y-95128687D01*
X106564636Y-95078387D01*
X106564636Y-95016213D01*
X106601181Y-94965913D01*
X106621813Y-94954358D01*
X106631168Y-94950483D01*
X106763589Y-94862003D01*
X106876203Y-94749389D01*
X106964683Y-94616968D01*
X107025630Y-94469831D01*
X107056700Y-94313630D01*
X107056700Y-94154370D01*
X107025630Y-93998169D01*
X106966886Y-93856350D01*
X106962008Y-93794368D01*
X106988691Y-93746719D01*
X107436647Y-93298765D01*
X107492045Y-93270539D01*
X107507782Y-93269300D01*
X120633890Y-93269300D01*
X120751760Y-93245855D01*
X120830270Y-93213334D01*
X120862791Y-93199864D01*
X120962716Y-93133096D01*
X121047696Y-93048116D01*
X121250896Y-92844916D01*
X121256071Y-92837169D01*
X121256080Y-92837162D01*
X121256078Y-92837161D01*
X121273657Y-92810851D01*
X121317664Y-92744991D01*
X121341809Y-92686700D01*
X121363655Y-92633960D01*
X121387100Y-92516090D01*
X121387100Y-92395910D01*
X121387100Y-91114679D01*
X121406313Y-91055548D01*
X121449202Y-91021737D01*
X121591763Y-90962685D01*
X121591762Y-90962685D01*
X121591768Y-90962683D01*
X121724189Y-90874203D01*
X121836803Y-90761589D01*
X121925283Y-90629168D01*
X121986230Y-90482031D01*
X122017300Y-90325830D01*
X122017300Y-90166570D01*
X121986230Y-90010369D01*
X121925283Y-89863232D01*
X121836803Y-89730811D01*
X121724189Y-89618197D01*
X121648538Y-89567649D01*
X121591772Y-89529719D01*
X121591764Y-89529715D01*
X121541278Y-89508803D01*
X121444631Y-89468770D01*
X121444627Y-89468769D01*
X121444630Y-89468769D01*
X121319499Y-89443879D01*
X121288430Y-89437700D01*
X121129170Y-89437700D01*
X121098101Y-89443879D01*
X120972970Y-89468769D01*
X120825835Y-89529715D01*
X120825827Y-89529719D01*
X120719678Y-89600645D01*
X120693411Y-89618197D01*
X120693410Y-89618198D01*
X120693409Y-89618198D01*
X120580798Y-89730809D01*
X120580798Y-89730810D01*
X120492319Y-89863227D01*
X120492315Y-89863235D01*
X120431369Y-90010370D01*
X120399967Y-90168243D01*
X120372435Y-90219751D01*
X120303108Y-90289078D01*
X120303106Y-90289081D01*
X120236335Y-90389009D01*
X120228236Y-90408566D01*
X120228234Y-90408569D01*
X120190344Y-90500042D01*
X120175057Y-90576900D01*
X120166900Y-90617910D01*
X120166900Y-91948500D01*
X120147687Y-92007631D01*
X120097387Y-92044176D01*
X120066300Y-92049100D01*
X116393075Y-92049100D01*
X116333944Y-92029887D01*
X116297399Y-91979587D01*
X116297399Y-91917413D01*
X116333944Y-91867113D01*
X116373449Y-91849833D01*
X116376810Y-91849164D01*
X116440831Y-91836430D01*
X116587968Y-91775483D01*
X116720389Y-91687003D01*
X116833003Y-91574389D01*
X116921483Y-91441968D01*
X116982430Y-91294831D01*
X117013500Y-91138630D01*
X117013500Y-91113347D01*
X117032713Y-91054216D01*
X117075602Y-91020405D01*
X117148160Y-90990350D01*
X117199284Y-90969174D01*
X117266811Y-90924053D01*
X117322701Y-90907100D01*
X118932090Y-90907100D01*
X119049960Y-90883655D01*
X119128470Y-90851134D01*
X119160991Y-90837664D01*
X119260916Y-90770896D01*
X119345896Y-90685916D01*
X119676096Y-90355716D01*
X119742864Y-90255791D01*
X119788854Y-90144760D01*
X119812300Y-90026890D01*
X119812300Y-89906710D01*
X119812300Y-88312370D01*
X123270500Y-88312370D01*
X123270500Y-88471629D01*
X123301569Y-88627829D01*
X123362515Y-88774964D01*
X123362519Y-88774972D01*
X123398101Y-88828224D01*
X123450997Y-88907389D01*
X123563611Y-89020003D01*
X123597176Y-89042430D01*
X123696027Y-89108480D01*
X123696029Y-89108481D01*
X123696032Y-89108483D01*
X123843169Y-89169430D01*
X123999370Y-89200500D01*
X123999371Y-89200500D01*
X124158629Y-89200500D01*
X124158630Y-89200500D01*
X124314831Y-89169430D01*
X124461968Y-89108483D01*
X124594389Y-89020003D01*
X124707003Y-88907389D01*
X124795483Y-88774968D01*
X124856430Y-88627831D01*
X124887500Y-88471630D01*
X124887500Y-88312370D01*
X124856430Y-88156169D01*
X124795483Y-88009032D01*
X124707003Y-87876611D01*
X124594389Y-87763997D01*
X124550647Y-87734770D01*
X124461972Y-87675519D01*
X124461964Y-87675515D01*
X124368976Y-87636998D01*
X124314831Y-87614570D01*
X124314827Y-87614569D01*
X124314830Y-87614569D01*
X124189699Y-87589679D01*
X124158630Y-87583500D01*
X123999370Y-87583500D01*
X123968301Y-87589679D01*
X123843170Y-87614569D01*
X123696035Y-87675515D01*
X123696027Y-87675519D01*
X123589878Y-87746445D01*
X123563611Y-87763997D01*
X123563610Y-87763998D01*
X123563609Y-87763998D01*
X123450998Y-87876609D01*
X123450998Y-87876610D01*
X123362519Y-88009027D01*
X123362515Y-88009035D01*
X123301569Y-88156170D01*
X123270500Y-88312370D01*
X119812300Y-88312370D01*
X119812300Y-83587970D01*
X132365100Y-83587970D01*
X132365100Y-83747229D01*
X132396169Y-83903429D01*
X132457115Y-84050564D01*
X132457119Y-84050572D01*
X132469245Y-84068719D01*
X132545597Y-84182989D01*
X132658211Y-84295603D01*
X132745693Y-84354056D01*
X132790627Y-84384080D01*
X132790629Y-84384081D01*
X132790632Y-84384083D01*
X132937769Y-84445030D01*
X133093970Y-84476100D01*
X133093971Y-84476100D01*
X133253229Y-84476100D01*
X133253230Y-84476100D01*
X133409431Y-84445030D01*
X133556568Y-84384083D01*
X133688989Y-84295603D01*
X133801603Y-84182989D01*
X133890083Y-84050568D01*
X133951030Y-83903431D01*
X133982100Y-83747230D01*
X133982100Y-83587970D01*
X133951030Y-83431769D01*
X133890083Y-83284632D01*
X133873427Y-83259705D01*
X133863071Y-83244205D01*
X133801603Y-83152211D01*
X133688989Y-83039597D01*
X133587110Y-82971524D01*
X133556572Y-82951119D01*
X133556564Y-82951115D01*
X133476219Y-82917835D01*
X133409431Y-82890170D01*
X133409427Y-82890169D01*
X133409430Y-82890169D01*
X133271037Y-82862642D01*
X133253230Y-82859100D01*
X133093970Y-82859100D01*
X133076163Y-82862642D01*
X132937770Y-82890169D01*
X132790635Y-82951115D01*
X132790627Y-82951119D01*
X132698795Y-83012480D01*
X132658211Y-83039597D01*
X132658210Y-83039598D01*
X132658209Y-83039598D01*
X132545598Y-83152209D01*
X132545598Y-83152210D01*
X132457119Y-83284627D01*
X132457115Y-83284635D01*
X132396169Y-83431770D01*
X132365100Y-83587970D01*
X119812300Y-83587970D01*
X119812300Y-81923271D01*
X126888500Y-81923271D01*
X126888500Y-82160728D01*
X126925642Y-82395234D01*
X126925646Y-82395250D01*
X126999018Y-82621065D01*
X126999019Y-82621067D01*
X127106807Y-82832614D01*
X127106812Y-82832622D01*
X127106815Y-82832627D01*
X127168722Y-82917835D01*
X127246378Y-83024720D01*
X127246380Y-83024722D01*
X127414278Y-83192620D01*
X127606373Y-83332185D01*
X127606379Y-83332188D01*
X127606385Y-83332192D01*
X127817932Y-83439980D01*
X127817934Y-83439981D01*
X128043749Y-83513353D01*
X128043752Y-83513353D01*
X128043759Y-83513356D01*
X128043764Y-83513356D01*
X128043765Y-83513357D01*
X128278271Y-83550499D01*
X128278276Y-83550500D01*
X128278278Y-83550500D01*
X128515724Y-83550500D01*
X128515728Y-83550499D01*
X128554968Y-83544284D01*
X128750241Y-83513356D01*
X128758992Y-83510512D01*
X128830275Y-83487352D01*
X128923304Y-83457124D01*
X128976063Y-83439982D01*
X129042274Y-83406246D01*
X129187614Y-83332192D01*
X129187616Y-83332190D01*
X129187627Y-83332185D01*
X129379722Y-83192620D01*
X129547620Y-83024722D01*
X129687185Y-82832627D01*
X129690707Y-82825716D01*
X129794980Y-82621067D01*
X129794981Y-82621065D01*
X129803180Y-82595833D01*
X129868356Y-82395241D01*
X129889776Y-82260000D01*
X129896687Y-82216370D01*
X141939500Y-82216370D01*
X141939500Y-82375630D01*
X141943401Y-82395241D01*
X141970569Y-82531829D01*
X142031515Y-82678964D01*
X142031519Y-82678972D01*
X142046562Y-82701485D01*
X142119997Y-82811389D01*
X142232611Y-82924003D01*
X142292099Y-82963751D01*
X142365027Y-83012480D01*
X142365029Y-83012481D01*
X142365032Y-83012483D01*
X142512169Y-83073430D01*
X142668370Y-83104500D01*
X142668371Y-83104500D01*
X142827629Y-83104500D01*
X142827630Y-83104500D01*
X142983831Y-83073430D01*
X143130968Y-83012483D01*
X143263389Y-82924003D01*
X143376003Y-82811389D01*
X143464483Y-82678968D01*
X143525430Y-82531831D01*
X143556500Y-82375630D01*
X143556500Y-82216370D01*
X143525430Y-82060169D01*
X143464483Y-81913032D01*
X143376003Y-81780611D01*
X143263389Y-81667997D01*
X143219647Y-81638770D01*
X143130972Y-81579519D01*
X143130964Y-81579515D01*
X143080478Y-81558603D01*
X142983831Y-81518570D01*
X142983827Y-81518569D01*
X142983830Y-81518569D01*
X142858699Y-81493679D01*
X142827630Y-81487500D01*
X142668370Y-81487500D01*
X142637301Y-81493679D01*
X142512170Y-81518569D01*
X142365035Y-81579515D01*
X142365027Y-81579519D01*
X142258878Y-81650445D01*
X142232611Y-81667997D01*
X142232610Y-81667998D01*
X142232609Y-81667998D01*
X142119998Y-81780609D01*
X142119998Y-81780610D01*
X142031519Y-81913027D01*
X142031515Y-81913035D01*
X141970569Y-82060170D01*
X141943613Y-82195690D01*
X141939500Y-82216370D01*
X129896687Y-82216370D01*
X129899962Y-82195691D01*
X129899962Y-82195690D01*
X129905499Y-82160726D01*
X129905500Y-82160724D01*
X129905500Y-81923276D01*
X129905499Y-81923271D01*
X129868357Y-81688765D01*
X129868356Y-81688764D01*
X129868356Y-81688759D01*
X129861610Y-81667998D01*
X129794981Y-81462934D01*
X129794980Y-81462932D01*
X129687192Y-81251385D01*
X129687188Y-81251379D01*
X129687185Y-81251373D01*
X129547620Y-81059278D01*
X129379722Y-80891380D01*
X129379720Y-80891378D01*
X129240439Y-80790185D01*
X129187627Y-80751815D01*
X129187622Y-80751812D01*
X129187614Y-80751807D01*
X128976067Y-80644019D01*
X128976065Y-80644018D01*
X128750250Y-80570646D01*
X128750234Y-80570642D01*
X128515728Y-80533500D01*
X128515722Y-80533500D01*
X128278278Y-80533500D01*
X128278271Y-80533500D01*
X128043765Y-80570642D01*
X128043749Y-80570646D01*
X127817934Y-80644018D01*
X127817932Y-80644019D01*
X127606385Y-80751807D01*
X127606370Y-80751817D01*
X127414279Y-80891378D01*
X127246378Y-81059279D01*
X127106817Y-81251370D01*
X127106807Y-81251385D01*
X126999019Y-81462932D01*
X126999018Y-81462934D01*
X126925646Y-81688749D01*
X126925642Y-81688765D01*
X126888500Y-81923271D01*
X119812300Y-81923271D01*
X119812300Y-79212181D01*
X119831513Y-79153050D01*
X119841759Y-79141052D01*
X120525641Y-78457170D01*
X123194300Y-78457170D01*
X123194300Y-78616429D01*
X123225369Y-78772629D01*
X123286315Y-78919764D01*
X123286319Y-78919772D01*
X123304265Y-78946630D01*
X123374797Y-79052189D01*
X123487411Y-79164803D01*
X123558318Y-79212181D01*
X123619827Y-79253280D01*
X123619829Y-79253281D01*
X123619832Y-79253283D01*
X123766969Y-79314230D01*
X123923170Y-79345300D01*
X123923171Y-79345300D01*
X124082429Y-79345300D01*
X124082430Y-79345300D01*
X124238631Y-79314230D01*
X124385768Y-79253283D01*
X124518189Y-79164803D01*
X124630803Y-79052189D01*
X124719283Y-78919768D01*
X124780230Y-78772631D01*
X124811300Y-78616430D01*
X124811300Y-78457170D01*
X124780230Y-78300969D01*
X124719283Y-78153832D01*
X124717069Y-78150519D01*
X124684662Y-78102018D01*
X124630803Y-78021411D01*
X124518189Y-77908797D01*
X124474447Y-77879570D01*
X124385772Y-77820319D01*
X124385764Y-77820315D01*
X124335278Y-77799403D01*
X124238631Y-77759370D01*
X124238627Y-77759369D01*
X124238630Y-77759369D01*
X124113499Y-77734479D01*
X124082430Y-77728300D01*
X123923170Y-77728300D01*
X123892101Y-77734479D01*
X123766970Y-77759369D01*
X123619835Y-77820315D01*
X123619827Y-77820319D01*
X123513678Y-77891245D01*
X123487411Y-77908797D01*
X123487410Y-77908798D01*
X123487409Y-77908798D01*
X123374798Y-78021409D01*
X123374798Y-78021410D01*
X123374797Y-78021411D01*
X123369964Y-78028644D01*
X123286319Y-78153827D01*
X123286315Y-78153835D01*
X123225369Y-78300970D01*
X123194300Y-78457170D01*
X120525641Y-78457170D01*
X121502086Y-77480724D01*
X121553592Y-77453194D01*
X121633246Y-77437351D01*
X121771284Y-77380174D01*
X121895516Y-77297165D01*
X122001165Y-77191516D01*
X122084174Y-77067284D01*
X122141351Y-76929246D01*
X122170500Y-76782706D01*
X122170500Y-76633294D01*
X122141351Y-76486754D01*
X122134973Y-76471357D01*
X122084175Y-76348719D01*
X122084174Y-76348716D01*
X122001165Y-76224484D01*
X121895516Y-76118835D01*
X121895514Y-76118833D01*
X121771288Y-76035828D01*
X121771280Y-76035824D01*
X121633248Y-75978649D01*
X121535552Y-75959216D01*
X121486706Y-75949500D01*
X121337294Y-75949500D01*
X121300659Y-75956787D01*
X121190751Y-75978649D01*
X121052719Y-76035824D01*
X121052711Y-76035828D01*
X120928485Y-76118833D01*
X120928484Y-76118835D01*
X120822835Y-76224484D01*
X120822833Y-76224485D01*
X120739828Y-76348711D01*
X120739824Y-76348719D01*
X120682649Y-76486751D01*
X120666804Y-76566406D01*
X120639272Y-76617914D01*
X118813284Y-78443904D01*
X118728304Y-78528884D01*
X118728302Y-78528885D01*
X118661539Y-78628803D01*
X118661535Y-78628811D01*
X118648064Y-78661331D01*
X118615545Y-78739838D01*
X118593889Y-78848714D01*
X118592100Y-78857708D01*
X118592100Y-89586300D01*
X118572887Y-89645431D01*
X118522587Y-89681976D01*
X118491500Y-89686900D01*
X117322701Y-89686900D01*
X117266811Y-89669946D01*
X117199284Y-89624826D01*
X117199285Y-89624826D01*
X117199283Y-89624825D01*
X117199280Y-89624824D01*
X117061248Y-89567649D01*
X116963552Y-89548216D01*
X116914706Y-89538500D01*
X116765294Y-89538500D01*
X116728659Y-89545787D01*
X116618751Y-89567649D01*
X116480719Y-89624824D01*
X116480711Y-89624828D01*
X116356485Y-89707833D01*
X116356484Y-89707835D01*
X116250835Y-89813484D01*
X116250833Y-89813485D01*
X116167828Y-89937711D01*
X116167824Y-89937719D01*
X116110649Y-90075751D01*
X116086965Y-90194820D01*
X116056585Y-90249067D01*
X116007924Y-90273861D01*
X115969171Y-90281569D01*
X115822035Y-90342515D01*
X115822027Y-90342519D01*
X115723182Y-90408566D01*
X115689611Y-90430997D01*
X115689610Y-90430998D01*
X115689609Y-90430998D01*
X115576998Y-90543609D01*
X115576998Y-90543610D01*
X115488519Y-90676027D01*
X115488515Y-90676035D01*
X115427569Y-90823170D01*
X115396500Y-90979370D01*
X115396500Y-91138629D01*
X115427569Y-91294829D01*
X115488515Y-91441964D01*
X115488519Y-91441972D01*
X115524101Y-91495224D01*
X115576997Y-91574389D01*
X115689611Y-91687003D01*
X115739661Y-91720445D01*
X115822027Y-91775480D01*
X115822029Y-91775481D01*
X115822032Y-91775483D01*
X115969169Y-91836430D01*
X116036551Y-91849833D01*
X116090798Y-91880212D01*
X116116828Y-91936675D01*
X116104698Y-91997655D01*
X116059042Y-92039859D01*
X116016925Y-92049100D01*
X111239174Y-92049100D01*
X111180043Y-92029887D01*
X111143498Y-91979587D01*
X111143498Y-91917413D01*
X111180043Y-91867113D01*
X111183284Y-91864854D01*
X111259389Y-91814003D01*
X111372003Y-91701389D01*
X111460483Y-91568968D01*
X111521430Y-91421831D01*
X111552500Y-91265630D01*
X111552500Y-91106370D01*
X111521430Y-90950169D01*
X111460483Y-90803032D01*
X111439009Y-90770894D01*
X111371054Y-90669191D01*
X111354100Y-90613301D01*
X111354100Y-88185370D01*
X112475500Y-88185370D01*
X112475500Y-88344629D01*
X112506569Y-88500829D01*
X112567515Y-88647964D01*
X112567519Y-88647972D01*
X112603101Y-88701224D01*
X112655997Y-88780389D01*
X112768611Y-88893003D01*
X112856093Y-88951456D01*
X112901027Y-88981480D01*
X112901029Y-88981481D01*
X112901032Y-88981483D01*
X113048169Y-89042430D01*
X113204370Y-89073500D01*
X113204371Y-89073500D01*
X113363629Y-89073500D01*
X113363630Y-89073500D01*
X113519831Y-89042430D01*
X113666968Y-88981483D01*
X113799389Y-88893003D01*
X113912003Y-88780389D01*
X114000483Y-88647968D01*
X114061430Y-88500831D01*
X114092500Y-88344630D01*
X114092500Y-88185370D01*
X114061430Y-88029169D01*
X114000483Y-87882032D01*
X113912003Y-87749611D01*
X113799389Y-87636997D01*
X113755647Y-87607770D01*
X113666972Y-87548519D01*
X113666964Y-87548515D01*
X113616478Y-87527603D01*
X113519831Y-87487570D01*
X113519827Y-87487569D01*
X113519830Y-87487569D01*
X113394699Y-87462679D01*
X113363630Y-87456500D01*
X113204370Y-87456500D01*
X113173301Y-87462679D01*
X113048170Y-87487569D01*
X112901035Y-87548515D01*
X112901027Y-87548519D01*
X112802177Y-87614569D01*
X112768611Y-87636997D01*
X112768610Y-87636998D01*
X112768609Y-87636998D01*
X112655998Y-87749609D01*
X112655998Y-87749610D01*
X112567519Y-87882027D01*
X112567515Y-87882035D01*
X112506569Y-88029170D01*
X112475500Y-88185370D01*
X111354100Y-88185370D01*
X111354100Y-79238710D01*
X111347560Y-79205831D01*
X111347560Y-79205830D01*
X111337062Y-79153050D01*
X111330655Y-79120840D01*
X111286555Y-79014375D01*
X111285217Y-79010637D01*
X111217897Y-78909885D01*
X107065565Y-74757553D01*
X107037339Y-74702155D01*
X107036100Y-74686418D01*
X107036100Y-72943814D01*
X107055313Y-72884683D01*
X107091026Y-72854180D01*
X107216627Y-72790185D01*
X107408722Y-72650620D01*
X107576620Y-72482722D01*
X107716185Y-72290627D01*
X107716411Y-72290185D01*
X107823980Y-72079067D01*
X107823981Y-72079065D01*
X107849320Y-72001082D01*
X107897356Y-71853241D01*
X107934500Y-71618722D01*
X107934500Y-71381278D01*
X107897356Y-71146759D01*
X107823982Y-70920937D01*
X107823981Y-70920936D01*
X107823981Y-70920934D01*
X107823980Y-70920932D01*
X107716192Y-70709385D01*
X107716188Y-70709379D01*
X107716185Y-70709373D01*
X107610045Y-70563284D01*
X107576621Y-70517279D01*
X107408720Y-70349378D01*
X107312674Y-70279597D01*
X107216627Y-70209815D01*
X107216622Y-70209812D01*
X107216614Y-70209807D01*
X107005067Y-70102019D01*
X107005065Y-70102018D01*
X106779250Y-70028646D01*
X106779234Y-70028642D01*
X106544728Y-69991500D01*
X106544722Y-69991500D01*
X106307278Y-69991500D01*
X106307271Y-69991500D01*
X106072765Y-70028642D01*
X106072749Y-70028646D01*
X105846934Y-70102018D01*
X105846932Y-70102019D01*
X105635385Y-70209807D01*
X105635370Y-70209817D01*
X105443279Y-70349378D01*
X105275378Y-70517279D01*
X105135817Y-70709370D01*
X105135807Y-70709385D01*
X105028019Y-70920932D01*
X105028018Y-70920934D01*
X104954646Y-71146749D01*
X104954642Y-71146765D01*
X104917500Y-71381271D01*
X104917500Y-71618728D01*
X104954642Y-71853234D01*
X104954646Y-71853250D01*
X105028018Y-72079065D01*
X105028019Y-72079067D01*
X105135807Y-72290614D01*
X105135812Y-72290622D01*
X105135815Y-72290627D01*
X105139115Y-72295169D01*
X105275378Y-72482720D01*
X105275380Y-72482722D01*
X105443278Y-72650620D01*
X105635373Y-72790185D01*
X105760972Y-72854180D01*
X105804935Y-72898141D01*
X105815900Y-72943814D01*
X105815900Y-75040889D01*
X105839344Y-75158759D01*
X105870106Y-75233024D01*
X105871865Y-75237270D01*
X105885336Y-75269791D01*
X105901625Y-75294169D01*
X105904560Y-75298562D01*
X105904563Y-75298567D01*
X105952102Y-75369714D01*
X110104435Y-79522047D01*
X110132661Y-79577445D01*
X110133900Y-79593182D01*
X110133900Y-83903860D01*
X110114687Y-83962991D01*
X110064387Y-83999536D01*
X110013674Y-84002527D01*
X109933682Y-83986616D01*
X109883830Y-83976700D01*
X109724570Y-83976700D01*
X109693501Y-83982879D01*
X109568370Y-84007769D01*
X109421235Y-84068715D01*
X109421227Y-84068719D01*
X109287391Y-84158146D01*
X109231501Y-84175100D01*
X108601162Y-84175100D01*
X108542031Y-84155887D01*
X108530027Y-84145635D01*
X108465390Y-84080998D01*
X108447007Y-84068715D01*
X108387879Y-84029207D01*
X108332972Y-83992519D01*
X108332964Y-83992515D01*
X108282478Y-83971603D01*
X108185831Y-83931570D01*
X108185827Y-83931569D01*
X108185830Y-83931569D01*
X108044355Y-83903429D01*
X108029630Y-83900500D01*
X107870370Y-83900500D01*
X107855645Y-83903429D01*
X107714170Y-83931569D01*
X107567035Y-83992515D01*
X107567027Y-83992519D01*
X107460878Y-84063445D01*
X107434611Y-84080997D01*
X107434610Y-84080998D01*
X107434609Y-84080998D01*
X107321998Y-84193609D01*
X107321998Y-84193610D01*
X107233513Y-84326035D01*
X107233512Y-84326038D01*
X107232350Y-84328844D01*
X107231449Y-84329898D01*
X107231186Y-84330391D01*
X107231077Y-84330333D01*
X107229689Y-84331957D01*
X107229049Y-84336003D01*
X107209723Y-84355328D01*
X107191964Y-84376116D01*
X107187980Y-84377071D01*
X107185085Y-84379967D01*
X107158095Y-84384241D01*
X107131506Y-84390621D01*
X107127720Y-84389052D01*
X107123677Y-84389693D01*
X107099325Y-84377285D01*
X107074068Y-84366819D01*
X107068279Y-84361467D01*
X107065565Y-84358753D01*
X107037339Y-84303355D01*
X107036100Y-84287618D01*
X107036100Y-80943814D01*
X107055313Y-80884683D01*
X107091026Y-80854180D01*
X107216627Y-80790185D01*
X107408722Y-80650620D01*
X107576620Y-80482722D01*
X107716185Y-80290627D01*
X107823982Y-80079063D01*
X107897356Y-79853241D01*
X107934500Y-79618722D01*
X107934500Y-79381278D01*
X107897356Y-79146759D01*
X107888934Y-79120840D01*
X107823981Y-78920934D01*
X107823980Y-78920932D01*
X107716192Y-78709385D01*
X107716188Y-78709379D01*
X107716185Y-78709373D01*
X107576620Y-78517278D01*
X107408722Y-78349380D01*
X107408720Y-78349378D01*
X107256794Y-78238998D01*
X107216627Y-78209815D01*
X107216622Y-78209812D01*
X107216614Y-78209807D01*
X107005067Y-78102019D01*
X107005065Y-78102018D01*
X106779250Y-78028646D01*
X106779234Y-78028642D01*
X106544728Y-77991500D01*
X106544722Y-77991500D01*
X106307278Y-77991500D01*
X106307271Y-77991500D01*
X106072765Y-78028642D01*
X106072749Y-78028646D01*
X105846934Y-78102018D01*
X105846932Y-78102019D01*
X105635385Y-78209807D01*
X105635370Y-78209817D01*
X105443279Y-78349378D01*
X105275378Y-78517279D01*
X105135817Y-78709370D01*
X105135807Y-78709385D01*
X105028019Y-78920932D01*
X105028018Y-78920934D01*
X104954646Y-79146749D01*
X104954642Y-79146765D01*
X104917500Y-79381271D01*
X104917500Y-79618728D01*
X104954642Y-79853234D01*
X104954646Y-79853250D01*
X105028018Y-80079065D01*
X105028019Y-80079067D01*
X105135807Y-80290614D01*
X105135812Y-80290622D01*
X105135815Y-80290627D01*
X105205597Y-80386674D01*
X105275378Y-80482720D01*
X105275380Y-80482722D01*
X105443278Y-80650620D01*
X105635373Y-80790185D01*
X105760972Y-80854180D01*
X105804935Y-80898141D01*
X105815900Y-80943814D01*
X105815900Y-84521910D01*
X105815900Y-84642090D01*
X105839345Y-84759960D01*
X105869397Y-84832510D01*
X105885336Y-84870991D01*
X105885337Y-84870992D01*
X105885339Y-84870996D01*
X105944475Y-84959499D01*
X105944476Y-84959500D01*
X105952104Y-84970916D01*
X106870104Y-85888916D01*
X106955084Y-85973896D01*
X107055009Y-86040664D01*
X107064535Y-86044610D01*
X107087530Y-86054135D01*
X107120050Y-86067604D01*
X107166040Y-86086655D01*
X107283910Y-86110100D01*
X108647301Y-86110100D01*
X108703191Y-86127054D01*
X108704610Y-86128002D01*
X108704611Y-86128003D01*
X108752022Y-86159681D01*
X108837027Y-86216480D01*
X108837029Y-86216481D01*
X108837032Y-86216483D01*
X108984169Y-86277430D01*
X109140370Y-86308500D01*
X109140371Y-86308500D01*
X109299629Y-86308500D01*
X109299630Y-86308500D01*
X109455831Y-86277430D01*
X109602968Y-86216483D01*
X109735389Y-86128003D01*
X109848003Y-86015389D01*
X109936483Y-85882968D01*
X109940357Y-85873614D01*
X109980735Y-85826336D01*
X110041191Y-85811821D01*
X110098633Y-85835613D01*
X110131120Y-85888625D01*
X110133900Y-85912111D01*
X110133900Y-90613301D01*
X110116946Y-90669191D01*
X110027519Y-90803027D01*
X110027515Y-90803035D01*
X109966569Y-90950170D01*
X109945874Y-91054216D01*
X109935500Y-91106370D01*
X109935500Y-91265630D01*
X109941308Y-91294829D01*
X109966569Y-91421829D01*
X110027515Y-91568964D01*
X110027519Y-91568972D01*
X110055952Y-91611524D01*
X110115997Y-91701389D01*
X110228611Y-91814003D01*
X110262176Y-91836430D01*
X110304716Y-91864854D01*
X110343208Y-91913680D01*
X110345649Y-91975807D01*
X110311107Y-92027503D01*
X110252776Y-92049022D01*
X110248826Y-92049100D01*
X107153310Y-92049100D01*
X107035438Y-92072545D01*
X106956930Y-92105063D01*
X106956931Y-92105064D01*
X106924411Y-92118535D01*
X106924403Y-92118539D01*
X106851862Y-92167010D01*
X106824487Y-92185300D01*
X106824484Y-92185304D01*
X105774305Y-93235482D01*
X105732021Y-93298765D01*
X105707536Y-93335409D01*
X105704823Y-93341959D01*
X105704821Y-93341964D01*
X105704820Y-93341963D01*
X105661545Y-93446438D01*
X105651005Y-93499430D01*
X105644825Y-93530500D01*
X105638100Y-93564310D01*
X105638100Y-93664197D01*
X105637934Y-93667082D01*
X105630773Y-93685452D01*
X105621146Y-93717191D01*
X105531719Y-93851027D01*
X105531715Y-93851035D01*
X105470769Y-93998170D01*
X105439700Y-94154370D01*
X105439700Y-94313629D01*
X105470769Y-94469829D01*
X105531715Y-94616964D01*
X105531719Y-94616972D01*
X105567301Y-94670224D01*
X105620197Y-94749389D01*
X105732811Y-94862003D01*
X105798914Y-94906171D01*
X105865227Y-94950480D01*
X105865232Y-94950483D01*
X105874587Y-94954358D01*
X105921864Y-94994737D01*
X105936378Y-95055194D01*
X105912584Y-95112635D01*
X105859572Y-95145121D01*
X105836088Y-95147900D01*
X93385382Y-95147900D01*
X93326251Y-95128687D01*
X93314247Y-95118435D01*
X91698565Y-93502753D01*
X91670339Y-93447355D01*
X91669100Y-93431618D01*
X91669100Y-89897899D01*
X91686054Y-89842009D01*
X91734718Y-89769179D01*
X91792197Y-89630413D01*
X91821500Y-89483100D01*
X91821500Y-85268900D01*
X91792197Y-85121587D01*
X91734718Y-84982821D01*
X91734715Y-84982816D01*
X91686054Y-84909989D01*
X91669100Y-84854099D01*
X91669100Y-83110294D01*
X95761500Y-83110294D01*
X95761500Y-83259705D01*
X95790649Y-83406248D01*
X95847824Y-83544280D01*
X95847828Y-83544288D01*
X95909849Y-83637110D01*
X95926725Y-83696950D01*
X95909849Y-83748890D01*
X95847828Y-83841711D01*
X95847824Y-83841719D01*
X95790649Y-83979751D01*
X95771385Y-84076600D01*
X95761500Y-84126294D01*
X95761500Y-84275706D01*
X95765458Y-84295603D01*
X95790649Y-84422248D01*
X95847824Y-84560280D01*
X95847828Y-84560288D01*
X95930833Y-84684514D01*
X96018403Y-84772084D01*
X96046629Y-84827482D01*
X96044144Y-84863614D01*
X96045613Y-84863907D01*
X96015500Y-85015294D01*
X96015500Y-85164705D01*
X96044649Y-85311248D01*
X96101824Y-85449280D01*
X96101828Y-85449288D01*
X96184833Y-85573514D01*
X96290485Y-85679166D01*
X96414711Y-85762171D01*
X96414713Y-85762172D01*
X96414716Y-85762174D01*
X96483735Y-85790762D01*
X96552751Y-85819350D01*
X96552752Y-85819350D01*
X96552754Y-85819351D01*
X96699294Y-85848500D01*
X96699295Y-85848500D01*
X96848705Y-85848500D01*
X96848706Y-85848500D01*
X96995246Y-85819351D01*
X97133284Y-85762174D01*
X97226110Y-85700150D01*
X97285949Y-85683274D01*
X97337890Y-85700150D01*
X97430711Y-85762171D01*
X97430713Y-85762172D01*
X97430716Y-85762174D01*
X97499735Y-85790762D01*
X97568751Y-85819350D01*
X97568752Y-85819350D01*
X97568754Y-85819351D01*
X97715294Y-85848500D01*
X97715295Y-85848500D01*
X97864705Y-85848500D01*
X97864706Y-85848500D01*
X98011246Y-85819351D01*
X98149284Y-85762174D01*
X98242110Y-85700150D01*
X98301949Y-85683274D01*
X98353890Y-85700150D01*
X98446711Y-85762171D01*
X98446713Y-85762172D01*
X98446716Y-85762174D01*
X98515735Y-85790762D01*
X98584751Y-85819350D01*
X98584752Y-85819350D01*
X98584754Y-85819351D01*
X98731294Y-85848500D01*
X98731295Y-85848500D01*
X98880705Y-85848500D01*
X98880706Y-85848500D01*
X99027246Y-85819351D01*
X99165284Y-85762174D01*
X99289516Y-85679165D01*
X99395165Y-85573516D01*
X99478174Y-85449284D01*
X99535351Y-85311246D01*
X99564500Y-85164706D01*
X99564500Y-85015294D01*
X99535351Y-84868754D01*
X99534387Y-84863906D01*
X99536636Y-84863458D01*
X99537689Y-84810246D01*
X99561595Y-84772085D01*
X99649165Y-84684516D01*
X99732174Y-84560284D01*
X99789351Y-84422246D01*
X99818500Y-84275706D01*
X99818500Y-84126294D01*
X99789351Y-83979754D01*
X99771445Y-83936526D01*
X99732175Y-83841719D01*
X99732174Y-83841716D01*
X99705746Y-83802164D01*
X99670150Y-83748890D01*
X99653274Y-83689051D01*
X99670150Y-83637110D01*
X99702984Y-83587970D01*
X99732174Y-83544284D01*
X99789351Y-83406246D01*
X99818500Y-83259706D01*
X99818500Y-83110294D01*
X99789351Y-82963754D01*
X99784117Y-82951119D01*
X99735037Y-82832629D01*
X99732174Y-82825716D01*
X99703948Y-82783473D01*
X99649166Y-82701485D01*
X99543514Y-82595833D01*
X99419288Y-82512828D01*
X99419280Y-82512824D01*
X99281248Y-82455649D01*
X99183552Y-82436216D01*
X99134706Y-82426500D01*
X98985294Y-82426500D01*
X98948659Y-82433787D01*
X98838751Y-82455649D01*
X98700719Y-82512824D01*
X98700711Y-82512828D01*
X98576485Y-82595833D01*
X98576484Y-82595835D01*
X98470835Y-82701484D01*
X98470833Y-82701485D01*
X98387828Y-82825711D01*
X98387824Y-82825719D01*
X98330649Y-82963751D01*
X98301500Y-83110294D01*
X98301500Y-83259705D01*
X98330649Y-83406248D01*
X98387824Y-83544280D01*
X98387828Y-83544288D01*
X98449849Y-83637110D01*
X98466725Y-83696950D01*
X98449849Y-83748890D01*
X98387828Y-83841711D01*
X98387824Y-83841719D01*
X98330649Y-83979751D01*
X98311385Y-84076600D01*
X98301500Y-84126294D01*
X98301500Y-84275706D01*
X98305458Y-84295603D01*
X98310053Y-84318704D01*
X98302745Y-84380447D01*
X98260541Y-84426103D01*
X98199562Y-84438233D01*
X98155497Y-84421977D01*
X98149286Y-84417827D01*
X98149280Y-84417824D01*
X98011248Y-84360649D01*
X97913552Y-84341216D01*
X97864706Y-84331500D01*
X97715294Y-84331500D01*
X97678659Y-84338787D01*
X97568751Y-84360649D01*
X97430719Y-84417824D01*
X97430713Y-84417827D01*
X97424503Y-84421977D01*
X97364663Y-84438852D01*
X97306332Y-84417332D01*
X97271791Y-84365635D01*
X97269947Y-84318704D01*
X97274542Y-84295603D01*
X97278500Y-84275706D01*
X97278500Y-84126294D01*
X97249351Y-83979754D01*
X97231445Y-83936526D01*
X97192175Y-83841719D01*
X97192174Y-83841716D01*
X97165746Y-83802164D01*
X97130150Y-83748890D01*
X97113274Y-83689051D01*
X97130150Y-83637110D01*
X97162984Y-83587970D01*
X97192174Y-83544284D01*
X97249351Y-83406246D01*
X97278500Y-83259706D01*
X97278500Y-83110294D01*
X97249351Y-82963754D01*
X97244117Y-82951119D01*
X97195037Y-82832629D01*
X97192174Y-82825716D01*
X97163948Y-82783473D01*
X97109166Y-82701485D01*
X97003514Y-82595833D01*
X96879288Y-82512828D01*
X96879280Y-82512824D01*
X96741248Y-82455649D01*
X96643552Y-82436216D01*
X96594706Y-82426500D01*
X96445294Y-82426500D01*
X96408659Y-82433787D01*
X96298751Y-82455649D01*
X96160719Y-82512824D01*
X96160711Y-82512828D01*
X96036485Y-82595833D01*
X96036484Y-82595835D01*
X95930835Y-82701484D01*
X95930833Y-82701485D01*
X95847828Y-82825711D01*
X95847824Y-82825719D01*
X95790649Y-82963751D01*
X95761500Y-83110294D01*
X91669100Y-83110294D01*
X91669100Y-80998910D01*
X91663619Y-80971355D01*
X91663619Y-80971354D01*
X91645655Y-80881040D01*
X91608021Y-80790185D01*
X91601552Y-80774570D01*
X91600217Y-80770837D01*
X91532897Y-80670085D01*
X86452337Y-75589525D01*
X86424111Y-75534127D01*
X86427795Y-75487305D01*
X86471356Y-75353241D01*
X86508500Y-75118722D01*
X86508500Y-74881278D01*
X86471356Y-74646759D01*
X86397982Y-74420937D01*
X86397981Y-74420936D01*
X86397981Y-74420934D01*
X86397980Y-74420932D01*
X86290192Y-74209385D01*
X86290188Y-74209379D01*
X86290185Y-74209373D01*
X86150620Y-74017278D01*
X85982722Y-73849380D01*
X85982720Y-73849378D01*
X85886674Y-73779597D01*
X85790627Y-73709815D01*
X85790622Y-73709812D01*
X85790614Y-73709807D01*
X85579067Y-73602019D01*
X85579065Y-73602018D01*
X85353250Y-73528646D01*
X85353234Y-73528642D01*
X85118728Y-73491500D01*
X85118722Y-73491500D01*
X84881278Y-73491500D01*
X84881271Y-73491500D01*
X84646765Y-73528642D01*
X84646749Y-73528646D01*
X84420934Y-73602018D01*
X84420932Y-73602019D01*
X84209385Y-73709807D01*
X84209370Y-73709817D01*
X84017279Y-73849378D01*
X83849378Y-74017279D01*
X83709817Y-74209370D01*
X83709807Y-74209385D01*
X83602019Y-74420932D01*
X83602018Y-74420934D01*
X83528646Y-74646749D01*
X83528642Y-74646765D01*
X83491500Y-74881271D01*
X80500500Y-74881271D01*
X80500500Y-70881271D01*
X83491500Y-70881271D01*
X83491500Y-71118728D01*
X83528642Y-71353234D01*
X83528646Y-71353250D01*
X83602018Y-71579065D01*
X83602019Y-71579067D01*
X83709807Y-71790614D01*
X83709812Y-71790622D01*
X83709815Y-71790627D01*
X83755302Y-71853234D01*
X83849378Y-71982720D01*
X83849380Y-71982722D01*
X84017278Y-72150620D01*
X84209373Y-72290185D01*
X84209379Y-72290188D01*
X84209385Y-72290192D01*
X84420932Y-72397980D01*
X84420934Y-72397981D01*
X84646749Y-72471353D01*
X84646752Y-72471353D01*
X84646759Y-72471356D01*
X84646764Y-72471356D01*
X84646765Y-72471357D01*
X84881271Y-72508499D01*
X84881276Y-72508500D01*
X84881278Y-72508500D01*
X85118724Y-72508500D01*
X85118728Y-72508499D01*
X85353241Y-72471356D01*
X85579063Y-72397982D01*
X85579067Y-72397980D01*
X85790614Y-72290192D01*
X85790616Y-72290190D01*
X85790627Y-72290185D01*
X85982722Y-72150620D01*
X86150620Y-71982722D01*
X86290185Y-71790627D01*
X86311236Y-71749313D01*
X86397980Y-71579067D01*
X86397981Y-71579065D01*
X86462249Y-71381271D01*
X86471356Y-71353241D01*
X86508500Y-71118722D01*
X86508500Y-70881278D01*
X86471356Y-70646759D01*
X86397982Y-70420937D01*
X86397981Y-70420936D01*
X86397981Y-70420934D01*
X86397980Y-70420932D01*
X86290192Y-70209385D01*
X86290188Y-70209379D01*
X86290185Y-70209373D01*
X86185511Y-70065301D01*
X86150621Y-70017279D01*
X85982721Y-69849379D01*
X85979193Y-69846816D01*
X85979192Y-69846815D01*
X85873974Y-69770370D01*
X93552500Y-69770370D01*
X93552500Y-69929629D01*
X93583569Y-70085829D01*
X93644515Y-70232964D01*
X93644519Y-70232972D01*
X93680101Y-70286224D01*
X93732997Y-70365389D01*
X93845611Y-70478003D01*
X93928437Y-70533345D01*
X93978027Y-70566480D01*
X93978029Y-70566481D01*
X93978032Y-70566483D01*
X94125169Y-70627430D01*
X94281370Y-70658500D01*
X94281371Y-70658500D01*
X94440629Y-70658500D01*
X94440630Y-70658500D01*
X94596831Y-70627430D01*
X94743968Y-70566483D01*
X94876389Y-70478003D01*
X94924865Y-70429527D01*
X94980263Y-70401301D01*
X95041671Y-70411027D01*
X95067135Y-70429527D01*
X95115611Y-70478003D01*
X95198437Y-70533345D01*
X95248027Y-70566480D01*
X95248029Y-70566481D01*
X95248032Y-70566483D01*
X95395169Y-70627430D01*
X95551370Y-70658500D01*
X95551371Y-70658500D01*
X95710629Y-70658500D01*
X95710630Y-70658500D01*
X95866831Y-70627430D01*
X96013968Y-70566483D01*
X96146389Y-70478003D01*
X96259003Y-70365389D01*
X96347483Y-70232968D01*
X96408430Y-70085831D01*
X96439500Y-69929630D01*
X96439500Y-69770370D01*
X96408430Y-69614169D01*
X96347483Y-69467032D01*
X96259003Y-69334611D01*
X96146389Y-69221997D01*
X96102647Y-69192770D01*
X96013972Y-69133519D01*
X96013964Y-69133515D01*
X95963478Y-69112603D01*
X95866831Y-69072570D01*
X95866827Y-69072569D01*
X95866830Y-69072569D01*
X95741699Y-69047679D01*
X95710630Y-69041500D01*
X95551370Y-69041500D01*
X95520301Y-69047679D01*
X95395170Y-69072569D01*
X95248035Y-69133515D01*
X95248027Y-69133519D01*
X95141878Y-69204445D01*
X95115611Y-69221997D01*
X95115610Y-69221998D01*
X95115609Y-69221998D01*
X95067135Y-69270473D01*
X95011737Y-69298699D01*
X94950329Y-69288973D01*
X94924865Y-69270473D01*
X94876390Y-69221998D01*
X94868618Y-69216805D01*
X94832647Y-69192770D01*
X94743972Y-69133519D01*
X94743964Y-69133515D01*
X94693478Y-69112603D01*
X94596831Y-69072570D01*
X94596827Y-69072569D01*
X94596830Y-69072569D01*
X94471699Y-69047679D01*
X94440630Y-69041500D01*
X94281370Y-69041500D01*
X94250301Y-69047679D01*
X94125170Y-69072569D01*
X93978035Y-69133515D01*
X93978027Y-69133519D01*
X93871878Y-69204445D01*
X93845611Y-69221997D01*
X93845610Y-69221998D01*
X93845609Y-69221998D01*
X93732998Y-69334609D01*
X93732998Y-69334610D01*
X93644519Y-69467027D01*
X93644515Y-69467035D01*
X93583569Y-69614170D01*
X93552500Y-69770370D01*
X85873974Y-69770370D01*
X85790627Y-69709815D01*
X85790622Y-69709812D01*
X85790614Y-69709807D01*
X85579067Y-69602019D01*
X85579065Y-69602018D01*
X85353250Y-69528646D01*
X85353234Y-69528642D01*
X85118728Y-69491500D01*
X85118722Y-69491500D01*
X84881278Y-69491500D01*
X84881271Y-69491500D01*
X84646765Y-69528642D01*
X84646749Y-69528646D01*
X84420934Y-69602018D01*
X84420932Y-69602019D01*
X84209385Y-69709807D01*
X84209370Y-69709817D01*
X84017279Y-69849378D01*
X83849378Y-70017279D01*
X83709817Y-70209370D01*
X83709807Y-70209385D01*
X83602019Y-70420932D01*
X83602018Y-70420934D01*
X83528646Y-70646749D01*
X83528642Y-70646765D01*
X83491500Y-70881271D01*
X80500500Y-70881271D01*
X80500500Y-66881940D01*
X83500000Y-66881940D01*
X83500000Y-67118059D01*
X83536933Y-67351244D01*
X83536937Y-67351260D01*
X83609896Y-67575802D01*
X83609897Y-67575804D01*
X83717082Y-67786167D01*
X83717086Y-67786173D01*
X83777339Y-67869105D01*
X83777340Y-67869105D01*
X84517037Y-67129408D01*
X84534075Y-67192993D01*
X84599901Y-67307007D01*
X84692993Y-67400099D01*
X84807007Y-67465925D01*
X84870590Y-67482962D01*
X84130893Y-68222658D01*
X84130893Y-68222659D01*
X84213826Y-68282913D01*
X84213832Y-68282917D01*
X84424195Y-68390102D01*
X84424197Y-68390103D01*
X84648739Y-68463062D01*
X84648755Y-68463066D01*
X84881940Y-68499999D01*
X84881945Y-68500000D01*
X85118055Y-68500000D01*
X85118059Y-68499999D01*
X85351244Y-68463066D01*
X85351260Y-68463062D01*
X85575802Y-68390103D01*
X85575804Y-68390102D01*
X85786167Y-68282917D01*
X85786171Y-68282915D01*
X85869105Y-68222659D01*
X85869105Y-68222658D01*
X85129409Y-67482962D01*
X85192993Y-67465925D01*
X85307007Y-67400099D01*
X85400099Y-67307007D01*
X85465925Y-67192993D01*
X85482962Y-67129409D01*
X86222658Y-67869105D01*
X86222659Y-67869105D01*
X86282915Y-67786171D01*
X86282917Y-67786167D01*
X86390102Y-67575804D01*
X86390103Y-67575802D01*
X86463062Y-67351260D01*
X86463066Y-67351244D01*
X86499999Y-67118059D01*
X86500000Y-67118055D01*
X86500000Y-66881945D01*
X86499999Y-66881940D01*
X86463066Y-66648755D01*
X86463062Y-66648739D01*
X86390103Y-66424197D01*
X86390102Y-66424195D01*
X86282917Y-66213832D01*
X86282913Y-66213826D01*
X86222659Y-66130893D01*
X86222658Y-66130893D01*
X85482962Y-66870589D01*
X85465925Y-66807007D01*
X85400099Y-66692993D01*
X85307007Y-66599901D01*
X85192993Y-66534075D01*
X85129408Y-66517037D01*
X85743652Y-65902794D01*
X85869105Y-65777340D01*
X85869105Y-65777339D01*
X85786173Y-65717086D01*
X85786167Y-65717082D01*
X85575804Y-65609897D01*
X85575802Y-65609896D01*
X85351260Y-65536937D01*
X85351244Y-65536933D01*
X85118059Y-65500000D01*
X84881940Y-65500000D01*
X84648755Y-65536933D01*
X84648739Y-65536937D01*
X84424197Y-65609896D01*
X84424195Y-65609897D01*
X84213832Y-65717082D01*
X84213828Y-65717085D01*
X84130893Y-65777339D01*
X84130893Y-65777340D01*
X84870590Y-66517037D01*
X84807007Y-66534075D01*
X84692993Y-66599901D01*
X84599901Y-66692993D01*
X84534075Y-66807007D01*
X84517037Y-66870590D01*
X83777340Y-66130893D01*
X83777339Y-66130893D01*
X83717085Y-66213828D01*
X83717082Y-66213832D01*
X83609897Y-66424195D01*
X83609896Y-66424197D01*
X83536937Y-66648739D01*
X83536933Y-66648755D01*
X83500000Y-66881940D01*
X80500500Y-66881940D01*
X80500500Y-64790748D01*
X104949000Y-64790748D01*
X104949000Y-65003251D01*
X104982241Y-65213121D01*
X104982244Y-65213135D01*
X105047905Y-65415220D01*
X105144375Y-65604551D01*
X105183729Y-65658716D01*
X105775202Y-65067243D01*
X105786470Y-65109297D01*
X105858881Y-65234715D01*
X105961285Y-65337119D01*
X106086703Y-65409530D01*
X106128755Y-65420797D01*
X105537282Y-66012270D01*
X105591448Y-66051624D01*
X105591453Y-66051627D01*
X105780779Y-66148094D01*
X105982864Y-66213755D01*
X105982878Y-66213758D01*
X106192748Y-66246999D01*
X106192750Y-66247000D01*
X106405250Y-66247000D01*
X106405251Y-66246999D01*
X106615121Y-66213758D01*
X106615135Y-66213755D01*
X106817220Y-66148094D01*
X107006553Y-66051623D01*
X107060717Y-66012270D01*
X106469244Y-65420797D01*
X106511297Y-65409530D01*
X106636715Y-65337119D01*
X106739119Y-65234715D01*
X106811530Y-65109297D01*
X106822797Y-65067244D01*
X107414270Y-65658717D01*
X107453623Y-65604553D01*
X107474593Y-65563397D01*
X107518556Y-65519433D01*
X107579964Y-65509705D01*
X107635363Y-65537931D01*
X107653864Y-65563395D01*
X107677101Y-65609000D01*
X107677106Y-65609009D01*
X107713220Y-65658716D01*
X107802792Y-65782002D01*
X107953997Y-65933207D01*
X108060431Y-66010535D01*
X108096976Y-66060834D01*
X108101900Y-66091922D01*
X108101900Y-68894089D01*
X108125344Y-69011957D01*
X108150451Y-69072571D01*
X108171334Y-69122987D01*
X108171338Y-69122995D01*
X108234020Y-69216805D01*
X108238101Y-69222912D01*
X108238104Y-69222916D01*
X110524104Y-71508916D01*
X110609084Y-71593896D01*
X110709009Y-71660664D01*
X110718535Y-71664610D01*
X110741530Y-71674135D01*
X110774050Y-71687604D01*
X110820040Y-71706655D01*
X110937910Y-71730100D01*
X111058090Y-71730100D01*
X111592618Y-71730100D01*
X111651749Y-71749313D01*
X111663753Y-71759565D01*
X112517435Y-72613247D01*
X112545661Y-72668645D01*
X112546900Y-72684382D01*
X112546900Y-81848089D01*
X112570344Y-81965957D01*
X112594842Y-82025099D01*
X112602500Y-82063598D01*
X112602500Y-82121629D01*
X112633569Y-82277829D01*
X112694515Y-82424964D01*
X112694519Y-82424972D01*
X112715017Y-82455649D01*
X112782997Y-82557389D01*
X112895611Y-82670003D01*
X112942728Y-82701485D01*
X113028027Y-82758480D01*
X113028029Y-82758481D01*
X113028032Y-82758483D01*
X113175169Y-82819430D01*
X113331370Y-82850500D01*
X113331371Y-82850500D01*
X113490629Y-82850500D01*
X113490630Y-82850500D01*
X113646831Y-82819430D01*
X113793968Y-82758483D01*
X113926389Y-82670003D01*
X114039003Y-82557389D01*
X114127483Y-82424968D01*
X114188430Y-82277831D01*
X114219500Y-82121630D01*
X114219500Y-81962370D01*
X114188430Y-81806169D01*
X114127483Y-81659032D01*
X114039003Y-81526611D01*
X113926389Y-81413997D01*
X113811809Y-81337437D01*
X113773318Y-81288613D01*
X113767100Y-81253793D01*
X113767100Y-79776100D01*
X113786313Y-79716969D01*
X113836613Y-79680424D01*
X113867700Y-79675500D01*
X113998629Y-79675500D01*
X113998630Y-79675500D01*
X114154831Y-79644430D01*
X114301968Y-79583483D01*
X114434389Y-79495003D01*
X114547003Y-79382389D01*
X114635483Y-79249968D01*
X114696430Y-79102831D01*
X114727500Y-78946630D01*
X114727500Y-78787370D01*
X114696430Y-78631169D01*
X114635483Y-78484032D01*
X114547003Y-78351611D01*
X114434389Y-78238997D01*
X114390647Y-78209770D01*
X114301972Y-78150519D01*
X114301964Y-78150515D01*
X114251478Y-78129603D01*
X114154831Y-78089570D01*
X114154827Y-78089569D01*
X114154830Y-78089569D01*
X114029699Y-78064679D01*
X113998630Y-78058500D01*
X113867700Y-78058500D01*
X113808569Y-78039287D01*
X113772024Y-77988987D01*
X113767100Y-77957900D01*
X113767100Y-72329910D01*
X113760189Y-72295169D01*
X113759198Y-72290185D01*
X113743655Y-72212040D01*
X113711134Y-72133529D01*
X113697664Y-72101009D01*
X113630896Y-72001084D01*
X113545916Y-71916104D01*
X112275916Y-70646104D01*
X112247968Y-70627430D01*
X112175991Y-70579336D01*
X112143470Y-70565865D01*
X112108513Y-70551385D01*
X112064959Y-70533344D01*
X111947090Y-70509900D01*
X111292382Y-70509900D01*
X111233251Y-70490687D01*
X111221247Y-70480435D01*
X109351565Y-68610753D01*
X109323339Y-68555355D01*
X109322100Y-68539618D01*
X109322100Y-66595370D01*
X115904500Y-66595370D01*
X115904500Y-66754629D01*
X115935569Y-66910829D01*
X115996515Y-67057964D01*
X115996519Y-67057972D01*
X116001767Y-67065826D01*
X116084997Y-67190389D01*
X116197611Y-67303003D01*
X116273265Y-67353553D01*
X116330027Y-67391480D01*
X116330029Y-67391481D01*
X116330032Y-67391483D01*
X116477169Y-67452430D01*
X116633370Y-67483500D01*
X116633371Y-67483500D01*
X116792629Y-67483500D01*
X116792630Y-67483500D01*
X116948831Y-67452430D01*
X117095968Y-67391483D01*
X117228389Y-67303003D01*
X117341003Y-67190389D01*
X117429483Y-67057968D01*
X117490430Y-66910831D01*
X117521500Y-66754630D01*
X117521500Y-66595370D01*
X117496238Y-66468370D01*
X120984500Y-66468370D01*
X120984500Y-66627629D01*
X121015569Y-66783829D01*
X121076515Y-66930964D01*
X121076519Y-66930972D01*
X121078659Y-66934174D01*
X121164997Y-67063389D01*
X121277611Y-67176003D01*
X121303039Y-67192993D01*
X121410027Y-67264480D01*
X121410029Y-67264481D01*
X121410032Y-67264483D01*
X121557169Y-67325430D01*
X121713370Y-67356500D01*
X121713371Y-67356500D01*
X121872629Y-67356500D01*
X121872630Y-67356500D01*
X122028831Y-67325430D01*
X122175968Y-67264483D01*
X122308389Y-67176003D01*
X122421003Y-67063389D01*
X122509483Y-66930968D01*
X122570430Y-66783831D01*
X122601500Y-66627630D01*
X122601500Y-66468370D01*
X122570430Y-66312169D01*
X122509483Y-66165032D01*
X122503429Y-66155972D01*
X122486672Y-66130893D01*
X122421003Y-66032611D01*
X122308389Y-65919997D01*
X122264647Y-65890770D01*
X122175972Y-65831519D01*
X122175964Y-65831515D01*
X122101860Y-65800820D01*
X122028831Y-65770570D01*
X122028827Y-65770569D01*
X122028830Y-65770569D01*
X121903699Y-65745679D01*
X121872630Y-65739500D01*
X121713370Y-65739500D01*
X121682301Y-65745679D01*
X121557170Y-65770569D01*
X121410035Y-65831515D01*
X121410027Y-65831519D01*
X121311177Y-65897569D01*
X121277611Y-65919997D01*
X121277610Y-65919998D01*
X121277609Y-65919998D01*
X121164998Y-66032609D01*
X121164998Y-66032610D01*
X121076519Y-66165027D01*
X121076515Y-66165035D01*
X121015569Y-66312170D01*
X120984500Y-66468370D01*
X117496238Y-66468370D01*
X117490430Y-66439169D01*
X117429483Y-66292032D01*
X117341003Y-66159611D01*
X117228389Y-66046997D01*
X117173819Y-66010535D01*
X117095972Y-65958519D01*
X117095964Y-65958515D01*
X117002976Y-65919998D01*
X116948831Y-65897570D01*
X116948827Y-65897569D01*
X116948830Y-65897569D01*
X116823699Y-65872679D01*
X116792630Y-65866500D01*
X116633370Y-65866500D01*
X116602301Y-65872679D01*
X116477170Y-65897569D01*
X116330035Y-65958515D01*
X116330027Y-65958519D01*
X116249584Y-66012270D01*
X116197611Y-66046997D01*
X116197610Y-66046998D01*
X116197609Y-66046998D01*
X116084998Y-66159609D01*
X116084998Y-66159610D01*
X115996519Y-66292027D01*
X115996515Y-66292035D01*
X115935569Y-66439170D01*
X115904500Y-66595370D01*
X109322100Y-66595370D01*
X109322100Y-66237177D01*
X109341313Y-66178046D01*
X109377028Y-66147542D01*
X109450190Y-66110264D01*
X109551009Y-66058894D01*
X109724004Y-65933206D01*
X109875206Y-65782004D01*
X110000894Y-65609009D01*
X110019365Y-65572756D01*
X110063328Y-65528794D01*
X110124737Y-65519067D01*
X110180134Y-65547294D01*
X110198633Y-65572754D01*
X110210447Y-65595940D01*
X110214835Y-65604553D01*
X110217106Y-65609009D01*
X110253220Y-65658716D01*
X110342792Y-65782002D01*
X110342794Y-65782004D01*
X110493996Y-65933206D01*
X110666991Y-66058894D01*
X110691787Y-66071528D01*
X110857516Y-66155972D01*
X111060874Y-66222046D01*
X111060876Y-66222046D01*
X111060884Y-66222049D01*
X111272080Y-66255499D01*
X111272082Y-66255500D01*
X111272084Y-66255500D01*
X111485918Y-66255500D01*
X111485918Y-66255499D01*
X111697116Y-66222049D01*
X111900483Y-66155972D01*
X112091009Y-66058894D01*
X112264004Y-65933206D01*
X112396391Y-65800818D01*
X112451786Y-65772594D01*
X112513195Y-65782320D01*
X112557159Y-65826283D01*
X112564331Y-65850363D01*
X112565563Y-65850073D01*
X112567011Y-65856202D01*
X112618109Y-65993202D01*
X112618111Y-65993206D01*
X112705735Y-66110257D01*
X112705742Y-66110264D01*
X112822793Y-66197888D01*
X112822797Y-66197890D01*
X112865540Y-66213832D01*
X112959799Y-66248989D01*
X113020362Y-66255500D01*
X114817638Y-66255500D01*
X114878201Y-66248989D01*
X114975700Y-66212623D01*
X115015202Y-66197890D01*
X115015206Y-66197888D01*
X115132257Y-66110264D01*
X115132257Y-66110263D01*
X115132261Y-66110261D01*
X115132264Y-66110257D01*
X115219888Y-65993206D01*
X115219890Y-65993202D01*
X115242267Y-65933206D01*
X115270989Y-65856201D01*
X115277500Y-65795638D01*
X115277500Y-63998362D01*
X115270989Y-63937799D01*
X115256254Y-63898295D01*
X115219890Y-63800797D01*
X115219888Y-63800793D01*
X115132264Y-63683742D01*
X115132257Y-63683735D01*
X115015206Y-63596111D01*
X115015202Y-63596109D01*
X114878201Y-63545011D01*
X114817638Y-63538500D01*
X113020362Y-63538500D01*
X112959799Y-63545011D01*
X112959797Y-63545011D01*
X112822797Y-63596109D01*
X112822793Y-63596111D01*
X112705742Y-63683735D01*
X112705735Y-63683742D01*
X112618111Y-63800793D01*
X112618109Y-63800797D01*
X112567011Y-63937797D01*
X112565563Y-63943927D01*
X112562862Y-63943288D01*
X112542073Y-63989593D01*
X112488131Y-64020511D01*
X112426318Y-64013818D01*
X112396389Y-63993179D01*
X112264002Y-63860792D01*
X112155179Y-63781728D01*
X112091009Y-63735106D01*
X112091003Y-63735103D01*
X112091000Y-63735101D01*
X111900483Y-63638027D01*
X111697125Y-63571953D01*
X111697111Y-63571950D01*
X111485920Y-63538500D01*
X111485916Y-63538500D01*
X111272084Y-63538500D01*
X111272079Y-63538500D01*
X111060888Y-63571950D01*
X111060874Y-63571953D01*
X110857516Y-63638027D01*
X110666999Y-63735101D01*
X110666988Y-63735108D01*
X110493997Y-63860792D01*
X110342792Y-64011997D01*
X110217108Y-64184988D01*
X110217101Y-64184999D01*
X110198635Y-64221242D01*
X110154671Y-64265205D01*
X110093262Y-64274931D01*
X110037865Y-64246705D01*
X110019365Y-64221242D01*
X110000898Y-64184999D01*
X110000894Y-64184991D01*
X109906628Y-64055244D01*
X109875207Y-64011997D01*
X109724002Y-63860792D01*
X109615179Y-63781728D01*
X109551009Y-63735106D01*
X109551003Y-63735103D01*
X109551000Y-63735101D01*
X109360483Y-63638027D01*
X109157125Y-63571953D01*
X109157111Y-63571950D01*
X108945920Y-63538500D01*
X108945916Y-63538500D01*
X108732084Y-63538500D01*
X108732079Y-63538500D01*
X108520888Y-63571950D01*
X108520874Y-63571953D01*
X108317516Y-63638027D01*
X108126999Y-63735101D01*
X108126988Y-63735108D01*
X107953997Y-63860792D01*
X107802792Y-64011997D01*
X107677108Y-64184988D01*
X107677104Y-64184994D01*
X107653864Y-64230605D01*
X107609899Y-64274568D01*
X107548490Y-64284293D01*
X107493093Y-64256066D01*
X107474593Y-64230602D01*
X107453626Y-64189452D01*
X107453624Y-64189448D01*
X107414269Y-64135282D01*
X106822797Y-64726754D01*
X106811530Y-64684703D01*
X106739119Y-64559285D01*
X106636715Y-64456881D01*
X106511297Y-64384470D01*
X106469243Y-64373201D01*
X107060716Y-63781729D01*
X107006551Y-63742375D01*
X106817220Y-63645905D01*
X106615135Y-63580244D01*
X106615121Y-63580241D01*
X106405251Y-63547000D01*
X106192749Y-63547000D01*
X105982878Y-63580241D01*
X105982864Y-63580244D01*
X105780779Y-63645905D01*
X105591444Y-63742377D01*
X105591443Y-63742378D01*
X105537282Y-63781728D01*
X106128755Y-64373202D01*
X106086703Y-64384470D01*
X105961285Y-64456881D01*
X105858881Y-64559285D01*
X105786470Y-64684703D01*
X105775202Y-64726755D01*
X105183728Y-64135282D01*
X105144378Y-64189443D01*
X105144377Y-64189444D01*
X105047905Y-64378779D01*
X104982244Y-64580864D01*
X104982241Y-64580878D01*
X104949000Y-64790748D01*
X80500500Y-64790748D01*
X80500500Y-59881777D01*
X83196300Y-59881777D01*
X83196300Y-60118222D01*
X83227161Y-60352633D01*
X83227162Y-60352641D01*
X83288357Y-60581024D01*
X83288358Y-60581026D01*
X83378840Y-60799470D01*
X83497057Y-61004228D01*
X83497059Y-61004231D01*
X83497060Y-61004232D01*
X83640997Y-61191814D01*
X83808186Y-61359003D01*
X83995768Y-61502940D01*
X83995771Y-61502942D01*
X84200529Y-61621159D01*
X84418973Y-61711641D01*
X84418975Y-61711642D01*
X84550833Y-61746973D01*
X84647361Y-61772838D01*
X84842709Y-61798556D01*
X84881778Y-61803700D01*
X84881779Y-61803700D01*
X85118222Y-61803700D01*
X85151709Y-61799291D01*
X85352639Y-61772838D01*
X85581024Y-61711642D01*
X85799468Y-61621160D01*
X86004232Y-61502940D01*
X86191814Y-61359003D01*
X86359003Y-61191814D01*
X86502940Y-61004232D01*
X86621160Y-60799468D01*
X86711642Y-60581024D01*
X86772838Y-60352639D01*
X86803700Y-60118221D01*
X86803700Y-59881779D01*
X86772838Y-59647361D01*
X86711642Y-59418976D01*
X86621160Y-59200532D01*
X86621159Y-59200529D01*
X86502942Y-58995771D01*
X86502940Y-58995768D01*
X86359003Y-58808186D01*
X86191814Y-58640997D01*
X86004232Y-58497060D01*
X86004231Y-58497059D01*
X86004228Y-58497057D01*
X85799470Y-58378840D01*
X85581026Y-58288358D01*
X85581024Y-58288357D01*
X85352641Y-58227162D01*
X85352633Y-58227161D01*
X85118222Y-58196300D01*
X85118221Y-58196300D01*
X84881779Y-58196300D01*
X84881778Y-58196300D01*
X84647366Y-58227161D01*
X84647358Y-58227162D01*
X84418975Y-58288357D01*
X84418973Y-58288358D01*
X84200529Y-58378840D01*
X83995771Y-58497057D01*
X83808182Y-58641000D01*
X83641000Y-58808182D01*
X83497057Y-58995771D01*
X83378840Y-59200529D01*
X83288358Y-59418973D01*
X83288357Y-59418975D01*
X83227162Y-59647358D01*
X83227161Y-59647366D01*
X83196300Y-59881777D01*
X80500500Y-59881777D01*
X80500500Y-55601100D01*
X80519713Y-55541969D01*
X80570013Y-55505424D01*
X80601100Y-55500500D01*
X126737400Y-55500500D01*
X126796531Y-55519713D01*
G37*
%TD.AperFunction*%
%TD*%
M02*
